<?xml version="1.0" encoding="utf-8"?>
<!-- Generator: Adobe Illustrator 16.0.0, SVG Export Plug-In . SVG Version: 6.00 Build 0)  -->
<!DOCTYPE svg PUBLIC "-//W3C//DTD SVG 1.1//EN" "http://www.w3.org/Graphics/SVG/1.1/DTD/svg11.dtd">
<svg version="1.1" id="Layer_1" xmlns="http://www.w3.org/2000/svg" xmlns:xlink="http://www.w3.org/1999/xlink" x="0px" y="0px"
	 width="61.563px" height="71.631px" viewBox="0 0 61.563 71.631" enable-background="new 0 0 61.563 71.631" xml:space="preserve">
<g>
	<path fill="#FFFFFF" d="M54.023,37.711c-0.018-0.008-0.033-0.014-0.051-0.021c-0.014-0.008-0.482-0.018-0.496-0.027l-6.701-3.395
		V12.562c4,0.547,6.93,2.302,8.795,4.963c0.582,0.831,1.737,1.276,2.681,1.276c0.594,0,1.308-0.177,1.831-0.544
		c1.354-0.947,1.283-2.815,0.334-4.169c-2.973-4.241-8.641-6.95-13.641-7.563V3.421c0-1.653-1.346-2.993-3-2.993
		c-1.652,0-3,1.34-3,2.993v3.297c-9,1.582-14.389,9.219-13.188,17.275c0.604,4.062,3.269,7.71,6.914,10.031
		c0.01,0.006,0.136,0.014,0.146,0.02c0.029,0.018,0.113,0.039,0.143,0.057c0.041,0.025,0.113,0.051,0.156,0.074
		c0.01,0.006,0.034,0.122,0.044,0.128l0.044,0.126c0.002,0,0.023,0,0.023,0l5.719,3.4v21.963c-3-0.615-5.861-2.324-7.766-4.867
		c-0.992-1.322-2.638-1.592-3.961-0.602c-1.322,0.992-1.937,2.869-0.946,4.191c3.069,4.098,7.673,6.688,12.673,7.354v2.77
		c0,1.654,1.348,2.994,3,2.994c1.654,0,3-1.34,3-2.994v-2.844c9-1.359,15.871-9.146,14.646-17.371
		C60.744,43.885,58.335,39.981,54.023,37.711z M37.505,28.987c-2.223-1.407-3.872-3.491-4.228-5.877
		c-0.678-4.539,2.497-8.892,7.497-10.263v18.167L37.505,28.987z M46.775,59.704V41.083l3.842,1.842
		c0.037,0.02,0.302,0.037,0.339,0.055c0.02,0.012,0.149,0.023,0.169,0.033c2.605,1.369,3.926,3.664,4.318,6.295
		C56.144,54.008,51.775,58.508,46.775,59.704z"/>
	<path fill="#FFFFFF" d="M22.237,9.428h-7.462V2.993c0-1.653-1.346-2.993-3-2.993c-1.652,0-3,1.34-3,2.993v6.435H2.993
		c-1.653,0-2.993,1.347-2.993,3c0,1.654,1.34,3,2.993,3h5.782v6.809c0,1.653,1.348,2.994,3,2.994c1.654,0,3-1.341,3-2.994v-6.809
		h7.462c1.653,0,2.993-1.346,2.993-3C25.23,10.775,23.891,9.428,22.237,9.428z"/>
</g>
</svg>
