<?xml version="1.0" encoding="utf-8"?>
<!-- Generator: Adobe Illustrator 16.0.0, SVG Export Plug-In . SVG Version: 6.00 Build 0)  -->
<!DOCTYPE svg PUBLIC "-//W3C//DTD SVG 1.1//EN" "http://www.w3.org/Graphics/SVG/1.1/DTD/svg11.dtd">
<svg version="1.1" id="Layer_1" xmlns="http://www.w3.org/2000/svg" xmlns:xlink="http://www.w3.org/1999/xlink" x="0px" y="0px"
	 width="73.898px" height="63.142px" viewBox="0 0 73.898 63.142" enable-background="new 0 0 73.898 63.142" xml:space="preserve">
<g>
	<path fill="#FFFFFF" d="M42.771,16.208c-0.003,0-0.006,0-0.009,0c-1.649,0-2.988,1.108-2.993,2.759l-0.041,14.28
		c-0.005,1.654,1.332,2.961,2.985,2.961c0.003,0,0.006,0,0.009,0c0.002,0,0.004,0,0.006,0s0.005,0,0.007,0h10.691
		c1.653,0,2.993-1.346,2.993-3s-1.34-3-2.993-3h-7.702l0.032-11.157C45.761,17.397,44.424,16.208,42.771,16.208z"/>
	<path fill="#FFFFFF" d="M42.328,0C24.92,0,10.757,14.163,10.757,31.571c0,1.86,0.162,3.7,0.479,5.509l-6.466-4.766
		c-1.332-0.981-3.206-0.697-4.187,0.634c-0.981,1.33-0.697,3.205,0.634,4.186l11.851,8.734c0.534,0.394,1.156,0.584,1.772,0.584
		c0.92,0,1.826-0.422,2.413-1.218l9.324-12.65c0.981-1.331,0.697-3.206-0.633-4.187c-1.331-0.98-3.205-0.697-4.187,0.634
		l-4.724,6.409c-0.192-1.273-0.291-2.565-0.291-3.869c0-14.107,11.478-25.584,25.584-25.584s25.583,11.477,25.583,25.584
		c0,14.106-11.477,25.583-25.583,25.583c-4.753,0-9.392-1.312-13.413-3.793c-1.407-0.867-3.252-0.431-4.119,0.976
		c-0.869,1.407-0.432,3.252,0.976,4.12c4.968,3.064,10.691,4.685,16.557,4.685c17.408,0,31.57-14.162,31.57-31.57S59.736,0,42.328,0
		z"/>
</g>
</svg>
