<?xml version="1.0" encoding="utf-8"?>
<!-- Generator: Adobe Illustrator 16.0.0, SVG Export Plug-In . SVG Version: 6.00 Build 0)  -->
<!DOCTYPE svg PUBLIC "-//W3C//DTD SVG 1.1//EN" "http://www.w3.org/Graphics/SVG/1.1/DTD/svg11.dtd">
<svg version="1.1" id="Layer_1" xmlns="http://www.w3.org/2000/svg" xmlns:xlink="http://www.w3.org/1999/xlink" x="0px" y="0px"
	 width="363.105px" height="108.463px" viewBox="0 0 363.105 108.463" enable-background="new 0 0 363.105 108.463"
	 xml:space="preserve">
<g>
	<g>
		<path fill="#E4E4E4" d="M75.804,29.898c0.092,1.288-0.552,2.668-0.736,4.14c-0.092,0.828-0.184,1.38-0.46,2.116
			c-0.184,0.736-0.275,1.563-0.552,2.392c0,0.276-0.275,0.645-0.46,1.104c-0.184,0.46-0.368,1.012-0.735,1.748
			c-0.185,0.275,0.092,0.827-0.093,1.104c0,0-1.195,0.736-0.552,0.828c-1.38,1.748-3.128,3.128-4.508,4.508
			c-1.472,1.472-2.576,2.575-3.771,3.403c0-0.092-0.276-0.184-0.552,0c-0.368,0.185-0.645,0.736-1.196,0.92
			c-0.552,0.276-1.196,0.46-2.024,0.828c-0.827,0.276-1.655,0.645-2.483,0.92c-1.472,0.368-2.944,0.552-4.6,0.552
			c-1.012,0-4.876-0.184-5.704-0.46c-1.288-0.367-4.231-1.104-5.243-1.84c-0.276-0.092-0.645-0.184-0.92-0.368
			c-0.276-0.184-0.368-0.552-0.736-0.827c-0.092-0.093-0.46,0.092-0.644-0.093c-0.185-0.184-0.185-0.552-0.553-0.827
			c-0.275-0.276-1.012-0.46-1.563-1.013c-0.644-0.46-1.196-1.472-2.116-2.3c-0.184-0.184-0.46-0.184-0.552-0.367
			c-0.184-0.185-0.368-0.185-0.552-0.276c0-0.092,0.368-0.46,0.368-0.46c-0.185-0.185-0.828-0.092-1.104-0.46
			c-0.368-0.46-0.368-1.196-0.828-1.932c-0.367-0.553-0.827-1.196-1.195-1.933c-0.368-0.827-0.368-1.748-0.553-2.575
			c-0.367-1.84-0.275-3.772,0.185-6.072c0.368-2.3,1.196-4.14,2.208-5.611c0.735-1.564,1.655-2.852,3.22-4.048
			c1.563-1.104,3.22-1.932,5.151-2.392c0.185-0.093,0.552,0.092,0.828,0.092c1.564-0.368,3.128-0.736,4.508-0.092
			c1.472,0.644,2.024,2.208,2.116,4.14c0,1.563-0.276,2.668-1.288,3.22s-2.484,0.46-4.231,0.46
			c-0.553,0.092-1.104,0.736-1.748,1.104c-0.736,0.368-1.656,0.645-2.116,1.38c-0.736,1.013-0.828,2.208-1.012,3.404
			c-0.185,1.012-0.276,2.023,0,2.852c0.275,0.645,0.368,1.564,0.92,2.484c0.46,0.92,1.288,1.288,1.563,1.655
			c0.645,1.104,1.38,1.933,2.576,2.668c1.196,0.736,2.483,1.38,3.771,1.84c0.185,0.093,0.368,0.368,0.645,0.368
			c0.184,0,0.46,0,0.828,0.092c1.287,0.185,2.575,0.093,3.955-0.092c1.288-0.184,2.484-0.828,3.68-1.288
			c1.196-0.368,2.393-0.644,3.404-1.288c0.92-0.644,1.748-1.38,2.392-2.207c0.368-0.368,0.552-0.92,0.92-1.288
			c0.46-0.46,0.92-0.92,1.472-1.564c0.276-0.368,0.46-1.012,0.736-1.748c0.184-0.735,0.828-1.38,1.012-2.023
			c0.185-0.828,0.185-1.656,0.276-2.484c0.092-0.827,0.276-1.472,0.276-2.023c-0.093-0.368-0.46-0.736-0.46-0.92s0-0.368,0-0.552
			c0.092-0.092,0.46-0.276,0.46-0.46c0-0.185-0.185-0.553-0.368-1.196c-0.185-1.012-0.46-1.84-0.553-2.483
			c-0.092-0.553-0.367-1.196-0.552-1.748c-0.092-0.552,0-1.288-0.275-1.933c-0.368-0.644-1.013-1.472-1.748-2.483
			c-1.012-1.38-2.024-2.76-3.128-3.864c-1.196-1.195-2.484-2.3-3.771-3.127c-1.473-0.92-3.128-1.196-4.692-1.841
			c-1.012-0.367-1.84-0.827-2.76-0.92c-0.92-0.092-2.023-0.367-3.22-0.367c-0.736,0-1.472,0.092-2.208,0.092
			c-0.735,0-1.472,0.092-2.3-0.092c-0.46,0-0.552-0.276-1.012-0.276c-1.288,0.184-2.484,0.46-3.68,0.736
			c-1.288,0.184-2.484,0.46-3.772,0.827c-0.275,0.093-0.552,0.368-0.827,0.46c-0.276,0-0.645-0.092-0.92-0.092
			c-0.921,0.368-2.116,0.828-3.496,1.564c-1.196,0.735-2.576,1.563-3.864,2.575c-0.275,0.46-0.368,1.104-0.735,1.38
			c-0.92,0.828-1.933,1.564-2.853,2.576c0,0.092,0,0.368-0.092,0.46c-0.184,0.276-0.46,0.552-0.735,0.828
			c-0.276,0.092-1.381,1.288-1.564,1.656c-0.184,0.275-0.184,0.827-0.46,1.104c-0.092,0.185-0.552,0.185-0.736,0.368
			c-0.092,0.276-0.367,1.38-0.46,1.563c-0.092,0.185-0.275,0.368-0.367,0.553c-0.92,1.472-2.024,2.76-2.76,4.231
			c-0.736,1.563-1.288,3.22-1.841,4.783c-0.46,1.564-0.46,1.564-1.012,3.312c-0.368,1.38-0.552,2.943-0.92,4.416
			c-0.275,1.38-0.368,2.852-0.552,4.415c-0.276,1.473-0.828,2.853-1.012,4.416c0,0.552,0.092,1.196,0.092,1.748s0.092,1.196,0,1.84
			c0,2.3,0.368,4.508,0.552,6.899c0.185,2.392,0.185,4.692,0.645,6.899c0.092,0.46,0.092,1.013,0.184,1.473s0.276,0.92,0.46,1.38
			c0.46,1.84,0.92,3.68,1.472,5.428c0.645,1.84,1.38,3.68,2.208,5.428c0.828,1.563,1.932,2.943,2.944,4.415
			c0.92,1.473,2.023,2.944,3.128,4.232c1.012,1.012,1.84,2.208,2.852,3.22c1.104,0.92,2.392,1.656,3.588,2.576
			c1.012,0.735,2.115,1.38,3.312,1.932c1.104,0.644,2.3,1.195,3.588,1.656c1.84,0.552,3.864,1.104,5.979,1.287
			c1.38,0,2.852,0,4.14,0c1.38-0.092,2.76-0.644,4.14-0.92c2.116-0.367,3.864-1.012,5.796-2.023c0.645-0.276,1.38-0.552,2.024-0.828
			c0.644-0.46,1.38-0.828,1.932-1.38c0.552-0.46,0.92-1.104,1.288-1.656c0.46-0.46,1.104-0.92,1.563-1.472
			c0.828-1.196,1.196-2.668,1.656-3.863c0.46-1.381,0.736-2.668,0.92-3.956c0-1.104-0.184-2.392-0.368-3.772
			c-0.092-0.46-0.092-0.92-0.275-1.38c-0.093-0.46-0.46-0.827-0.645-1.287c-0.46-0.92-0.552-0.828-1.104-1.656
			c-0.276-0.184-0.276-0.552-0.46-0.736c-0.553-0.552-0.828-0.368-1.473-0.735c-0.184-0.185-0.367-0.46-0.735-0.553
			c-0.185,0-0.276-0.184-0.552-0.367c-1.104-0.276-2.024-0.645-2.668-1.564c-0.645-0.92-1.013-2.023-0.828-3.128
			c0.184-1.104,1.012-1.932,2.023-2.575c1.104-0.736,2.116-0.92,3.128-0.736c2.116,0.552,4.232,1.38,6.072,2.76
			c1.195,1.012,2.115,2.576,3.128,4.14c0.92,1.656,1.932,3.128,2.392,4.692c0.46,1.84,0.552,3.771,0.552,5.52
			c0,1.84,0.092,3.68-0.368,5.52c-0.368,1.656-1.288,3.312-2.023,4.876c-0.828,1.655-1.564,3.22-2.668,4.6
			c-1.104,1.472-2.576,2.576-3.956,3.68c-1.38,1.196-2.668,2.392-4.231,3.128c-0.828,0.368-1.564,0.92-2.3,1.288
			c-0.828,0.368-1.748,0.275-2.668,0.46c-1.656,0.644-3.312,1.195-4.968,1.563c-1.288,0.185-2.668,0.185-4.048,0.185
			c-2.3-0.185-5.151,0.092-7.544-0.093c-1.195-0.092-2.3-0.735-3.495-1.012c-1.288-0.368-2.668-0.368-3.956-0.92
			c-1.196-0.46-2.3-1.288-3.496-1.932c-1.38-0.736-2.668-1.472-3.956-2.3c-1.195-0.92-2.3-1.932-3.495-2.944
			c-1.104-1.012-2.208-2.115-3.22-3.128c-1.013-1.104-2.208-2.207-3.036-3.403c-0.92-1.196-1.38-2.668-2.208-3.864
			c-0.736-1.195-1.932-2.3-2.576-3.588c-0.735-1.38-1.38-2.76-1.932-4.14s-0.828-2.943-1.196-4.415
			c-0.46-1.473-1.012-2.944-1.38-4.324c-0.367-1.472-0.828-3.036-1.104-4.508c-0.276-1.563-0.092-3.036-0.276-4.6
			c-0.184-1.564-0.552-3.128-0.644-4.691C0.092,57.129,0,55.565,0,54.001c0.092-1.655,0.275-3.22,0.46-4.691
			c0.092-1.563,0-3.128,0.184-4.784c0.184-1.563,0.46-3.035,0.736-4.6c0.368-1.563,1.104-2.943,1.472-4.415
			c0.46-1.38,0.46-2.944,1.012-4.416c0.46-1.38,1.012-2.853,1.564-4.14c0.644-1.38,1.287-2.853,2.023-4.14
			c0.46-0.736,0.828-1.564,1.196-2.301c0.368-0.827,1.104-1.38,1.655-2.023c0.46-0.644,0.645-1.38,1.013-1.84
			c0.827-0.368,1.195-1.84,1.747-2.392c0.185-0.185,0.736-0.185,0.921-0.46c0.184-0.276,0-0.92,0.367-1.288
			c0.736-0.92,2.393-2.116,3.22-2.944c0.92-0.735,2.484-2.575,2.853-2.943s0.828-0.552,1.104-0.645
			c0.368-0.184,0.552-0.367,0.736-0.644c0.275-0.184,0.735,0,1.012-0.092c0.276-0.185,0.46-0.46,0.644-0.645
			c0.185-0.184,0.368-0.552,0.645-0.644c0.552-0.276,1.38-0.645,2.392-1.012c1.84-0.736,4.784-1.196,6.716-1.564
			c1.196-0.275,2.023-0.828,2.852-0.92c0,0,0,0.092,0.092,0c0.093,0,0.185,0.276,0.276,0.276c0.276,0,0.552-0.368,0.736-0.46
			c0.275,0,0.552-0.092,0.92-0.092c0.46-0.093,0.92,0,1.38-0.093c0.368,0,0.92-0.092,1.38-0.092c0.275,0,0.46,0.185,0.735,0.185
			C42.226,0.092,42.409,0,42.594,0c1.563,0,3.128,0.092,4.783,0.185c1.564,0.184,3.036,0.735,4.6,1.012
			c1.564,0.275,3.312,0.275,4.876,0.92c1.38,0.644,2.576,1.84,4.048,2.668c0.276,0.092,0.736,0.092,1.104,0.368
			c0.367,0.184,2.943,0.46,2.207,1.655c-0.092,0.092-0.092,0.276,0.46,0.736c0.46,0.552,1.013,1.288,1.656,2.115
			c0.736,0.736,1.564,1.564,2.3,2.301c0.828,0.827,1.564,1.38,1.932,1.84c0.185,0.735,1.841,3.035,2.208,3.771
			c0.46,0.828,0.828,1.563,1.013,2.3h0.092c0.275,0.92,0.368,1.656,0.552,2.208s0.828,0.92,0.92,1.38s0.184,0.92,0.184,1.38
			c0.093,0.46,0.093,0.92,0.185,1.472C75.712,27.415,75.712,28.703,75.804,29.898z"/>
		<path fill="#E4E4E4" d="M109.111,56.394l-0.092,5.151c-0.092,1.012-0.092,1.563-0.736,2.3c-0.092,0.645-0.092,2.116-1.012,3.496
			c0,0.828,0,1.472-0.644,1.472c0,0.092,0,0.276-0.093,0.368c-0.092,0.276-0.367,0.368-0.735,0.368
			c-0.736,2.483-2.393,3.68-4.6,4.323c-0.828,0.736-1.473,0.736-1.473,1.38c-0.735,0-1.563,0.736-2.208-0.092l-3.035-0.092
			c-3.036-0.092-5.152-0.92-6.532-2.3c-5.06-3.956-6.348-9.844-5.52-30.91c-0.828-0.736,0-1.564,0-2.208c0-1.013,0.645-2.3,0-3.772
			c0-1.472,0.645-2.943,1.38-4.323c1.472-2.484,3.036-4.6,5.244-6.072c0.644-1.563,2.115-2.115,4.416-1.472
			c0.644,0,1.38-0.644,2.943-0.644c1.472,0,2.944,0,4.324,1.472c3.035,1.472,5.243,3.68,6.715,5.888v0.828
			c0.828,2.852,2.208,5.151,1.473,8.096c0,1.472,0.735,2.943,0,5.151c0.827,0.828-0.828,2.852,0,4.416
			c-0.276,0.552,0.367,1.563,0.275,6.531c0.092,0,0.185,0,0.276,0.092C109.571,55.934,109.388,56.117,109.111,56.394z
			 M106.352,84.728c0.736,0.736,0.736,1.472,0,2.208c0,0.092,0,0.276-0.092,0.46c-0.092,0.368-0.368,0.736-0.645,1.012
			c-0.735,0.828-1.563,1.473-3.035,1.473c-1.473-0.645-2.116,0-5.521,0c-0.827-0.645-1.563-0.645-3.035,0h-5.888
			c-1.473-0.645-2.3-0.645-3.036-2.208c0-1.473-1.563-2.944,0-4.508c0.736-0.736,1.563-0.736,2.3-1.472c2.208-0.736,4.508,0,7.359,0
			l2.853-0.185c0.92,0.092,1.932,0.185,2.852,0.185h1.38c2.208-0.736,3.036,0,3.771,1.472c0.368,0.368,0.553,0.828,0.645,1.104
			C106.352,84.452,106.352,84.636,106.352,84.728z M101.66,60.441c-0.645-1.104-0.185-2.668-0.368-3.956
			c-0.276-0.46-0.552-1.012-0.552-1.472c0.827-2.853,0-6.348,0-9.568v-1.472c0.827-1.38,0-2.852,0.827-4.323v-0.92
			c-0.827-0.645-0.827-1.38-0.827-2.024c-0.645-2.3-1.38-3.771-2.853-3.771h-0.644c-2.484,0-3.771,0-4.6,1.472
			c-2.116,1.472-2.944,3.68-2.944,5.888c0.828,1.564,0,3.036,0,8.279l0.368,6.9c0,0.46,0,0.827,0,1.287c0,0-0.092,0-0.184,0v1.196
			c0.735,0.736,0.735,1.472,0.735,2.116c-0.092,2.483,2.76,6.163,5.704,6.348c0.828,0,1.472,0,1.472-0.828
			c1.564-1.38,2.3-2.76,3.864-4.324V60.441z"/>
		<path fill="#E4E4E4" d="M116.84,84.819c0.644-5.243,0-10.487,0-16.375v-5.979v-5.244v-5.979c0-0.735,0.644-1.472,0-2.208v-2.3
			c0-2.208-0.828-5.243,0-8.188c0.275,0,0.368-0.092,0.275-0.275l-0.275-0.368v-4.6c-0.828-2.116,0-4.416,0-6.716
			c0-0.092,0-0.185,0.092-0.276c0.092-0.275,0.276-0.368,0.552-0.368c0-0.092,0-0.275,0.092-0.46
			c0.093-0.367,0.368-0.735,0.736-1.012c0-0.092,0-0.275,0.092-0.368c0.092-0.275,0.276-0.46,0.552-0.46
			c1.473-0.735,5.336,0.185,6.072,2.3v0.645c1.472,0.828,1.472,2.852,1.472,4.6c0.46,0.552,0.644,1.012,0.644,1.472
			c0.828,2.116,1.196,4.048,2.944,8.464c1.748,4.323,2.3,7.176,3.128,10.855c0.644,2.3,2.208,5.243,2.208,7.451
			c0.735,0.828,0.735,0.828,1.472,0.828v-0.828v-8.188V43.79v-8.188v-9.016c0-0.736,2.208-2.76,3.036-3.588
			c2.208,0,3.68,0.644,4.415,2.943c0.736,0.645,0.736,2.116,0.736,2.944v4.416v2.3c-0.736,1.472,0,2.3,0,3.771v5.151v5.98v2.3v3.68
			v2.943h-0.736c0.736,2.3,0,3.772,0.736,6.072v0.644v4.508v7.452v0.827c-0.736,1.473,0,2.944,0,4.416v2.944
			c0,1.472-1.472,2.943-2.943,2.943c-0.736,0-2.208,0.828-3.036,0c-1.472-0.644-2.944-2.116-2.944-3.588
			c0-0.828-0.735-2.3-0.735-2.943l-0.736-0.828c0.736-1.472-0.828-2.944-0.828-4.416c-1.38-2.208-2.115-4.691-2.115-7.543v-0.736
			c-1.564-1.472-1.564-3.036-2.3-5.244v-0.735c-0.828-1.473-1.473-2.944-1.473-4.508l-2.3-5.888h-0.644v2.208
			c0,2.207,0.644,4.415,0,6.715v2.944v4.508c-0.828,2.208,0,4.508,0,6.716v6.808v1.472c0.644,2.116-0.828,4.416-2.3,5.06
			c0,0.368-0.185,0.645-0.46,0.736c-0.092,0.092-0.276,0.092-0.368,0.092c-0.644-0.092-1.288-0.276-1.84-0.46
			c-1.012-0.276-1.748-0.644-1.748-1.012c-0.828-0.828-1.472-1.473-1.472-2.944V84.819z"/>
		<path fill="#E4E4E4" d="M244.897,16.928c-0.184,1.104-1.012,1.932-1.932,2.483c-0.828,0.552-2.208,0.828-3.22,0.552
			c-0.92-0.184-1.84-1.195-2.208-2.115c-0.46-0.92-1.104-1.748-1.748-2.576c-1.288-1.748-3.22-2.852-5.244-3.68
			c-1.012-0.368-1.932-1.012-2.943-1.288c-2.116-0.552-4.692-0.828-6.899-1.012c-1.013,0-2.116,0-3.128,0
			c-2.116,0-4.048,0.46-6.164,0.644c-1.104,0.092-2.116-0.184-3.128,0c-1.104,0.092-2.023,0.645-3.036,0.736
			c-2.483,0.275-5.151,0.46-7.543,0.92c-1.012,0.184-1.933,0.552-2.853,0.735c-0.92,0.093-1.932,0-2.943,0.185
			c-1.012,0.184-2.024,0.46-3.128,0.644c-2.116,0.185-4.14,0.185-6.256,0.552c-2.483,0.368-4.783,0.92-7.359,1.288
			c-1.196,0.185-2.483,0.185-3.68,0.368c-0.185,0-1.472,0.828-2.208,1.012c-2.116,0.645-3.036,0.553-4.968,2.024
			c-0.828,0.735-2.023,1.748-2.116,3.68c-0.092,1.563-0.184,1.563-0.184,3.128c0,1.563-0.092,1.563-0.092,3.128
			c0,1.563,0.092,1.563,0.092,3.128c0,1.563,0.184,1.563,0.184,3.128c0,1.563,0,2.207-0.092,3.771v45.17
			c0,1.472,0,3.863-1.012,5.243c-1.38,1.38-4.324,1.38-5.796,0c-1.38-1.38-0.552-3.036-0.552-5.243c-0.828-2.208,0-5.244-0.828-8.28
			c0-1.38,0-2.852,0.828-5.06c0-0.828,0-0.828-0.828-1.656c-1.012-2.207,0-3.587,0.828-4.968v-0.92c-1.748-1.472,0-2.76,0-5.151
			c-0.828-0.644-0.828-2.208-0.828-3.68c0.828-2.944,0-5.151,0-8.096c0-0.736,0.828-1.563,0.828-2.943
			c-0.368,0.552-0.552-8.556-0.46-8.188c0-1.013-0.368-2.024-0.368-3.128c-0.092-1.013,0.092-2.116,0.092-3.128
			c0-1.104-0.092-2.208-0.092-3.128c0-1.472-0.092-2.576-0.092-3.128c0-1.564-0.645-2.3-1.748-2.668
			c-0.184-0.276-1.656-0.92-3.312-1.288c-3.128-0.828-3.956-0.552-6.716-0.828c-1.104-0.092-2.116,0-3.22-0.184
			c-2.116-0.368-4.232-0.92-6.256-1.472c-1.012-0.276-2.024-0.736-3.036-1.104c-1.84-0.92-3.955-1.748-5.611-3.035
			c-0.92-0.553-1.564-1.473-2.392-2.208c-0.736-0.736-1.473-1.38-2.208-2.208c-0.736-0.92-1.38-1.748-1.38-2.853
			c-0.093-1.104,0.552-2.207,1.287-2.943c0.736-0.828,1.933-1.104,2.944-1.104s2.208,0.367,2.852,1.104
			c0.92,1.104,2.116,1.932,3.22,2.852c0.736,0.552,1.288,1.104,2.116,1.564c0.736,0.368,1.564,0.644,2.3,0.92
			c1.288,0.552,2.484,1.012,3.771,1.288c1.288,0.367,2.576,0.827,3.864,1.104c1.012,0.092,2.023,0.276,3.036,0.276
			c1.012,0.092,2.023-0.276,3.035-0.276c1.196,0.092,2.484,0.276,3.772,0.184c1.195,0,2.483,0,3.771,0
			c1.288-0.092,2.484-0.184,3.771-0.367c1.196-0.093,2.393-0.093,3.588-0.185c2.393-0.368,4.784-0.828,7.176-1.012
			c0.828-0.092,1.748-0.184,2.576-0.276c1.012-0.184,2.116-0.275,3.128-0.367c1.104-0.185,2.023-0.645,3.128-0.736
			c1.012-0.184,2.115-0.092,3.128-0.276c0.552-0.092,6.899-1.104,8.463-1.288c1.196-0.184,2.3-0.46,3.404-0.644
			c2.392-0.184,4.416-0.736,6.716-1.104c1.012-0.185,2.115-0.368,3.127-0.46c1.104-0.185,2.208,0,3.312-0.185
			c1.012-0.092,2.023-0.552,3.128-0.735c1.104-0.093,2.115-0.185,3.22-0.276c1.104-0.092,2.208,0.092,3.22,0
			c2.208,0.184,4.323-0.368,6.439-0.184c1.104,0.092,2.208,0.184,3.22,0.275c2.3,0.368,3.864,1.012,6.072,1.564
			c2.023,0.552,3.955,1.012,5.703,2.208c1.473,1.195,3.496,2.115,4.784,3.587c0.644,0.736,1.38,1.473,1.932,2.301
			c0.552,0.827,1.012,1.747,1.472,2.667C245.081,14.812,245.174,15.823,244.897,16.928z"/>
		<path fill="#E4E4E4" d="M191.08,38.546c0.736,2.208,0.736,3.68,1.38,5.979v3.036c0.828,4.324,1.564,8.188,2.393,11.775
			c0.735,4.508,2.208,9.752,2.943,14.167c0,2.301,0.736,3.864,1.472,6.072v0.735c0,0.645,0,2.208,0.828,2.944
			c0.645,2.3,0,3.771-0.828,5.244c-0.735,0.735-1.472,1.472-2.207,1.472c-3.036,0-5.244-1.472-5.98-4.416c0-2.3,0-4.6-0.735-6.808
			c-1.472-2.943-3.036-3.588-6.072-3.588c-2.208,0-3.588,0.645-5.151,2.852v0.736c0,0.828,0,0.828-0.644,1.563
			c-0.828,0.645,0,2.208,0,3.681c0,0.827-0.828,1.563-0.828,2.207c-0.736,3.036-4.508,3.772-6.716,3.036
			c-0.736-0.735-1.472-1.472-1.472-2.208c0-2.208,0-4.508,0.735-6.716c0-1.563,0.736-2.943,0.736-5.151
			c0.736-1.748,0.736-3.863,1.472-6.071c0.736-2.853,0-7.544,1.472-10.396c0.736-2.208,1.564-5.152,1.564-7.452v-1.563
			c0.736-2.944,1.472-6.532,2.208-9.567c0-0.828,0-2.208,0.828-3.036v-2.208c0-1.472,0-3.771,0.644-5.243
			c0.276,0,0.552-0.093,0.644-0.368c0.093-0.092,0.093-0.276,0.093-0.368c-0.736-2.208,0.827-4.416,3.035-5.151
			c0.736-0.828,1.38-0.828,1.38,0c1.748,0,2.393,0,3.036,0.735c0.828,0,0.828,0.645,1.564,1.472c0,2.208,0.644,3.681,0.644,5.888
			c0,0.645,0,2.301,0.828,3.036c0.735,0.736,0.735,1.472,0.735,3.036V38.546z M186.665,54.186c-0.736-2.3-1.656-5.244-1.656-7.452
			h-0.736h-0.644v5.152c-0.736,3.22-1.564,6.808-2.208,10.487c0,1.472,0,2.208,1.472,3.036c0.736,1.563,2.024,1.563,3.036,0.735
			c1.38-0.735,2.208-1.563,2.208-3.036c-0.828-1.472-0.828-2.943-0.828-3.771c-0.644-1.38-0.644-2.852-0.644-4.323V54.186z"/>
		<path fill="#E4E4E4" d="M214.633,45.63v7.451v2.116v7.451v3.772c0,2.943,0.735,5.888,0,8.831c0.735,0.736,0.735,1.473,0.735,2.208
			c0.736,2.3,2.116,2.944,4.416,2.944c2.208,0,3.68-0.645,3.68-2.944c0.736-1.472,1.472-2.943,1.472-5.151
			c-0.735-0.736,0-0.736,0.736-1.472h5.151c0.736,0.735,1.564,0.735,1.564,1.472v3.68c0,2.208,0,4.416-1.564,5.888
			c-0.735,2.3-2.115,3.771-3.68,5.151c-2.208,2.3-4.415,3.036-7.359,3.036s-5.151-0.736-6.716-2.208
			c-3.588-2.208-5.888-5.243-5.888-9.659V67.801c-0.735-5.152,0-9.567-0.735-13.983c0-3.036,0.735-5.244,0-7.451
			c0-2.944,0.735-5.888,0.735-8.096c-0.735-3.68,0-7.452,2.3-9.66c3.68-5.151,11.684-7.359,16.928-2.943
			c0.735,0,1.563,0.735,1.563,1.472s0.736,0.736,0.736,1.472c2.852,2.208,3.68,5.244,3.68,8.096v2.3c0,2.208-0.828,2.944-3.036,3.68
			h-2.208c-1.472,0-2.208-0.735-2.208-2.207c-0.735-1.473-0.735-2.944-0.735-4.508c-0.736-1.38-2.208-2.853-3.68-2.853
			c-2.3-0.828-3.772-0.184-4.416,2.116c-1.472,1.472-1.472,3.036-1.472,5.244V45.63z"/>
		<path fill="#E4E4E4" d="M246.464,23.091c1.472,0.736,2.943,0,4.416,0.736c0.827,0,1.472-0.736,2.3-0.736
			c1.472,0,2.115,0.736,2.943,0.736c0.736,0,2.3-0.736,3.036-0.736c1.472,0,2.943,0.736,4.416,0.736
			c0.827,0.735,1.472,0.735,1.472,1.563c0.828,0.736,0.828,1.472,0.828,3.036c0,0.736,0,1.472-0.828,2.208
			c-0.645,0.735-1.472,1.472-2.944,1.472c-1.472,0-2.115,0.736-3.68,0.736c-0.828,0.735-1.563,1.472-2.3,3.035v4.416v11.96v6.623
			V72.4v11.224c0,1.472,0,3.771-0.828,5.243c-1.472,1.473-4.415,1.473-5.888,0c-1.472-1.472-0.644-2.943-0.644-5.243
			c-0.828-2.208,0-5.336-0.828-8.28c0-1.472,0-2.943,0.828-5.243c0-0.736,0-0.736-0.828-1.564c-0.828-2.115,0-3.587,0.828-5.06
			v-0.828c-1.656-1.38,0-3.035,0-5.243c-0.828-0.645-0.828-2.116-0.828-3.588c0.828-3.036,0-5.244,0-8.188
			c0-0.828,0.828-1.564,0.828-3.036c-0.828-2.3-0.828-4.508-0.828-6.716c0-2.3-1.38-3.035-3.863-3.035
			c-1.473,0-2.116-0.736-3.588-0.736c-0.828-0.736-1.473-1.472-1.473-2.208c-0.827-2.3,0-3.771,1.473-6.071
			c0.644-0.736,1.472-0.736,2.115-0.736H246.464z"/>
		<path fill="#E4E4E4" d="M328.433,34.131v2.3v4.691c-0.736,0.644-0.736,2.208,0,3.68v5.52v5.244v6.991v2.393
			c0,4.508,0,9.935-0.736,13.615v1.655c-3.22,3.772-4.508,7.544-9.199,8.28c-3.036,1.747-6.164,1.655-9.199-0.645
			c-0.828-0.736-1.564-1.563-2.393-1.563c-3.035-2.3-3.588-5.336-4.6-8.372c-0.368-1.195-0.552-3.771-0.552-7.636
			c0-7.819-0.184-11.683-0.184-12.327c0-1.196,0-2.392,0.092-3.496l0.275-5.151c0.093-2.3,0-4.048-0.367-5.151V43.33
			c0.735-3.036,0-5.244,0-8.556c0-0.276,0.092-0.46,0.367-0.552c0.093-0.092,0.276-0.092,0.368-0.092c-0.735-1.564,0-4.601,0-6.9
			c0-3.035,1.472-3.771,3.956-3.771h1.472c1.564,0.736,2.208,1.288,2.208,3.036v4.6v4.231v4.14c0.828,3.22,0,5.244,0,7.728
			c0,3.22,0.828,6.164,0,9.2v1.563c0.828,2.3,0,5.336,0,8.372v6.899c0,1.748,0.552,2.76,1.563,5.336
			c0.828,0,2.208,0.827,3.956,1.655h0.736c0.644-0.828,1.472-1.655,2.3-1.655c0.092,0,0.276,0,0.368-0.093
			c0.275-0.092,0.368-0.275,0.368-0.552c0.827-2.483,0.827-5.428,0.827-7.728v-1.563V37.166v-2.392V27.23
			c0-3.035,3.036-4.783,5.336-3.771c0.736,0.736,1.288,0.736,2.3,1.38l0.368,0.552c0.276,0.368,0.368,0.736,0.368,1.104v5.243
			V34.131z"/>
		<path fill="#E4E4E4" d="M346.281,44.25c0.736,1.472,1.564,2.3,2.3,3.68c0.645,0.828,1.472,2.3,2.208,3.128
			c2.3,1.38,2.944,2.943,4.508,5.243c1.563,0.828,2.3,2.208,3.771,3.036c1.564,2.944,2.3,5.244,3.036,8.188
			c1.563,3.956,0.828,7.636,0.828,10.58c0,3.955-1.564,6.899-3.864,9.199c-1.472,1.38-3.771,1.38-5.335,2.208h-2.208
			c-0.736,0.735-1.473,0.735-2.3,0h-1.38h-1.564c-0.736-0.828-0.736-0.828-1.563-0.828h-1.38c-2.3-1.38-3.864-3.128-4.692-5.244
			c-0.644-1.472-2.208-3.035-1.38-5.335c-0.828-0.736-0.828-1.38-0.828-2.208c0-0.736-0.735-2.3,0-3.036
			c0.828,0,0.828,0,0.828-0.644c0-1.564,1.38-1.564,2.208-2.3c1.472,0,3.036,0,3.864,0.735c0.275,0.276,0.46,0.645,0.552,1.104
			c0.092,0.184,0.092,0.367,0.092,0.46c0,2.207,1.563,4.508,1.563,6.715v0.736c1.473,0.736,3.036,2.3,4.508,1.564h1.473l2.208-2.301
			c0.827-0.827,1.563-1.563,1.563-3.771c-0.736-3.771-1.563-7.636-3.771-10.579c-1.473-2.116-3.772-2.944-4.508-5.244
			c-1.473,0-2.3-1.563-2.3-2.208c-1.38-0.828-1.38-1.563-2.208-3.128c-2.3-1.563-3.036-3.771-4.508-6.071
			c-0.736-1.38-0.736-3.68-0.736-5.244c0-1.472,0-3.035-0.828-5.335v-0.736c0.828-1.472,0.828-3.771,1.564-5.151
			c0-2.3,1.472-3.864,2.943-5.428c2.484-2.208,5.336-2.944,8.28-2.944h2.3c0,0.736,0,0.736,0.828,0.736
			c2.207-0.736,4.507,0,6.071,1.563c2.208,2.208,3.68,4.508,3.68,7.452c0.828,0.827,0.828,2.3,0.828,3.128v2.207
			c0,0.736-0.828,1.473-1.564,2.301c-1.563,0.735-2.943,0-4.508,0c-0.367,0-0.644-0.093-0.735-0.368
			c-0.092-0.093-0.092-0.276-0.092-0.46c-0.736-1.473-1.473-2.3-0.736-3.68v-0.828c-0.736-0.736-1.563-2.3-2.943-3.036
			c0-0.184-0.185-0.368-0.461-0.552c-0.092-0.092-0.275-0.092-0.367-0.092c-1.473,0-2.3,0-2.3-1.564c-0.093,0-0.185,0-0.276,0.092
			c-0.092,0.093,0,0.368,0.276,0.645c0,0.828,0,0.828-0.645,1.472c-3.036,1.563-3.863,3.864-3.036,6.071v0.736
			c0,0.276-0.184,0.552-0.46,0.644c-0.092,0.093-0.275,0.093-0.367,0.093C344.718,41.214,345.545,42.686,346.281,44.25z"/>
	</g>
</g>
</svg>
