<?xml version="1.0" encoding="utf-8"?>
<!-- Generator: Adobe Illustrator 16.0.0, SVG Export Plug-In . SVG Version: 6.00 Build 0)  -->
<!DOCTYPE svg PUBLIC "-//W3C//DTD SVG 1.1//EN" "http://www.w3.org/Graphics/SVG/1.1/DTD/svg11.dtd">
<svg version="1.1" id="Layer_1" xmlns="http://www.w3.org/2000/svg" xmlns:xlink="http://www.w3.org/1999/xlink" x="0px" y="0px"
	 width="215.229px" height="41.857px" viewBox="0 0 215.229 41.857" enable-background="new 0 0 215.229 41.857"
	 xml:space="preserve">
<g>
	<path d="M28.026,26.278c-0.062,0.437-0.124,0.938-0.25,1.5c-0.155,0.656-0.437,1.252-0.75,1.908
		c-0.25,0.594-0.562,1.219-0.938,1.814c-0.282,0.469-0.47,1-0.782,1.438c-0.344,0.438-0.782,0.783-1.157,1.158
		c-0.376,0.375-0.812,0.719-1.22,1.062c-0.501,0.376-1.001,0.813-1.564,1.095c-0.562,0.313-1.188,0.438-1.782,0.657
		s-1.188,0.438-1.846,0.594c-0.5,0.125-1.062,0.156-1.595,0.219c-0.531,0.062-1.094,0.22-1.595,0.22
		c-0.532,0-1.031-0.063-1.532-0.126c-0.531-0.031-1.032-0.094-1.532-0.219c-0.47-0.094-0.907-0.25-1.377-0.375
		c-0.438-0.156-0.812-0.438-1.25-0.625c-0.814-0.312-1.627-0.626-2.253-1.063c-0.625-0.47-1.188-0.938-1.626-1.407
		c-0.469-0.377-0.812-0.846-1.188-1.283c-0.376-0.438-0.782-0.875-1.096-1.344c-0.344-0.47-0.656-0.939-0.938-1.471
		c-0.282-0.531-0.501-1.032-0.719-1.563c-0.188-0.595-0.313-1.188-0.47-1.782c-0.157-0.595-0.345-1.157-0.438-1.783
		c-0.062-0.594,0-1.22-0.031-1.877c0-0.562-0.125-1.188-0.094-1.813c0.156-0.876,0.438-1.626,0.657-2.438
		c0.094-0.407,0.156-0.877,0.312-1.314c0.125-0.406,0.219-0.875,0.345-1.313c0.062-0.095,0.344-0.25,0.562-0.657
		c0.188-0.406,0.344-1,0.782-1.594c0.344-0.502,0.906-0.971,1.438-1.596c0.563-0.594,1.157-1.221,1.939-1.719
		c0.438-0.282,0.907-0.471,1.407-0.689C7.917,9.702,8.418,9.514,8.95,9.42c0.531-0.125,1.156-0.219,1.845-0.345
		c0.562-0.094,1.188-0.188,1.845-0.25c0.156,0,0.313-0.155,0.344-0.313c0.032-0.188,0.063-0.438,0.032-0.688
		c-0.032-0.281-0.22-0.531-0.282-0.812c-0.031-0.25,0.032-0.501,0.062-0.719c0.032-0.375-0.03-0.721,0.032-1.064
		c0-0.062,0.343-1.188,0.312-1.156c0.124-0.313,0.406-0.845,0.594-1.127c0.157-0.156,0.345-0.312,0.501-0.469
		c0.094-0.125,0.094-0.344,0.219-0.438c0.438-0.502,1.094-0.877,1.846-1.314c0.781-0.406,1.562-0.656,2.439-0.719
		c0.249-0.031,0.437,0.062,0.656,0.062c0.188,0,0.344,0,0.531,0c0.376,0,0.752,0,1.063,0.031c0.313,0.062,0.656,0.031,0.907,0.156
		c0.281,0.125,0.501,0.407,0.75,0.595c0.22,0.155,0.751,0.405,0.938,0.593c0.062,0.064,0.156,0.188,0.282,0.346
		c0.155,0.188,0.531,0.844,0.781,1.094c0.156,0.312,0.313,0.72,0.469,1.189c0.156,0.5,0.344,1,0.313,1.594
		c0,0.501-0.188,0.938-0.501,1.158c-0.094,0.125-0.281,0.125-0.438,0.219s-0.312,0.188-0.563,0.188c-0.094,0-0.188,0.031-0.281,0
		c-0.094,0-0.218-0.031-0.312-0.094c-0.346-0.188-0.501-0.469-0.595-0.813c-0.095-0.312-0.22-0.688-0.25-1.095
		c0.094-0.25-0.094-0.688-0.22-0.938c-0.125-0.251-0.406-0.377-0.594-0.532c-0.156-0.156-0.281-0.313-0.438-0.438
		c-0.157-0.126-0.375-0.22-0.595-0.345c-0.25,0.031-0.501-0.156-0.782-0.156c-0.5,0-0.97,0-1.438,0.094
		c-1,0.126-1.657,0.751-2.157,1.313c-0.22,0.313-0.346,0.72-0.533,1.126c-0.094,0.156-0.188,0.312-0.188,0.5
		c0,0.158,0.094,0.346,0.094,0.501c0,0.47,0.032,0.531,0.188,0.876c0,0.312-0.281,0,0.188,0.688c0.094,0.156,0.251,0.344,0.376,0.5
		c0.188,0.252,0.469,0.47,0.656,0.783c0.156,0.281,0.25,0.656,0.188,1.062c-0.031,0.25-0.281,0.438-0.438,0.657
		c-0.156,0.188-0.406,0.375-0.813,0.53c-0.094,0.064-0.157,0.095-0.251,0.127c-0.094,0-0.188,0.062-0.344,0.062
		c-0.249,0-0.5,0.063-0.719,0.031c-0.25,0-0.469-0.155-0.72-0.155c-0.188-0.032-0.375,0-0.53,0c-0.158,0-0.346,0.062-0.501,0.062
		c-0.563,0-1.063,0.125-1.627,0.219c-0.562,0.062-1.282,0.156-2.063,0.438c-0.595,0.219-1.221,0.5-1.752,0.875
		c-0.5,0.375-0.938,0.877-1.377,1.377c-0.469,0.5-0.906,1.062-1.25,1.688c-0.344,0.595-0.688,1.22-0.907,1.876
		C3.79,18.491,3.696,18.99,3.57,19.458c-0.126,0.47-0.22,0.939-0.281,1.408c-0.062,0.5-0.22,0.969-0.25,1.47
		c-0.031,0.688,0.062,1.377,0.124,2.064c0.094,0.688,0.22,1.344,0.407,2.002c0,0.094,0.094,0.312,0.22,0.625
		c0.124,0.312,0.249,0.688,0.469,1.125c0.25,0.407,0.531,0.877,0.844,1.377c0.344,0.5,0.845,0.938,1.313,1.439
		c0.47,0.562,1.001,1.062,1.595,1.531c0.564,0.47,1.127,0.907,1.721,1.25c0.781,0.377,1.563,0.689,2.408,0.908
		c0.626,0.156,2.564,0.219,2.564,0.406c0.438-0.219,1.095-0.188,1.626-0.281c0.657-0.125,1.283-0.375,1.939-0.594
		c0.657-0.22,1.345-0.407,1.97-0.751c0.595-0.313,1.032-0.688,1.407-1.095c0.688-0.782,1.221-1.407,1.627-1.971
		c0.406-0.562,0.813-1.031,1.063-1.563c0.25-0.47,0.5-1.032,0.656-1.595c0.125-0.594,0.188-1.281,0.313-2.064
		c0-0.062,0.062-0.125,0.062-0.219s0.032-0.25,0.032-0.469c-0.032-0.219-0.094-0.501-0.156-0.844
		c-0.032-0.346-0.188-0.939-0.251-1.502c0-0.031-0.03-0.062-0.062-0.156c-0.094-0.344-0.249-0.657-0.375-0.971
		c-0.125-0.312-0.219-0.75-0.5-1.219c-0.062-0.094-0.188-0.094-0.282-0.188c-0.125-0.126-0.188-0.531-0.469-0.501
		c-0.25-0.938-1.407-1.251-2.314-1.501c-0.438-0.125-0.845-0.281-1.282-0.344s-0.907,0-1.376,0c-0.501,0-0.97,0.156-1.501,0.375
		c-0.562,0.156-1.126,0.344-1.627,0.751c-0.438,0.375-0.844,0.845-1.188,1.313c-0.188,0.219-0.781,1.377-0.781,1.471
		c-0.188,0.469-0.281,1.062-0.219,1.721c0.031,0.498,0.249,1.031,0.438,1.656c0.063,0.094-0.03,0.219,0,0.312
		c0,0.062,0.157,0.125,0.157,0.219c0.062,0.25-0.032,0.47-0.157,0.657c-0.156,0.188-0.344,0.407-0.594,0.531
		c-0.281,0.157-0.562,0.22-0.813,0.22c-0.469,0-0.782-0.156-1.063-0.502c-0.219-0.188-0.5-0.594-0.657-1.375
		c-0.062-0.344,0.032-0.688,0-1.001c-0.03-0.313-0.219-0.531-0.219-0.657c-0.031-0.969,0.095-1.846,0.345-2.596
		c0.281-0.719,0.688-1.345,1.094-1.938c0.407-0.596,0.782-1.096,1.251-1.533c0.562-0.5,0.845-1.063,1.346-1.063
		c0.562-0.47,1.156-0.845,1.939-1.063c0.781-0.25,1.626-0.375,2.532-0.375c0.657,0,1.251,0.125,1.877,0.25
		c0.625,0.094,1.25,0.188,1.876,0.375c0.595,0.25,1.158,0.5,1.627,0.813c0.562,0.344,0.938,0.845,1.313,1.313
		c0.406,0.438,0.844,0.781,1.157,1.283c0.312,0.499,0.594,1,0.812,1.562c0.188,0.406,0.219,0.406,0.406,0.844
		c0,0.032,0.032,0.032,0.032,0.063c0.344,1.313,0.438,2.595,0.438,3.909C28.152,25.213,28.12,25.714,28.026,26.278z"/>
	<path d="M33.532,8.201c1.031,0,2.063,0.25,3.097,0.499h0.218c0.75,0.502,1.783,1.064,2.033,2.283c0.75,1.252,0.75,2.502,0.75,3.785
		c0,0.25-0.249,0.469,0,0.969v2.314v1.002v0.531v1.5v1.002c0,0.25,0,0.783-0.249,1c0,0.281,0.249,0.783,0.249,1.033
		c0,1.25-0.249,2.283-0.5,3.533c0,0.5-0.531,1.251-0.75,1.752c-0.282,0.281-0.783,0.781-1.252,0.781h-0.281
		c-0.782,0.783-1.782,0.501-2.814,0.751c-0.5,0-1.001-0.22-1.752,0c-0.219,0-0.75-0.22-1.251-0.501l-0.281-0.25
		c0.281-0.5,0-0.781,0-1.282v-0.97V25.12c-0.218-1,0-2.033,0-2.783c0-0.25-0.03-0.438-0.062-0.562c-0.032-0.156-0.032-0.47,0-1.001
		c0.031-0.532,0.062-0.938,0.062-1.188v-0.531c-0.218-0.721,0-1.502,0-2.534v-0.25v-0.751c-0.218-0.5-0.218-0.75,0-1.25v-3.566
		c0-0.469-0.218-0.969,0.281-1.469V8.952c0-0.252,0-0.252,0.251-0.501c0.25,0,0.781-0.25,1-0.25H33.532z M33.532,26.653
		c0,0.5,0.5,1,0.781,1.281h0.25c0.251-0.281,0.251,0,0.501-0.281c0.531,0,1.032-0.219,1.282-0.5c0.282-0.5,0.5-1.001,0.5-1.531
		c0-0.783-0.218-1.752,0-2.535V22.87c-0.25-0.783,0.251-1.503,0-2.034v-1.251v-3.065v-1.282v-0.219v-1.031
		c0-0.22,0-0.751-0.218-1.002c-0.282-1.281-1.063-1.781-2.315-1.501c-0.5,0-1.001,0.501-1.001,1.251
		c0.251,1.094,0.157,2.908,0.22,3.285c-0.22,0.249,0,0.499,0,0.75v1.031v1.533c-0.22,0.97,0,2.283-0.22,3.252v0.283
		c0.22,0.217,0.22,0.498,0.22,1c-0.22,0.469,0,0.969-0.22,1.5C33.532,25.87,33.312,26.152,33.532,26.653z"/>
	<path d="M45.009,8.201c1.032,0,2.064,0.25,3.097,0.499h0.219c0.75,0.502,1.783,1.064,2.033,2.283c0.75,1.252,0.75,2.502,0.75,3.785
		c0,0.25-0.25,0.469,0,0.969v2.314v1.002v0.531v1.5v1.002c0,0.25,0,0.783-0.25,1c0,0.281,0.25,0.783,0.25,1.033
		c0,1.25-0.25,2.283-0.501,3.533c0,0.5-0.531,1.251-0.75,1.752c-0.281,0.281-0.782,0.781-1.251,0.781h-0.281
		c-0.782,0.783-1.782,0.501-2.814,0.751c-0.501,0-1.001-0.22-1.752,0c-0.22,0-0.75-0.22-1.251-0.501l-0.281-0.25
		c0.281-0.5,0-0.781,0-1.282v-0.97V25.12c-0.219-1,0-2.033,0-2.783c0-0.25-0.031-0.438-0.062-0.562c-0.031-0.156-0.031-0.47,0-1.001
		c0.031-0.532,0.062-0.938,0.062-1.188v-0.531c-0.219-0.721,0-1.502,0-2.534v-0.25v-0.751c-0.219-0.5-0.219-0.75,0-1.25v-3.566
		c0-0.469-0.219-0.969,0.281-1.469V8.952c0-0.252,0-0.252,0.251-0.501c0.25,0,0.78-0.25,1-0.25H45.009z M45.009,26.653
		c0,0.5,0.501,1,0.782,1.281h0.25c0.251-0.281,0.251,0,0.501-0.281c0.531,0,1.031-0.219,1.282-0.5c0.281-0.5,0.5-1.001,0.5-1.531
		c0-0.783-0.219-1.752,0-2.535V22.87c-0.25-0.783,0.251-1.503,0-2.034v-1.251v-3.065v-1.282v-0.219v-1.031
		c0-0.22,0-0.751-0.219-1.002c-0.281-1.281-1.063-1.781-2.314-1.501c-0.501,0-1.001,0.501-1.001,1.251
		c0.251,1.094,0.156,2.908,0.219,3.285c-0.219,0.249,0,0.499,0,0.75v1.031v1.533c-0.219,0.97,0,2.283-0.219,3.252v0.283
		c0.219,0.217,0.219,0.498,0.219,1c-0.219,0.469,0,0.969-0.219,1.5C45.009,25.87,44.79,26.152,45.009,26.653z"/>
	<path d="M53.766,25.934v-2.033v-1.502v-1.282v-0.501c0.25-0.25,0.25-0.25,0-0.5v-1.783c0-0.531,0.25-1.031,0-1.5v-2.814
		c-0.251-1.002,0-2.033,0-3.003V9.983c-0.251-0.75,0-1.031,0.5-1.283c0.125-0.123,0.281-0.188,0.375-0.217
		c0.063-0.032,0.126-0.032,0.157-0.032c0.25-0.25,0.5-0.25,0.75,0c0.032,0,0.094,0,0.156,0.032c0.125,0.029,0.251,0.123,0.345,0.217
		c0.281,0.252,0.499,0.533,0.499,1.033c-0.218,0.5,0,1.282,0,1.751c0,0.501-0.094,1.188-0.218,1.782
		c0.218,0.251,0.218,0.752,0.218,1.002c0,0.531,0.252,1.031-0.218,1.532v0.249c0.218,0.282,0.218,0.783,0.218,1.002
		c-0.218,0.75,0,1.281,0,1.782s0,0.751-0.218,1.282c0,0.751,0,1.251,0.218,2.033c0,0.469,0,0.969-0.218,1.5
		c0,0.252,0,0.752,0.218,1.252v1.783c-0.218,0.281-0.218,0.531,0,1.031v2.002c-0.218,0.501-0.218,0.782-0.75,1.032
		c-0.5,0-1,0.531-1.532,0c-0.25-0.25-0.25-0.531-0.5-0.782c-0.251-0.75,0-1.533,0-2.502V25.934z"/>
	<path d="M63.397,8.201h2.783c1.096,0,1.564,0.531,1.564,1.25c0,1.095-0.5,1.564-1.221,1.564c-1.094,0.249-1.813,0.249-2.595,0
		c-0.532,0-0.782,0.249-1.032,0.531c-0.532,0.251-0.751,0.47-0.751,1.001v3.848c0,0.781,0.751,1.532,1.502,1.532
		c0.531,0,1.062,0,1.532-0.282c0.531,0,1,0.532,1.344,0.532c0.094,0,0.157,0.031,0.188,0.125c0.032,0.03,0.032,0.095,0.032,0.124
		c0.251,0.533,0.501,1.283,0,1.752c-0.22,0.531-0.563,0.782-0.782,0.782h-2.313c-0.501,0-1.283,0.25-1.283,0.781
		c-0.219,0.782-0.219,1.251-0.219,2.001v1.564c0,0.501,0,1.032,0.219,1.564c0.25,0.719,1.283,1.062,2.063,0.719
		c0.752,0,1.533-0.031,2.315,0.312c0.532,0,0.782,0.22,0.782,0.689c0.219,0.344,0.219,0.75,0.219,1.094
		c0,0.469-0.5,1.001-1.001,1.001c-2.033,0.25-4.129,0.25-5.911,0.25c-1,0-1.501-0.531-1.501-1.564v-3.033v-0.782
		c0.25-0.469,0-0.969,0-1.814v-2.251c0.25-0.531,0-1.063,0.25-1.563c-0.25-0.719-0.25-1.156-0.25-2.001v-0.751v-0.25
		c0.25-1.283,0-2.346,0-3.347v-3.315c0.25-0.25,0.25-0.813,0.25-1.062c0-0.751,0.532-1.001,1.001-1.001H63.397z"/>
	<path d="M114.906,3.322c0.031,0.218-0.156,0.375-0.188,0.531c-0.03,0.126-0.03,0.345-0.03,0.562c0,0.251,0.062,0.501,0.062,0.782
		s-0.062,0.531-0.031,0.75c0,0.22,0.031,0.346,0.031,0.376c0,0.031,0.156,0.22,0.156,0.595s-0.094,0.781-0.094,1.25
		c0,0.438-0.03,0.877-0.03,1.314s0.094,0.719,0.094,0.875c0,0.062-0.157,0.126-0.126,0.188c0,0.062,0.062,0.126,0.032,0.188
		c0,0.062-0.063,0.156-0.063,0.25c0,0.126,0.094,0.375,0.063,0.721c0,0.125,0,0.218,0,0.312c0,0.125,0.062,0.188,0.062,0.281
		c0,0.125-0.031,0.125-0.031,0.219c0,0.626-0.094,1.219-0.094,1.783c0,0.625,0.125,1.219,0.125,1.75
		c0,0.627-0.031,1.221-0.031,1.783c0,0.626-0.094,1.221-0.094,1.752c0,0.656,0.063,1.251,0.031,1.752
		c0,0.906,0.032,1.626,0.032,2.125c-0.032,0.469,0,0.814,0,1.064c0.03,0-0.032,0.094-0.032,0.25s0.094,0.281,0.062,0.312
		c0.031,0.094-0.094,0.219-0.094,0.345c-0.03,0.094,0.094,0.218,0.094,0.312s-0.124,0.471-0.124,1.033
		c0,0.594,0.062,1.188,0.062,1.938c0,0.72,0.062,1.408,0.032,2.159c0,0.75-0.22,1.344-0.251,1.844c0,0.157,0.188,0.281,0.219,0.438
		c0,0.124-0.125,0.218-0.188,0.312c-0.156,0.501-0.344,0.846-0.595,0.939c-0.281,0.125-0.625,0.094-1.031,0.094
		c-0.22,0-0.375-0.062-0.47-0.25c-0.125-0.188-0.219-0.376-0.312-0.502c-0.062-0.094-0.124-0.188-0.156-0.437
		c-0.031-0.282-0.062-0.438-0.062-0.563c0.03-0.125,0.094-0.312,0.094-0.594c0-0.062-0.158-0.25-0.158-0.531
		c0-0.313,0.126-0.688,0.126-1.126c0-0.438-0.094-0.876-0.062-1.376c0-0.501,0.155-0.938,0.155-1.346
		c0-0.094-0.125-0.219-0.094-0.344c0.032-0.156,0.156-0.312,0.126-0.469c0-0.062-0.126-0.156-0.126-0.219
		c0-0.094,0.032-0.25,0.032-0.501c-0.032-0.25,0.062-0.595,0.062-1.095c0-0.469-0.155-1.125-0.155-1.939
		c0-0.031,0.062-0.031,0.062-0.031c0.062-0.188,0.062-0.375,0.062-0.562c0-0.156,0.094-0.375,0.063-0.594c0-0.188,0-0.188,0-0.438
		c-0.032-0.22-0.063-0.438-0.063-0.657s-0.094-0.47-0.062-0.688c0-0.062,0.126-0.125,0.126-0.188c0-0.031-0.063-0.094-0.063-0.219
		c0-0.094-0.094-0.25-0.124-0.438c-0.032-0.22,0-0.501,0-0.812c0.062-0.188,0.062-0.158,0.062-0.313
		c-0.031-0.062,0-0.156-0.031-0.313h-0.125c-0.031-0.188-0.094-0.375-0.219-0.562c-0.094-0.188-0.156-0.406-0.281-0.531
		c-0.188-0.094-0.407-0.094-0.657-0.094c-0.219,0-0.438,0.124-0.688,0.344c-0.595,0.562-1.252,1.095-1.908,1.626
		c-0.625,0.531-1.313,0.907-1.876,1.345c-0.532,0.469-0.939,0.906-1.314,1.22c-0.376,0.282-0.625,0.438-0.688,0.501
		c-0.125,0.094-0.438,0.312-0.907,0.719c-0.501,0.375-0.906,0.907-1.439,1.312c-0.062,0.094-0.188,0.158-0.375,0.252
		c-0.062,0.062-0.156,0.062-0.25,0.125c-0.062,0.062-0.125,0.156-0.219,0.25c-0.125,0.094-0.219,0.188-0.312,0.281
		c-0.095,0.094-0.25,0.062-0.344,0.125c-0.062,0,0,0.062-0.062,0.094c-0.188,0.062-0.345,0.094-0.438,0.094
		c-0.218,0-0.438,0-0.531-0.125c-0.126-0.125-0.126-0.312-0.126-0.5s0.032-0.282,0.032-0.344c0.031-0.439,0.062-0.439,0.094-0.908
		c0-0.03-0.094-0.03-0.094-0.062c-0.094-0.344-0.032-0.719,0.031-1.094c0.062-0.344,0-0.781,0-1.251c0-0.813,0.03-0.813,0.03-1.689
		c0-0.875,0.032-0.875,0.032-1.688c0-0.876,0.031-0.876,0.031-1.688c0-0.876-0.157-0.876-0.125-1.72
		c0.125-0.126,0.344-0.188,0.344-0.252c0-0.03-0.124-0.124-0.25-0.25C99.27,12.61,99.3,12.61,99.3,11.734
		c0-0.282-0.03-0.563,0.032-0.812c0.062-0.25,0.031-0.47-0.094-0.688c-0.063-1.281,0.188-1.281,0.155-2.533
		c-0.062-0.219-0.124-0.438-0.155-0.625c0-0.188,0-0.406,0-0.657c0-0.218-0.157-0.438-0.313-0.625
		C98.769,5.573,98.55,5.417,98.3,5.26c-0.219-0.156-0.406-0.406-0.656-0.5c-0.251-0.062-0.501-0.094-0.688-0.094
		c-0.782,0-1.532,0.062-2.283,0.031c-0.75-0.031-1.47,0.094-2.252,0.188c-0.751,0.094-1.501,0.125-2.22,0.281
		c-0.031,0-0.094-0.062-0.126-0.031c-0.031,0-0.031,0.062-0.062,0.062c-0.407,0.188-0.846,0.344-1.252,0.469
		c-0.438,0.156-0.781,0.281-1.031,0.439c-0.094,0.094-0.125,0.188-0.22,0.218c-0.062,0.094-0.595,0.375-0.688,0.469
		s-0.249,0.188-0.406,0.345c-0.188,0.156-0.406,0.344-0.688,0.594c-0.281,0.282-0.626,0.563-1.095,0.969
		c-0.126,0.126-0.094,0.313-0.126,0.376c-0.03,0.032-0.03,0.032-0.094,0.094h-0.03c-0.031,0.063-0.031,0.032-0.094,0.063
		c-0.157,0.188-0.22,0.469-0.375,0.719c0,0-0.094-0.062-0.094-0.031c-0.251,0.312-0.407,0.812-0.658,1.376
		c-0.155,0.344-0.344,0.845-0.562,1.501c-0.218,0.656-0.312,1.314-0.376,2.002c-0.062,0.469-0.155,0.969-0.188,1.47
		c0,0.47,0.032,0.97,0.063,1.501c0.03,0.438,0.062,0.938,0.124,1.471c0.063,0.531,0.063,1.031,0.188,1.532
		c0.125,0.531,0.281,1.062,0.469,1.47c0.094,0.219,0.281,0.375,0.407,0.562c0.094,0.188,0.156,0.375,0.281,0.562
		c0.469,0.595,0.438,0.627,0.938,1.283c0.251,0.281,0.563,0.594,0.876,0.906c0.345,0.312,0.657,0.471,0.938,0.595
		c0,0-0.031,0.063,0,0.063c0,0.03,0.031-0.032,0.063,0c0.437,0.281,0.437,0.281,0.876,0.562c0.312,0.156,0.531,0.438,0.844,0.594
		s0.688,0.219,1.032,0.406c0.03,0,0,0.031,0,0.031c0.469,0.188,0.97,0.282,1.501,0.407c0.469,0.124,0.97,0.312,1.47,0.406
		c0.625,0.094,1.22,0.063,1.814,0.063c0.593,0,1.22,0.062,1.845-0.032c0.562-0.062,1.125-0.281,1.72-0.438
		c0.532-0.157,1.095-0.407,1.626-0.626c0.22-0.062,0.501-0.031,0.657-0.125c0.188-0.094,0.375-0.25,0.595-0.344
		c0.219-0.094,0.375-0.281,0.562-0.407c0.188-0.093,0.406-0.188,0.562-0.312c0.032,0,0.063,0.062,0.063,0.03
		c0.094-0.062,0.124-0.25,0.281-0.375c0.124-0.062,0.219,0.063,0.344-0.03c0-0.032-0.062-0.126-0.062-0.158
		c0.218-0.125,0.499-0.248,0.719-0.469c0.219-0.219,0.438-0.438,0.688-0.688c0.22-0.219,0.531-0.312,0.876-0.312
		c0.218,0,0.438,0.062,0.625,0.156s0.407,0.156,0.532,0.312c0.094,0.125,0.062,0.344,0.125,0.563c0.062,0.188,0.25,0.375,0.25,0.501
		c-0.062,0.344-0.25,0.688-0.5,1c-0.313,0.281-0.72,0.5-1.002,0.75c-0.312,0.219-0.593,0.501-0.812,0.721
		c-0.031,0.029,0,0.029,0,0.062c-0.594,0.501-0.656,0.407-1.251,0.906c-0.031,0,0.032,0.032,0,0.063c0,0,0.032,0,0,0.031
		c-0.188,0.25-0.407,0.531-0.531,0.969c0,0.501,0.094,0.938,0.094,1.22s0.03,0.532,0.03,0.751c0,0.188-0.155,0.344-0.155,0.5
		c-0.032,0.125,0.094,0.312,0.062,0.501c-0.03,0.249-0.124,0.501-0.218,0.657c-0.157,0.156-0.281,0.281-0.376,0.344
		c-0.156,0.094-0.344,0.125-0.5,0.156c-0.157,0.031-0.281-0.031-0.406-0.031c-0.313,0.062-1.001-0.219-1.252-0.5
		c-0.219-0.312-0.188-0.688-0.155-1.096c0.03-0.375,0.062-0.625,0.062-0.75c-0.031-0.125-0.125-0.251-0.125-0.345
		c0-0.343-0.062-0.593-0.156-0.719c-0.094-0.155-0.188-0.22-0.344-0.22c-0.156,0.032-0.312,0.158-0.532,0.252
		c-0.218,0.062-0.469,0.094-0.75,0.124c-0.531,0.094-1.063,0.188-1.563,0.251c-0.532,0.03-1.063-0.063-1.626-0.063
		c-0.47,0-0.97,0.032-1.438,0c-0.501-0.062-0.971-0.03-1.471-0.124c-0.469-0.094-0.938-0.252-1.407-0.407
		c-0.626-0.156-1.282-0.501-1.97-0.812c-0.595-0.282-1.221-0.626-1.846-1.001c-0.72-0.501-1.471-0.877-2.063-1.346
		c-0.595-0.469-1.127-1-1.564-1.562c-0.531-0.658-0.876-1.314-1.188-1.783l-0.094,0.031c-0.125-0.188-0.25-0.407-0.376-0.627
		c-0.124-0.249-0.218-0.562-0.312-0.844c-0.188-0.5-0.345-1.062-0.501-1.595c-0.126-0.531-0.188-1.094-0.25-1.657
		c-0.125-0.688-0.188-1.376-0.219-2.064c0-0.719,0-1.407,0.062-2.096c0.063-0.719,0.281-1.406,0.407-2.063
		c0.126-0.72,0.156-1.407,0.375-2.095c0.188-0.751,0.625-1.346,0.938-1.939c0.281-0.625,0.562-1.221,0.938-1.721
		c0.313-0.438,0.657-0.876,1.064-1.281c0.375-0.375,0.813-0.721,1.25-1.096c0.407-0.344,0.845-0.688,1.314-1.031
		c0.25-0.156,0.5-0.344,0.813-0.533c0.094-0.062,0.03-0.124,0.124-0.155c0.219-0.156,0.438-0.344,0.688-0.47
		c0.219-0.094,0.532-0.094,0.75-0.188c0.188-0.094,0.407-0.156,0.626-0.219c0.188-0.094,0.406-0.125,0.625-0.188
		c0.126-0.062,0.251-0.094,0.376-0.094c0.125-0.031,0.281-0.031,0.406-0.094c0.062-0.031,0.094-0.156,0.156-0.156
		c0.094-0.031,0.126-0.062,0.188-0.094c0.501-0.125,0.97-0.188,1.438-0.25c0.407-0.062,0.938,0.031,1.501,0.031
		c0.063,0,0.063-0.126,0.157-0.126c0.407-0.062,0.782-0.062,1.22-0.094c0.407,0,0.813-0.062,1.188-0.094
		c0.376,0,0.845,0.031,1.376,0.063c0.562,0.03,1.032,0.062,1.501,0.094c0.5,0.03,1.033,0.094,1.72,0.156
		c0.126,0.031,0.22,0.125,0.282,0.125c0.094,0.031,0.188,0.031,0.25,0.031c0.094,0,0.156-0.156,0.219-0.125
		c0.282,0.094,0.47,0.375,0.594,0.594c0.126,0.281,0.251,0.563,0.313,0.906c0.032,0.313,0.062,0.657,0.062,0.971
		c-0.03,0.344-0.062,0.656-0.094,0.938c0,0.188,0.031,0.375,0.063,0.562c0,0.158,0.03,0.346,0,0.47c0,0.281,0,0.501,0,0.688
		c0.03,0.156,0.03,0.312,0.03,0.469s-0.03,0.281-0.03,0.344c0,0.125,0,0.312,0,0.532c0,0.281,0.062,0.562,0.062,0.812
		c0,0.281-0.156,0.532-0.156,0.751c0,0.188,0.095,0.312,0.095,0.376c0,0.469,0.03,0.968,0,1.595
		c-0.032,0.562-0.158,1.063-0.126,1.469c0.031,0.407,0.126,0.782,0.126,1.221c0,0.469,0.03,0.875,0.03,1.281
		c0,0.408,0,0.751,0,1.002c-0.03,0.281,0,0.438,0.031,0.469c-0.062,0.094-0.094,0.188-0.094,0.281
		c0.032,0.125-0.031,0.22-0.031,0.313c0,0.062,0.094,0.188,0.157,0.344c0.062,0.155,0.062,0.343,0.155,0.438
		c0.094,0.125,0.282,0.125,0.407,0.157c0.156,0.062,0.312,0.062,0.5-0.063c0.5-0.405,1.095-0.907,1.845-1.47
		c0.376-0.312,0.751-0.562,1.126-0.875c0.375-0.313,0.688-0.657,1.063-0.971c0.345-0.312,0.782-0.531,1.126-0.812
		c0.345-0.312,0.72-0.626,1.033-0.907c0.656-0.595,1.125-1.126,1.5-1.532c0.376-0.344,0.595-0.75,0.719-1.22
		c0.126-0.438,0.22-0.812,0.22-1.063c0-0.094-0.126-0.219-0.126-0.344s0.126-0.251,0.126-0.375c0.032-0.407-0.032-0.782-0.032-1.096
		c0-0.281,0-0.656,0-1.062c0-0.188-0.03-0.47-0.03-0.875c0-0.346,0.03-0.752,0.03-1.189c0-0.406,0.064-0.75,0.064-1.094
		c0-0.345,0.03-0.533,0.03-0.533c0.031-0.312,0.031-0.562,0.063-0.812c0-0.219,0.062-0.406,0.218-0.594
		c0.281-0.375,0.688-0.501,1.157-0.501c0.251,0,0.438-0.155,0.562-0.094c0.126,0.032,0.251,0.25,0.501,0.438
		c0.126,0.094,0.22,0.188,0.25,0.344c0,0.156,0.094,0.375,0.125,0.688C114.844,2.977,114.876,3.102,114.906,3.322z"/>
	<path d="M118.691,28.34c0.531,0,0.218-0.029,0.719-0.029c0.345,0,0.75,0.155,0.75,0.625c0,0.719,0.032,0.219,0.032,0.969
		c0,0.407-0.126,1-0.47,1.032c-1.251,0.155-1.813-0.438-1.782-0.625c0.031-0.22-0.062-0.094,0.031-0.345
		c-0.031-0.595-0.125-0.125-0.125-0.75C117.847,28.78,118.378,28.34,118.691,28.34z"/>
	<path d="M156.626,3.165c0.031,0.219-0.156,0.375-0.188,0.532c-0.031,0.218-0.031,0.501-0.031,0.751
		c0.031,0.25,0.094,0.406,0.094,0.5c0,0.031-0.062,0.25-0.062,0.594c0,0.377,0.031,0.782,0.031,1.251
		c0,0.47,0.156,0.907,0.125,1.345c0,0.439-0.094,0.721-0.094,0.908c0,0.062,0,0.124,0,0.188c0,0.062,0.094,0.124,0.062,0.188
		c0,0.062-0.031,1.281-0.031,1.595c0,0.094-0.031,0.094-0.031,0.22c0,0.625,0.031,1.219,0.031,1.781c0,0.625-0.031,1.22-0.031,1.783
		c0,0.656-0.094,1.25-0.094,1.783c0,0.656,0.125,1.25,0.125,1.782c0,0.688-0.031,1.282-0.062,1.782c0,0.938-0.095,1.658-0.095,2.158
		c0,0.657,0.095,0.906,0.095,1.314c0,0.343-0.031,0.375-0.031,0.656c0,0.125,0.125,0.219,0.156,0.312
		c0,0.094-0.156,0.281-0.156,0.562c0,0.25,0.125,0.594,0.125,0.971c0,0.375-0.125,0.781-0.156,1.219c0,0.438,0.062,0.845,0.031,1.22
		c-0.031,0.501,0.031,1.001-0.031,1.47c-0.062,0.5-0.313,0.969-0.407,1.438c-0.125,0.469-0.062,0.97-0.22,1.408
		c-0.155,0.438-0.437,0.812-0.625,1.251c-0.155,0.375-0.281,0.781-0.5,1.125c-0.219,0.376-0.5,0.688-0.719,1.033
		c-0.313,0.375-0.595,0.781-0.908,1.125c-0.281,0.375-0.656,0.688-1,1.002c-0.156,0.155-0.312,0.281-0.438,0.469
		c-0.124,0.094-0.281,0.188-0.405,0.281c-0.126,0.094-0.126,0.344-0.251,0.438c-0.218,0.156-0.5,0.25-0.719,0.406
		c-0.188,0.126-0.376,0.344-0.595,0.469c-0.469,0.156-1,0.502-1.532,0.689c-0.47,0.188-0.97,0.188-1.438,0.312
		c-0.5,0.094-0.938,0.313-1.439,0.345c-0.469,0.062-0.969,0.03-1.469,0c-0.657-0.031-1.313-0.188-1.972-0.312
		c-0.656-0.126-1.344-0.156-1.97-0.408c-0.625-0.217-1.22-0.53-1.814-0.844c-0.437-0.25-0.875-0.5-1.312-0.781
		c-0.407-0.282-0.751-0.688-1.126-1.033c-0.375-0.311-0.72-0.656-1.063-1.062c-0.344-0.375-0.656-0.751-0.97-1.156
		c-0.281-0.407-0.625-0.782-0.845-1.221c-0.249-0.438-0.312-0.938-0.469-1.407s-0.312-0.906-0.438-1.407
		c-0.094-0.469-0.249-0.938-0.312-1.438c-0.032-0.344-0.032-0.688-0.032-1.001s-0.031-0.657,0-0.969
		c0.032-0.439,0.25-0.846,0.313-1.283c0.062-0.438,0.094-0.844,0.218-1.281c0.126-0.439,0.313-0.877,0.501-1.314
		s0.281-0.906,0.501-1.313c0.249-0.407,0.5-0.813,0.782-1.188c0.312-0.375,0.719-0.625,1.062-0.969
		c0.438-0.407,0.875-0.814,1.346-1.126c0.499-0.313,1.031-0.626,1.595-0.876c0.531-0.219,1.126-0.438,1.688-0.562
		c0.562-0.158,1.188-0.126,1.782-0.158c0.532-0.062,1.063-0.123,1.564-0.094c0.53,0.064,1.031,0.22,1.532,0.346
		c0.531,0.188,0.97,0.405,1.407,0.625c0.469,0.25,0.97,0.438,1.376,0.75c0.657,0.532,1.188,1.22,1.627,2.033
		c0.438,0.719,0.656,1.533,0.781,2.377c0.094,0.469,0.156,0.938,0.156,1.377c-0.031,0.469-0.062,0.938-0.188,1.406
		c-0.094,0.469-0.345,0.877-0.594,1.252c-0.22,0.405-0.438,0.812-0.751,1.156c-0.125,0.156-0.251,0.25-0.438,0.312
		c-0.188,0.063-0.375,0.157-0.531,0.157c-0.375,0-0.688-0.188-0.97-0.501c-0.281-0.25-0.375-0.562-0.375-0.969
		c0-0.313,0.125-0.596,0.407-0.939c0-0.25,0.281-0.5,0.406-0.781c0.031-0.125,0-0.25,0.031-0.406
		c0.031-0.125,0.094-0.282,0.156-0.438c0-0.502,0.062-1.096-0.094-1.596c-0.031-0.188-0.219-0.312-0.281-0.5
		c-0.094-0.188-0.063-0.439-0.157-0.595c-0.094-0.156-0.249-0.313-0.375-0.47c-0.281-0.342-0.531-0.469-0.876-0.75
		c-0.156-0.094-0.312-0.188-0.5-0.281c-0.156-0.125-0.25-0.345-0.438-0.438c-0.47-0.188-0.938-0.25-1.346-0.312
		c-0.281-0.063-0.562-0.063-0.844-0.063c-0.657,0.063-1.313,0.251-1.939,0.407c-0.375,0.094-0.781,0.094-1.156,0.219
		c-0.532,0.25-1.096,0.594-1.658,1c-0.438,0.375-0.812,0.844-1.189,1.283c-0.405,0.562-0.625,1.157-0.874,1.688
		c-0.157,0.376-0.376,0.721-0.47,1.096c-0.094,0.406-0.25,0.812-0.312,1.22c-0.031,0.407,0,0.845-0.031,1.282
		c0,0.469,0,0.906,0.031,1.314c0.125,0.719,0.312,1.5,0.595,2.25c0.343,0.751,0.812,1.377,1.251,1.939
		c0.25,0.344,0.531,0.657,0.812,0.938c0.312,0.282,0.531,0.625,0.844,0.876c0.376,0.281,0.782,0.469,1.189,0.688
		c0.375,0.25,0.781,0.471,1.188,0.626c0.876,0.313,1.752,0.657,2.658,0.782c0.407,0.03,0.845,0.062,1.252,0.094
		c0.406,0,0.813-0.125,1.219-0.156c0.721-0.125,1.408-0.345,2.064-0.594c1.001-0.281,1.783-1.158,2.408-1.627
		c0.188-0.157,0.406-0.281,0.626-0.469c0.344-0.377,0.595-0.752,0.845-1.096c0.312-0.375,0.562-0.75,0.781-1.157
		c0.25-0.407,0.531-0.812,0.719-1.251c0.188-0.438,0.375-0.876,0.501-1.345c0.126-0.47,0.126-0.938,0.188-1.438
		c0.062-0.5,0.156-1.032,0.156-1.596c0-0.844,0.031-0.844,0.031-1.688c0-0.25,0.032-0.563-0.031-0.814
		c0-0.969,0.063-0.969,0.063-1.908c0-0.968-0.032-0.968-0.032-1.906l-0.031-0.031c0.031-0.188,0.188-0.375,0.188-0.562
		c0-0.501-0.124-1.22-0.188-1.721c0-0.219,0.125-0.438,0.157-0.656c0-0.126-0.032-0.281-0.032-0.533c0.188-0.188,0-1.281,0-1.813
		c0-0.155-0.094-0.375-0.125-0.719c0.219-0.157,0.157-0.688,0.157-1.063s-0.063-0.75-0.094-1.063c0-0.062,0.062-0.376,0.062-0.876
		c-0.031-0.5,0-1.125,0-1.876s-0.094-1.595-0.125-2.471c0-0.907,0.125-1.782,0.125-2.626c0.032-0.846-0.094-1.597-0.062-2.285
		c0-0.719,0.124-1.219,0.155-1.562c0.032-0.25,0.188-0.501,0.501-0.688c0.312-0.22,0.562-0.281,0.812-0.281
		c0.251,0,0.438,0.032,0.595,0.062c0.156,0.064,0.375,0.126,0.595,0.346c0.125,0.124,0.062,0.281,0.062,0.469
		c0.032,0.188,0.188,0.406,0.22,0.719C156.595,2.821,156.626,2.946,156.626,3.165z"/>
	<path d="M165.883,13.423c0.251,0.751,0.251,1.251,0.469,2.032v1.033c0.281,1.469,0.532,2.782,0.813,4.003
		c0.25,1.532,0.751,3.315,1,4.815c0,0.782,0.252,1.314,0.501,2.064v0.25c0,0.219,0,0.751,0.282,1.001
		c0.219,0.782,0,1.282-0.282,1.783c-0.249,0.25-0.501,0.499-0.75,0.499c-1.032,0-1.782-0.499-2.033-1.5c0-0.782,0-1.564-0.25-2.314
		c-0.501-1.001-1.032-1.221-2.063-1.221c-0.751,0-1.221,0.22-1.752,0.971v0.25c0,0.281,0,0.281-0.22,0.531
		c-0.281,0.219,0,0.751,0,1.252c0,0.281-0.281,0.531-0.281,0.75c-0.25,1.032-1.532,1.281-2.283,1.032
		c-0.249-0.25-0.5-0.501-0.5-0.751c0-0.75,0-1.532,0.251-2.283c0-0.531,0.249-1,0.249-1.752c0.251-0.594,0.251-1.312,0.501-2.062
		c0.25-0.971,0-2.564,0.501-3.535c0.249-0.75,0.531-1.752,0.531-2.533v-0.531c0.249-1,0.5-2.221,0.75-3.253
		c0-0.281,0-0.751,0.281-1.032v-0.75c0-0.501,0-1.283,0.22-1.782c0.094,0,0.188-0.032,0.219-0.126
		c0.031-0.031,0.031-0.094,0.031-0.125c-0.25-0.75,0.281-1.501,1.033-1.751c0.249-0.281,0.469-0.281,0.469,0
		c0.593,0,0.812,0,1.031,0.25c0.281,0,0.281,0.22,0.531,0.501c0,0.75,0.22,1.251,0.22,2.002c0,0.217,0,0.78,0.281,1.031
		c0.25,0.25,0.25,0.5,0.25,1.031V13.423z M164.382,18.74c-0.25-0.782-0.562-1.782-0.562-2.532h-0.25h-0.22v1.75
		c-0.249,1.096-0.531,2.314-0.75,3.566c0,0.5,0,0.75,0.501,1.031c0.249,0.531,0.687,0.531,1.031,0.25
		c0.469-0.25,0.75-0.531,0.75-1.031c-0.281-0.502-0.281-1.001-0.281-1.282c-0.219-0.47-0.219-0.97-0.219-1.47V18.74z"/>
	<path d="M173.889,15.831v2.534v0.719v2.534v1.281c0,1.002,0.251,2.002,0,3.003c0.251,0.25,0.251,0.501,0.251,0.751
		c0.25,0.781,0.719,1,1.501,1c0.751,0,1.251-0.219,1.251-1c0.25-0.501,0.501-1.002,0.501-1.752c-0.251-0.25,0-0.25,0.25-0.5h1.751
		c0.25,0.25,0.531,0.25,0.531,0.5v1.251c0,0.751,0,1.501-0.531,2.001c-0.25,0.783-0.72,1.283-1.251,1.752
		c-0.75,0.782-1.502,1.032-2.502,1.032s-1.752-0.25-2.283-0.751c-1.22-0.75-2.001-1.781-2.001-3.283v-3.535
		c-0.25-1.75,0-3.252-0.25-4.754c0-1.031,0.25-1.781,0-2.532c0-1.001,0.25-2.001,0.25-2.752c-0.25-1.251,0-2.534,0.781-3.284
		c1.252-1.751,3.972-2.502,5.754-1c0.251,0,0.533,0.25,0.533,0.499c0,0.251,0.249,0.251,0.249,0.501
		c0.97,0.75,1.251,1.783,1.251,2.752v0.782c0,0.751-0.281,1.001-1.031,1.251h-0.751c-0.5,0-0.75-0.25-0.75-0.75
		c-0.251-0.501-0.251-1.002-0.251-1.533c-0.25-0.469-0.75-0.969-1.251-0.969c-0.781-0.282-1.282-0.062-1.501,0.719
		c-0.501,0.5-0.501,1.032-0.501,1.783V15.831z"/>
	<path d="M191.746,19.491l-0.03,1.752c-0.032,0.344-0.032,0.531-0.251,0.781c-0.03,0.219-0.03,0.719-0.344,1.188
		c0,0.283,0,0.502-0.22,0.502c0,0.029,0,0.094-0.03,0.123c-0.031,0.094-0.125,0.126-0.251,0.126
		c-0.25,0.845-0.812,1.251-1.562,1.471c-0.281,0.249-0.501,0.249-0.501,0.469c-0.25,0-0.532,0.25-0.751-0.032l-1.031-0.031
		c-1.033-0.03-1.752-0.312-2.221-0.781c-1.721-1.344-2.158-3.346-1.877-10.508c-0.281-0.25,0-0.531,0-0.75
		c0-0.346,0.219-0.783,0-1.283c0-0.5,0.219-1,0.47-1.47c0.499-0.845,1.032-1.563,1.782-2.064c0.219-0.531,0.719-0.72,1.501-0.499
		c0.219,0,0.469-0.221,1.001-0.221c0.5,0,1,0,1.47,0.502c1.032,0.499,1.783,1.25,2.282,2.001v0.281
		c0.282,0.97,0.751,1.751,0.501,2.753c0,0.5,0.25,1,0,1.75c0.282,0.281-0.281,0.97,0,1.502c-0.094,0.188,0.126,0.531,0.094,2.22
		c0.032,0,0.062,0,0.094,0.032C191.903,19.334,191.84,19.397,191.746,19.491z M190.808,29.124c0.251,0.249,0.251,0.5,0,0.75
		c0,0.031,0,0.094-0.03,0.156c-0.031,0.125-0.126,0.25-0.22,0.344c-0.249,0.282-0.531,0.502-1.031,0.502c-0.501-0.22-0.72,0-1.877,0
		c-0.281-0.22-0.531-0.22-1.032,0h-2.002c-0.5-0.22-0.782-0.22-1.031-0.751c0-0.501-0.531-1.001,0-1.532
		c0.249-0.252,0.531-0.252,0.782-0.501c0.75-0.251,1.532,0,2.502,0l0.969-0.062c0.312,0.03,0.657,0.062,0.97,0.062h0.469
		c0.751-0.251,1.033,0,1.282,0.501c0.126,0.124,0.188,0.281,0.22,0.375C190.808,29.03,190.808,29.091,190.808,29.124z
		 M189.213,20.867c-0.219-0.375-0.062-0.907-0.125-1.345c-0.094-0.157-0.188-0.345-0.188-0.5c0.281-0.971,0-2.158,0-3.254v-0.5
		c0.281-0.469,0-0.969,0.281-1.469v-0.314c-0.281-0.219-0.281-0.469-0.281-0.688c-0.218-0.781-0.47-1.281-0.97-1.281h-0.219
		c-0.844,0-1.282,0-1.563,0.5c-0.72,0.5-1.001,1.25-1.001,2.002c0.281,0.531,0,1.031,0,2.814l0.125,2.345c0,0.157,0,0.281,0,0.438
		c0,0-0.031,0-0.062,0v0.406c0.25,0.25,0.25,0.5,0.25,0.719c-0.031,0.846,0.939,2.096,1.939,2.158c0.281,0,0.5,0,0.5-0.281
		c0.531-0.469,0.783-0.938,1.313-1.469V20.867z"/>
	<path d="M203.13,15.518c-0.25,0.72,0,1.783-0.47,2.252c-0.249,0.281-0.249,0.532-0.531,0.532c-0.469,0.438-0.469,0.781,0,1.001
		c0.282,0.5,0.438,0.531,0.531,0.938c0.126,0.406,0.22,0.562,0.22,0.844c0.25,0.502,0.531,1.252,0.25,2.033
		c0,0.502,0.281,1.221,0,1.721c0,0.531,0.281,1.031-0.25,1.533v0.281c0.25,0.5,0,1.25-0.22,1.752
		c-0.75,1.281-1.563,1.781-2.783,2.282c-0.531,0.25-0.781,0-1.282,0c-1.031,0.25-1.752,0.25-2.783,0.25c-0.501,0-1-0.25-1.251-0.751
		v-0.5c0-0.501-0.25-1.032,0-1.533v-0.25c-0.25-1.031,0-2.252-0.25-3.283c0.25-0.75,0-1.783,0-2.502v-0.531
		c0.25-0.502,0.25-1.033,0.25-1.502v-0.531v-0.781v-3.535c0-1.001,0-2.033-0.25-2.752v-1.281c0.25-0.221,0.25-0.72,0.25-1.252v-1
		c0.251-0.281,0.5-0.501,0.75-0.501c0.752,0,1.532-0.282,2.033-0.282c0.22,0,0.281,0.062,1.126,0.062
		c0.844,0,1.125-0.062,1.407,0.22c0.501,0.22,1.001,0.501,1.22,0.719c0.282,0.281,0.282,0.281,0.531,0.281
		c0.501,0.501,1.032,1.033,1.252,1.753c0.25,1.031,0.531,1.781,0.531,2.814C203.411,14.518,203.411,14.987,203.13,15.518z
		 M198.595,17.551c0.501,0,1.282,0,1.533-0.531c0.25-0.469,0.5-1.252,0.5-1.783c0-0.719,0-1.188-0.25-2.033
		c0-0.969-0.25-1.5-1.282-1.752c-1.001-0.469-1.752,0.252-1.752,1.283c-0.25,0.469-0.25,1-0.25,1.501v2.503
		c0.25,0.281,0.25,0.281,0.25,0.531c0.22,0.281,0.501,0.281,1.032,0.281H198.595z M200.628,23.62c0-0.282-0.25-0.502,0-0.783
		c0-0.5-0.25-1.001-0.25-1.25c-0.25-0.502-0.783-1.033-1.282-1.033c-0.501-0.219-1.001-0.219-1.532,0.25
		c-0.22,0-0.22,0.281-0.22,0.501c0,0.531-0.25,1.282,0,1.813v0.22c-0.25,0.782-0.25,1.47-0.25,2.313v0.501
		c0,0.72,0.25,1.251,1.001,1.501c0.781,0,1.251-0.25,1.782-0.25c0.095,0,0.188-0.031,0.219-0.125
		c0.032-0.031,0.032-0.094,0.032-0.125c0.25-0.5,0.5-1.283,0.5-2.033V23.62z"/>
	<path d="M209.509,15.362c0.252,0.5,0.533,0.782,0.783,1.251c0.219,0.281,0.5,0.782,0.75,1.063c0.782,0.469,1.001,1.002,1.532,1.782
		c0.531,0.282,0.782,0.752,1.283,1.033c0.531,1,0.78,1.782,1.032,2.782c0.53,1.346,0.281,2.596,0.281,3.598
		c0,1.345-0.533,2.346-1.313,3.127c-0.501,0.469-1.283,0.469-1.814,0.751h-0.751c-0.25,0.249-0.5,0.249-0.781,0h-0.469h-0.533
		c-0.249-0.282-0.249-0.282-0.531-0.282h-0.469c-0.781-0.469-1.314-1.062-1.596-1.781c-0.218-0.501-0.75-1.033-0.469-1.814
		c-0.281-0.25-0.281-0.469-0.281-0.75c0-0.252-0.25-0.783,0-1.033c0.281,0,0.281,0,0.281-0.219c0-0.531,0.469-0.531,0.75-0.781
		c0.501,0,1.033,0,1.314,0.25c0.094,0.094,0.156,0.219,0.188,0.375c0.031,0.062,0.031,0.125,0.031,0.156
		c0,0.752,0.532,1.533,0.532,2.283v0.25c0.501,0.25,1.032,0.782,1.532,0.531h0.5l0.751-0.781c0.282-0.281,0.531-0.531,0.531-1.283
		c-0.249-1.281-0.531-2.596-1.282-3.596c-0.5-0.72-1.282-1.002-1.531-1.782c-0.501,0-0.783-0.532-0.783-0.751
		c-0.469-0.282-0.469-0.531-0.75-1.062c-0.782-0.533-1.033-1.283-1.532-2.065c-0.251-0.469-0.251-1.251-0.251-1.782
		c0-0.5,0-1.031-0.281-1.814v-0.25c0.281-0.5,0.281-1.282,0.532-1.751c0-0.782,0.499-1.313,1-1.846
		c0.845-0.751,1.813-1.001,2.815-1.001h0.781c0,0.25,0,0.25,0.282,0.25c0.751-0.25,1.531,0,2.063,0.533
		c0.751,0.75,1.252,1.532,1.252,2.532c0.281,0.282,0.281,0.782,0.281,1.063v0.75c0,0.25-0.281,0.502-0.533,0.783
		c-0.531,0.25-1,0-1.532,0c-0.124,0-0.218-0.032-0.249-0.126c-0.032-0.03-0.032-0.094-0.032-0.155
		c-0.25-0.502-0.499-0.783-0.25-1.252v-0.281c-0.249-0.25-0.531-0.782-1-1.031c0-0.064-0.063-0.126-0.157-0.188
		c-0.031-0.031-0.094-0.031-0.125-0.031c-0.5,0-0.781,0-0.781-0.531c-0.031,0-0.063,0-0.094,0.03c-0.031,0.031,0,0.125,0.094,0.219
		c0,0.282,0,0.282-0.219,0.502c-1.032,0.531-1.314,1.312-1.032,2.062v0.25c0,0.094-0.063,0.188-0.157,0.22
		c-0.03,0.032-0.094,0.032-0.125,0.032C208.978,14.331,209.26,14.831,209.509,15.362z"/>
</g>
</svg>
