<?xml version="1.0" encoding="utf-8"?>
<!-- Generator: Adobe Illustrator 16.0.0, SVG Export Plug-In . SVG Version: 6.00 Build 0)  -->
<!DOCTYPE svg PUBLIC "-//W3C//DTD SVG 1.1//EN" "http://www.w3.org/Graphics/SVG/1.1/DTD/svg11.dtd">
<svg version="1.1" id="Layer_1" xmlns="http://www.w3.org/2000/svg" xmlns:xlink="http://www.w3.org/1999/xlink" x="0px" y="0px"
	 width="58.356px" height="71.48px" viewBox="0 0 58.356 71.48" enable-background="new 0 0 58.356 71.48" xml:space="preserve">
<path fill="#FFFFFF" d="M58.144,2.695c-0.006-0.055-0.014-0.107-0.021-0.162c-0.008-0.043-0.014-0.087-0.021-0.129
	c-0.012-0.057-0.027-0.111-0.041-0.167c-0.01-0.038-0.018-0.078-0.031-0.116c-0.018-0.062-0.041-0.123-0.064-0.185
	c-0.012-0.03-0.021-0.061-0.033-0.09c-0.029-0.071-0.062-0.142-0.1-0.211c-0.008-0.018-0.016-0.036-0.025-0.054
	c-0.041-0.077-0.086-0.151-0.135-0.226c-0.006-0.009-0.01-0.019-0.016-0.027c-0.049-0.071-0.1-0.14-0.154-0.207
	c-0.008-0.011-0.018-0.022-0.025-0.033C57.431,1.033,57.38,0.98,57.33,0.927c-0.02-0.021-0.039-0.043-0.059-0.062
	c-0.041-0.04-0.084-0.077-0.129-0.115c-0.029-0.027-0.059-0.057-0.092-0.083c-0.002-0.002-0.006-0.004-0.008-0.006
	c-0.004-0.003-0.006-0.006-0.01-0.009c-0.041-0.032-0.084-0.06-0.125-0.09c-0.037-0.026-0.072-0.055-0.111-0.079
	c-0.059-0.038-0.119-0.071-0.178-0.104c-0.027-0.015-0.053-0.031-0.08-0.045c-0.074-0.038-0.148-0.071-0.225-0.104
	c-0.016-0.006-0.029-0.014-0.043-0.02c-0.086-0.033-0.174-0.062-0.262-0.089c-0.006-0.002-0.014-0.005-0.02-0.007
	C55.703,0.033,55.406-0.005,55.109,0c-0.027,0.001-0.055,0.005-0.082,0.006c-0.07,0.003-0.143,0.007-0.213,0.015
	c-0.004,0.001-0.008,0.001-0.012,0.002C53.935,0.129,33.394,2.821,17.57,18.875c-4.76,4.829-8.613,10.54-11.141,16.518
	c-2.361,5.58-3.49,11.122-3.266,16.03c0.162,3.541,1.027,6.546,2.527,8.871l-5.039,6.326c-1.031,1.293-0.816,3.176,0.475,4.207
	c0.553,0.438,1.211,0.652,1.865,0.652c0.879,0,1.752-0.387,2.342-1.129l4.803-6.027c1.947,0.986,4.275,1.501,6.867,1.501
	c9.242,0,22.876-6.815,30.978-21.779c1.107-2.046,2.148-4.177,3.09-6.333c0.633-1.447,0.033-3.138-1.373-3.861l-3.926-2.02
	l6.551-0.243c1.184-0.044,2.23-0.78,2.67-1.879c4.479-11.194,3.211-26.339,3.156-26.979C58.148,2.719,58.146,2.707,58.144,2.695z
	 M47.427,7.905L23.072,38.478l-3.869-10.727c-0.143-0.394-0.359-0.739-0.629-1.027c0.994-1.229,2.078-2.447,3.26-3.646
	C30.306,14.482,40.488,10.075,47.427,7.905z M9.146,51.149c-0.213-4.64,1.229-11.521,5.41-18.636l4.133,11.464L9.822,55.109
	C9.445,53.97,9.213,52.637,9.146,51.149z M14.02,59.449l4.57-5.737l12.591,0.769c-4.904,3.543-10.044,5.357-14.177,5.357
	C15.896,59.837,14.893,59.706,14.02,59.449z M42.718,41.196c-1.561,2.882-3.383,5.437-5.357,7.663l-14.214-0.867l11.906-14.944
	l9.363,4.819C43.875,38.996,43.306,40.109,42.718,41.196z M40.642,26.03L52.31,11.384c-0.156,4.293-0.701,9.624-2.223,14.295
	L40.642,26.03z"/>
</svg>
