<?xml version="1.0" encoding="utf-8"?>
<!-- Generator: Adobe Illustrator 16.0.0, SVG Export Plug-In . SVG Version: 6.00 Build 0)  -->
<!DOCTYPE svg PUBLIC "-//W3C//DTD SVG 1.1//EN" "http://www.w3.org/Graphics/SVG/1.1/DTD/svg11.dtd">
<svg version="1.1" id="Layer_1" xmlns="http://www.w3.org/2000/svg" xmlns:xlink="http://www.w3.org/1999/xlink" x="0px" y="0px"
	 width="483.565px" height="148.089px" viewBox="0 0 483.565 148.089" enable-background="new 0 0 483.565 148.089"
	 xml:space="preserve">
<g>
	<g>
		<path d="M79.223,6.235c-0.351,0.211-0.772,0.211-1.264,0.211c-1.054-0.772-3.02,0.351-4.003,0.351
			c-0.562,0-1.264-0.211-1.896-0.28c-1.967-0.352-4.144-0.211-6.109,0.21c-0.491,0.07-0.983-0.28-1.545-0.772
			c-0.281-0.141-0.352,0.141-0.632,0.211c-0.562,0.421-1.756,0.421-2.317,0.491c-1.756-0.491-3.23,0-4.985,0
			c-1.265,0-1.335-0.14-2.388,0.492c-0.352,0.21-0.772,0.702-1.265,1.334c-0.842,1.053-1.334,1.825-1.053,3.02
			c0.211,0.28,0.07,0.702,0.141,1.193c0.14,1.194,0.07,1.756,0.07,2.879c0,1.194-0.633,2.107-0.422,3.441
			c0.07,0.491,0.491,0.843,0.491,1.053c-0.21,0.843-0.562,1.615-0.491,2.177c0.141,0.633,0.352,1.194,0.352,1.756
			c0,0.281-0.141,0.702-0.141,1.124c0,0.491,0,0.982,0.141,1.475c0.07,0.491,0.21,0.912,0.421,1.264
			c0.211,0.281,0.702,0.491,1.054,0.491c1.755,0,1.755-0.07,3.44-0.07s1.686,0.141,3.301,0.141c1.193,0,1.193-0.28,2.317-0.28
			c0.842-0.281,1.475-0.141,1.896,0.07c2.177,1.334,2.669,5.336,0.141,6.319c-0.352,0.211-0.843,0.211-1.475,0.211
			c-0.562-0.211-1.194-0.281-1.967-0.141c-1.614,0.141-2.247-0.211-3.791-0.211c-1.265-0.702-2.247,0.422-3.23,0.422
			c-0.491,0.07-0.843-0.211-1.124-0.211c-0.14,0-0.28,0.211-0.491,0.421c-0.141,0.211-0.141,0.492-0.281,0.772
			c-0.14,0.281-0.351,0.562-0.351,0.913c-0.07,0.281,0.07,0.632,0.211,0.913c0.069,1.966-0.281,1.966-0.352,3.933
			c-0.07,0.141,0,0.21,0,0.21c-0.07,1.405,0,0.562,0.352,2.107c0.069,2.317,0.069,2.317,0,4.494
			c-0.281,1.053-0.352,0.842-0.562,1.545c-0.21,0.562-0.772,1.334-1.334,1.404c-1.053,0.141-1.123,1.053-2.177,1.264
			c-0.07,0.07-0.07,0.07-0.141,0.07c-0.983,0.421-1.334,0.913-2.177,0.07c-0.281-0.281-0.281-0.702-0.281-1.124
			c0-0.421-0.069-0.632-0.069-0.772c0.069-1.053-0.07-1.334,0.28-2.247c-0.141-0.843-0.28-1.614-0.141-2.387
			c0.141-0.843,0.211-1.826,0.211-2.88c0-1.685-0.07-1.685-0.07-3.37c0-2.317,0.141-2.317,0.141-4.564
			c0-1.686,0.07-1.686,0.07-3.371c0-1.475,0-1.475,0-2.879c0-0.562-0.352-0.632-0.211-1.053c0.281-0.281,0.562-0.492,0.562-0.562
			c0-0.14-0.351-0.28-0.632-0.562c-0.07-2.036,0.07-2.036,0.07-4.072c0-0.633,0.141-1.124,0.281-1.686s0.141-1.124-0.141-1.615
			c-0.07-1.615-0.211-1.615-0.211-3.23c0-1.475,0.352-1.545,0.281-3.09c-0.141-0.491-0.352-0.912-0.352-1.404
			c-0.07-0.421-0.07-0.912-0.07-1.404c0-0.562-0.351-0.982-0.702-1.404c-0.351-0.491-0.772-0.843-1.264-1.193
			c-2.668-1.615-5.196-1.545-8.286-1.194c-1.615,0.141-3.3,0.422-5.056,0.702c-1.756,0.211-3.371,0.633-4.916,0.983
			c-1.123,0-2.177,0.632-3.3,0.983c-1.054,0.421-1.896,1.334-2.879,1.334c-1.054,0.281-1.686,1.334-2.388,2.036
			c-0.422,0.352-0.913,0.772-1.475,1.404c-0.632,0.562-1.545,1.124-2.528,1.967c-0.28,0.28-0.351,0.632-0.421,0.772
			s-0.141,0.07-0.211,0.21c0,0,0,0,0,0.07c-0.07,0.141-0.141,0-0.281,0.141c-0.351,0.422-0.772,0.913-1.053,1.475
			c-0.281,0.281-0.702,2.317-1.404,3.16c-0.281,0.843-0.772,1.966-1.265,3.44c-0.491,1.475-0.912,2.949-1.053,4.494
			c-0.211,1.054-0.141,2.177-0.211,3.371c-0.07,1.123-0.281,2.177-0.211,3.3c0.07,1.124,0.352,2.247,0.492,3.371
			c0.21,1.193,0.351,2.317,0.632,3.44c0.281,1.194,0.772,2.317,1.193,3.301c0.211,0.421,0.352,0.913,0.562,1.334
			c0.21,0.422,0.491,0.772,0.772,1.124c1.123,1.475,1.123,1.404,2.247,2.879c0.562,0.632,1.053,1.404,1.825,2.177
			c0.702,0.772,1.404,1.334,1.966,1.545c0.141,0,1.756,1.123,2.178,1.404c2.809,1.545,4.354,2.036,7.724,3.09
			c1.054,0.281,2.177,0.421,3.371,0.562c1.334,0.211,2.738,0.632,4.072,0.632c1.335,0,2.669-0.351,4.003-0.562
			c1.334-0.141,2.738-0.211,4.003-0.562c1.264-0.352,2.457-0.913,3.722-1.475c1.334-0.492,2.949-0.913,4.143-1.756
			c0.281-0.211,1.054-1.123,1.124-1.123c1.053-0.211,2.036-1.475,3.02-2.178c0.491-0.421,1.123-0.842,1.614-1.334
			c0.633-0.491,1.194-0.982,1.967-0.982c0.491,0,0.913,0.351,1.334,0.562c0.491,0.211,0.983,0.28,1.193,0.632
			c0.422,0.491,0.772,1.756,0.702,2.388c-0.069,0.772-0.491,1.404-1.053,2.036c-0.772,0.702-1.475,1.334-2.106,1.896
			c-0.702,0.562-1.265,1.193-1.896,1.755c-1.475,0.141-1.404,1.404-2.738,2.388c-0.843,0.141-0.983,1.545-1.264,2.177
			c0,1.124,0.14,2.458,0.14,4.003s-0.28,2.949-0.28,4.424c0,1.404,0.141,2.668,0.07,3.792c0,1.123-0.07,1.896-0.141,2.317
			c-0.07,0.632-0.352,1.053-0.632,1.404c-0.281,0.28-0.422,0.702-0.702,0.843c-0.352,0.21-0.772,0.351-1.054,0.421
			c-0.351,0.07-0.702-0.211-0.983-0.211c-0.21,0-0.21,0.281-0.421,0.281c-0.07,0-0.211-0.07-0.211-0.07s0,0.07-0.07,0.07
			s-0.07-0.07-0.141-0.07c-0.702-0.07-1.193-0.632-1.544-1.334c-0.352-0.632-0.633-1.475-0.633-2.458
			c0.141-0.702,0.422-2.106,0.422-4.072c0.07-0.983-0.211-2.037-0.211-3.02c0.07-1.054,0.422-2.037,0.422-3.16
			c0-0.843-0.492-1.264-0.772-1.615c-0.633-0.843-1.265-0.843-2.317-0.421c-1.615,0.702-3.441,0.982-5.196,1.053
			c-1.194,0.141-2.388,0.141-3.582,0.141c-1.123,0-2.247,0.141-3.3,0.07c-2.247-0.281-4.424-0.702-6.53-1.334
			c-1.405-0.352-2.81-1.054-4.354-1.826c-1.404-0.562-2.879-1.264-4.283-2.106c-1.686-1.124-3.301-2.036-4.635-3.09
			c-1.334-1.123-2.457-2.388-3.44-3.581c-1.264-1.545-2.036-2.949-2.738-4.003c0.14-0.491-0.772-0.982-0.983-1.475
			C2.893,49.631,2.682,49,2.402,48.297C1.98,47.173,1.77,45.98,1.418,44.715c-0.281-1.193-0.772-2.387-0.983-3.722
			c-0.21-1.475-0.421-3.019-0.421-4.634c-0.07-1.615,0.141-3.16,0.281-4.775c0.14-1.615,0.351-3.16,0.632-4.635
			c0.28-1.615,0.843-3.09,1.334-4.635c0.491-1.614,0.983-3.159,1.686-4.564c0.632-1.334,1.404-2.598,2.247-3.722
			c0.772-0.982,1.755-1.825,2.668-2.738c0.772-0.913,1.475-1.966,2.458-2.809c0.913-0.843,2.177-1.334,3.23-2.106
			c0.421-0.211,1.404-1.475,2.106-1.475c0.491-0.352,1.053-0.562,1.615-0.843c0.982-0.352,2.036-0.983,2.949-1.334
			c0.491-0.141,0.843-0.492,1.334-0.633c0.28-0.069,0.632,0.141,0.913,0.07c0.28-0.07,0.632-0.07,0.982-0.21
			c0.281,0,0.632-0.07,0.913-0.211c1.054-0.281,2.106-0.491,3.02-0.632c1.054-0.141,2.177-0.562,3.44-0.562c0.141,0,0.141,0,0.352,0
			c0.913-0.14,1.896-0.069,2.738-0.14c0.913,0,1.826,0.21,2.81,0.14c0.842-0.069,1.825-0.351,2.949-0.351
			c1.264,0,2.387,0.07,3.44,0.07c1.124,0,2.458,0,3.862,0c2.809,0,2.809-0.07,5.478,0.07c0.351,0.28,0.491,0.421,0.632,0.421
			c0.07,0,0.28-0.141,0.562-0.421c1.966-0.141,1.966,0.21,4.003,0.21c1.193,0,2.317,0.633,3.3-0.351
			c1.615-0.141,1.615,0.211,3.23,0.211c1.545,0,1.545,0,3.09-0.07c1.123-0.281,2.317-0.422,3.44-0.281
			c1.124,0.141,2.247,0.281,3.301,0.281c1.193,0,1.193,0.07,2.317,0c0.843-0.281,1.475-0.352,1.825-0.07
			c0.422,0.211,0.772,0.632,1.054,1.193c0.141,0.141,0.281,0.281,0.351,0.492c0.422,0.842,0.562,1.475,0.211,2.457
			C80.417,5.322,79.785,5.883,79.223,6.235z"/>
		<path d="M81.477,12.765h6.25c2.458,0,3.511,1.194,3.511,2.809c0,2.458-1.123,3.512-2.738,3.512c-2.458,0.562-4.073,0.562-5.828,0
			c-1.194,0-1.756,0.562-2.317,1.193c-1.194,0.562-1.686,1.054-1.686,2.247v8.638c0,1.755,1.686,3.44,3.37,3.44
			c1.194,0,2.388,0,3.441-0.632c1.193,0,2.247,1.193,3.02,1.193c0.211,0,0.351,0.07,0.421,0.281c0.07,0.07,0.07,0.211,0.07,0.28
			c0.562,1.194,1.124,2.88,0,3.933c-0.491,1.194-1.264,1.756-1.755,1.756h-5.197c-1.123,0-2.879,0.562-2.879,1.756
			c-0.491,1.755-0.491,2.809-0.491,4.494v3.511c0,1.123,0,2.317,0.491,3.511c0.562,1.615,2.879,2.388,4.635,1.615
			c1.686,0,3.441-0.07,5.196,0.702c1.194,0,1.756,0.491,1.756,1.545c0.491,0.772,0.491,1.686,0.491,2.458
			c0,1.053-1.123,2.247-2.247,2.247c-4.564,0.562-9.269,0.562-13.271,0.562c-2.247,0-3.371-1.193-3.371-3.511v-6.812v-1.756
			c0.562-1.053,0-2.177,0-4.072v-5.057c0.562-1.193,0-2.388,0.562-3.511c-0.562-1.615-0.562-2.599-0.562-4.494v-1.686v-0.562
			c0.562-2.879,0-5.267,0-7.514V17.4c0.562-0.562,0.562-1.826,0.562-2.388c0-1.686,1.193-2.247,2.247-2.247H81.477z"/>
		<path d="M106.337,12.765h6.25c2.458,0,3.511,1.194,3.511,2.809c0,2.458-1.123,3.512-2.738,3.512c-2.458,0.562-4.073,0.562-5.828,0
			c-1.194,0-1.756,0.562-2.317,1.193c-1.194,0.562-1.686,1.054-1.686,2.247v8.638c0,1.755,1.686,3.44,3.37,3.44
			c1.194,0,2.388,0,3.441-0.632c1.193,0,2.247,1.193,3.02,1.193c0.211,0,0.351,0.07,0.421,0.281c0.07,0.07,0.07,0.211,0.07,0.28
			c0.562,1.194,1.124,2.88,0,3.933c-0.491,1.194-1.264,1.756-1.755,1.756h-5.197c-1.123,0-2.879,0.562-2.879,1.756
			c-0.491,1.755-0.491,2.809-0.491,4.494v3.511c0,1.123,0,2.317,0.491,3.511c0.562,1.615,2.879,2.388,4.635,1.615
			c1.686,0,3.441-0.07,5.196,0.702c1.194,0,1.756,0.491,1.756,1.545c0.491,0.772,0.491,1.686,0.491,2.458
			c0,1.053-1.123,2.247-2.247,2.247c-4.564,0.562-9.269,0.562-13.271,0.562c-2.247,0-3.371-1.193-3.371-3.511v-6.812v-1.756
			c0.562-1.053,0-2.177,0-4.072v-5.057c0.562-1.193,0-2.388,0.562-3.511c-0.562-1.615-0.562-2.599-0.562-4.494v-1.686v-0.562
			c0.562-2.879,0-5.267,0-7.514V17.4c0.562-0.562,0.562-1.826,0.562-2.388c0-1.686,1.193-2.247,2.247-2.247H106.337z"/>
		<path d="M128.249,12.765c2.317,0,4.635,0.562,6.952,1.124h0.491c1.686,1.123,4.003,2.387,4.564,5.126
			c1.686,2.809,1.686,5.617,1.686,8.496c0,0.562-0.562,1.054,0,2.178v5.196v2.247v1.193v3.371v2.247c0,0.562,0,1.755-0.562,2.247
			c0,0.632,0.562,1.755,0.562,2.316c0,2.81-0.562,5.127-1.124,7.936c0,1.123-1.193,2.809-1.685,3.933
			c-0.633,0.632-1.756,1.755-2.81,1.755h-0.632c-1.755,1.756-4.002,1.124-6.319,1.686c-1.124,0-2.247-0.491-3.933,0
			c-0.491,0-1.686-0.491-2.809-1.124L122,62.13c0.632-1.123,0-1.755,0-2.879v-2.177v-6.32c-0.492-2.247,0-4.563,0-6.249
			c0-0.562-0.07-0.983-0.141-1.265c-0.07-0.351-0.07-1.053,0-2.247c0.07-1.193,0.141-2.106,0.141-2.668v-1.193
			c-0.492-1.615,0-3.371,0-5.688v-0.562v-1.686c-0.492-1.123-0.492-1.686,0-2.809v-8.005c0-1.054-0.492-2.177,0.632-3.301v-0.632
			c0-0.562,0-0.562,0.562-1.124c0.562,0,1.756-0.562,2.247-0.562H128.249z M128.249,54.196c0,1.123,1.124,2.247,1.756,2.879h0.562
			c0.562-0.632,0.562,0,1.124-0.632c1.193,0,2.316-0.491,2.879-1.124c0.632-1.123,1.123-2.247,1.123-3.44
			c0-1.756-0.491-3.933,0-5.688v-0.492c-0.562-1.755,0.562-3.37,0-4.564v-2.809v-6.882v-2.879v-0.491v-2.317
			c0-0.492,0-1.686-0.491-2.247c-0.632-2.879-2.388-4.003-5.196-3.371c-1.124,0-2.247,1.124-2.247,2.81
			c0.562,2.457,0.351,6.53,0.491,7.373c-0.491,0.562,0,1.123,0,1.685v2.317v3.441c-0.491,2.177,0,5.126-0.491,7.303v0.632
			c0.491,0.492,0.491,1.124,0.491,2.247c-0.491,1.054,0,2.177-0.491,3.371C128.249,52.44,127.757,53.072,128.249,54.196z"/>
		<path d="M167.434,29.197c-0.562,1.615,0,4.003-1.053,5.056c-0.562,0.633-0.562,1.194-1.194,1.194
			c-1.053,0.983-1.053,1.756,0,2.247c0.632,1.123,0.983,1.193,1.194,2.106c0.28,0.913,0.491,1.264,0.491,1.896
			c0.562,1.123,1.193,2.809,0.562,4.563c0,1.124,0.632,2.739,0,3.862c0,1.194,0.632,2.317-0.562,3.441v0.632
			c0.562,1.123,0,2.809-0.491,3.933c-1.686,2.879-3.512,4.002-6.25,5.126c-1.193,0.562-1.756,0-2.879,0
			c-2.317,0.562-3.933,0.562-6.25,0.562c-1.123,0-2.247-0.562-2.809-1.686v-1.123c0-1.124-0.562-2.317,0-3.441v-0.562
			c-0.562-2.317,0-5.056-0.562-7.373c0.562-1.686,0-4.003,0-5.618V42.82c0.562-1.123,0.562-2.317,0.562-3.37v-1.194V36.5v-7.935
			c0-2.247,0-4.564-0.562-6.18v-2.879c0.562-0.491,0.562-1.615,0.562-2.809v-2.247c0.562-0.632,1.123-1.124,1.686-1.124
			c1.685,0,3.44-0.632,4.564-0.632c0.491,0,0.632,0.141,2.527,0.141c1.896,0,2.528-0.141,3.16,0.491
			c1.124,0.492,2.247,1.124,2.738,1.615c0.632,0.632,0.632,0.632,1.194,0.632c1.123,1.124,2.317,2.317,2.809,3.933
			c0.562,2.317,1.193,4.003,1.193,6.32C168.066,26.95,168.066,28.003,167.434,29.197z M157.252,33.761c1.123,0,2.879,0,3.44-1.193
			c0.562-1.054,1.124-2.81,1.124-4.003c0-1.615,0-2.668-0.562-4.564c0-2.177-0.562-3.37-2.88-3.933
			c-2.247-1.053-3.932,0.562-3.932,2.88c-0.562,1.053-0.562,2.247-0.562,3.37v5.618c0.562,0.632,0.562,0.632,0.562,1.193
			c0.491,0.632,1.123,0.632,2.317,0.632H157.252z M161.817,47.384c0-0.632-0.562-1.124,0-1.756c0-1.123-0.562-2.247-0.562-2.809
			c-0.562-1.123-1.756-2.317-2.88-2.317c-1.123-0.491-2.247-0.491-3.44,0.562c-0.491,0-0.491,0.633-0.491,1.124
			c0,1.193-0.562,2.879,0,4.072v0.492c-0.562,1.755-0.562,3.3-0.562,5.196v1.123c0,1.615,0.562,2.81,2.247,3.371
			c1.756,0,2.81-0.562,4.003-0.562c0.211,0,0.421-0.07,0.491-0.281c0.07-0.07,0.07-0.211,0.07-0.281
			c0.562-1.123,1.124-2.879,1.124-4.564V47.384z"/>
		<path d="M188.784,24.493c0.562,1.685,0.562,2.809,1.053,4.563v2.317c0.633,3.301,1.194,6.25,1.826,8.988
			c0.562,3.441,1.686,7.443,2.247,10.814c0,1.756,0.562,2.949,1.123,4.635v0.562c0,0.491,0,1.686,0.633,2.247
			c0.491,1.756,0,2.879-0.633,4.003c-0.562,0.562-1.123,1.123-1.685,1.123c-2.317,0-4.003-1.123-4.564-3.37
			c0-1.756,0-3.512-0.562-5.196c-1.124-2.247-2.317-2.739-4.635-2.739c-1.686,0-2.739,0.492-3.933,2.177v0.562
			c0,0.632,0,0.632-0.491,1.193c-0.633,0.491,0,1.686,0,2.809c0,0.632-0.633,1.194-0.633,1.686c-0.562,2.317-3.44,2.879-5.126,2.317
			c-0.562-0.562-1.123-1.124-1.123-1.686c0-1.686,0-3.44,0.562-5.126c0-1.193,0.562-2.247,0.562-3.933
			c0.562-1.334,0.562-2.949,1.124-4.635c0.562-2.177,0-5.758,1.123-7.935c0.562-1.686,1.194-3.933,1.194-5.688v-1.194
			c0.562-2.247,1.123-4.985,1.685-7.303c0-0.632,0-1.686,0.633-2.317v-1.686c0-1.123,0-2.879,0.491-4.002
			c0.211,0,0.421-0.07,0.491-0.281c0.07-0.07,0.07-0.211,0.07-0.281c-0.562-1.685,0.632-3.37,2.317-3.932
			c0.562-0.633,1.054-0.633,1.054,0c1.334,0,1.825,0,2.317,0.562c0.632,0,0.632,0.491,1.193,1.123c0,1.686,0.491,2.81,0.491,4.494
			c0,0.492,0,1.756,0.633,2.317c0.562,0.562,0.562,1.124,0.562,2.317V24.493z M185.413,36.43c-0.562-1.756-1.264-4.003-1.264-5.688
			h-0.562h-0.492v3.933c-0.562,2.458-1.193,5.196-1.685,8.005c0,1.124,0,1.686,1.123,2.317c0.562,1.194,1.545,1.194,2.317,0.562
			c1.054-0.562,1.686-1.193,1.686-2.317c-0.632-1.123-0.632-2.247-0.632-2.879c-0.492-1.053-0.492-2.177-0.492-3.3V36.43z"/>
		<path d="M206.762,29.899v5.688v1.615v5.688v2.879c0,2.247,0.562,4.494,0,6.741c0.562,0.562,0.562,1.124,0.562,1.686
			c0.562,1.756,1.615,2.247,3.371,2.247c1.686,0,2.809-0.491,2.809-2.247c0.562-1.124,1.124-2.247,1.124-3.933
			c-0.562-0.562,0-0.562,0.562-1.123h3.933c0.562,0.562,1.193,0.562,1.193,1.123v2.809c0,1.686,0,3.371-1.193,4.494
			c-0.562,1.756-1.615,2.88-2.81,3.933c-1.685,1.756-3.37,2.317-5.617,2.317s-3.933-0.562-5.126-1.686
			c-2.739-1.685-4.494-4.002-4.494-7.373v-7.935c-0.562-3.933,0-7.304-0.562-10.674c0-2.317,0.562-4.003,0-5.688
			c0-2.247,0.562-4.494,0.562-6.18c-0.562-2.809,0-5.688,1.755-7.373c2.81-3.933,8.919-5.618,12.921-2.247
			c0.562,0,1.194,0.562,1.194,1.123s0.562,0.562,0.562,1.124c2.177,1.685,2.809,4.002,2.809,6.179v1.756
			c0,1.686-0.632,2.247-2.317,2.809h-1.686c-1.123,0-1.685-0.562-1.685-1.685c-0.562-1.124-0.562-2.247-0.562-3.441
			c-0.562-1.053-1.686-2.177-2.81-2.177c-1.755-0.632-2.879-0.141-3.37,1.615c-1.124,1.123-1.124,2.317-1.124,4.003V29.899z"/>
		<path d="M226.848,59.533c-0.562-1.054,0-2.177-0.562-2.81V55.6c0.562-1.756,0.562-3.862,0-6.25c0-0.562,0-1.755,0.562-2.317
			v-0.562c-0.562-0.562,0-1.123,0-2.317v-1.615c-0.562-1.755,0-2.879-0.562-4.634v-0.562c0.562-0.562,1.123-1.755,0.562-2.317
			c-0.562-1.053,0-1.685-0.562-2.809c0-1.123,0-2.317,0.562-2.879v-0.562c-0.562-1.054,0-2.317,0-3.371
			c-0.562-2.317-0.562-4.635,0-6.951v-0.562c-0.562-1.053-0.562-2.809,0.562-3.37c0.632-1.124,2.317-1.756,3.511-1.756
			c1.054,0.632,1.615,1.756,1.615,2.879c0.562,1.756,0.562,2.81,0,4.564c0,0.562,0.562,1.124,0.562,1.756
			c-0.562,3.44-0.562,6.812-0.562,10.252v0.562c0,0.07,0,0.211,0.07,0.281c0.07,0.211,0.281,0.281,0.491,0.281
			c0.633,0,0.633,0,0.633-0.562c0.562-0.562,1.123-1.123,1.123-2.316c0-0.07,0-0.211,0.07-0.352c0.07-0.281,0.281-0.562,0.491-0.772
			c1.194-1.615,1.756-3.933,2.317-6.25c0.562-1.755,1.054-3.44,2.247-5.196c0.562-0.491,0.562-1.053,0.562-1.615
			c0.562-1.755,1.123-2.879,2.879-2.879h0.562c1.123-0.632,2.317-0.632,2.879,0.562c0.211,0,0.352,0.069,0.422,0.28
			c0.069,0.07,0.069,0.211,0.069,0.281c-0.491,1.123,0,2.317-1.053,2.879l-0.562,0.491v0.562c0,1.193-1.194,2.316-1.194,3.511
			c0,1.123-1.123,2.247-1.686,3.44v0.562c-0.632,1.755-0.632,2.809-1.755,3.932c-1.124,1.756-0.562,4.073-0.562,5.688
			c0.562,3.44,2.316,6.319,2.879,9.128l1.685,5.197v0.562c1.756,3.37,2.247,6.882,3.441,9.761c0.562,1.053,0,2.177,0,2.809
			c0,0.562-0.632,0.562-1.194,0.562c-2.247,0.562-4.494-0.562-5.126-2.317c-0.562-1.053-0.562-1.755-0.562-2.809
			c0-0.562-0.562-1.123-0.562-1.756c-0.562,0-0.562-0.562-0.562-1.123c0.562-1.756-1.194-2.809-1.194-3.933
			c-0.211,0-0.421-0.07-0.491-0.28c-0.07-0.07-0.07-0.211-0.07-0.281c0-1.756-0.491-2.879-1.054-4.073
			c0-1.123-0.562-1.685-1.123-2.879c0-1.053-0.632-1.053-1.194,0c-1.123,1.194-1.685,2.879-2.317,4.635
			c-0.562,1.686-0.562,3.371,0,5.056c0,0.632,0,1.194-0.562,1.756c0,1.756,0.562,2.879,0.562,4.635c0,2.177-1.685,3.37-3.932,3.37
			c-1.124,0.562-1.756-0.562-2.317-1.193V59.533z"/>
		<path d="M283.309,20.208c-0.562,0.492-1.686,0.983-1.686,2.739c0,1.123-0.632,2.316,0,3.932v3.441
			c-0.632,1.123,0,1.685,0.632,2.809c0.492,1.193,1.054,1.826,2.178,1.826h4.563c1.054,0,2.317,0.491,2.88,0.982
			c1.123,1.124,0,5.196-1.826,5.759h-1.054h-3.44c-1.686,0-3.301,1.123-3.933,2.316v0.562c0,1.685-0.632,3.44,0,5.688
			c0,1.615,0,3.44-0.632,5.056v0.633c0.632,1.685,0.632,3.37,0.632,4.985c0,1.193-1.123,2.317-2.879,2.879
			c-1.686,0-2.738-1.124-3.37-2.317V58.69c-0.562-1.054,0.562-2.247,0-3.933v-1.686V46.26c0.632-1.685,0-3.44,0-5.126v-1.615
			c-0.352-2.457,0-4.563,0-7.021v-4.986v-6.319v-4.494c0-1.124,0-2.247,1.123-2.879c0-0.492,0.562-0.492,1.193-0.492
			c1.615,0,3.933-0.562,5.618-0.562c2.809,0.562,4.985,0.562,8.005,0.562c1.054,0,1.615,0.492,2.177,2.247v1.686
			c0,1.194-0.562,2.247-2.177,2.247c-1.334,0.772-2.949,0.702-4.564,0.702H283.309z"/>
		<path d="M298.831,55.67v-3.933v-4.072v-6.32v-6.25v-4.564v-8.637v-2.879c0.491-0.562,0-1.686,0-2.809c0-0.633,0-1.756,0.491-2.317
			c1.334-0.633,1.756-1.124,2.388-1.124h6.249c2.88,0,5.196,0.491,7.514,2.247c1.615,1.194,2.81,2.317,3.371,4.564
			c0.562,1.193,0.562,2.949,1.193,4.635v2.247c-0.632,0.632-0.632,0.632-0.632,1.123c0.632,0.633,0.632,1.194,0,1.756v1.193v0.492
			c-0.562,1.755-1.123,4.072-1.686,6.39h-0.632c-1.123,0.492-1.123,1.615-1.615,2.809c-0.632,0-0.632,0.562,0,1.124
			c0.492,2.879,1.124,5.828,2.247,8.637c0,1.756,0.562,3.441,1.124,5.688c0.562,1.756,1.193,3.44,1.686,5.196
			c0.632,1.123-0.492,2.317-1.686,2.809c-1.756,0-4.003-0.491-4.564-2.809c-0.562-0.632-0.562-1.756-0.562-2.247
			c0-0.632,0-1.193-0.562-1.193c-0.632,0-0.632-0.562-0.632-1.124c0-1.123-0.491-2.317-0.491-2.879
			c-0.632-1.686-0.632-2.879-1.193-4.003c-0.562-0.632-0.562-1.123-0.562-1.755c0-1.756-0.562-3.441-1.685-4.564
			c0-0.772-0.562-1.124-1.756-1.124s-1.193,0.422-1.686,1.756c0,1.123-0.632,1.686,0,2.809c0,1.124-0.632,1.756-0.632,2.247
			c0,2.317,0.632,4.073,0.632,6.391v1.685c-0.632,0.562-0.632,1.756,0,2.879v1.124c-0.632,2.317-1.756,3.44-4.564,2.317
			c-0.632,0-1.755-1.194-1.755-2.317V55.67z M313.717,27.09c0-1.123-0.562-2.879-0.562-4.073c-0.562-3.37-4.072-4.002-6.319-2.879
			h-0.562c-0.632,1.124-1.756,1.756-1.124,2.879v1.686c0,0.632-0.632,1.265,0,1.265c0.492,2.247,0,3.932,0,5.688v1.686
			c0.492,1.123,1.124,1.123,1.686,1.755c1.123,0.562,2.879,0.562,4.564-0.632c1.123-0.491,1.755-1.686,2.317-2.809V27.09z"/>
		<path d="M347.144,38.115l-0.07,3.933c-0.07,0.772-0.07,1.193-0.562,1.756c-0.07,0.491-0.07,1.615-0.772,2.668
			c0,0.632,0,1.124-0.491,1.124c0,0.07,0,0.21-0.07,0.28c-0.07,0.211-0.281,0.281-0.562,0.281c-0.562,1.896-1.826,2.809-3.512,3.301
			c-0.632,0.562-1.123,0.562-1.123,1.053c-0.562,0-1.194,0.562-1.686-0.07l-2.317-0.07c-2.317-0.07-3.933-0.702-4.985-1.755
			c-3.862-3.02-4.846-7.514-4.214-23.595c-0.632-0.562,0-1.193,0-1.686c0-0.772,0.492-1.755,0-2.879c0-1.123,0.492-2.247,1.054-3.3
			c1.123-1.896,2.317-3.512,4.003-4.635c0.491-1.194,1.614-1.615,3.37-1.124c0.491,0,1.054-0.491,2.247-0.491
			c1.124,0,2.247,0,3.301,1.123c2.317,1.124,4.002,2.81,5.126,4.494v0.633c0.632,2.177,1.686,3.932,1.123,6.179
			c0,1.124,0.562,2.247,0,3.933c0.632,0.632-0.632,2.177,0,3.371c-0.21,0.421,0.281,1.193,0.211,4.985c0.07,0,0.141,0,0.211,0.07
			S347.355,37.905,347.144,38.115z M345.038,59.743c0.562,0.562,0.562,1.124,0,1.686c0,0.07,0,0.211-0.07,0.352
			c-0.07,0.28-0.281,0.562-0.491,0.772c-0.562,0.632-1.194,1.123-2.317,1.123c-1.124-0.491-1.615,0-4.214,0
			c-0.632-0.491-1.193-0.491-2.316,0h-4.494c-1.124-0.491-1.756-0.491-2.317-1.686c0-1.123-1.194-2.247,0-3.44
			c0.562-0.562,1.193-0.562,1.755-1.123c1.686-0.562,3.441,0,5.618,0l2.177-0.141c0.702,0.07,1.475,0.141,2.177,0.141h1.054
			c1.685-0.562,2.316,0,2.879,1.123c0.28,0.281,0.421,0.632,0.491,0.843C345.038,59.533,345.038,59.673,345.038,59.743z
			 M341.457,41.205c-0.492-0.843-0.141-2.036-0.281-3.02c-0.211-0.351-0.421-0.772-0.421-1.123c0.632-2.177,0-4.846,0-7.304v-1.123
			c0.632-1.054,0-2.177,0.632-3.301v-0.702c-0.632-0.491-0.632-1.053-0.632-1.545c-0.492-1.755-1.054-2.879-2.177-2.879h-0.492
			c-1.896,0-2.879,0-3.511,1.124c-1.615,1.123-2.247,2.809-2.247,4.494c0.632,1.193,0,2.317,0,6.319l0.281,5.267
			c0,0.352,0,0.632,0,0.983c0,0-0.07,0-0.141,0v0.913c0.562,0.562,0.562,1.123,0.562,1.615c-0.07,1.896,2.106,4.704,4.354,4.845
			c0.632,0,1.124,0,1.124-0.632c1.193-1.054,1.755-2.106,2.949-3.301V41.205z"/>
		<path d="M374.813,58.058c-0.562-0.562-0.562-0.562,0-1.124v-0.562c-0.562-1.686-0.562-2.809-0.562-4.494l0.562-0.562
			c-0.562-3.02,0-5.196,0-7.443c-0.562-2.88,0-5.127,0-7.374v-0.562c0-0.211-0.069-0.421-0.28-0.491
			c-0.07-0.07-0.211-0.07-0.281-0.07h-0.562c0,1.123,0,1.686-0.562,2.247c0,1.123,0,2.247-1.124,2.809v0.562
			c0,1.194-0.562,2.317-0.562,3.441c-0.562,1.123-1.124,2.809-1.124,3.933c0,1.123-0.562,1.614-1.123,2.949v1.123
			c0,1.124-0.562,1.686-1.686,1.686c-0.772,0.562-1.264,0-1.825-0.562c-0.562-1.124-1.124-2.177-1.686-3.512
			c0-1.685-0.562-3.37-1.124-5.056c-0.562-0.562-0.562-1.686-0.562-2.247s0-0.562-0.562-1.123c-0.562-0.633-0.562-1.194-0.562-1.756
			c0-1.686-1.124-2.247-1.124-3.933c0-0.07,0-0.211-0.07-0.28c-0.07-0.211-0.28-0.281-0.491-0.281V36.5c0,0.562-0.562,1.686,0,2.81
			c0,0.562,0.562,1.685-0.562,2.879c0.562,1.123,0.562,1.686,0.562,2.809c-0.562,2.247,0,4.424,0,6.882
			c0,0.562-0.562,1.123-0.562,1.686c-0.562,0.562,0.562,1.123,0.562,1.685c-0.562,1.686,0,3.371,0,5.127
			c-0.562,1.685-1.756,2.809-2.879,3.37c-1.686,0-3.371-1.123-3.371-2.809c0-2.317-0.562-4.564,0-7.373v-0.562v-8.566v-4.003
			c-0.562-1.123,0-1.686,0-2.809V36.5c-0.562-1.123,0-2.247,0-3.37c-0.562-1.756,0-2.879,0-4.003v-3.37
			c-0.562-1.124-0.562-1.686,0-2.809V17.75c-0.562-1.123-0.562-1.685,0-2.809c0.562-0.562,0.562-1.755,1.686-1.755h1.123
			c0-0.562,0.562-0.562,0.562,0c1.755,0.632,2.879,1.193,3.44,2.879c0,1.685,0.562,3.37,1.124,4.494
			c0.562,1.123,0.562,2.388,1.123,4.072c0.562,0.562,0.562,1.686,0.562,2.247c0,0.211,0.07,0.492,0.281,0.772l0.281,0.352
			c0,1.686,0.562,2.809,1.685,4.564c0,0.562,0,1.685,0.562,2.247v1.123V36.5c0.562,0.562,0.562,1.124,1.123,1.124
			c0.772,0,0.702-0.562,1.264-1.124l1.686-5.126c0.562-1.685,0.562-3.37,1.686-5.617l1.686-6.882c0.21,0,0.421-0.07,0.491-0.281
			c0.07-0.07,0.07-0.21,0.07-0.28c0.562-1.124,0.562-1.686,0.562-2.247v-1.124c0.562-1.123,3.441-2.317,4.564-2.317
			c0,0.211,0.07,0.422,0.281,0.492c0.07,0.07,0.21,0.07,0.28,0.07c1.124,1.193,1.686,2.317,1.124,4.002v2.247
			c0.562,0.562,0.562,1.686,0.562,2.247c-0.562,3.02,0,5.759-0.562,8.006c0,0.562,0,1.123-0.562,1.685c0.21,0,0.351,0,0.562,0.07
			c0.351,0.07,0.562,0.281,0.562,0.562c-0.562,1.686,0,3.371-0.562,5.057v5.126c0,1.686,0.562,3.37,0,5.056v1.686
			c0.562,1.123,0.562,2.949,0,4.072c0,0.562,0.562,1.124,0,1.124v0.562c0.562,1.124,0,1.686,0,2.809v2.317
			c0.562,1.124,0,2.247-1.124,2.81c-0.562,1.755-3.44,1.123-4.564-0.562c-0.562-0.562,0.562-1.123,0-1.685V58.058z"/>
		<path d="M429.168,38.115l-0.07,3.933c-0.07,0.772-0.07,1.193-0.562,1.756c-0.07,0.491-0.07,1.615-0.772,2.668
			c0,0.632,0,1.124-0.491,1.124c0,0.07,0,0.21-0.07,0.28c-0.07,0.211-0.281,0.281-0.562,0.281c-0.562,1.896-1.825,2.809-3.511,3.301
			c-0.632,0.562-1.123,0.562-1.123,1.053c-0.562,0-1.194,0.562-1.686-0.07l-2.317-0.07c-2.317-0.07-3.933-0.702-4.985-1.755
			c-3.862-3.02-4.846-7.514-4.214-23.595c-0.632-0.562,0-1.193,0-1.686c0-0.772,0.492-1.755,0-2.879c0-1.123,0.492-2.247,1.054-3.3
			c1.123-1.896,2.317-3.512,4.003-4.635c0.491-1.194,1.614-1.615,3.37-1.124c0.491,0,1.054-0.491,2.247-0.491
			c1.124,0,2.247,0,3.301,1.123c2.317,1.124,4.002,2.81,5.126,4.494v0.633c0.632,2.177,1.686,3.932,1.123,6.179
			c0,1.124,0.562,2.247,0,3.933c0.632,0.632-0.632,2.177,0,3.371c-0.21,0.421,0.281,1.193,0.211,4.985c0.07,0,0.141,0,0.211,0.07
			S429.379,37.905,429.168,38.115z M427.062,59.743c0.562,0.562,0.562,1.124,0,1.686c0,0.07,0,0.211-0.07,0.352
			c-0.07,0.28-0.281,0.562-0.491,0.772c-0.562,0.632-1.194,1.123-2.317,1.123c-1.124-0.491-1.615,0-4.214,0
			c-0.632-0.491-1.193-0.491-2.317,0h-4.494c-1.123-0.491-1.755-0.491-2.316-1.686c0-1.123-1.194-2.247,0-3.44
			c0.562-0.562,1.193-0.562,1.755-1.123c1.686-0.562,3.441,0,5.618,0l2.177-0.141c0.702,0.07,1.475,0.141,2.177,0.141h1.054
			c1.685-0.562,2.316,0,2.879,1.123c0.28,0.281,0.421,0.632,0.491,0.843C427.062,59.533,427.062,59.673,427.062,59.743z
			 M423.481,41.205c-0.492-0.843-0.141-2.036-0.281-3.02c-0.211-0.351-0.421-0.772-0.421-1.123c0.632-2.177,0-4.846,0-7.304v-1.123
			c0.632-1.054,0-2.177,0.632-3.301v-0.702c-0.632-0.491-0.632-1.053-0.632-1.545c-0.492-1.755-1.054-2.879-2.177-2.879h-0.492
			c-1.896,0-2.879,0-3.511,1.124c-1.615,1.123-2.247,2.809-2.247,4.494c0.632,1.193,0,2.317,0,6.319l0.281,5.267
			c0,0.352,0,0.632,0,0.983c0,0-0.07,0-0.141,0v0.913c0.562,0.562,0.562,1.123,0.562,1.615c-0.07,1.896,2.106,4.704,4.354,4.845
			c0.632,0,1.124,0,1.124-0.632c1.193-1.054,1.755-2.106,2.949-3.301V41.205z"/>
		<path d="M455.503,21.122v1.756v3.581c-0.562,0.491-0.562,1.686,0,2.809v4.214v4.002v5.337v1.826c0,3.44,0,7.583-0.562,10.393
			v1.264c-2.458,2.879-3.44,5.758-7.022,6.32c-2.317,1.334-4.704,1.264-7.021-0.492c-0.632-0.562-1.194-1.193-1.826-1.193
			c-2.317-1.756-2.738-4.073-3.511-6.391c-0.281-0.912-0.422-2.879-0.422-5.828c0-5.969-0.14-8.918-0.14-9.409
			c0-0.913,0-1.826,0.07-2.669l0.21-3.932c0.07-1.756,0-3.09-0.28-3.933v-0.632c0.562-2.317,0-4.003,0-6.531
			c0-0.21,0.07-0.351,0.28-0.421c0.07-0.07,0.211-0.07,0.281-0.07c-0.562-1.193,0-3.511,0-5.267c0-2.317,1.123-2.879,3.02-2.879
			h1.123c1.194,0.562,1.686,0.983,1.686,2.317v3.511v3.23v3.16c0.632,2.457,0,4.002,0,5.898c0,2.457,0.632,4.704,0,7.021v1.194
			c0.632,1.755,0,4.072,0,6.39v5.267c0,1.334,0.421,2.106,1.193,4.073c0.633,0,1.686,0.632,3.02,1.264h0.562
			c0.491-0.632,1.123-1.264,1.755-1.264c0.07,0,0.211,0,0.281-0.07c0.211-0.07,0.281-0.211,0.281-0.422
			c0.632-1.896,0.632-4.143,0.632-5.898v-1.193V23.439v-1.826v-5.758c0-2.317,2.317-3.651,4.072-2.879
			c0.562,0.562,0.983,0.562,1.756,1.053l0.281,0.422c0.21,0.281,0.28,0.562,0.28,0.843v4.002V21.122z"/>
		<path d="M461.685,55.67v-3.933v-4.072v-6.32v-6.25v-4.564v-8.637v-2.879c0.491-0.562,0-1.686,0-2.809c0-0.633,0-1.756,0.491-2.317
			c1.334-0.633,1.756-1.124,2.388-1.124h6.249c2.88,0,5.196,0.491,7.514,2.247c1.615,1.194,2.81,2.317,3.371,4.564
			c0.562,1.193,0.562,2.949,1.193,4.635v2.247c-0.632,0.632-0.632,0.632-0.632,1.123c0.632,0.633,0.632,1.194,0,1.756v1.193v0.492
			c-0.562,1.755-1.123,4.072-1.686,6.39h-0.632c-1.123,0.492-1.123,1.615-1.615,2.809c-0.632,0-0.632,0.562,0,1.124
			c0.492,2.879,1.124,5.828,2.247,8.637c0,1.756,0.562,3.441,1.124,5.688c0.562,1.756,1.193,3.44,1.686,5.196
			c0.632,1.123-0.492,2.317-1.686,2.809c-1.756,0-4.003-0.491-4.564-2.809c-0.562-0.632-0.562-1.756-0.562-2.247
			c0-0.632,0-1.193-0.562-1.193c-0.632,0-0.632-0.562-0.632-1.124c0-1.123-0.491-2.317-0.491-2.879
			c-0.632-1.686-0.632-2.879-1.193-4.003c-0.562-0.632-0.562-1.123-0.562-1.755c0-1.756-0.562-3.441-1.685-4.564
			c0-0.772-0.562-1.124-1.756-1.124c-1.194,0-1.194,0.422-1.686,1.756c0,1.123-0.632,1.686,0,2.809c0,1.124-0.632,1.756-0.632,2.247
			c0,2.317,0.632,4.073,0.632,6.391v1.685c-0.632,0.562-0.632,1.756,0,2.879v1.124c-0.632,2.317-1.755,3.44-4.564,2.317
			c-0.632,0-1.755-1.194-1.755-2.317V55.67z M476.572,27.09c0-1.123-0.562-2.879-0.562-4.073c-0.562-3.37-4.072-4.002-6.319-2.879
			h-0.562c-0.633,1.124-1.756,1.756-1.124,2.879v1.686c0,0.632-0.632,1.265,0,1.265c0.491,2.247,0,3.932,0,5.688v1.686
			c0.491,1.123,1.124,1.123,1.686,1.755c1.123,0.562,2.879,0.562,4.564-0.632c1.123-0.491,1.755-1.686,2.317-2.809V27.09z"/>
		<path d="M135.303,114.172v5.688v1.615v5.688v2.879c0,2.247,0.562,4.494,0,6.741c0.562,0.562,0.562,1.124,0.562,1.686
			c0.562,1.756,1.615,2.247,3.371,2.247c1.686,0,2.809-0.491,2.809-2.247c0.562-1.124,1.124-2.247,1.124-3.933
			c-0.562-0.562,0-0.562,0.562-1.123h3.933c0.562,0.562,1.193,0.562,1.193,1.123v2.809c0,1.686,0,3.371-1.193,4.494
			c-0.562,1.756-1.615,2.88-2.81,3.933c-1.685,1.756-3.37,2.317-5.617,2.317s-3.933-0.562-5.126-1.686
			c-2.739-1.685-4.494-4.002-4.494-7.373v-7.935c-0.562-3.933,0-7.304-0.562-10.674c0-2.317,0.562-4.003,0-5.688
			c0-2.247,0.562-4.494,0.562-6.18c-0.562-2.809,0-5.688,1.755-7.373c2.81-3.933,8.919-5.618,12.921-2.247
			c0.562,0,1.194,0.562,1.194,1.123s0.562,0.562,0.562,1.124c2.177,1.685,2.809,4.002,2.809,6.179v1.756
			c0,1.686-0.632,2.247-2.317,2.809h-1.686c-1.123,0-1.685-0.562-1.685-1.685c-0.562-1.124-0.562-2.247-0.562-3.441
			c-0.562-1.053-1.686-2.177-2.81-2.177c-1.755-0.632-2.879-0.141-3.37,1.615c-1.124,1.123-1.124,2.317-1.124,4.003V114.172z"/>
		<path d="M175.402,122.388l-0.07,3.933c-0.07,0.772-0.07,1.193-0.562,1.756c-0.07,0.491-0.07,1.615-0.772,2.668
			c0,0.632,0,1.124-0.491,1.124c0,0.07,0,0.21-0.07,0.28c-0.07,0.211-0.281,0.281-0.562,0.281c-0.562,1.896-1.826,2.809-3.512,3.301
			c-0.632,0.562-1.123,0.562-1.123,1.053c-0.562,0-1.194,0.562-1.686-0.07l-2.317-0.07c-2.317-0.07-3.933-0.702-4.985-1.755
			c-3.862-3.02-4.846-7.514-4.214-23.595c-0.632-0.562,0-1.193,0-1.686c0-0.772,0.492-1.755,0-2.879c0-1.123,0.492-2.247,1.054-3.3
			c1.123-1.896,2.317-3.512,4.003-4.635c0.491-1.194,1.614-1.615,3.37-1.124c0.491,0,1.054-0.491,2.247-0.491
			c1.124,0,2.247,0,3.301,1.123c2.317,1.124,4.002,2.81,5.126,4.494v0.633c0.632,2.177,1.686,3.932,1.123,6.179
			c0,1.124,0.562,2.247,0,3.933c0.632,0.632-0.632,2.177,0,3.371c-0.21,0.421,0.281,1.193,0.211,4.985c0.07,0,0.141,0,0.211,0.07
			S175.613,122.178,175.402,122.388z M173.295,144.016c0.562,0.562,0.562,1.124,0,1.686c0,0.07,0,0.211-0.07,0.352
			c-0.07,0.28-0.281,0.562-0.491,0.772c-0.562,0.632-1.194,1.123-2.317,1.123c-1.124-0.491-1.615,0-4.214,0
			c-0.632-0.491-1.193-0.491-2.316,0h-4.494c-1.124-0.491-1.756-0.491-2.317-1.686c0-1.123-1.194-2.247,0-3.44
			c0.562-0.562,1.193-0.562,1.755-1.123c1.686-0.562,3.441,0,5.618,0l2.177-0.141c0.702,0.07,1.475,0.141,2.177,0.141h1.054
			c1.685-0.562,2.316,0,2.879,1.123c0.28,0.281,0.421,0.632,0.491,0.843C173.295,143.806,173.295,143.947,173.295,144.016z
			 M169.714,125.478c-0.492-0.843-0.141-2.036-0.281-3.02c-0.211-0.351-0.421-0.772-0.421-1.123c0.632-2.177,0-4.846,0-7.304v-1.123
			c0.632-1.054,0-2.177,0.632-3.301v-0.702c-0.632-0.491-0.632-1.053-0.632-1.545c-0.492-1.755-1.054-2.879-2.177-2.879h-0.492
			c-1.896,0-2.879,0-3.511,1.124c-1.615,1.123-2.247,2.809-2.247,4.494c0.632,1.193,0,2.317,0,6.319l0.281,5.267
			c0,0.352,0,0.632,0,0.983c0,0-0.07,0-0.141,0v0.913c0.562,0.562,0.562,1.123,0.562,1.615c-0.07,1.896,2.106,4.704,4.354,4.845
			c0.632,0,1.124,0,1.124-0.632c1.193-1.054,1.755-2.106,2.949-3.301V125.478z"/>
		<path d="M189.027,113.12c0.562,1.123,1.194,1.755,1.756,2.809c0.491,0.632,1.123,1.756,1.686,2.388
			c1.755,1.053,2.247,2.247,3.44,4.002c1.193,0.633,1.756,1.686,2.879,2.317c1.194,2.247,1.756,4.003,2.317,6.25
			c1.193,3.02,0.632,5.828,0.632,8.075c0,3.02-1.193,5.267-2.949,7.022c-1.123,1.053-2.879,1.053-4.072,1.686h-1.686
			c-0.562,0.562-1.124,0.562-1.756,0h-1.053h-1.194c-0.562-0.633-0.562-0.633-1.193-0.633h-1.054
			c-1.755-1.053-2.949-2.387-3.581-4.002c-0.491-1.124-1.686-2.317-1.054-4.073c-0.632-0.562-0.632-1.053-0.632-1.686
			c0-0.562-0.562-1.755,0-2.316c0.632,0,0.632,0,0.632-0.492c0-1.193,1.054-1.193,1.686-1.755c1.124,0,2.317,0,2.949,0.562
			c0.211,0.21,0.352,0.491,0.422,0.843c0.07,0.14,0.07,0.28,0.07,0.351c0,1.686,1.193,3.441,1.193,5.126v0.562
			c1.123,0.562,2.317,1.755,3.44,1.193h1.124l1.686-1.756c0.632-0.632,1.193-1.193,1.193-2.879
			c-0.562-2.879-1.193-5.828-2.879-8.075c-1.124-1.615-2.879-2.247-3.441-4.003c-1.123,0-1.755-1.193-1.755-1.685
			c-1.054-0.633-1.054-1.194-1.686-2.388c-1.756-1.194-2.317-2.879-3.44-4.635c-0.562-1.054-0.562-2.809-0.562-4.003
			c0-1.123,0-2.317-0.632-4.072v-0.562c0.632-1.123,0.632-2.879,1.194-3.932c0-1.756,1.123-2.949,2.247-4.144
			c1.896-1.686,4.072-2.247,6.319-2.247h1.756c0,0.562,0,0.562,0.632,0.562c1.686-0.562,3.44,0,4.635,1.194
			c1.686,1.686,2.809,3.44,2.809,5.688c0.632,0.632,0.632,1.756,0.632,2.388v1.686c0,0.562-0.632,1.123-1.193,1.756
			c-1.194,0.562-2.247,0-3.441,0c-0.28,0-0.491-0.07-0.562-0.281c-0.07-0.07-0.07-0.211-0.07-0.352
			c-0.562-1.123-1.123-1.755-0.562-2.809v-0.632c-0.562-0.562-1.193-1.756-2.247-2.317c0-0.141-0.141-0.281-0.352-0.421
			c-0.069-0.07-0.21-0.07-0.28-0.07c-1.124,0-1.756,0-1.756-1.194c-0.07,0-0.141,0-0.211,0.07c-0.069,0.07,0,0.281,0.211,0.492
			c0,0.632,0,0.632-0.491,1.123c-2.317,1.193-2.949,2.949-2.317,4.635v0.562c0,0.211-0.141,0.422-0.352,0.491
			c-0.069,0.07-0.21,0.07-0.28,0.07C187.833,110.802,188.465,111.925,189.027,113.12z"/>
		<path d="M278.208,92.264c-0.14,0.842-0.772,1.475-1.475,1.896c-0.632,0.421-1.685,0.632-2.457,0.421
			c-0.702-0.14-1.404-0.912-1.686-1.614c-0.352-0.702-0.843-1.335-1.334-1.967c-0.983-1.334-2.458-2.177-4.003-2.809
			c-0.772-0.281-1.475-0.772-2.247-0.983c-1.615-0.421-3.581-0.632-5.267-0.772c-0.772,0-1.615,0-2.388,0
			c-1.615,0-3.09,0.352-4.704,0.492c-0.843,0.07-1.615-0.141-2.388,0c-0.843,0.07-1.545,0.491-2.317,0.562
			c-1.896,0.211-3.933,0.351-5.759,0.702c-0.771,0.141-1.475,0.421-2.177,0.562c-0.702,0.07-1.475,0-2.247,0.141
			s-1.545,0.352-2.387,0.491c-1.615,0.141-3.16,0.141-4.775,0.422c-1.896,0.28-3.651,0.702-5.618,0.983
			c-0.912,0.14-1.896,0.14-2.809,0.28c-0.141,0-1.123,0.632-1.686,0.772c-1.614,0.491-2.316,0.422-3.791,1.545
			c-0.633,0.562-1.545,1.334-1.615,2.809c-0.07,1.194-0.141,1.194-0.141,2.388c0,1.194-0.07,1.194-0.07,2.388s0.07,1.193,0.07,2.388
			c0,1.193,0.141,1.193,0.141,2.388c0,1.193,0,1.685-0.07,2.879v34.479c0,1.123,0,2.949-0.772,4.002
			c-1.054,1.054-3.301,1.054-4.424,0c-1.054-1.053-0.422-2.317-0.422-4.002c-0.632-1.686,0-4.003-0.632-6.32
			c0-1.053,0-2.177,0.632-3.862c0-0.632,0-0.632-0.632-1.264c-0.772-1.686,0-2.738,0.632-3.792v-0.702c-1.334-1.124,0-2.106,0-3.933
			c-0.632-0.491-0.632-1.686-0.632-2.809c0.632-2.247,0-3.933,0-6.18c0-0.562,0.632-1.193,0.632-2.247
			c-0.28,0.422-0.421-6.53-0.351-6.249c0-0.772-0.281-1.545-0.281-2.388c-0.07-0.772,0.07-1.615,0.07-2.388
			c0-0.843-0.07-1.686-0.07-2.388c0-1.123-0.07-1.966-0.07-2.388c0-1.193-0.491-1.755-1.334-2.036
			c-0.141-0.211-1.264-0.702-2.528-0.983c-2.387-0.632-3.02-0.421-5.126-0.632c-0.843-0.07-1.615,0-2.458-0.141
			c-1.614-0.28-3.229-0.702-4.774-1.123c-0.772-0.211-1.545-0.562-2.317-0.843c-1.404-0.702-3.02-1.334-4.283-2.317
			c-0.702-0.421-1.194-1.123-1.826-1.686c-0.562-0.562-1.123-1.053-1.686-1.685c-0.562-0.703-1.053-1.335-1.053-2.178
			c-0.07-0.842,0.421-1.685,0.982-2.247c0.562-0.632,1.475-0.842,2.247-0.842s1.686,0.28,2.178,0.842
			c0.702,0.843,1.614,1.476,2.457,2.178c0.562,0.421,0.983,0.842,1.615,1.193c0.562,0.281,1.194,0.491,1.756,0.702
			c0.982,0.421,1.896,0.772,2.879,0.983c0.983,0.28,1.966,0.632,2.949,0.843c0.772,0.07,1.545,0.21,2.317,0.21
			c0.772,0.07,1.545-0.21,2.317-0.21c0.913,0.07,1.896,0.21,2.879,0.14c0.913,0,1.896,0,2.879,0c0.983-0.069,1.896-0.14,2.879-0.28
			c0.913-0.07,1.826-0.07,2.739-0.141c1.825-0.281,3.651-0.632,5.477-0.772c0.632-0.07,1.335-0.141,1.967-0.211
			c0.772-0.141,1.615-0.21,2.387-0.28c0.843-0.141,1.545-0.492,2.388-0.562c0.772-0.14,1.615-0.07,2.388-0.21
			c0.422-0.07,5.267-0.843,6.461-0.983c0.912-0.141,1.755-0.352,2.598-0.491c1.826-0.141,3.371-0.562,5.126-0.843
			c0.772-0.141,1.615-0.281,2.388-0.352c0.843-0.141,1.686,0,2.528-0.141c0.772-0.069,1.545-0.421,2.387-0.562
			c0.843-0.07,1.615-0.141,2.458-0.211c0.843-0.069,1.686,0.07,2.458,0c1.686,0.141,3.3-0.28,4.915-0.14
			c0.843,0.07,1.686,0.14,2.458,0.21c1.756,0.281,2.949,0.772,4.635,1.194c1.545,0.421,3.02,0.772,4.354,1.686
			c1.124,0.912,2.668,1.614,3.651,2.738c0.492,0.562,1.054,1.123,1.475,1.756c0.422,0.632,0.772,1.334,1.124,2.036
			C278.349,90.649,278.419,91.421,278.208,92.264z"/>
		<path d="M244.224,105.395v1.756v3.581c-0.562,0.491-0.562,1.686,0,2.809v4.214v4.002v5.337v1.826c0,3.44,0,7.583-0.562,10.393
			v1.264c-2.458,2.879-3.44,5.758-7.022,6.32c-2.317,1.334-4.704,1.264-7.021-0.492c-0.632-0.562-1.194-1.193-1.826-1.193
			c-2.317-1.756-2.738-4.073-3.511-6.391c-0.281-0.912-0.422-2.879-0.422-5.828c0-5.969-0.14-8.918-0.14-9.409
			c0-0.913,0-1.826,0.07-2.669l0.21-3.932c0.07-1.756,0-3.09-0.28-3.933v-0.632c0.562-2.317,0-4.003,0-6.531
			c0-0.21,0.07-0.351,0.28-0.421c0.07-0.07,0.211-0.07,0.281-0.07c-0.562-1.193,0-3.511,0-5.267c0-2.317,1.123-2.879,3.02-2.879
			h1.123c1.194,0.562,1.686,0.983,1.686,2.317v3.511v3.23v3.16c0.632,2.457,0,4.002,0,5.898c0,2.457,0.632,4.704,0,7.021v1.194
			c0.632,1.755,0,4.072,0,6.39v5.267c0,1.334,0.421,2.106,1.193,4.073c0.633,0,1.686,0.632,3.02,1.264h0.562
			c0.491-0.632,1.123-1.264,1.755-1.264c0.07,0,0.211,0,0.281-0.07c0.211-0.07,0.281-0.211,0.281-0.422
			c0.632-1.896,0.632-4.143,0.632-5.898v-1.193v-24.016v-1.826v-5.758c0-2.317,2.317-3.651,4.072-2.879
			c0.562,0.562,0.983,0.562,1.756,1.053l0.281,0.422c0.21,0.281,0.28,0.562,0.28,0.843v4.002V105.395z"/>
		<path d="M272.244,142.332c-0.562-0.562-0.562-0.562,0-1.124v-0.562c-0.562-1.686-0.562-2.809-0.562-4.494l0.562-0.562
			c-0.562-3.02,0-5.196,0-7.443c-0.562-2.88,0-5.127,0-7.374v-0.562c0-0.211-0.069-0.421-0.28-0.491
			c-0.07-0.07-0.211-0.07-0.281-0.07h-0.562c0,1.123,0,1.686-0.562,2.247c0,1.123,0,2.247-1.124,2.809v0.562
			c0,1.194-0.562,2.317-0.562,3.441c-0.562,1.123-1.124,2.809-1.124,3.933c0,1.123-0.562,1.614-1.123,2.949v1.123
			c0,1.124-0.562,1.686-1.686,1.686c-0.772,0.562-1.264,0-1.825-0.562c-0.562-1.124-1.124-2.177-1.686-3.512
			c0-1.685-0.562-3.37-1.124-5.056c-0.562-0.562-0.562-1.686-0.562-2.247s0-0.562-0.562-1.123c-0.562-0.633-0.562-1.194-0.562-1.756
			c0-1.686-1.124-2.247-1.124-3.933c0-0.07,0-0.211-0.07-0.28c-0.07-0.211-0.28-0.281-0.491-0.281v1.123c0,0.562-0.562,1.686,0,2.81
			c0,0.562,0.562,1.685-0.562,2.879c0.562,1.123,0.562,1.686,0.562,2.809c-0.562,2.247,0,4.424,0,6.882
			c0,0.562-0.562,1.123-0.562,1.686c-0.562,0.562,0.562,1.123,0.562,1.685c-0.562,1.686,0,3.371,0,5.127
			c-0.562,1.685-1.756,2.809-2.879,3.37c-1.686,0-3.371-1.123-3.371-2.809c0-2.317-0.562-4.564,0-7.373v-0.562v-8.566v-4.003
			c-0.562-1.123,0-1.686,0-2.809v-1.124c-0.562-1.123,0-2.247,0-3.37c-0.562-1.756,0-2.879,0-4.003v-3.37
			c-0.562-1.124-0.562-1.686,0-2.809v-5.197c-0.562-1.123-0.562-1.685,0-2.809c0.562-0.562,0.562-1.755,1.686-1.755h1.123
			c0-0.562,0.562-0.562,0.562,0c1.755,0.632,2.879,1.193,3.44,2.879c0,1.685,0.562,3.37,1.124,4.494
			c0.562,1.123,0.562,2.388,1.123,4.072c0.562,0.562,0.562,1.686,0.562,2.247c0,0.211,0.07,0.492,0.281,0.772l0.281,0.352
			c0,1.686,0.562,2.809,1.685,4.564c0,0.562,0,1.685,0.562,2.247v1.123v0.562c0.562,0.562,0.562,1.124,1.123,1.124
			c0.772,0,0.702-0.562,1.264-1.124l1.686-5.126c0.562-1.685,0.562-3.37,1.686-5.617l1.686-6.882c0.21,0,0.421-0.07,0.491-0.281
			c0.07-0.07,0.07-0.21,0.07-0.28c0.562-1.124,0.562-1.686,0.562-2.247v-1.124c0.562-1.123,3.441-2.317,4.564-2.317
			c0,0.211,0.07,0.422,0.281,0.492c0.07,0.07,0.21,0.07,0.28,0.07c1.124,1.193,1.686,2.317,1.124,4.002v2.247
			c0.562,0.562,0.562,1.686,0.562,2.247c-0.562,3.02,0,5.759-0.562,8.006c0,0.562,0,1.123-0.562,1.685c0.21,0,0.351,0,0.562,0.07
			c0.351,0.07,0.562,0.281,0.562,0.562c-0.562,1.686,0,3.371-0.562,5.057v5.126c0,1.686,0.562,3.37,0,5.056v1.686
			c0.562,1.123,0.562,2.949,0,4.072c0,0.562,0.562,1.124,0,1.124v0.562c0.562,1.124,0,1.686,0,2.809v2.317
			c0.562,1.124,0,2.247-1.124,2.81c-0.562,1.755-3.44,1.123-4.564-0.562c-0.562-0.562,0.562-1.123,0-1.685V142.332z"/>
		<path d="M294.226,97.039h6.25c2.458,0,3.511,1.194,3.511,2.809c0,2.458-1.123,3.512-2.738,3.512c-2.458,0.562-4.073,0.562-5.828,0
			c-1.194,0-1.756,0.562-2.317,1.193c-1.194,0.562-1.686,1.054-1.686,2.247v8.638c0,1.755,1.686,3.44,3.37,3.44
			c1.194,0,2.388,0,3.441-0.632c1.193,0,2.247,1.193,3.02,1.193c0.211,0,0.351,0.07,0.421,0.281c0.07,0.07,0.07,0.211,0.07,0.28
			c0.562,1.194,1.124,2.88,0,3.933c-0.491,1.194-1.264,1.756-1.755,1.756h-5.197c-1.123,0-2.879,0.562-2.879,1.756
			c-0.491,1.755-0.491,2.809-0.491,4.494v3.511c0,1.123,0,2.317,0.491,3.511c0.562,1.615,2.879,2.388,4.635,1.615
			c1.686,0,3.441-0.07,5.196,0.702c1.194,0,1.756,0.491,1.756,1.545c0.491,0.772,0.491,1.686,0.491,2.458
			c0,1.053-1.123,2.247-2.247,2.247c-4.564,0.562-9.269,0.562-13.271,0.562c-2.247,0-3.371-1.193-3.371-3.511v-6.812v-1.756
			c0.562-1.053,0-2.177,0-4.072v-5.057c0.562-1.193,0-2.388,0.562-3.511c-0.562-1.615-0.562-2.599-0.562-4.494v-1.686v-0.562
			c0.562-2.879,0-5.267,0-7.514v-7.443c0.562-0.562,0.562-1.826,0.562-2.388c0-1.686,1.193-2.247,2.247-2.247H294.226z"/>
		<path d="M309.818,139.944v-3.933v-4.072v-6.32v-6.25v-4.564v-8.637v-2.879c0.491-0.562,0-1.686,0-2.809
			c0-0.633,0-1.756,0.491-2.317c1.334-0.633,1.756-1.124,2.388-1.124h6.249c2.88,0,5.196,0.491,7.514,2.247
			c1.615,1.194,2.81,2.317,3.371,4.564c0.562,1.193,0.562,2.949,1.193,4.635v2.247c-0.632,0.632-0.632,0.632-0.632,1.123
			c0.632,0.633,0.632,1.194,0,1.756v1.193v0.492c-0.562,1.755-1.123,4.072-1.686,6.39h-0.632c-1.123,0.492-1.123,1.615-1.615,2.809
			c-0.632,0-0.632,0.562,0,1.124c0.492,2.879,1.124,5.828,2.247,8.637c0,1.756,0.562,3.441,1.124,5.688
			c0.562,1.756,1.193,3.44,1.686,5.196c0.632,1.123-0.492,2.317-1.686,2.809c-1.756,0-4.003-0.491-4.564-2.809
			c-0.562-0.632-0.562-1.756-0.562-2.247c0-0.632,0-1.193-0.562-1.193c-0.632,0-0.632-0.562-0.632-1.124
			c0-1.123-0.491-2.317-0.491-2.879c-0.632-1.686-0.632-2.879-1.193-4.003c-0.562-0.632-0.562-1.123-0.562-1.755
			c0-1.756-0.562-3.441-1.685-4.564c0-0.772-0.562-1.124-1.756-1.124c-1.194,0-1.194,0.422-1.686,1.756c0,1.123-0.632,1.686,0,2.809
			c0,1.124-0.632,1.756-0.632,2.247c0,2.317,0.632,4.073,0.632,6.391v1.685c-0.632,0.562-0.632,1.756,0,2.879v1.124
			c-0.632,2.317-1.755,3.44-4.564,2.317c-0.632,0-1.755-1.194-1.755-2.317V139.944z M324.705,111.364
			c0-1.123-0.562-2.879-0.562-4.073c-0.562-3.37-4.072-4.002-6.319-2.879h-0.562c-0.633,1.124-1.756,1.756-1.124,2.879v1.686
			c0,0.632-0.632,1.265,0,1.265c0.491,2.247,0,3.932,0,5.688v1.686c0.491,1.123,1.124,1.123,1.686,1.755
			c1.123,0.562,2.879,0.562,4.564-0.632c1.123-0.491,1.755-1.686,2.317-2.809V111.364z"/>
		<path d="M343.807,113.12c0.562,1.123,1.194,1.755,1.756,2.809c0.491,0.632,1.123,1.756,1.686,2.388
			c1.755,1.053,2.247,2.247,3.44,4.002c1.193,0.633,1.756,1.686,2.879,2.317c1.194,2.247,1.756,4.003,2.317,6.25
			c1.193,3.02,0.632,5.828,0.632,8.075c0,3.02-1.193,5.267-2.949,7.022c-1.123,1.053-2.879,1.053-4.072,1.686h-1.686
			c-0.562,0.562-1.124,0.562-1.756,0h-1.053h-1.194c-0.562-0.633-0.562-0.633-1.193-0.633h-1.054
			c-1.755-1.053-2.949-2.387-3.581-4.002c-0.491-1.124-1.686-2.317-1.054-4.073c-0.632-0.562-0.632-1.053-0.632-1.686
			c0-0.562-0.562-1.755,0-2.316c0.632,0,0.632,0,0.632-0.492c0-1.193,1.054-1.193,1.686-1.755c1.124,0,2.317,0,2.949,0.562
			c0.211,0.21,0.352,0.491,0.422,0.843c0.07,0.14,0.07,0.28,0.07,0.351c0,1.686,1.193,3.441,1.193,5.126v0.562
			c1.123,0.562,2.317,1.755,3.44,1.193h1.124l1.686-1.756c0.632-0.632,1.193-1.193,1.193-2.879
			c-0.562-2.879-1.193-5.828-2.879-8.075c-1.124-1.615-2.879-2.247-3.441-4.003c-1.123,0-1.755-1.193-1.755-1.685
			c-1.054-0.633-1.054-1.194-1.686-2.388c-1.756-1.194-2.317-2.879-3.44-4.635c-0.562-1.054-0.562-2.809-0.562-4.003
			c0-1.123,0-2.317-0.632-4.072v-0.562c0.632-1.123,0.632-2.879,1.194-3.932c0-1.756,1.123-2.949,2.247-4.144
			c1.896-1.686,4.072-2.247,6.319-2.247h1.756c0,0.562,0,0.562,0.632,0.562c1.686-0.562,3.44,0,4.635,1.194
			c1.686,1.686,2.809,3.44,2.809,5.688c0.632,0.632,0.632,1.756,0.632,2.388v1.686c0,0.562-0.632,1.123-1.193,1.756
			c-1.194,0.562-2.247,0-3.441,0c-0.28,0-0.491-0.07-0.562-0.281c-0.07-0.07-0.07-0.211-0.07-0.352
			c-0.562-1.123-1.123-1.755-0.562-2.809v-0.632c-0.562-0.562-1.193-1.756-2.247-2.317c0-0.141-0.141-0.281-0.352-0.421
			c-0.069-0.07-0.21-0.07-0.28-0.07c-1.124,0-1.756,0-1.756-1.194c-0.07,0-0.141,0-0.211,0.07c-0.069,0.07,0,0.281,0.211,0.492
			c0,0.632,0,0.632-0.491,1.123c-2.317,1.193-2.949,2.949-2.317,4.635v0.562c0,0.211-0.141,0.422-0.352,0.491
			c-0.07,0.07-0.21,0.07-0.28,0.07C342.614,110.802,343.246,111.925,343.807,113.12z"/>
	</g>
</g>
</svg>
