<?xml version="1.0" encoding="utf-8"?>
<!-- Generator: Adobe Illustrator 16.0.0, SVG Export Plug-In . SVG Version: 6.00 Build 0)  -->
<!DOCTYPE svg PUBLIC "-//W3C//DTD SVG 1.1//EN" "http://www.w3.org/Graphics/SVG/1.1/DTD/svg11.dtd">
<svg version="1.1" id="Layer_1" xmlns="http://www.w3.org/2000/svg" xmlns:xlink="http://www.w3.org/1999/xlink" x="0px" y="0px"
	 width="576.006px" height="221.379px" viewBox="0 0 576.006 221.379" enable-background="new 0 0 576.006 221.379"
	 xml:space="preserve">
<g>
	<path fill="#FFFFFF" d="M145.461,0.872c0.392,0.392,0.392,1.176,0.784,1.666c0.294,0.588,0.49,0.979,0.49,1.568
		c0.098,0.489,0.195,0.979,0,1.666c-0.196,1.078-0.687,2.156-1.177,3.332c-0.195,0.588-0.392,1.078-0.588,1.568
		c-0.195,0.489-0.098,1.176-0.49,1.666c-0.489,0.882-1.176,1.567-1.861,2.45c-0.687,0.784-1.471,1.666-2.255,2.352
		c-1.273,1.274-2.646,2.549-4.116,3.528c-1.666,0.98-3.528,1.372-5.096,2.059c-1.274,0.49-2.45,0.979-3.627,1.176
		c-1.176,0.294-2.352,0.294-3.626,0.49c-1.862,0.392-3.725,0.882-5.685,0.98c-1.96,0.098-3.92,0.195-5.685,0.392
		c-0.882,0.098-1.47,0.588-1.96,1.372c-0.588,0.686-0.979,1.47-1.372,2.353c-0.294,0.686-0.98,1.47-1.078,2.254
		c-0.196,0.784,0.196,1.372,0.196,1.666c0,1.078-0.099,1.078-0.099,2.156c0,0.392-0.294,0.882-0.294,1.666
		c0,0.98,0.099,1.862,0.099,2.646c0,0.882,0.098,1.666,0,2.352c0,0.588,0.098,1.078,0.098,1.274c-0.098,1.372-0.294,3.038-0.392,4.9
		c-0.099,1.862,0.294,3.431,0.392,4.704c0.098,1.177-0.294,2.45-0.294,3.822c0,1.471,0.294,2.94,0.294,4.116
		c-0.098,1.274-0.588,2.353-0.588,3.234s0.196,1.372,0.294,1.471c-0.196,0.294,0,0.588,0.098,0.882
		c0.099,0.294-0.489,0.49-0.489,0.882c0,0,0.588,0.784,0.588,2.254c0,1.568-0.393,3.137-0.393,4.9
		c-0.098,1.765,0.099,3.627,0.099,5.293c-0.099,1.861-0.393,3.136-0.393,3.92c-0.098,0.882-0.294,1.47-0.588,1.862
		c-0.294,0.392-0.588,0.588-0.882,0.686c-0.196,0.196-0.49,0.393-0.687,0.589c-0.294,0.195-0.489,0.489-0.784,0.686
		c-0.392,0.294-0.783,0.49-1.176,0.687c-0.294,0.294-0.294,0.882-0.588,1.078c-0.098,0-0.196-0.196-0.392-0.099
		c-0.589,0.294-1.078,0.588-1.372,0.588c-0.687,0-1.078-0.489-1.372-0.882c-0.393-0.392-0.98-0.686-0.98-1.274
		c0-0.588,0.392-0.979,0.392-1.078c0.099-1.372-0.294-1.47-0.098-2.939c0-0.099,0.098-0.099,0.098-0.196
		c-0.294-1.078,0-2.353,0.196-3.528c0.196-1.078-0.196-2.45-0.196-3.822c0-2.744,0.196-2.744,0.196-5.391
		c0.098-2.744,0.098-2.744,0.098-5.391c0-2.744,0.295-2.646,0.393-5.292c0-2.842-0.196-2.842,0-5.488
		c0.392-0.294,0.49-0.588,0.49-0.687c0-0.195-0.588-0.392-0.98-0.783c-0.196-2.843,0.393-2.843,0.393-5.685
		c0-0.883,0-1.666,0.195-2.45c0.196-0.784-0.098-1.568-0.49-2.255c-0.098-4.018,0.295-4.018,0.196-8.036
		c-0.196-0.687-0.294-1.274-0.49-1.96c-1.47-5.782-2.842-6.86-8.134-7.938c-0.883-0.196-1.667-0.784-2.549-0.883
		c-0.784-0.195-1.764-0.195-2.744-0.294c-0.882,0-1.96,0-3.136,0c-1.078,0-2.255,0-3.528,0c-1.177,0.099-2.353-0.195-3.528-0.098
		c-0.099,0-0.196,0.196-0.294,0.196c0,0-0.196-0.099-0.294-0.099c-1.372,0.49-2.646,0.784-3.725,0.98s-1.862,0.98-2.646,1.372
		c-0.196,0.196-0.49,0.196-0.882,0.294c0,0.294-2.548,1.078-3.137,1.372c-0.588,0.393-1.077,0.98-1.96,1.568
		c-0.784,0.588-1.764,1.176-2.744,1.96c-0.979,0.882-1.862,1.862-2.744,2.842c-0.392,0.393-1.078,0.883-1.764,1.667
		c-0.588,0.686-1.471,1.47-2.059,2.352c-0.686,0.784-1.568,1.666-2.45,2.843c-0.098,0.098,0,0.588-0.196,0.979
		c-0.098,0-0.195-0.098-0.195,0c-0.784,0.98-1.372,2.549-2.156,4.215c-0.49,1.176-1.078,2.744-1.765,4.802
		c-0.686,2.059-1.176,4.116-1.47,6.272c-0.098,1.471-0.392,3.137-0.49,4.705c-0.098,1.47,0.294,3.136,0.393,4.704
		c0.098,1.47-0.196,3.038,0,4.704c0.098,1.765,0.588,3.332,0.979,4.803c0.393,1.764,0.98,3.234,1.568,4.606
		c0.294,0.686,0.882,1.273,1.176,1.861c0.393,0.589,0.588,1.177,0.98,1.666c1.568,1.961,1.176,2.255,2.646,4.215
		c0.783,0.98,1.861,1.862,2.939,2.94c0.98,1.078,2.059,1.764,2.843,2.058c0.098,0.099,0.098-0.098,0.195,0l0.196-0.195
		c1.372,0.979,1.078,1.372,2.45,2.352c0.98,0.49,2.059,0.882,2.94,1.372c0.98,0.49,2.156,0.882,3.332,1.274
		c0,0.098,0.099-0.196,0.196-0.196c1.372,0.588,2.744,1.372,4.41,1.765c1.568,0.392,3.137,0.882,4.803,1.176
		c1.96,0.294,3.822,0.294,5.685,0.294c1.96,0,3.822-0.098,5.88-0.294c1.765-0.294,3.626-0.49,5.488-1.078
		c1.666-0.49,3.332-1.372,5.194-2.059c0.687-0.195,1.274-0.392,1.862-0.783c0.588-0.295,1.274-0.393,1.96-0.687
		c0.687-0.294,1.177-0.882,1.765-1.274c0.588-0.294,1.176-0.686,1.764-1.078c0,0,0,0,0.099,0c0.294-0.294,0.588-0.392,1.176-0.783
		c0.392-0.196,0.392-0.196,0.784-0.393c0.098-0.098-0.196-0.392-0.099-0.392c0.687-0.687,1.372-1.177,2.156-1.862
		c0.687-0.687,1.568-1.274,2.255-1.96c0.783-0.687,1.666-0.98,2.744-0.98c0.686,0,1.47,0,2.058,0.294s0.882,0.882,1.274,1.471
		c0.392,0.392,0.882,0.686,1.078,1.273c0.294,0.687,0.294,1.177,0.294,1.765c-0.294,1.078-0.687,2.156-1.471,3.136
		c-1.077,0.882-2.155,1.666-3.038,2.353c-0.979,0.882-1.764,1.764-2.548,2.45c0,0.098,0,0-0.098,0.098
		c-1.568,1.372-1.666,1.274-3.333,2.843c0,0-0.098-0.196-0.195-0.196l0.294,0.392c-0.784,0.687-1.372,1.666-1.666,2.94
		c0,1.666-0.196,2.94-0.196,3.822c0,0.98,0.196,1.765,0.196,2.353c0,0.686,0.098,1.273,0.098,1.764
		c-0.098,0.393-0.392,0.882-0.392,1.471c-0.196,0.882-0.393,1.567-0.784,2.058c-0.294,0.49-0.588,0.98-0.98,1.176
		c-0.49,0.196-1.176,0-1.568,0.099c-0.489,0-0.882,0.392-1.273,0.392c-0.294,0-0.294-0.294-0.588-0.294
		c-0.099,0-0.295,0.196-0.393,0.196c0,0,0-0.294-0.098-0.294c-0.099,0-0.099,0.195-0.196,0.195c-0.98-0.195-1.47-0.882-2.156-1.861
		c-0.784-0.98-1.372-1.765-1.274-3.137c0.099-1.176,0-1.96,0-2.254c-0.098-0.393,0.393-0.784,0.393-1.176
		c0-1.078-0.294-1.961-0.687-2.45c-0.294-0.393-0.783-0.393-1.273-0.393s-1.177,0-1.862,0.294c-0.588,0.196-1.372,0.294-2.156,0.393
		c-1.764,0.294-3.431,0.882-5.194,1.176c-1.862,0.196-3.725-0.098-5.391-0.098c-1.47,0-3.038,0.392-4.508,0.195
		c-1.666-0.098-3.038-0.588-4.606-0.882c-1.471-0.294-3.038-0.588-4.41-1.078c-2.059-0.49-4.215-1.274-6.371-2.352
		c-1.96-0.784-3.92-1.765-5.88-3.137c-2.353-1.47-4.606-2.842-6.469-4.41c-1.862-1.471-3.234-3.332-4.606-5.097
		c-1.764-2.156-3.528-3.626-4.508-5.194v-0.098c-0.295-0.588-0.393-1.471-0.784-2.254c-0.393-0.687-0.883-1.471-1.177-2.45
		c-0.588-1.568-1.273-3.333-1.764-4.999c-0.393-1.666-0.294-3.528-0.588-5.194c-0.294-2.156-0.687-4.41-0.784-6.566
		c0-2.254,0-4.41,0.196-6.566c0.195-2.353,0.783-4.606,1.176-6.664c0.392-2.156,0.686-4.509,1.372-6.567
		c0.588-2.352,1.372-4.41,2.353-6.37c0.979-1.862,2.352-3.528,3.626-5.097c0.686-0.882,1.078-2.155,1.862-3.332
		c0.686-1.078,1.567-1.96,2.45-2.744c0.979-1.078,2.156-2.254,3.332-3.332s2.548-1.96,3.822-2.744
		c1.274-0.882,2.45-1.471,3.528-2.059c1.078-0.686,1.764-1.372,2.45-1.764c0.49-0.294,1.078-0.196,1.568-0.49
		c0.392-0.196,0.783-0.686,1.372-0.882c0.195-0.196,0.392,0.196,0.783,0.098c0.687-0.294,1.078-0.979,1.568-1.273
		c0.882-0.295,8.625-2.059,9.311-2.059c0.196,0,0.393,0.098,0.588,0c1.568-0.196,3.039-0.392,4.509-0.392
		c1.372,0,2.94,0.489,4.704,0.686c0.294,0.098,0.294-0.098,0.49-0.098c0.784,0.098,1.372-0.196,1.568-0.099
		c0.392,0,0.686,0.099,0.979,0.196c0.294,0,0.589,0.392,1.078,0.392c0.883,0.784,1.765-0.098,2.94,0.099
		c0.588,0.098,1.176,0.196,1.862,0.294c0.98,0.098,3.136,0.196,3.822,0.392c0.294,0,0.294-0.098,0.687-0.098
		c0.294,0.098,1.861,0.588,2.155,0.687c0.393,0,0.784-0.099,1.078-0.099c0.196,0,0.883,0.099,2.059,0.099
		c1.078,0.098,2.156,0.489,3.332,0.686c2.059,0.098,3.921-0.392,5.782-0.49c1.961-0.098,3.921,0.294,5.881,0
		c1.568-0.195,3.136-0.784,4.606-1.078c1.372-0.392,2.94-0.882,4.41-1.47c1.372-0.49,2.842-1.176,4.214-2.254
		c0.98-0.784,1.961-1.568,2.744-2.549c0.49-0.49,0.883-1.176,1.177-1.764s0.49-1.274,0.686-1.862
		c0.294-0.784,0.294-1.666,0.393-2.45c0.098-0.588,0.686-0.98,1.078-1.372c0.392-0.49,0.882-0.784,1.273-1.176
		c0.98-0.588,2.255-1.078,3.528-0.784C144.383,0.284,144.971,0.479,145.461,0.872z"/>
	<path fill="#FFFFFF" d="M123.795,88.099v-6.371v-4.704v-4.019v-1.568c0.784-0.783,0.784-0.783,0-1.567v-5.587
		c0-1.666,0.784-3.234,0-4.704v-8.82c-0.784-3.137,0-6.371,0-9.409v-3.234c-0.784-2.352,0-3.234,1.568-4.019
		c0.392-0.392,0.882-0.588,1.176-0.686c0.196-0.098,0.392-0.098,0.49-0.098c0.784-0.784,1.568-0.784,2.352,0
		c0.099,0,0.295,0,0.49,0.098c0.393,0.098,0.784,0.392,1.078,0.686c0.882,0.784,1.568,1.667,1.568,3.234
		c-0.687,1.568,0,4.019,0,5.488c0,1.568-0.294,3.725-0.687,5.587c0.687,0.784,0.687,2.353,0.687,3.136
		c0,1.667,0.784,3.234-0.687,4.803v0.784c0.687,0.882,0.687,2.45,0.687,3.136c-0.687,2.353,0,4.019,0,5.587s0,2.353-0.687,4.019
		c0,2.352,0,3.92,0.687,6.37c0,1.47,0,3.038-0.687,4.704c0,0.784,0,2.353,0.687,3.921v5.586c-0.687,0.882-0.687,1.666,0,3.234v6.272
		c-0.687,1.568-0.687,2.45-2.353,3.234c-1.567,0-3.136,1.666-4.802,0c-0.784-0.784-0.784-1.666-1.568-2.45
		c-0.784-2.353,0-4.803,0-7.841V88.099z"/>
	<path fill="#FFFFFF" d="M171.523,95.743c-0.784-0.784-0.784-0.784,0-1.568v-0.784c-0.784-2.353-0.784-3.92-0.784-6.272l0.784-0.784
		c-0.784-4.214,0-7.253,0-10.389c-0.784-4.019,0-7.154,0-10.291V64.87c0-0.294-0.099-0.588-0.393-0.686
		c-0.098-0.099-0.294-0.099-0.392-0.099h-0.784c0,1.568,0,2.353-0.784,3.137c0,1.568,0,3.136-1.568,3.92v0.784
		c0,1.666-0.784,3.234-0.784,4.803c-0.783,1.568-1.567,3.92-1.567,5.488s-0.784,2.254-1.568,4.116v1.568
		c0,1.568-0.784,2.352-2.353,2.352c-1.078,0.784-1.764,0-2.548-0.783c-0.784-1.568-1.568-3.039-2.353-4.9
		c0-2.353-0.784-4.705-1.567-7.057c-0.784-0.784-0.784-2.353-0.784-3.137s0-0.784-0.784-1.568c-0.784-0.882-0.784-1.666-0.784-2.45
		c0-2.352-1.568-3.136-1.568-5.488c0-0.098,0-0.294-0.098-0.392c-0.099-0.294-0.393-0.393-0.687-0.393v1.568
		c0,0.784-0.784,2.353,0,3.921c0,0.783,0.784,2.352-0.784,4.018c0.784,1.568,0.784,2.353,0.784,3.921c-0.784,3.136,0,6.174,0,9.604
		c0,0.784-0.784,1.568-0.784,2.353c-0.783,0.783,0.784,1.567,0.784,2.352c-0.784,2.353,0,4.704,0,7.154
		c-0.784,2.353-2.45,3.921-4.018,4.705c-2.353,0-4.705-1.568-4.705-3.921c0-3.234-0.784-6.37,0-10.29v-0.784V76.729v-5.587
		c-0.784-1.567,0-2.352,0-3.92v-1.568c-0.784-1.568,0-3.136,0-4.704c-0.784-2.45,0-4.019,0-5.587v-4.704
		c-0.784-1.568-0.784-2.352,0-3.92v-7.253c-0.784-1.567-0.784-2.352,0-3.92c0.784-0.784,0.784-2.45,2.353-2.45h1.568
		c0-0.784,0.784-0.784,0.784,0c2.45,0.882,4.018,1.666,4.802,4.019c0,2.352,0.784,4.704,1.568,6.272
		c0.784,1.567,0.784,3.332,1.568,5.684c0.784,0.784,0.784,2.353,0.784,3.137c0,0.294,0.098,0.686,0.392,1.078l0.392,0.49
		c0,2.352,0.784,3.92,2.353,6.37c0,0.784,0,2.353,0.784,3.137v1.567v0.784c0.784,0.784,0.784,1.568,1.568,1.568
		c1.078,0,0.979-0.784,1.764-1.568l2.353-7.154c0.784-2.353,0.784-4.704,2.352-7.841l2.353-9.604c0.294,0,0.588-0.098,0.687-0.392
		c0.098-0.099,0.098-0.295,0.098-0.393c0.784-1.568,0.784-2.352,0.784-3.136v-1.568c0.784-1.568,4.802-3.234,6.37-3.234
		c0,0.294,0.099,0.588,0.393,0.687c0.098,0.098,0.294,0.098,0.392,0.098c1.568,1.666,2.353,3.234,1.568,5.586v3.137
		c0.784,0.784,0.784,2.352,0.784,3.136c-0.784,4.215,0,8.037-0.784,11.173c0,0.784,0,1.568-0.784,2.353c0.294,0,0.49,0,0.784,0.098
		c0.49,0.099,0.784,0.393,0.784,0.784c-0.784,2.353,0,4.704-0.784,7.057v7.154c0,2.353,0.784,4.705,0,7.057v2.353
		c0.784,1.568,0.784,4.116,0,5.685c0,0.784,0.784,1.567,0,1.567v0.784c0.784,1.568,0,2.353,0,3.921v3.234
		c0.784,1.567,0,3.136-1.568,3.92c-0.784,2.45-4.803,1.568-6.37-0.784c-0.784-0.784,0.784-1.568,0-2.353V95.743z"/>
	<path fill="#FFFFFF" d="M202.194,32.528h8.723c3.431,0,4.9,1.666,4.9,3.92c0,3.431-1.567,4.9-3.822,4.9
		c-3.43,0.784-5.685,0.784-8.135,0c-1.666,0-2.45,0.784-3.233,1.666c-1.667,0.784-2.353,1.471-2.353,3.137v12.055
		c0,2.45,2.353,4.803,4.704,4.803c1.666,0,3.332,0,4.803-0.883c1.666,0,3.136,1.666,4.214,1.666c0.294,0,0.49,0.099,0.588,0.393
		c0.099,0.098,0.099,0.294,0.099,0.392c0.784,1.666,1.568,4.019,0,5.488c-0.687,1.666-1.765,2.45-2.45,2.45h-7.253
		c-1.568,0-4.019,0.784-4.019,2.45c-0.686,2.45-0.686,3.921-0.686,6.272v4.9c0,1.568,0,3.234,0.686,4.9
		c0.784,2.255,4.019,3.332,6.469,2.255c2.353,0,4.803-0.099,7.253,0.979c1.666,0,2.45,0.687,2.45,2.156
		c0.686,1.078,0.686,2.353,0.686,3.431c0,1.47-1.567,3.136-3.136,3.136c-6.371,0.784-12.938,0.784-18.523,0.784
		c-3.137,0-4.704-1.666-4.704-4.9v-9.507v-2.45c0.783-1.47,0-3.038,0-5.685v-7.057c0.783-1.666,0-3.332,0.783-4.9
		c-0.783-2.254-0.783-3.626-0.783-6.271v-2.353v-0.784c0.783-4.019,0-7.351,0-10.486v-10.39c0.783-0.783,0.783-2.548,0.783-3.332
		c0-2.352,1.667-3.136,3.137-3.136H202.194z"/>
	<path fill="#FFFFFF" d="M261.676,32.43c1.568,0.784,3.137,0,4.705,0.784c0.882,0,1.567-0.784,2.45-0.784
		c1.567,0,2.254,0.784,3.136,0.784c0.784,0,2.45-0.784,3.234-0.784c1.568,0,3.137,0.784,4.704,0.784
		c0.883,0.784,1.568,0.784,1.568,1.666c0.882,0.784,0.882,1.568,0.882,3.234c0,0.784,0,1.568-0.882,2.353
		c-0.686,0.784-1.568,1.568-3.136,1.568c-1.568,0-2.255,0.783-3.921,0.783c-0.882,0.784-1.666,1.568-2.45,3.234v4.705v12.74v7.057
		v14.407v11.957c0,1.568,0,4.019-0.882,5.586c-1.568,1.568-4.704,1.568-6.272,0c-1.568-1.567-0.687-3.136-0.687-5.586
		c-0.882-2.353,0-5.685-0.882-8.82c0-1.568,0-3.137,0.882-5.587c0-0.784,0-0.784-0.882-1.666c-0.882-2.254,0-3.822,0.882-5.391
		v-0.882c-1.764-1.47,0-3.234,0-5.587c-0.882-0.686-0.882-2.254-0.882-3.822c0.882-3.233,0-5.586,0-8.723
		c0-0.882,0.882-1.666,0.882-3.233c-0.882-2.45-0.882-4.803-0.882-7.155c0-2.45-1.47-3.234-4.116-3.234
		c-1.568,0-2.254-0.783-3.822-0.783c-0.882-0.784-1.568-1.568-1.568-2.353c-0.882-2.45,0-4.019,1.568-6.469
		c0.687-0.784,1.568-0.784,2.254-0.784H261.676z"/>
	<path fill="#FFFFFF" d="M317.342,67.908l-0.098,5.489c-0.099,1.078-0.099,1.666-0.784,2.45c-0.098,0.686-0.098,2.254-1.078,3.724
		c0,0.882,0,1.568-0.687,1.568c0,0.098,0,0.294-0.098,0.392c-0.098,0.294-0.392,0.393-0.784,0.393
		c-0.784,2.646-2.548,3.92-4.9,4.606c-0.882,0.784-1.567,0.784-1.567,1.47c-0.784,0-1.667,0.784-2.353-0.098l-3.234-0.099
		c-3.234-0.098-5.488-0.979-6.958-2.45c-5.391-4.214-6.763-10.486-5.881-32.93c-0.882-0.784,0-1.666,0-2.353
		c0-1.078,0.686-2.45,0-4.019c0-1.567,0.686-3.136,1.47-4.606c1.568-2.646,3.234-4.9,5.587-6.468
		c0.686-1.666,2.254-2.255,4.704-1.568c0.687,0,1.47-0.687,3.137-0.687c1.567,0,3.136,0,4.605,1.568
		c3.234,1.568,5.587,3.921,7.155,6.272v0.882c0.882,3.039,2.352,5.489,1.567,8.625c0,1.568,0.784,3.137,0,5.488
		c0.883,0.882-0.882,3.038,0,4.704c-0.294,0.589,0.393,1.667,0.295,6.959c0.098,0,0.195,0,0.294,0.098
		C317.833,67.419,317.636,67.614,317.342,67.908z M314.402,98.095c0.784,0.784,0.784,1.568,0,2.353c0,0.098,0,0.294-0.098,0.49
		c-0.098,0.392-0.392,0.783-0.686,1.078c-0.784,0.882-1.667,1.567-3.234,1.567c-1.568-0.686-2.255,0-5.881,0
		c-0.882-0.686-1.666-0.686-3.234,0h-6.272c-1.568-0.686-2.45-0.686-3.234-2.352c0-1.568-1.666-3.137,0-4.803
		c0.784-0.784,1.666-0.784,2.45-1.568c2.353-0.784,4.803,0,7.841,0l3.038-0.195c0.98,0.098,2.059,0.195,3.038,0.195h1.471
		c2.352-0.784,3.234,0,4.019,1.568c0.392,0.392,0.588,0.882,0.686,1.176C314.402,97.801,314.402,97.997,314.402,98.095z
		 M309.404,72.221c-0.686-1.176-0.196-2.842-0.392-4.214c-0.294-0.49-0.589-1.078-0.589-1.568c0.883-3.038,0-6.763,0-10.192v-1.568
		c0.883-1.47,0-3.038,0.883-4.606v-0.98c-0.883-0.686-0.883-1.47-0.883-2.155c-0.686-2.45-1.47-4.019-3.038-4.019H304.7
		c-2.646,0-4.019,0-4.9,1.568c-2.254,1.567-3.137,3.92-3.137,6.272c0.883,1.666,0,3.233,0,8.82l0.393,7.351c0,0.49,0,0.882,0,1.372
		c0,0-0.099,0-0.196,0v1.274c0.784,0.783,0.784,1.567,0.784,2.254c-0.098,2.646,2.94,6.566,6.076,6.763c0.882,0,1.568,0,1.568-0.883
		c1.666-1.47,2.45-2.939,4.116-4.605V72.221z"/>
	<path fill="#FFFFFF" d="M382.413,55.462c-0.784,2.254,0,5.586-1.471,7.057c-0.783,0.882-0.783,1.666-1.666,1.666
		c-1.47,1.372-1.47,2.45,0,3.136c0.883,1.568,1.372,1.666,1.666,2.94c0.393,1.274,0.687,1.765,0.687,2.646
		c0.784,1.568,1.666,3.92,0.784,6.37c0,1.568,0.882,3.822,0,5.391c0,1.666,0.882,3.234-0.784,4.803v0.882
		c0.784,1.568,0,3.92-0.687,5.488c-2.352,4.019-4.899,5.586-8.723,7.154c-1.666,0.784-2.449,0-4.018,0
		c-3.234,0.784-5.488,0.784-8.723,0.784c-1.568,0-3.137-0.784-3.921-2.353v-1.567c0-1.568-0.783-3.234,0-4.803v-0.784
		c-0.783-3.234,0-7.057-0.783-10.291c0.783-2.352,0-5.586,0-7.84v-1.666c0.783-1.568,0.783-3.234,0.783-4.705v-1.666v-2.45V54.58
		c0-3.137,0-6.371-0.783-8.625v-4.019c0.783-0.686,0.783-2.254,0.783-3.92V34.88c0.784-0.882,1.568-1.567,2.353-1.567
		c2.353,0,4.803-0.883,6.37-0.883c0.687,0,0.883,0.196,3.528,0.196c2.646,0,3.528-0.196,4.41,0.687
		c1.568,0.686,3.137,1.567,3.823,2.254c0.882,0.882,0.882,0.882,1.666,0.882c1.567,1.568,3.233,3.234,3.92,5.488
		c0.784,3.234,1.666,5.587,1.666,8.821C383.294,52.325,383.294,53.796,382.413,55.462z M368.202,61.832c1.568,0,4.018,0,4.802-1.666
		c0.784-1.47,1.568-3.92,1.568-5.586c0-2.255,0-3.725-0.784-6.371c0-3.038-0.784-4.704-4.018-5.488
		c-3.137-1.47-5.489,0.784-5.489,4.019c-0.783,1.47-0.783,3.136-0.783,4.704v7.841c0.783,0.882,0.783,0.882,0.783,1.666
		c0.687,0.882,1.568,0.882,3.234,0.882H368.202z M374.572,80.846c0-0.882-0.784-1.568,0-2.45c0-1.568-0.784-3.137-0.784-3.92
		c-0.784-1.568-2.45-3.234-4.018-3.234c-1.568-0.687-3.137-0.687-4.803,0.784c-0.687,0-0.687,0.882-0.687,1.567
		c0,1.666-0.783,4.019,0,5.685v0.687c-0.783,2.45-0.783,4.606-0.783,7.252v1.568c0,2.254,0.783,3.92,3.136,4.704
		c2.45,0,3.92-0.784,5.586-0.784c0.295,0,0.589-0.098,0.687-0.392c0.098-0.098,0.098-0.294,0.098-0.392
		c0.784-1.568,1.568-4.019,1.568-6.371V80.846z"/>
	<path fill="#FFFFFF" d="M420.142,44.19v2.45v4.999c-0.784,0.686-0.784,2.352,0,3.92v5.881v5.586v7.449v2.548
		c0,4.802,0,10.585-0.784,14.505v1.765c-3.431,4.018-4.803,8.036-9.801,8.82c-3.234,1.862-6.566,1.764-9.801-0.687
		c-0.882-0.783-1.666-1.666-2.548-1.666c-3.234-2.45-3.822-5.685-4.9-8.918c-0.393-1.274-0.588-4.019-0.588-8.135
		c0-8.331-0.196-12.447-0.196-13.133c0-1.274,0-2.549,0.098-3.725l0.294-5.488c0.099-2.45,0-4.312-0.392-5.488v-0.883
		c0.784-3.233,0-5.586,0-9.114c0-0.294,0.098-0.49,0.392-0.588c0.099-0.099,0.294-0.099,0.393-0.099c-0.784-1.666,0-4.899,0-7.35
		c0-3.234,1.568-4.019,4.214-4.019h1.568c1.666,0.784,2.353,1.372,2.353,3.234v4.9v4.508v4.41c0.882,3.431,0,5.587,0,8.233
		c0,3.43,0.882,6.566,0,9.8v1.667c0.882,2.45,0,5.684,0,8.918v7.351c0,1.862,0.588,2.94,1.666,5.685
		c0.882,0,2.352,0.882,4.214,1.765h0.784c0.687-0.883,1.568-1.765,2.45-1.765c0.098,0,0.294,0,0.392-0.098
		c0.295-0.099,0.393-0.294,0.393-0.588c0.882-2.646,0.882-5.783,0.882-8.233v-1.666V47.425v-2.548v-8.036
		c0-3.234,3.234-5.097,5.685-4.019c0.784,0.784,1.372,0.784,2.45,1.47l0.392,0.588c0.294,0.393,0.393,0.784,0.393,1.177v5.586V44.19
		z"/>
	<path fill="#FFFFFF" d="M429.057,88.099v-6.371v-4.704v-4.019v-1.568c0.784-0.783,0.784-0.783,0-1.567v-5.587
		c0-1.666,0.784-3.234,0-4.704v-8.82c-0.784-3.137,0-6.371,0-9.409v-3.234c-0.784-2.352,0-3.234,1.568-4.019
		c0.392-0.392,0.882-0.588,1.176-0.686c0.196-0.098,0.392-0.098,0.49-0.098c0.784-0.784,1.568-0.784,2.352,0
		c0.099,0,0.295,0,0.49,0.098c0.393,0.098,0.784,0.392,1.078,0.686c0.882,0.784,1.568,1.667,1.568,3.234
		c-0.687,1.568,0,4.019,0,5.488c0,1.568-0.294,3.725-0.687,5.587c0.687,0.784,0.687,2.353,0.687,3.136
		c0,1.667,0.784,3.234-0.687,4.803v0.784c0.687,0.882,0.687,2.45,0.687,3.136c-0.687,2.353,0,4.019,0,5.587s0,2.353-0.687,4.019
		c0,2.352,0,3.92,0.687,6.37c0,1.47,0,3.038-0.687,4.704c0,0.784,0,2.353,0.687,3.921v5.586c-0.687,0.882-0.687,1.666,0,3.234v6.272
		c-0.687,1.568-0.687,2.45-2.353,3.234c-1.567,0-3.136,1.666-4.802,0c-0.784-0.784-0.784-1.666-1.568-2.45
		c-0.784-2.353,0-4.803,0-7.841V88.099z"/>
	<path fill="#FFFFFF" d="M463.75,103.877h-3.137c-3.233-0.882-5.586,0-8.82,0c-0.687,0-2.254-0.882-3.136-0.882
		c-1.568-0.784-2.353-1.568-1.568-3.136v-7.841c0-3.234,0-6.175-0.784-8.82c0-1.568,0.784-3.137,0.784-4.606
		c-0.784-2.646,0-5.685-0.784-8.037v-0.784c0-0.882,1.666-1.47,0.784-2.352c0-0.784-0.784-1.471-0.784-2.353
		c1.568-4.019,0-8.625,0-12.643c0-2.45,0.784-4.803,0.784-7.155v-0.783c-0.784-3.137,0-5.489,0-7.939c0-2.352,2.45-3.92,4.018-3.92
		c3.137,0.784,3.921,1.568,3.921,4.704c0,2.45,0.784,4.803,0,7.155c0.784,4.018,0,7.154,0,11.074c0.784,1.568,0.784,3.234,0,4.019
		v0.686v6.371c0,1.666,0.784,3.136,0,4.802c-0.784,0,0,0.784,0,1.471c0,4.019,0,8.036,0.784,11.957c0,1.567-0.784,3.136,0,4.704
		c0,2.45,1.568,4.019,4.802,4.019h2.255h4.018c0.784,0,2.353,0,3.137,0.686h0.784c0.784,1.568,2.45,3.234,1.666,5.587
		c-1.666,3.136-2.45,4.018-4.803,4.018H463.75z"/>
	<path fill="#FFFFFF" d="M489.325,32.528c3.234,0,6.469,0.784,9.703,1.567h0.686c2.353,1.568,5.587,3.333,6.371,7.155
		c2.352,3.92,2.352,7.84,2.352,11.858c0,0.784-0.784,1.471,0,3.038V63.4v3.136v1.667v4.704v3.136c0,0.784,0,2.45-0.784,3.137
		c0,0.882,0.784,2.45,0.784,3.234c0,3.92-0.784,7.154-1.567,11.074c0,1.568-1.667,3.921-2.353,5.488
		c-0.882,0.883-2.45,2.45-3.92,2.45h-0.883c-2.45,2.45-5.586,1.568-8.82,2.353c-1.568,0-3.137-0.687-5.488,0
		c-0.687,0-2.353-0.687-3.921-1.568l-0.882-0.784c0.882-1.567,0-2.45,0-4.018V94.37v-8.82c-0.686-3.136,0-6.37,0-8.723
		c0-0.784-0.098-1.372-0.195-1.764c-0.099-0.49-0.099-1.471,0-3.137c0.098-1.666,0.195-2.94,0.195-3.724v-1.667
		c-0.686-2.254,0-4.704,0-7.938v-0.784v-2.352c-0.686-1.568-0.686-2.353,0-3.921V40.368c0-1.47-0.686-3.038,0.882-4.605V34.88
		c0-0.784,0-0.784,0.784-1.567c0.784,0,2.45-0.784,3.137-0.784H489.325z M489.325,90.353c0,1.568,1.568,3.136,2.45,4.018h0.784
		c0.784-0.882,0.784,0,1.568-0.882c1.666,0,3.234-0.686,4.019-1.567c0.882-1.568,1.567-3.137,1.567-4.803
		c0-2.45-0.686-5.488,0-7.938v-0.687c-0.784-2.45,0.784-4.704,0-6.37v-3.92v-9.605V54.58v-0.687v-3.234c0-0.686,0-2.352-0.686-3.136
		c-0.882-4.019-3.332-5.587-7.253-4.705c-1.568,0-3.136,1.568-3.136,3.921c0.784,3.43,0.49,9.114,0.686,10.291
		c-0.686,0.783,0,1.567,0,2.352v3.234v4.803c-0.686,3.038,0,7.154-0.686,10.192v0.882c0.686,0.687,0.686,1.568,0.686,3.137
		c-0.686,1.47,0,3.038-0.686,4.704C489.325,87.902,488.64,88.784,489.325,90.353z"/>
	<path fill="#FFFFFF" d="M10.656,210.304c-0.098-2.058-0.392-3.528-0.882-4.41v-0.882c0.882-1.47,0-3.038,0.882-4.704
		c0-1.568,0-3.234-0.882-4.019v-7.154c0-0.784,0-1.471-0.784-2.353c-1.568-4.019-2.353-7.938-3.234-11.957
		c0-0.882-0.686-1.666-0.686-2.548c-1.568-4.019-2.353-7.057-3.234-11.075v-0.882c-0.784-0.686-0.784-1.47-1.666-2.353v-4.704
		c-0.687-1.568,0.882-2.352,1.666-3.234c2.352,0,3.234,0,4.802,1.666c0.687,0,1.471,0.784,2.353,2.353
		c0.784,3.92,2.45,7.841,2.45,12.839c0.686,2.254,1.568,4.704,1.568,7.057h0.784c0,0.882,0,1.666,0.882,1.666
		c0.784,0,0.784-0.784,0.784-1.666c0.686-1.666,1.567-3.136,1.567-4.803c0-2.254,0.687-4.802,1.568-7.154
		c0.784-1.666,1.471-4.019,1.471-6.272c0.882-3.43,2.548-4.802,5.684-4.802h0.883c1.47-0.883,2.352,0,2.352,0.783
		c0.687,2.156,0.687,2.45,0,4.606c-0.882,3.431-1.567,5.685-2.352,8.037c-0.883,2.646-0.883,4.802-1.666,7.252
		c-0.883,1.568-1.568,4.019-1.568,5.587c-1.666,3.136-2.45,6.37-3.332,9.604c-0.687,3.234-1.471,7.154-0.687,10.291
		c0,2.646-0.784,4.9-0.784,6.566v12.545v2.45c-0.882,0.882-1.568,2.45-3.136,2.45c-2.45,0.784-4.019,0-4.803-3.234v-3.136V210.304z"
		/>
	<path fill="#FFFFFF" d="M64.556,185.508l-0.098,5.489c-0.099,1.078-0.099,1.666-0.784,2.45c-0.098,0.686-0.098,2.254-1.078,3.724
		c0,0.882,0,1.568-0.687,1.568c0,0.098,0,0.294-0.098,0.392c-0.098,0.294-0.392,0.393-0.784,0.393
		c-0.784,2.646-2.548,3.92-4.9,4.606c-0.882,0.784-1.567,0.784-1.567,1.47c-0.784,0-1.667,0.784-2.353-0.098l-3.234-0.099
		c-3.234-0.098-5.488-0.979-6.958-2.45c-5.391-4.214-6.763-10.486-5.881-32.93c-0.882-0.784,0-1.666,0-2.353
		c0-1.078,0.686-2.45,0-4.019c0-1.567,0.686-3.136,1.47-4.606c1.568-2.646,3.234-4.9,5.587-6.468
		c0.686-1.666,2.254-2.255,4.704-1.568c0.687,0,1.47-0.687,3.137-0.687c1.567,0,3.136,0,4.605,1.568
		c3.234,1.568,5.587,3.921,7.155,6.272v0.882c0.882,3.039,2.352,5.489,1.567,8.625c0,1.568,0.784,3.137,0,5.488
		c0.883,0.882-0.882,3.038,0,4.704c-0.294,0.589,0.393,1.667,0.295,6.959c0.098,0,0.195,0,0.294,0.098
		C65.046,185.019,64.85,185.214,64.556,185.508z M61.616,215.694c0.784,0.784,0.784,1.568,0,2.353c0,0.098,0,0.294-0.098,0.49
		c-0.098,0.392-0.392,0.783-0.686,1.078c-0.784,0.882-1.667,1.567-3.234,1.567c-1.568-0.686-2.255,0-5.881,0
		c-0.882-0.686-1.666-0.686-3.234,0H42.21c-1.567-0.686-2.45-0.686-3.234-2.352c0-1.568-1.666-3.137,0-4.803
		c0.784-0.784,1.667-0.784,2.45-1.568c2.353-0.784,4.803,0,7.841,0l3.038-0.195c0.98,0.098,2.059,0.195,3.038,0.195h1.471
		c2.352-0.784,3.234,0,4.019,1.568c0.392,0.392,0.588,0.882,0.686,1.176C61.616,215.4,61.616,215.597,61.616,215.694z
		 M56.618,189.82c-0.686-1.176-0.196-2.842-0.392-4.214c-0.294-0.49-0.589-1.078-0.589-1.568c0.883-3.038,0-6.763,0-10.192v-1.568
		c0.883-1.47,0-3.038,0.883-4.606v-0.98c-0.883-0.686-0.883-1.47-0.883-2.155c-0.686-2.45-1.47-4.019-3.038-4.019h-0.686
		c-2.646,0-4.019,0-4.9,1.568c-2.254,1.567-3.137,3.92-3.137,6.272c0.883,1.666,0,3.233,0,8.82l0.393,7.351c0,0.49,0,0.882,0,1.372
		c0,0-0.099,0-0.196,0v1.274c0.784,0.783,0.784,1.567,0.784,2.254c-0.098,2.646,2.94,6.566,6.076,6.763c0.882,0,1.568,0,1.568-0.883
		c1.666-1.47,2.45-2.939,4.116-4.605V189.82z"/>
	<path fill="#FFFFFF" d="M101.306,161.79v2.45v4.999c-0.784,0.686-0.784,2.352,0,3.92v5.881v5.586v7.449v2.548
		c0,4.802,0,10.585-0.784,14.505v1.765c-3.431,4.018-4.803,8.036-9.801,8.82c-3.234,1.862-6.566,1.764-9.801-0.687
		c-0.882-0.783-1.666-1.666-2.548-1.666c-3.234-2.45-3.822-5.685-4.9-8.918c-0.393-1.274-0.588-4.019-0.588-8.135
		c0-8.331-0.196-12.447-0.196-13.133c0-1.274,0-2.549,0.098-3.725l0.294-5.488c0.099-2.45,0-4.312-0.392-5.488v-0.883
		c0.784-3.233,0-5.586,0-9.114c0-0.294,0.098-0.49,0.392-0.588c0.099-0.099,0.294-0.099,0.393-0.099c-0.784-1.666,0-4.899,0-7.35
		c0-3.234,1.568-4.019,4.214-4.019h1.568c1.666,0.784,2.353,1.372,2.353,3.234v4.9v4.508v4.41c0.882,3.431,0,5.587,0,8.233
		c0,3.43,0.882,6.566,0,9.8v1.667c0.882,2.45,0,5.684,0,8.918v7.351c0,1.862,0.588,2.94,1.666,5.685
		c0.882,0,2.352,0.882,4.214,1.765h0.784c0.687-0.883,1.568-1.765,2.45-1.765c0.098,0,0.294,0,0.392-0.098
		c0.295-0.099,0.393-0.294,0.393-0.588c0.882-2.646,0.882-5.783,0.882-8.233v-1.666v-33.519v-2.548v-8.036
		c0-3.234,3.234-5.097,5.685-4.019c0.784,0.784,1.372,0.784,2.45,1.47l0.392,0.588c0.294,0.393,0.393,0.784,0.393,1.177v5.586
		V161.79z"/>
	<path fill="#FFFFFF" d="M109.927,210.01v-5.488v-5.685v-8.82v-8.723v-6.37v-12.056v-4.018c0.686-0.784,0-2.353,0-3.921
		c0-0.882,0-2.45,0.686-3.234c1.862-0.882,2.45-1.567,3.333-1.567h8.723c4.018,0,7.252,0.686,10.486,3.136
		c2.254,1.666,3.92,3.234,4.704,6.371c0.784,1.666,0.784,4.116,1.666,6.468v3.137c-0.882,0.882-0.882,0.882-0.882,1.568
		c0.882,0.882,0.882,1.666,0,2.45v1.666v0.686c-0.784,2.45-1.568,5.685-2.352,8.919h-0.883c-1.567,0.686-1.567,2.254-2.254,3.92
		c-0.882,0-0.882,0.784,0,1.568c0.687,4.019,1.568,8.135,3.137,12.055c0,2.45,0.783,4.803,1.567,7.938
		c0.784,2.45,1.666,4.803,2.353,7.253c0.882,1.568-0.687,3.234-2.353,3.92c-2.45,0-5.586-0.686-6.37-3.92
		c-0.784-0.882-0.784-2.45-0.784-3.137c0-0.882,0-1.666-0.784-1.666c-0.882,0-0.882-0.784-0.882-1.567
		c0-1.568-0.687-3.234-0.687-4.019c-0.882-2.353-0.882-4.019-1.666-5.587c-0.784-0.882-0.784-1.567-0.784-2.45
		c0-2.45-0.783-4.802-2.352-6.37c0-1.078-0.784-1.568-2.45-1.568s-1.666,0.588-2.353,2.45c0,1.568-0.882,2.353,0,3.921
		c0,1.567-0.882,2.45-0.882,3.136c0,3.234,0.882,5.685,0.882,8.919v2.352c-0.882,0.784-0.882,2.45,0,4.019v1.568
		c-0.882,3.234-2.45,4.803-6.37,3.234c-0.882,0-2.45-1.666-2.45-3.234V210.01z M130.705,170.121c0-1.568-0.784-4.019-0.784-5.685
		c-0.784-4.704-5.685-5.586-8.82-4.019h-0.784c-0.882,1.568-2.45,2.45-1.568,4.019v2.353c0,0.882-0.882,1.764,0,1.764
		c0.687,3.137,0,5.488,0,7.938v2.353c0.687,1.568,1.568,1.568,2.353,2.45c1.568,0.784,4.019,0.784,6.37-0.882
		c1.568-0.687,2.45-2.353,3.234-3.921V170.121z"/>
	<path fill="#FFFFFF" d="M186.855,150.128c3.234,0,6.469,0.784,9.703,1.567h0.686c2.353,1.568,5.587,3.333,6.371,7.155
		c2.352,3.92,2.352,7.84,2.352,11.858c0,0.784-0.784,1.471,0,3.038V181v3.136v1.667v4.704v3.136c0,0.784,0,2.45-0.784,3.137
		c0,0.882,0.784,2.45,0.784,3.234c0,3.92-0.784,7.154-1.567,11.074c0,1.568-1.667,3.921-2.353,5.488
		c-0.882,0.883-2.45,2.45-3.92,2.45h-0.883c-2.45,2.45-5.586,1.568-8.82,2.353c-1.568,0-3.137-0.687-5.488,0
		c-0.687,0-2.353-0.687-3.921-1.568l-0.882-0.784c0.882-1.567,0-2.45,0-4.018v-3.039v-8.82c-0.686-3.136,0-6.37,0-8.723
		c0-0.784-0.098-1.372-0.195-1.764c-0.099-0.49-0.099-1.471,0-3.137c0.098-1.666,0.195-2.94,0.195-3.724v-1.667
		c-0.686-2.254,0-4.704,0-7.938v-0.784v-2.352c-0.686-1.568-0.686-2.353,0-3.921v-11.173c0-1.47-0.686-3.038,0.882-4.605v-0.883
		c0-0.784,0-0.784,0.784-1.567c0.784,0,2.45-0.784,3.137-0.784H186.855z M186.855,207.952c0,1.568,1.568,3.136,2.45,4.018h0.784
		c0.784-0.882,0.784,0,1.568-0.882c1.666,0,3.234-0.686,4.019-1.567c0.882-1.568,1.567-3.137,1.567-4.803
		c0-2.45-0.686-5.488,0-7.938v-0.687c-0.784-2.45,0.784-4.704,0-6.37v-3.92v-9.605v-4.018v-0.687v-3.234
		c0-0.686,0-2.352-0.686-3.136c-0.882-4.019-3.332-5.587-7.253-4.705c-1.568,0-3.136,1.568-3.136,3.921
		c0.784,3.43,0.49,9.114,0.686,10.291c-0.686,0.783,0,1.567,0,2.352v3.234v4.803c-0.686,3.038,0,7.154-0.686,10.192v0.882
		c0.686,0.687,0.686,1.568,0.686,3.137c-0.686,1.47,0,3.038-0.686,4.704C186.855,205.502,186.169,206.384,186.855,207.952z"/>
	<path fill="#FFFFFF" d="M214,210.01v-5.488v-5.685v-8.82v-8.723v-6.37v-12.056v-4.018c0.686-0.784,0-2.353,0-3.921
		c0-0.882,0-2.45,0.686-3.234c1.862-0.882,2.45-1.567,3.333-1.567h8.723c4.018,0,7.252,0.686,10.486,3.136
		c2.254,1.666,3.92,3.234,4.704,6.371c0.784,1.666,0.784,4.116,1.666,6.468v3.137c-0.882,0.882-0.882,0.882-0.882,1.568
		c0.882,0.882,0.882,1.666,0,2.45v1.666v0.686c-0.784,2.45-1.568,5.685-2.352,8.919h-0.883c-1.567,0.686-1.567,2.254-2.254,3.92
		c-0.882,0-0.882,0.784,0,1.568c0.687,4.019,1.568,8.135,3.137,12.055c0,2.45,0.783,4.803,1.567,7.938
		c0.784,2.45,1.666,4.803,2.353,7.253c0.882,1.568-0.687,3.234-2.353,3.92c-2.45,0-5.586-0.686-6.37-3.92
		c-0.784-0.882-0.784-2.45-0.784-3.137c0-0.882,0-1.666-0.784-1.666c-0.882,0-0.882-0.784-0.882-1.567
		c0-1.568-0.687-3.234-0.687-4.019c-0.882-2.353-0.882-4.019-1.666-5.587c-0.784-0.882-0.784-1.567-0.784-2.45
		c0-2.45-0.783-4.802-2.352-6.37c0-1.078-0.784-1.568-2.45-1.568s-1.666,0.588-2.353,2.45c0,1.568-0.882,2.353,0,3.921
		c0,1.567-0.882,2.45-0.882,3.136c0,3.234,0.882,5.685,0.882,8.919v2.352c-0.882,0.784-0.882,2.45,0,4.019v1.568
		c-0.882,3.234-2.45,4.803-6.37,3.234c-0.882,0-2.45-1.666-2.45-3.234V210.01z M234.777,170.121c0-1.568-0.784-4.019-0.784-5.685
		c-0.784-4.704-5.685-5.586-8.82-4.019h-0.784c-0.882,1.568-2.45,2.45-1.568,4.019v2.353c0,0.882-0.882,1.764,0,1.764
		c0.687,3.137,0,5.488,0,7.938v2.353c0.687,1.568,1.568,1.568,2.353,2.45c1.568,0.784,4.019,0.784,6.37-0.882
		c1.568-0.687,2.45-2.353,3.234-3.921V170.121z"/>
	<path fill="#FFFFFF" d="M265.645,150.128h8.723c3.431,0,4.9,1.666,4.9,3.92c0,3.431-1.567,4.9-3.822,4.9
		c-3.43,0.784-5.685,0.784-8.135,0c-1.666,0-2.45,0.784-3.233,1.666c-1.667,0.784-2.353,1.471-2.353,3.137v12.055
		c0,2.45,2.353,4.803,4.704,4.803c1.666,0,3.332,0,4.803-0.883c1.666,0,3.136,1.666,4.214,1.666c0.294,0,0.49,0.099,0.588,0.393
		c0.099,0.098,0.099,0.294,0.099,0.392c0.784,1.666,1.568,4.019,0,5.488c-0.687,1.666-1.765,2.45-2.45,2.45h-7.253
		c-1.568,0-4.019,0.784-4.019,2.45c-0.686,2.45-0.686,3.921-0.686,6.272v4.9c0,1.568,0,3.234,0.686,4.9
		c0.784,2.255,4.019,3.332,6.469,2.255c2.353,0,4.803-0.099,7.253,0.979c1.666,0,2.45,0.687,2.45,2.156
		c0.686,1.078,0.686,2.353,0.686,3.431c0,1.47-1.567,3.136-3.136,3.136c-6.371,0.784-12.938,0.784-18.523,0.784
		c-3.137,0-4.704-1.666-4.704-4.9v-9.507v-2.45c0.783-1.47,0-3.038,0-5.685v-7.057c0.783-1.666,0-3.332,0.783-4.9
		c-0.783-2.254-0.783-3.626-0.783-6.271v-2.353v-0.784c0.783-4.019,0-7.351,0-10.486v-10.39c0.783-0.783,0.783-2.548,0.783-3.332
		c0-2.352,1.667-3.136,3.137-3.136H265.645z"/>
	<path fill="#FFFFFF" d="M308.079,166.495c0.784,2.352,0.784,3.92,1.47,6.37v3.234c0.882,4.606,1.666,8.723,2.548,12.545
		c0.784,4.803,2.353,10.389,3.137,15.093c0,2.45,0.784,4.116,1.568,6.469v0.784c0,0.686,0,2.353,0.882,3.136
		c0.686,2.45,0,4.019-0.882,5.587c-0.784,0.784-1.568,1.568-2.353,1.568c-3.234,0-5.586-1.568-6.37-4.705c0-2.45,0-4.9-0.784-7.252
		c-1.568-3.137-3.234-3.822-6.469-3.822c-2.353,0-3.822,0.686-5.488,3.038v0.784c0,0.882,0,0.882-0.687,1.666
		c-0.882,0.686,0,2.353,0,3.92c0,0.883-0.882,1.666-0.882,2.353c-0.784,3.234-4.802,4.019-7.154,3.234
		c-0.784-0.784-1.568-1.568-1.568-2.353c0-2.352,0-4.802,0.784-7.154c0-1.666,0.784-3.137,0.784-5.488
		c0.784-1.862,0.784-4.116,1.568-6.469c0.784-3.038,0-8.036,1.568-11.075c0.783-2.352,1.666-5.488,1.666-7.938v-1.666
		c0.784-3.136,1.567-6.958,2.352-10.192c0-0.882,0-2.353,0.882-3.234v-2.353c0-1.567,0-4.018,0.687-5.586
		c0.294,0,0.588-0.098,0.687-0.393c0.098-0.098,0.098-0.294,0.098-0.392c-0.784-2.353,0.882-4.704,3.234-5.488
		c0.784-0.882,1.47-0.882,1.47,0c1.862,0,2.548,0,3.234,0.784c0.882,0,0.882,0.686,1.666,1.568c0,2.352,0.687,3.92,0.687,6.272
		c0,0.686,0,2.449,0.882,3.233c0.784,0.784,0.784,1.568,0.784,3.234V166.495z M303.374,183.156c-0.783-2.45-1.764-5.587-1.764-7.938
		h-0.784h-0.686v5.488c-0.784,3.43-1.667,7.252-2.353,11.173c0,1.568,0,2.352,1.568,3.234c0.784,1.666,2.156,1.666,3.234,0.784
		c1.47-0.784,2.352-1.667,2.352-3.234c-0.882-1.568-0.882-3.137-0.882-4.019c-0.687-1.47-0.687-3.038-0.687-4.606V183.156z"/>
	<path fill="#FFFFFF" d="M354.922,213.343c-0.784-0.784-0.784-0.784,0-1.568v-0.784c-0.784-2.353-0.784-3.92-0.784-6.272
		l0.784-0.784c-0.784-4.214,0-7.253,0-10.389c-0.784-4.019,0-7.154,0-10.291v-0.784c0-0.294-0.099-0.588-0.393-0.686
		c-0.098-0.099-0.294-0.099-0.392-0.099h-0.784c0,1.568,0,2.353-0.784,3.137c0,1.568,0,3.136-1.568,3.92v0.784
		c0,1.666-0.784,3.234-0.784,4.803c-0.783,1.568-1.567,3.92-1.567,5.488s-0.784,2.254-1.568,4.116v1.568
		c0,1.568-0.784,2.352-2.353,2.352c-1.078,0.784-1.764,0-2.548-0.783c-0.784-1.568-1.568-3.039-2.353-4.9
		c0-2.353-0.784-4.705-1.567-7.057c-0.784-0.784-0.784-2.353-0.784-3.137s0-0.784-0.784-1.568c-0.784-0.882-0.784-1.666-0.784-2.45
		c0-2.352-1.568-3.136-1.568-5.488c0-0.098,0-0.294-0.098-0.392c-0.099-0.294-0.393-0.393-0.687-0.393v1.568
		c0,0.784-0.784,2.353,0,3.921c0,0.783,0.784,2.352-0.784,4.018c0.784,1.568,0.784,2.353,0.784,3.921c-0.784,3.136,0,6.174,0,9.604
		c0,0.784-0.784,1.568-0.784,2.353c-0.783,0.783,0.784,1.567,0.784,2.352c-0.784,2.353,0,4.704,0,7.154
		c-0.784,2.353-2.45,3.921-4.018,4.705c-2.353,0-4.705-1.568-4.705-3.921c0-3.234-0.784-6.37,0-10.29v-0.784v-11.957v-5.587
		c-0.784-1.567,0-2.352,0-3.92v-1.568c-0.784-1.568,0-3.136,0-4.704c-0.784-2.45,0-4.019,0-5.587v-4.704
		c-0.784-1.568-0.784-2.352,0-3.92v-7.253c-0.784-1.567-0.784-2.352,0-3.92c0.784-0.784,0.784-2.45,2.353-2.45h1.568
		c0-0.784,0.784-0.784,0.784,0c2.45,0.882,4.018,1.666,4.802,4.019c0,2.352,0.784,4.704,1.568,6.272
		c0.784,1.567,0.784,3.332,1.568,5.684c0.784,0.784,0.784,2.353,0.784,3.137c0,0.294,0.098,0.686,0.392,1.078l0.392,0.49
		c0,2.352,0.784,3.92,2.353,6.37c0,0.784,0,2.353,0.784,3.137v1.567v0.784c0.784,0.784,0.784,1.568,1.568,1.568
		c1.078,0,0.979-0.784,1.764-1.568l2.353-7.154c0.784-2.353,0.784-4.704,2.352-7.841l2.353-9.604c0.294,0,0.588-0.098,0.687-0.392
		c0.098-0.099,0.098-0.295,0.098-0.393c0.784-1.568,0.784-2.352,0.784-3.136v-1.568c0.784-1.568,4.802-3.234,6.37-3.234
		c0,0.294,0.098,0.588,0.393,0.687c0.098,0.098,0.294,0.098,0.392,0.098c1.568,1.666,2.353,3.234,1.568,5.586v3.137
		c0.784,0.784,0.784,2.352,0.784,3.136c-0.784,4.215,0,8.037-0.784,11.173c0,0.784,0,1.568-0.784,2.353c0.294,0,0.49,0,0.784,0.098
		c0.49,0.099,0.784,0.393,0.784,0.784c-0.784,2.353,0,4.704-0.784,7.057v7.154c0,2.353,0.784,4.705,0,7.057v2.353
		c0.784,1.568,0.784,4.116,0,5.685c0,0.784,0.784,1.567,0,1.567v0.784c0.784,1.568,0,2.353,0,3.921v3.234
		c0.784,1.567,0,3.136-1.568,3.92c-0.784,2.45-4.803,1.568-6.37-0.784c-0.784-0.784,0.784-1.568,0-2.353V213.343z"/>
	<path fill="#FFFFFF" d="M422.147,196.681v-2.352c0-3.921-4.117-5.488-7.351-4.704c-2.353,0.783-3.822,3.038-3.822,6.174
		c0.686,1.568,0.686,3.234,0,4.116v0.687c0.686,3.234,0.686,5.685,0,8.919c0.686,1.567,0,3.136,0,4.704
		c0.686,1.666,0.588,3.234-0.883,4.802c-0.686,1.666-1.567,2.353-3.92,2.353c-1.666,0-3.234-1.568-3.234-3.234
		c-0.882-2.254-0.882-3.92-0.882-5.488c0-0.784,0.882-1.568,1.568-1.568c-1.568-0.882-1.568-2.45-1.568-3.136
		c0-2.646,0-4.704,0.882-7.351v-12.545c-0.882-3.234,0-5.685,0-8.919v-1.666v-4.704v-3.921c-0.882-2.45,0-5.684,0-8.036v-3.822
		c-0.882-1.568-0.882-2.45,0-4.019c1.568-3.234,3.234-3.234,6.469-2.352c0.686,0.686,1.568,1.567,1.568,2.352
		c0,1.568,0.686,2.45,0,4.019v0.784c0.686,2.352,0,5.391,0,8.624c0.686,2.45-0.099,4.803,0.588,7.253c0,0.098,0,0.294-0.099,0.392
		c-0.098,0.294-0.294,0.393-0.489,0.393c0,1.568-0.099,2.352,0.588,3.038c0.882,3.234,2.548,3.234,5.782,3.234h0.686
		c0.883,0,2.45,0,3.234-1.568c0-0.686,0.883-2.353,0.883-3.136v-15.191c0-2.254-0.883-4.704,0-6.959
		c0-0.882,0.686-0.882,0.686-1.666c0-0.882,0.882-0.882,1.568-0.882c0.882,0,1.666-0.686,2.548-0.686
		c1.568,0,3.137,0.686,3.137,2.352c0.686,1.568,0.686,2.45,0.686,3.137v9.604v17.543c0,2.254,0,4.803-0.686,7.154
		c0,1.568,0.686,2.255,0.686,3.921v9.507c0,3.234,0,6.37-0.686,9.507c0,1.567,0.686,2.548,0.686,4.116
		c0,1.567-0.686,3.233-2.254,3.233c-1.666,0.687-3.234,0.687-4.803,0c-1.567-0.882-1.567-2.548-1.567-4.116v-2.352v-1.568v-9.507
		c0-1.666,0-3.234,0.686-4.9C422.147,198.249,422.147,197.367,422.147,196.681z"/>
	<path fill="#FFFFFF" d="M468.109,185.508l-0.098,5.489c-0.099,1.078-0.099,1.666-0.784,2.45c-0.098,0.686-0.098,2.254-1.078,3.724
		c0,0.882,0,1.568-0.687,1.568c0,0.098,0,0.294-0.098,0.392c-0.098,0.294-0.392,0.393-0.784,0.393
		c-0.784,2.646-2.548,3.92-4.9,4.606c-0.882,0.784-1.567,0.784-1.567,1.47c-0.784,0-1.667,0.784-2.353-0.098l-3.234-0.099
		c-3.234-0.098-5.488-0.979-6.958-2.45c-5.391-4.214-6.763-10.486-5.881-32.93c-0.882-0.784,0-1.666,0-2.353
		c0-1.078,0.686-2.45,0-4.019c0-1.567,0.686-3.136,1.47-4.606c1.568-2.646,3.234-4.9,5.587-6.468
		c0.686-1.666,2.254-2.255,4.704-1.568c0.687,0,1.47-0.687,3.137-0.687c1.567,0,3.136,0,4.605,1.568
		c3.234,1.568,5.587,3.921,7.155,6.272v0.882c0.882,3.039,2.352,5.489,1.567,8.625c0,1.568,0.784,3.137,0,5.488
		c0.883,0.882-0.882,3.038,0,4.704c-0.294,0.589,0.393,1.667,0.295,6.959c0.098,0,0.195,0,0.294,0.098
		C468.599,185.019,468.403,185.214,468.109,185.508z M465.168,215.694c0.784,0.784,0.784,1.568,0,2.353c0,0.098,0,0.294-0.098,0.49
		c-0.098,0.392-0.392,0.783-0.686,1.078c-0.784,0.882-1.667,1.567-3.234,1.567c-1.568-0.686-2.255,0-5.881,0
		c-0.882-0.686-1.666-0.686-3.234,0h-6.272c-1.567-0.686-2.45-0.686-3.234-2.352c0-1.568-1.666-3.137,0-4.803
		c0.784-0.784,1.667-0.784,2.45-1.568c2.353-0.784,4.803,0,7.841,0l3.038-0.195c0.98,0.098,2.059,0.195,3.038,0.195h1.471
		c2.352-0.784,3.234,0,4.019,1.568c0.392,0.392,0.588,0.882,0.686,1.176C465.168,215.4,465.168,215.597,465.168,215.694z
		 M460.17,189.82c-0.686-1.176-0.196-2.842-0.392-4.214c-0.294-0.49-0.589-1.078-0.589-1.568c0.883-3.038,0-6.763,0-10.192v-1.568
		c0.883-1.47,0-3.038,0.883-4.606v-0.98c-0.883-0.686-0.883-1.47-0.883-2.155c-0.686-2.45-1.47-4.019-3.038-4.019h-0.686
		c-2.646,0-4.019,0-4.9,1.568c-2.254,1.567-3.137,3.92-3.137,6.272c0.883,1.666,0,3.233,0,8.82l0.393,7.351c0,0.49,0,0.882,0,1.372
		c0,0-0.099,0-0.196,0v1.274c0.784,0.783,0.784,1.567,0.784,2.254c-0.098,2.646,2.94,6.566,6.076,6.763c0.882,0,1.568,0,1.568-0.883
		c1.666-1.47,2.45-2.939,4.116-4.605V189.82z"/>
	<path fill="#FFFFFF" d="M504.858,161.79v2.45v4.999c-0.784,0.686-0.784,2.352,0,3.92v5.881v5.586v7.449v2.548
		c0,4.802,0,10.585-0.784,14.505v1.765c-3.431,4.018-4.803,8.036-9.801,8.82c-3.234,1.862-6.566,1.764-9.801-0.687
		c-0.882-0.783-1.666-1.666-2.548-1.666c-3.234-2.45-3.822-5.685-4.9-8.918c-0.393-1.274-0.588-4.019-0.588-8.135
		c0-8.331-0.196-12.447-0.196-13.133c0-1.274,0-2.549,0.098-3.725l0.294-5.488c0.099-2.45,0-4.312-0.392-5.488v-0.883
		c0.784-3.233,0-5.586,0-9.114c0-0.294,0.098-0.49,0.392-0.588c0.099-0.099,0.294-0.099,0.393-0.099c-0.784-1.666,0-4.899,0-7.35
		c0-3.234,1.568-4.019,4.213-4.019h1.568c1.666,0.784,2.353,1.372,2.353,3.234v4.9v4.508v4.41c0.882,3.431,0,5.587,0,8.233
		c0,3.43,0.882,6.566,0,9.8v1.667c0.882,2.45,0,5.684,0,8.918v7.351c0,1.862,0.588,2.94,1.666,5.685
		c0.882,0,2.352,0.882,4.214,1.765h0.784c0.687-0.883,1.568-1.765,2.45-1.765c0.098,0,0.294,0,0.392-0.098
		c0.295-0.099,0.393-0.294,0.393-0.588c0.882-2.646,0.882-5.783,0.882-8.233v-1.666v-33.519v-2.548v-8.036
		c0-3.234,3.234-5.097,5.685-4.019c0.784,0.784,1.372,0.784,2.45,1.47l0.392,0.588c0.294,0.393,0.393,0.784,0.393,1.177v5.586
		V161.79z"/>
	<path fill="#FFFFFF" d="M523.87,172.571c0.784,1.568,1.666,2.45,2.45,3.92c0.686,0.883,1.568,2.45,2.352,3.333
		c2.45,1.47,3.137,3.136,4.803,5.586c1.666,0.882,2.45,2.353,4.019,3.234c1.666,3.136,2.45,5.586,3.234,8.723
		c1.666,4.214,0.882,8.135,0.882,11.271c0,4.215-1.666,7.351-4.116,9.801c-1.568,1.471-4.019,1.471-5.685,2.353h-2.353
		c-0.784,0.784-1.567,0.784-2.45,0h-1.47h-1.666c-0.784-0.882-0.784-0.882-1.666-0.882h-1.471c-2.45-1.471-4.116-3.333-4.998-5.587
		c-0.687-1.568-2.353-3.234-1.47-5.685c-0.883-0.784-0.883-1.47-0.883-2.352c0-0.784-0.784-2.45,0-3.234
		c0.883,0,0.883,0,0.883-0.687c0-1.666,1.47-1.666,2.352-2.45c1.568,0,3.234,0,4.116,0.784c0.294,0.294,0.49,0.687,0.588,1.176
		c0.099,0.196,0.099,0.393,0.099,0.49c0,2.353,1.666,4.803,1.666,7.155v0.783c1.568,0.784,3.234,2.45,4.803,1.666h1.567l2.353-2.449
		c0.882-0.883,1.666-1.667,1.666-4.019c-0.784-4.019-1.666-8.135-4.019-11.271c-1.567-2.254-4.018-3.136-4.802-5.586
		c-1.568,0-2.45-1.666-2.45-2.353c-1.471-0.882-1.471-1.666-2.353-3.332c-2.45-1.666-3.234-4.019-4.803-6.469
		c-0.783-1.47-0.783-3.92-0.783-5.586c0-1.568,0-3.234-0.883-5.685v-0.784c0.883-1.568,0.883-4.019,1.666-5.488
		c0-2.45,1.568-4.116,3.137-5.782c2.646-2.353,5.685-3.137,8.82-3.137h2.45c0,0.784,0,0.784,0.882,0.784
		c2.353-0.784,4.803,0,6.469,1.666c2.353,2.353,3.921,4.803,3.921,7.938c0.882,0.883,0.882,2.45,0.882,3.333v2.352
		c0,0.784-0.882,1.568-1.666,2.45c-1.666,0.784-3.137,0-4.803,0c-0.392,0-0.686-0.098-0.784-0.392
		c-0.098-0.098-0.098-0.294-0.098-0.49c-0.784-1.568-1.568-2.45-0.784-3.92v-0.883c-0.784-0.783-1.666-2.45-3.137-3.233
		c0-0.196-0.195-0.393-0.489-0.589c-0.099-0.098-0.294-0.098-0.393-0.098c-1.567,0-2.45,0-2.45-1.666c-0.098,0-0.195,0-0.294,0.098
		c-0.098,0.099,0,0.393,0.294,0.687c0,0.882,0,0.882-0.686,1.568c-3.234,1.666-4.116,4.116-3.234,6.468v0.784
		c0,0.294-0.196,0.588-0.49,0.687c-0.098,0.098-0.294,0.098-0.392,0.098C522.204,169.337,523.086,170.905,523.87,172.571z"/>
	<path fill="#FFFFFF" d="M562.383,150.128h8.723c3.431,0,4.9,1.666,4.9,3.92c0,3.431-1.567,4.9-3.822,4.9
		c-3.43,0.784-5.685,0.784-8.135,0c-1.666,0-2.45,0.784-3.233,1.666c-1.667,0.784-2.353,1.471-2.353,3.137v12.055
		c0,2.45,2.353,4.803,4.704,4.803c1.666,0,3.332,0,4.803-0.883c1.666,0,3.136,1.666,4.214,1.666c0.294,0,0.49,0.099,0.588,0.393
		c0.099,0.098,0.099,0.294,0.099,0.392c0.784,1.666,1.568,4.019,0,5.488c-0.687,1.666-1.765,2.45-2.45,2.45h-7.253
		c-1.568,0-4.019,0.784-4.019,2.45c-0.686,2.45-0.686,3.921-0.686,6.272v4.9c0,1.568,0,3.234,0.686,4.9
		c0.784,2.255,4.019,3.332,6.469,2.255c2.353,0,4.803-0.099,7.253,0.979c1.666,0,2.45,0.687,2.45,2.156
		c0.686,1.078,0.686,2.353,0.686,3.431c0,1.47-1.567,3.136-3.136,3.136c-6.371,0.784-12.938,0.784-18.523,0.784
		c-3.137,0-4.704-1.666-4.704-4.9v-9.507v-2.45c0.783-1.47,0-3.038,0-5.685v-7.057c0.783-1.666,0-3.332,0.783-4.9
		c-0.783-2.254-0.783-3.626-0.783-6.271v-2.353v-0.784c0.783-4.019,0-7.351,0-10.486v-10.39c0.783-0.783,0.783-2.548,0.783-3.332
		c0-2.352,1.667-3.136,3.137-3.136H562.383z"/>
</g>
</svg>
