<?xml version="1.0" encoding="utf-8"?>
<!-- Generator: Adobe Illustrator 16.0.0, SVG Export Plug-In . SVG Version: 6.00 Build 0)  -->
<!DOCTYPE svg PUBLIC "-//W3C//DTD SVG 1.1//EN" "http://www.w3.org/Graphics/SVG/1.1/DTD/svg11.dtd">
<svg version="1.1" id="Layer_1" xmlns="http://www.w3.org/2000/svg" xmlns:xlink="http://www.w3.org/1999/xlink" x="0px" y="0px"
	 width="204.368px" height="43.484px" viewBox="0 0 204.368 43.484" enable-background="new 0 0 204.368 43.484"
	 xml:space="preserve">
<g>
	<path d="M26.424,2.948c0.032,0.229-0.164,0.394-0.196,0.558c-0.033,0.229-0.033,0.524-0.033,0.786
		c0.033,0.262,0.099,0.427,0.099,0.524c0,0.032-0.065,0.262-0.065,0.621c0,0.395,0.032,0.82,0.032,1.312s0.164,0.95,0.131,1.409
		c0,0.459-0.098,0.754-0.098,0.951c0,0.064,0,0.13,0,0.195c0,0.066,0.098,0.131,0.064,0.197c0,0.064-0.031,1.343-0.031,1.67
		c0,0.1-0.033,0.1-0.033,0.23c0,0.654,0.033,1.277,0.033,1.867c0,0.654-0.033,1.277-0.033,1.867c0,0.688-0.099,1.311-0.099,1.869
		c0,0.688,0.132,1.309,0.132,1.867c0,0.721-0.033,1.342-0.066,1.867c0,0.982-0.099,1.736-0.099,2.262
		c0,0.688,0.099,0.949,0.099,1.375c0,0.36-0.032,0.394-0.032,0.688c0,0.133,0.13,0.23,0.163,0.328c0,0.099-0.163,0.295-0.163,0.59
		c0,0.262,0.13,0.622,0.13,1.016c0,0.395-0.13,0.818-0.163,1.278c0,0.458,0.065,0.884,0.033,1.278
		c-0.033,0.523,0.032,1.047-0.033,1.539c-0.065,0.523-0.328,1.016-0.427,1.508c-0.131,0.49-0.064,1.016-0.229,1.475
		c-0.163,0.458-0.458,0.852-0.654,1.311c-0.163,0.393-0.295,0.818-0.524,1.18c-0.229,0.393-0.523,0.72-0.754,1.08
		c-0.327,0.394-0.622,0.82-0.95,1.18c-0.295,0.393-0.688,0.721-1.048,1.049c-0.165,0.164-0.328,0.295-0.459,0.492
		c-0.131,0.098-0.295,0.196-0.426,0.295c-0.131,0.098-0.131,0.359-0.263,0.457c-0.229,0.164-0.523,0.262-0.753,0.427
		c-0.197,0.132-0.394,0.36-0.623,0.491c-0.491,0.164-1.048,0.525-1.605,0.722c-0.491,0.196-1.016,0.196-1.508,0.327
		c-0.523,0.098-0.982,0.328-1.507,0.361c-0.491,0.064-1.015,0.031-1.539,0c-0.688-0.033-1.376-0.197-2.065-0.328
		c-0.688-0.132-1.408-0.164-2.063-0.427c-0.655-0.229-1.278-0.557-1.9-0.884c-0.458-0.263-0.918-0.525-1.376-0.82
		c-0.426-0.295-0.786-0.719-1.18-1.081c-0.393-0.327-0.754-0.688-1.114-1.114C2.866,38.4,2.538,38.007,2.21,37.582
		c-0.295-0.426-0.655-0.819-0.885-1.279c-0.262-0.458-0.327-0.982-0.491-1.474c-0.163-0.491-0.328-0.95-0.459-1.474
		c-0.099-0.492-0.262-0.983-0.327-1.508c-0.033-0.36-0.033-0.721-0.033-1.049c0-0.327-0.033-0.688,0-1.016
		c0.033-0.459,0.262-0.885,0.328-1.344c0.065-0.458,0.099-0.885,0.229-1.342c0.132-0.46,0.328-0.918,0.524-1.377
		s0.295-0.95,0.524-1.377c0.262-0.426,0.524-0.852,0.819-1.244c0.328-0.393,0.754-0.656,1.114-1.016
		c0.458-0.427,0.917-0.853,1.409-1.18c0.523-0.328,1.081-0.656,1.671-0.918c0.557-0.229,1.179-0.459,1.769-0.59
		c0.59-0.164,1.246-0.131,1.867-0.164c0.559-0.064,1.114-0.131,1.639-0.098c0.557,0.066,1.082,0.229,1.605,0.36
		c0.557,0.196,1.017,0.425,1.475,0.655c0.491,0.262,1.016,0.459,1.442,0.786c0.688,0.558,1.244,1.277,1.704,2.13
		c0.458,0.753,0.688,1.605,0.818,2.49c0.098,0.491,0.164,0.982,0.164,1.441c-0.033,0.492-0.066,0.983-0.196,1.475
		c-0.099,0.492-0.361,0.918-0.623,1.311c-0.229,0.426-0.458,0.852-0.786,1.213c-0.132,0.164-0.263,0.262-0.459,0.326
		c-0.197,0.066-0.394,0.165-0.557,0.165c-0.394,0-0.722-0.196-1.017-0.524c-0.295-0.263-0.393-0.59-0.393-1.016
		c0-0.328,0.131-0.623,0.426-0.982c0-0.264,0.295-0.525,0.427-0.82c0.031-0.131,0-0.262,0.031-0.426
		c0.033-0.131,0.099-0.295,0.165-0.459c0-0.523,0.065-1.146-0.099-1.67c-0.033-0.197-0.229-0.328-0.295-0.525
		c-0.098-0.195-0.066-0.459-0.164-0.622c-0.099-0.163-0.262-0.328-0.394-0.491c-0.294-0.36-0.556-0.492-0.917-0.787
		c-0.164-0.098-0.327-0.195-0.523-0.294c-0.165-0.132-0.264-0.361-0.46-0.46c-0.491-0.196-0.982-0.262-1.409-0.326
		c-0.295-0.066-0.589-0.066-0.884-0.066c-0.688,0.066-1.376,0.263-2.032,0.426c-0.393,0.099-0.818,0.099-1.211,0.23
		c-0.558,0.262-1.147,0.623-1.737,1.047c-0.458,0.394-0.852,0.885-1.245,1.344c-0.426,0.59-0.655,1.213-0.917,1.77
		c-0.165,0.393-0.394,0.754-0.491,1.147c-0.099,0.425-0.263,0.852-0.328,1.278c-0.033,0.426,0,0.884-0.033,1.342
		c0,0.492,0,0.951,0.033,1.377c0.132,0.754,0.328,1.572,0.623,2.359c0.359,0.786,0.852,1.441,1.311,2.031
		c0.262,0.36,0.557,0.688,0.852,0.982c0.328,0.295,0.557,0.655,0.885,0.918c0.393,0.295,0.818,0.492,1.245,0.721
		c0.394,0.262,0.818,0.492,1.245,0.655c0.917,0.328,1.835,0.688,2.784,0.819c0.427,0.032,0.885,0.065,1.311,0.099
		c0.427,0,0.853-0.132,1.278-0.165c0.754-0.129,1.475-0.359,2.163-0.621c1.048-0.295,1.867-1.213,2.522-1.704
		c0.197-0.165,0.426-0.295,0.655-0.491c0.36-0.395,0.623-0.787,0.885-1.146c0.328-0.395,0.59-0.787,0.819-1.213
		c0.262-0.427,0.557-0.852,0.753-1.312c0.196-0.458,0.394-0.917,0.524-1.409c0.132-0.491,0.132-0.982,0.197-1.506
		c0.064-0.524,0.163-1.082,0.163-1.672c0-0.885,0.033-0.885,0.033-1.77c0-0.262,0.032-0.589-0.033-0.852
		c0-1.016,0.065-1.016,0.065-1.999c0-1.015-0.032-1.015-0.032-1.997l-0.033-0.033c0.033-0.197,0.196-0.394,0.196-0.59
		c0-0.525-0.131-1.277-0.196-1.803c0-0.229,0.131-0.459,0.164-0.688c0-0.131-0.033-0.295-0.033-0.558c0.196-0.196,0-1.343,0-1.9
		c0-0.163-0.098-0.394-0.131-0.753c0.229-0.165,0.164-0.722,0.164-1.115c0-0.393-0.066-0.785-0.099-1.113
		c0-0.065,0.065-0.394,0.065-0.918c-0.033-0.523,0-1.18,0-1.965c0-0.787-0.098-1.672-0.131-2.588c0-0.951,0.131-1.868,0.131-2.753
		c0.033-0.886-0.098-1.672-0.065-2.394c0-0.752,0.131-1.277,0.164-1.637c0.033-0.262,0.196-0.525,0.524-0.721
		c0.328-0.23,0.59-0.295,0.852-0.295c0.263,0,0.459,0.033,0.622,0.064c0.164,0.066,0.394,0.132,0.623,0.361
		c0.132,0.131,0.065,0.295,0.065,0.491c0.033,0.196,0.196,0.427,0.229,0.753C26.391,2.588,26.424,2.72,26.424,2.948z"/>
	<path d="M33.533,8.225h2.916c1.147,0,1.639,0.557,1.639,1.309c0,1.148-0.524,1.639-1.278,1.639c-1.146,0.262-1.9,0.262-2.719,0
		c-0.558,0-0.819,0.262-1.081,0.557c-0.558,0.264-0.787,0.493-0.787,1.05v4.03c0,0.818,0.787,1.605,1.573,1.605
		c0.557,0,1.113,0,1.605-0.296c0.557,0,1.048,0.558,1.408,0.558c0.099,0,0.165,0.033,0.196,0.133
		c0.033,0.031,0.033,0.098,0.033,0.129c0.263,0.558,0.524,1.344,0,1.836c-0.229,0.557-0.59,0.818-0.819,0.818h-2.424
		c-0.524,0-1.344,0.262-1.344,0.818c-0.229,0.82-0.229,1.311-0.229,2.098v1.639c0,0.524,0,1.08,0.229,1.639
		c0.262,0.753,1.344,1.113,2.162,0.753c0.787,0,1.605-0.033,2.425,0.328c0.558,0,0.819,0.229,0.819,0.721
		c0.229,0.36,0.229,0.786,0.229,1.146c0,0.491-0.524,1.049-1.049,1.049c-2.13,0.262-4.325,0.262-6.192,0.262
		c-1.048,0-1.572-0.557-1.572-1.639v-3.179v-0.818c0.261-0.492,0-1.016,0-1.9v-2.359c0.261-0.557,0-1.113,0.261-1.639
		c-0.261-0.753-0.261-1.211-0.261-2.096v-0.787v-0.262c0.261-1.344,0-2.457,0-3.506v-3.473c0.261-0.262,0.261-0.854,0.261-1.115
		c0-0.785,0.559-1.047,1.05-1.047H33.533z"/>
	<path d="M40.809,28.243v-1.835v-1.9v-2.949v-2.916v-2.129v-4.03V11.14c0.229-0.262,0-0.786,0-1.312c0-0.295,0-0.818,0.229-1.08
		c0.622-0.295,0.818-0.523,1.113-0.523h2.917c1.343,0,2.425,0.229,3.506,1.047c0.753,0.557,1.311,1.082,1.572,2.131
		c0.262,0.557,0.262,1.376,0.557,2.162v1.049c-0.295,0.295-0.295,0.295-0.295,0.523c0.295,0.295,0.295,0.558,0,0.819v0.558v0.229
		c-0.262,0.82-0.523,1.9-0.786,2.982h-0.295c-0.523,0.229-0.523,0.754-0.753,1.311c-0.295,0-0.295,0.262,0,0.523
		c0.229,1.344,0.524,2.721,1.048,4.031c0,0.818,0.263,1.605,0.524,2.653c0.262,0.819,0.557,1.605,0.786,2.425
		c0.295,0.525-0.229,1.081-0.786,1.311c-0.819,0-1.867-0.229-2.13-1.311c-0.262-0.295-0.262-0.819-0.262-1.049
		c0-0.295,0-0.557-0.262-0.557c-0.295,0-0.295-0.263-0.295-0.524c0-0.524-0.229-1.081-0.229-1.343
		c-0.295-0.787-0.295-1.344-0.558-1.869c-0.262-0.294-0.262-0.522-0.262-0.818c0-0.818-0.262-1.605-0.787-2.129
		c0-0.361-0.262-0.525-0.818-0.525s-0.557,0.197-0.787,0.82c0,0.523-0.295,0.785,0,1.311c0,0.523-0.295,0.819-0.295,1.048
		c0,1.081,0.295,1.901,0.295,2.981V28.8c-0.295,0.263-0.295,0.819,0,1.344v0.524c-0.295,1.081-0.818,1.605-2.13,1.081
		c-0.295,0-0.817-0.556-0.817-1.081V28.243z M47.754,14.908c0-0.524-0.262-1.344-0.262-1.9c-0.263-1.574-1.9-1.868-2.949-1.344
		h-0.262c-0.295,0.524-0.82,0.819-0.525,1.344v0.786c0,0.295-0.295,0.59,0,0.59c0.23,1.048,0,1.834,0,2.653v0.786
		c0.23,0.524,0.525,0.524,0.787,0.819c0.524,0.264,1.344,0.264,2.13-0.295c0.524-0.229,0.819-0.785,1.081-1.311V14.908z"/>
	<path d="M58.074,8.225h2.916c1.147,0,1.639,0.557,1.639,1.309c0,1.148-0.524,1.639-1.278,1.639c-1.146,0.262-1.9,0.262-2.719,0
		c-0.558,0-0.819,0.262-1.081,0.557c-0.558,0.264-0.787,0.493-0.787,1.05v4.03c0,0.818,0.787,1.605,1.573,1.605
		c0.557,0,1.113,0,1.605-0.296c0.557,0,1.048,0.558,1.408,0.558c0.098,0,0.164,0.033,0.196,0.133
		c0.033,0.031,0.033,0.098,0.033,0.129c0.263,0.558,0.524,1.344,0,1.836c-0.229,0.557-0.59,0.818-0.819,0.818h-2.424
		c-0.524,0-1.344,0.262-1.344,0.818c-0.229,0.82-0.229,1.311-0.229,2.098v1.639c0,0.524,0,1.08,0.229,1.639
		c0.262,0.753,1.344,1.113,2.162,0.753c0.787,0,1.605-0.033,2.425,0.328c0.558,0,0.819,0.229,0.819,0.721
		c0.229,0.36,0.229,0.786,0.229,1.146c0,0.491-0.524,1.049-1.049,1.049c-2.13,0.262-4.325,0.262-6.192,0.262
		c-1.048,0-1.573-0.557-1.573-1.639v-3.179v-0.818c0.262-0.492,0-1.016,0-1.9v-2.359c0.262-0.557,0-1.113,0.262-1.639
		c-0.262-0.753-0.262-1.211-0.262-2.096v-0.787v-0.262c0.262-1.344,0-2.457,0-3.506v-3.473c0.262-0.262,0.262-0.854,0.262-1.115
		c0-0.785,0.559-1.047,1.05-1.047H58.074z"/>
	<path d="M75.539,29.357c-0.263-0.262-0.263-0.262,0-0.524v-0.262c-0.263-0.786-0.263-1.312-0.263-2.097l0.263-0.264
		c-0.263-1.407,0-2.424,0-3.473c-0.263-1.342,0-2.392,0-3.439v-0.263c0-0.099-0.033-0.196-0.132-0.228
		c-0.033-0.034-0.099-0.034-0.131-0.034h-0.262c0,0.524,0,0.786-0.263,1.048c0,0.524,0,1.049-0.523,1.311v0.264
		c0,0.556-0.264,1.08-0.264,1.605c-0.262,0.523-0.523,1.309-0.523,1.834c0,0.523-0.263,0.754-0.523,1.375v0.525
		c0,0.523-0.264,0.785-0.787,0.785c-0.361,0.264-0.59,0-0.853-0.262c-0.262-0.523-0.524-1.016-0.786-1.639
		c0-0.785-0.262-1.572-0.524-2.357c-0.262-0.262-0.262-0.787-0.262-1.05c0-0.262,0-0.262-0.262-0.523
		c-0.263-0.294-0.263-0.558-0.263-0.819c0-0.786-0.524-1.049-0.524-1.835c0-0.032,0-0.099-0.032-0.13
		c-0.033-0.098-0.131-0.132-0.229-0.132v0.524c0,0.262-0.262,0.786,0,1.311c0,0.262,0.262,0.787-0.262,1.343
		c0.262,0.524,0.262,0.786,0.262,1.312c-0.262,1.047,0,2.062,0,3.211c0,0.262-0.262,0.523-0.262,0.785
		c-0.263,0.262,0.262,0.525,0.262,0.787c-0.262,0.786,0,1.572,0,2.392c-0.262,0.786-0.819,1.311-1.343,1.572
		c-0.787,0-1.574-0.523-1.574-1.311c0-1.081-0.261-2.129,0-3.44v-0.262v-3.996v-1.869c-0.261-0.523,0-0.786,0-1.311v-0.523
		c-0.261-0.524,0-1.049,0-1.574c-0.261-0.817,0-1.342,0-1.867v-1.572c-0.261-0.524-0.261-0.786,0-1.311V10.55
		c-0.261-0.523-0.261-0.786,0-1.311c0.264-0.262,0.264-0.818,0.787-0.818h0.524c0-0.263,0.263-0.263,0.263,0
		c0.818,0.295,1.343,0.557,1.604,1.343c0,0.786,0.263,1.572,0.524,2.097c0.263,0.524,0.263,1.114,0.524,1.9
		c0.262,0.262,0.262,0.786,0.262,1.05c0,0.098,0.033,0.229,0.132,0.359l0.131,0.164c0,0.785,0.262,1.311,0.786,2.129
		c0,0.262,0,0.787,0.262,1.05v0.523v0.263c0.263,0.262,0.263,0.523,0.524,0.523c0.36,0,0.328-0.262,0.59-0.523l0.786-2.392
		c0.263-0.788,0.263-1.573,0.786-2.622l0.787-3.211c0.098,0,0.196-0.033,0.229-0.131c0.033-0.032,0.033-0.099,0.033-0.131
		c0.262-0.524,0.262-0.786,0.262-1.049V9.239c0.263-0.523,1.605-1.081,2.13-1.081c0,0.098,0.032,0.196,0.131,0.229
		c0.032,0.033,0.099,0.033,0.131,0.033c0.524,0.557,0.786,1.081,0.524,1.867v1.048c0.262,0.263,0.262,0.786,0.262,1.049
		c-0.262,1.409,0,2.688-0.262,3.734c0,0.264,0,0.525-0.262,0.788c0.099,0,0.163,0,0.262,0.032c0.163,0.033,0.262,0.131,0.262,0.262
		c-0.262,0.787,0,1.573-0.262,2.359v2.392c0,0.786,0.262,1.573,0,2.358v0.787c0.262,0.523,0.262,1.377,0,1.9
		c0,0.262,0.262,0.523,0,0.523v0.264c0.262,0.523,0,0.786,0,1.311v1.081c0.262,0.523,0,1.048-0.524,1.311
		c-0.262,0.818-1.605,0.523-2.129-0.263c-0.263-0.262,0.262-0.524,0-0.786V29.357z"/>
	<path d="M84.812,28.342c-0.033-0.688-0.132-1.18-0.295-1.475v-0.295c0.295-0.491,0-1.016,0.295-1.572c0-0.523,0-1.082-0.295-1.344
		v-2.393c0-0.262,0-0.49-0.263-0.785c-0.523-1.344-0.787-2.655-1.081-3.998c0-0.295-0.229-0.558-0.229-0.852
		c-0.524-1.344-0.788-2.359-1.083-3.703v-0.295c-0.262-0.229-0.262-0.491-0.557-0.786V9.271c-0.229-0.523,0.295-0.785,0.557-1.08
		c0.787,0,1.083,0,1.605,0.557c0.23,0,0.492,0.262,0.787,0.785c0.263,1.312,0.819,2.622,0.819,4.293
		c0.229,0.754,0.524,1.574,0.524,2.359h0.262c0,0.295,0,0.557,0.295,0.557c0.263,0,0.263-0.262,0.263-0.557
		c0.229-0.557,0.523-1.049,0.523-1.605c0-0.754,0.229-1.605,0.524-2.392c0.263-0.558,0.491-1.344,0.491-2.097
		c0.295-1.147,0.853-1.605,1.9-1.605h0.295c0.491-0.295,0.786,0,0.786,0.262c0.229,0.721,0.229,0.818,0,1.54
		c-0.295,1.146-0.523,1.9-0.786,2.687c-0.295,0.885-0.295,1.605-0.557,2.426c-0.295,0.522-0.524,1.342-0.524,1.867
		c-0.557,1.047-0.819,2.129-1.114,3.211c-0.229,1.08-0.491,2.392-0.229,3.439c0,0.886-0.263,1.639-0.263,2.195v4.193v0.82
		c-0.295,0.295-0.524,0.818-1.048,0.818c-0.819,0.262-1.344,0-1.605-1.08v-1.05V28.342z"/>
	<path d="M129.666,25.654c-0.099,0.82-0.197,1.639-0.36,2.426c-0.164,0.818-0.36,1.605-0.688,2.392
		c-0.033,0.13-0.132,0.196-0.165,0.296c-0.031,0.064-0.031,0.162-0.031,0.261c-0.033,0,0.098,0.032,0.098,0.065
		c-0.263,0.721-0.721,1.408-1.181,2.064c-0.522,0.654-0.949,1.213-1.277,1.605c-0.065,0.099-0.099,0.229-0.132,0.295
		c-0.031,0.065-0.196,0.032-0.262,0.065c-0.098,0.196-0.262,0.459-0.523,0.754c-0.295,0.262-0.557,0.425-0.754,0.59
		c-0.064,0.065-0.064,0.229-0.196,0.36c-0.132,0.098-0.295,0.196-0.427,0.328c-0.131,0.098-0.262,0.262-0.426,0.359
		c-0.13,0.098-0.295,0.164-0.393,0.196c-0.131,0.033-0.262,0-0.36,0.033c-0.065,0.065-0.099,0.229-0.196,0.262
		c-0.099,0.066-0.197,0.066-0.295,0.132c-0.065,0.064-0.197,0.064-0.328,0.131c-0.557,0.262-1.311,0.59-1.966,0.754
		c-0.394,0.098-0.819,0.195-1.212,0.262c-0.427,0.066-0.787,0.033-1.082,0.033c-0.032,0-0.065,0.098-0.131,0.098
		c-0.099,0-0.196-0.131-0.295-0.131c-0.524-0.164-1.376,0.197-1.736,0.197c-0.754-0.066-1.507-0.328-2.261-0.426
		c-0.753-0.1-1.376-0.1-1.835-0.361c-0.197-0.099-0.295-0.327-0.459-0.394c-0.131-0.065-0.295-0.065-0.426-0.099
		c-0.229-0.098-0.394-0.262-0.622-0.359c-0.295-0.164-1.54-1.016-1.9-1.376c-0.099-0.066-0.263-0.196-0.491-0.46
		c-0.196-0.262-0.492-0.719-0.918-1.277c-0.066-0.064-0.229-0.033-0.263-0.064c-0.065-0.033,0-0.165-0.032-0.197
		c-0.098-0.131-0.263-0.164-0.328-0.263c-0.064-0.099,0-0.262-0.033-0.394c-0.064-0.163-0.262-0.262-0.359-0.326
		c-0.229-0.295-0.295-0.689-0.426-0.984c-0.132-0.295-0.36-0.557-0.492-0.852c0,0,0.033,0,0-0.033
		c-0.064-0.721-0.328-1.179-0.328-1.834c0-0.131,0-0.295,0-0.49c0-0.46,0.066-0.951,0.066-1.508
		c-0.033,0.229,0.065-1.836,0.36-2.064c0.099-0.229,0.163-0.523,0.262-0.787c0.196-0.623,2.032-2.818,2.523-3.211
		c0.524-0.491,0.982-0.885,1.442-1.113c0.13-0.066,0.13-0.1,0.262-0.164c0.131-0.033,0.36-0.065,0.557-0.295
		c0.197-0.197,0.262-0.557,0.327-0.918c0-0.621,0.066-1.409,0.066-2.064c0-0.393,0.065-0.556,0.065-0.917
		c0-0.132-0.033-0.328-0.033-0.557c0-0.263,0.098-0.589,0.131-0.982c0-0.394-0.033-0.886,0-1.507c0-1.017,0.295-1.639,0.295-2.785
		c0.065-0.559,0.164-0.787,0.295-1.377c0.033-0.065,0.099-0.262,0.164-0.359c0.131-0.263,0.263-0.492,0.426-0.756
		c0.131-0.262,0.426-0.457,0.754-0.654c0.262-0.131,0.523-0.328,0.818-0.328c0.165,0,1.442,0.559,1.311,1.082
		c0.23,0.622-0.098,0.885-0.295,1.377c-0.262,0.688-0.688,1.244-0.753,1.9c-0.065,0.393-0.065,0.851-0.065,1.311
		c0,0.59,0.131,0.982,0.033,1.637c-0.164,0.951-0.065,1.246-0.065,1.966c0,0.229,0.065,0.656,0.032,1.212
		c0,0.722-0.164,1.312,0.262,1.9c0.164,0.361,1.18,0.722,1.41,0.787c0.425,0.131,0.982,0.164,1.342,0.459
		c0.264,0.295,0.525,0.23,0.787,0.426c0.327,0.328,1.278,0.95,1.475,1.18c0.164,0.197,0.852,1.244,0.982,1.409
		c0.099,0.163,0.262,0.327,0.394,0.557c0.099,0.229,0.099,0.524,0.196,0.819c0.132,0.295,0.295,0.557,0.328,0.819
		c0.065,0.327,0.032,0.688,0,1.081c-0.033,0.359-0.066,0.754-0.164,1.146c-0.099,0.393-0.262,0.721-0.394,1.082
		c-0.131,0.359-0.262,0.654-0.458,0.916c-0.295,0.559-0.754,1.049-1.311,1.443c-0.59,0.359-1.277,0.523-1.966,0.622
		c-0.066,0.032-0.165,0-0.295,0c-0.099,0-0.196,0.13-0.263,0.099c-0.099,0-0.131-0.066-0.196-0.066
		c-0.033,0-0.033-0.032-0.033-0.032c0-0.033-0.065,0-0.065,0c-0.033,0-0.033,0.065-0.033,0.065c-0.032,0-0.032-0.065-0.064-0.065
		c-0.033-0.033-0.132-0.033-0.295-0.099c-0.164-0.033-0.36-0.066-0.557-0.164c-0.197-0.065-0.328-0.262-0.525-0.359
		c-0.163-0.066-0.36-0.033-0.426-0.1c-0.359-0.262-0.328-0.359-0.688-0.622c-0.722-0.458-1.312-0.983-1.639-1.638
		c-0.099-0.197-0.099-0.426-0.164-0.623c-0.064-0.196-0.163-0.393-0.229-0.59c0-0.196,0.033-0.426-0.065-0.656
		c-0.098-0.229-0.262-0.556-0.328-1.08c-0.098-0.492-0.196-0.82-0.163-0.918c-0.033-0.098,0.099-0.164,0.099-0.262
		s-0.033-0.196-0.033-0.295c0-0.195-0.197-0.328-0.394-0.491c-0.196-0.132-0.426-0.165-0.654,0c-0.558,0.491-0.885,0.95-1.278,1.507
		c-0.164,0.394-0.328,1.246-0.426,1.672c-0.295,1.244-0.295,2.096,0.131,3.309c0.065,0.229,0.229,0.426,0.295,0.654
		c0.099,0.264,0.065,0.492,0.164,0.688c0.064,0.165,0.163,0.263,0.229,0.328c0.262,0.394,0.557,0.786,0.818,1.114
		c0.328,0.359,0.591,0.753,0.95,1.048c0.623,0.558,1.376,0.917,2.098,1.245c0.033,0,0.033-0.033,0.064-0.033
		c0.328,0.165,0.623,0.427,0.951,0.492c0.327,0.033,0.721-0.032,1.146,0c0.491,0.033,1.049,0.098,1.639,0.196
		c0.131,0.034,0.131-0.032,0.328-0.032c0.458,0,0.885,0,1.343-0.066c0.426-0.064,0.884-0.064,1.376-0.163
		c0.098-0.033,0.196-0.099,0.295-0.132c0.098,0,0.229,0.099,0.327,0.033c0.263-0.033,0.491-0.229,0.853-0.393
		c0.327-0.164,0.754-0.23,1.081-0.459c0.36-0.229,0.557-0.59,0.885-0.852c0.328-0.23,0.721-0.36,0.918-0.59
		c0.098-0.131,0.163-0.197,0.196-0.197c0.13-0.131,0.163-0.359,0.295-0.523c0.098-0.164,0.262-0.36,0.426-0.59
		c0.197-0.262,0.394-0.557,0.622-0.918c0.328-0.59,0.721-1.18,0.884-1.704c0.033-0.099,0.197-0.196,0.264-0.394
		c0.064-0.195,0.098-0.49,0.196-0.884c0.099-0.36,0.099-0.852,0.229-1.409c0.131-0.753,0.36-1.605,0.295-2.325
		c-0.033-0.229,0.032-0.493,0.032-0.722c-0.099-0.459-0.327-0.982-0.458-1.639c-0.132-0.623-0.361-1.146-0.656-1.67
		c-0.065-0.033-0.229-0.525-0.327-0.656c-0.098-0.197-0.196-0.393-0.36-0.59c-0.065-0.164-0.327-0.359-0.426-0.523
		c-0.426-0.524-0.229-0.818-1.114-0.818c-0.36,0-0.688-0.1-0.982,0.064c-0.427,0.263-0.886,0.59-1.442,0.819
		c-0.295,0.163-1.442,0.327-1.9,0.229c-0.426,0.326-1.244-0.393-1.507-0.656c-0.295-0.163-0.918-0.688-0.983-0.819
		c-0.098-0.163-0.196-0.394-0.262-0.622c-0.098-0.426,0.032-0.917,0.032-1.377c0-0.229-0.099-0.49-0.099-0.688
		c0.033-0.196,0.099-0.393,0.165-0.491c0.032-0.032,0.065-0.099,0.099-0.163c0.031-0.065,0.098-0.131,0.13-0.23
		c0.132-0.229,0.229-0.426,0.361-0.557c0.196-0.098,0.557-0.754,0.688-0.818c0.196-0.099,0.394-0.099,0.623-0.23
		c0.163-0.064,0.327-0.163,0.491-0.196c0.164-0.065,1.277-0.032,1.539,0c0.295,0.067,0.623,0.165,1.017,0.328
		c0.294,0.132,0.884,0.491,1.049,0.491c0.196-0.033,0.36-0.064,0.557-0.164c0.163-0.065,0.262-0.229,0.426-0.327
		c0.36-0.261,0.36-0.163,0.36-0.59c0.131-0.427,0.163-0.95,0.328-1.409c0.064-0.131,0.033-0.295,0.033-0.491
		c0-0.229-0.033-0.427-0.033-0.59c0-0.884-0.197-1.605-0.492-2.261c-0.164-0.36-0.393-0.754-0.721-1.18
		c-0.262-0.327-0.524-0.721-0.885-1.082c-0.066-0.064-0.196-0.098-0.263-0.162c-0.262-0.033-0.621-0.46-0.949-0.688
		c-0.328-0.196-0.655-0.328-0.885-0.491c-0.065-0.033-0.099-0.1-0.164-0.132s-0.164,0-0.197-0.032
		c-0.359-0.197-0.72-0.427-1.179-0.525c-0.492-0.098-0.918-0.163-1.343-0.229c-0.853,0-1.605,0.131-2.392,0.229
		c-0.755,0.099-1.605,0.197-2.523,0.393c-0.23,0.1-0.459,0.1-0.623,0.133c-0.099,0.064-0.163,0.262-0.262,0.294
		c-0.098,0.066-0.263,0-0.361,0.066c-0.196,0.065-0.295,0.229-0.458,0.327c-0.163,0.066-0.295,0.164-0.458,0.263
		c0,0,0,0.032-0.033,0.032c0,0.033-0.033-0.032-0.033-0.032c-0.229,0.099-0.524,0.262-0.852,0.655
		c-0.066,0.033-0.131,0.064-0.229,0.098c-0.065,0.064-0.229,0.229-0.458,0.459c-0.23,0.164-0.525,0.655-1.049,1.408
		c-0.623,1.147-0.655,1.114-1.213,2.293c-0.131,0.23-0.032,0.493-0.099,0.689c-0.032,0.197-0.229,0.394-0.295,0.655
		c-0.032,0.065,0,0.099,0,0.163c-0.032,0.033-0.065,0.066-0.098,0.099c-0.164,0.491-0.164,1.049-0.229,1.672
		c-0.065,0.589-0.164,1.112-0.197,1.605c0,0.099-0.098,0.163-0.098,0.229c0,0.066-0.032,0.132-0.032,0.229
		c0,0.295,0.13,0.59,0.13,0.918c0,0.295-0.13,0.623-0.098,0.949c0.263,1.147,0.36,1.147,0.655,2.359
		c0.065,0.066,0.033,0.197,0.033,0.361c0.032,0.162-0.066,0.294-0.132,0.49c0,0.066,0,0.23-0.163,0.459
		c-0.131,0.23-0.327,0.459-0.622,0.524c-0.427,0.132-0.854,0.065-1.278-0.13c0-0.033,0.032-0.099,0.032-0.132
		c-0.229-0.099-0.393-0.229-0.458-0.394c-0.099-0.164-0.229-0.229-0.263-0.328c-0.197-0.393-0.197-0.884-0.262-1.375
		c-0.033-0.164-0.099-0.393-0.132-0.688c-0.032-0.295-0.163-0.491-0.163-0.589c-0.065-0.23-0.132-0.492-0.132-0.787
		c0-0.296,0.033-0.558,0.033-0.721c-0.065-0.558-0.065-1.213,0-1.934c0-0.033,0.065-0.164,0.065-0.426
		c0.033-0.229,0.033-0.492,0.066-0.787c0.064-0.295,0.13-0.59,0.196-0.852c0.032-0.295-0.066-0.523-0.033-0.688
		c0.099-0.426,0.229-0.786,0.295-1.114c0.099-0.263,0.229-0.524,0.328-0.786c0.033-0.098,0.065-0.229,0.099-0.328
		c0.032-0.098,0-0.229,0.032-0.359c0.131-0.394,0.327-0.787,0.523-1.213c0.196-0.393,0.328-0.819,0.427-1.114
		c0.098-0.132,0.229-0.163,0.262-0.229c0.033-0.065,0-0.197,0.066-0.295c0.326-0.098,0.458-0.654,0.753-0.982
		c0.196-0.262,0.459-0.492,0.721-0.787c0.229-0.262,0.458-0.557,0.722-0.818c0.229-0.23,0.491-0.36,0.654-0.459
		c0.229-0.229,0.491-0.524,0.786-0.688c0.361-0.197,0.755-0.361,1.114-0.559c0.328-0.162,0.59-0.229,0.754-0.327
		c0.099-0.065,0.197-0.196,0.327-0.295c0.165-0.065,0.394-0.099,0.688-0.196c0.295-0.099,0.655-0.197,1.049-0.295
		c0.426-0.099,0.982-0.099,1.639-0.197C113.841,0.033,114.103,0,114.496,0c0.393,0,0.786,0.033,1.245,0.033
		c0.327,0,0.72-0.033,1.113,0.031c0.394,0.033,0.853,0.033,1.311,0.099c0.295,0.066,0.623,0.132,0.918,0.196
		c0.295,0.033,0.622,0.165,0.917,0.295c0.23,0.099,0.492,0.295,0.852,0.459c0.394,0.131,0.754,0.229,1.114,0.426
		c0.656,0.426,1.213,0.984,1.802,1.377c0.099,0.131,0.23,0.164,0.295,0.262c0.033,0.033,0.132,0.033,0.132,0.033
		c0.328,0.326,0.655,0.654,0.982,1.016c0.36,0.36,0.623,0.787,0.918,1.244c0.262,0.427,0.427,0.918,0.623,1.475
		c0.099,0.361,0.36,1.574,0.36,2.131c0,0.064,0.131,0.064,0.131,0.131c0.032,0.064-0.099,0.326-0.099,0.688
		c0.523,0.754-0.196,1.867-0.131,2.359c-0.328,0.361-0.163,0.786-0.328,1.213c-0.032,0.098-0.13,0.162-0.163,0.294
		c-0.065,0.099-0.132,0.328-0.328,0.623c-0.197,0.36-0.36,0.688-0.328,1.048c0.066,0.361,0.263,0.558,0.361,0.688
		c0.163,0.197,0.262,0.46,0.426,0.689c-0.066,0.099,0.917,1.244,1.081,1.475c0.065,0.098,0.065,0.262,0.13,0.393
		c0.066,0.099,0.197,0.197,0.297,0.36c0.262,0.36,0.393,0.786,0.557,1.245c0.163,0.459,0.327,0.885,0.458,1.277
		C129.862,24.377,129.73,25,129.666,25.654z M113.479,23.033c-0.229,0.131-0.491,0.328-0.524,0.754c0,0.229,0,0.492,0.033,0.754
		c0,0.229,0.065,0.491,0.065,0.754c0.033,0.196,0,0.326,0,0.426c0,0.098,0.033,0.195,0.033,0.262c0,0.164,0.163,0.295,0.196,0.394
		c0.033,0.13,0.033,0.427,0.163,0.851c0,0.033-0.032,0.033-0.032,0.066l0.099-0.033c0.033,0.164,0.065,0.492,0.394,0.82
		c0.328,0.359,0.786,0.621,1.244,0.949c0.132,0.066,0.263,0.197,0.395,0.197c0.359,0,0.753-0.394,1.18-0.918
		c0.262-0.327,0.458-0.688,0.556-1.082c0.099-0.393,0.099-0.721,0-1.016c-0.064-0.262-0.131-0.557-0.261-0.852
		c-0.099-0.327-0.099-0.622-0.23-0.785c-0.131-0.197-0.458-0.328-0.688-0.492c-0.065-0.066-0.164-0.164-0.295-0.263
		c-0.23-0.229-0.459-0.522-0.786-0.72c-0.328-0.197-0.722-0.197-1.081-0.229C113.841,22.837,113.709,22.902,113.479,23.033z
		 M120.459,15.793c0.066-0.066,0.164-0.132,0.033-0.197c-0.132-0.131-0.328-0.195-0.525-0.262c-0.196-0.066-0.393-0.033-0.524-0.033
		c-0.064,0-0.098-0.065-0.163-0.065c-0.033,0.065-0.098,0.132-0.131,0.132c0.131,0.294-0.065,0.294-0.065,0.556
		c0,0.196,0,0.328,0.099,0.427c0.261-0.033,0.294,0.098,0.818-0.065c0.132-0.033,0.197-0.229,0.295-0.295
		C120.36,15.923,120.394,15.891,120.459,15.793z"/>
	<path d="M136.48,8.225h2.916c1.147,0,1.639,0.557,1.639,1.309c0,1.148-0.524,1.639-1.278,1.639c-1.146,0.262-1.9,0.262-2.719,0
		c-0.558,0-0.819,0.262-1.081,0.557c-0.558,0.264-0.787,0.493-0.787,1.05v4.03c0,0.818,0.787,1.605,1.573,1.605
		c0.557,0,1.113,0,1.605-0.296c0.557,0,1.048,0.558,1.408,0.558c0.098,0,0.164,0.033,0.196,0.133
		c0.033,0.031,0.033,0.098,0.033,0.129c0.263,0.558,0.524,1.344,0,1.836c-0.229,0.557-0.59,0.818-0.819,0.818h-2.424
		c-0.524,0-1.344,0.262-1.344,0.818c-0.229,0.82-0.229,1.311-0.229,2.098v1.639c0,0.524,0,1.08,0.229,1.639
		c0.262,0.753,1.344,1.113,2.162,0.753c0.787,0,1.605-0.033,2.425,0.328c0.558,0,0.819,0.229,0.819,0.721
		c0.229,0.36,0.229,0.786,0.229,1.146c0,0.491-0.524,1.049-1.049,1.049c-2.13,0.262-4.325,0.262-6.193,0.262
		c-1.047,0-1.572-0.557-1.572-1.639v-3.179v-0.818c0.262-0.492,0-1.016,0-1.9v-2.359c0.262-0.557,0-1.113,0.262-1.639
		c-0.262-0.753-0.262-1.211-0.262-2.096v-0.787v-0.262c0.262-1.344,0-2.457,0-3.506v-3.473c0.262-0.262,0.262-0.854,0.262-1.115
		c0-0.785,0.559-1.047,1.05-1.047H136.48z"/>
	<path d="M143.755,28.243v-1.835v-1.9v-2.949v-2.916v-2.129v-4.03V11.14c0.229-0.262,0-0.786,0-1.312c0-0.295,0-0.818,0.229-1.08
		c0.623-0.295,0.819-0.523,1.114-0.523h2.916c1.344,0,2.426,0.229,3.506,1.047c0.754,0.557,1.312,1.082,1.573,2.131
		c0.262,0.557,0.262,1.376,0.557,2.162v1.049c-0.295,0.295-0.295,0.295-0.295,0.523c0.295,0.295,0.295,0.558,0,0.819v0.558v0.229
		c-0.262,0.82-0.523,1.9-0.786,2.982h-0.295c-0.523,0.229-0.523,0.754-0.754,1.311c-0.294,0-0.294,0.262,0,0.523
		c0.23,1.344,0.525,2.721,1.049,4.031c0,0.818,0.263,1.605,0.524,2.653c0.262,0.819,0.557,1.605,0.786,2.425
		c0.295,0.525-0.229,1.081-0.786,1.311c-0.819,0-1.867-0.229-2.13-1.311c-0.262-0.295-0.262-0.819-0.262-1.049
		c0-0.295,0-0.557-0.262-0.557c-0.295,0-0.295-0.263-0.295-0.524c0-0.524-0.23-1.081-0.23-1.343
		c-0.295-0.787-0.295-1.344-0.557-1.869c-0.262-0.294-0.262-0.522-0.262-0.818c0-0.818-0.262-1.605-0.787-2.129
		c0-0.361-0.262-0.525-0.819-0.525c-0.556,0-0.556,0.197-0.786,0.82c0,0.523-0.295,0.785,0,1.311c0,0.523-0.295,0.819-0.295,1.048
		c0,1.081,0.295,1.901,0.295,2.981V28.8c-0.295,0.263-0.295,0.819,0,1.344v0.524c-0.295,1.081-0.819,1.605-2.13,1.081
		c-0.295,0-0.818-0.556-0.818-1.081V28.243z M150.701,14.908c0-0.524-0.262-1.344-0.262-1.9c-0.264-1.574-1.9-1.868-2.95-1.344
		h-0.262c-0.294,0.524-0.819,0.819-0.524,1.344v0.786c0,0.295-0.295,0.59,0,0.59c0.23,1.048,0,1.834,0,2.653v0.786
		c0.23,0.524,0.524,0.524,0.786,0.819c0.524,0.264,1.345,0.264,2.13-0.295c0.525-0.229,0.82-0.785,1.082-1.311V14.908z"/>
	<path d="M156.729,30.177c0.23-1.868,0-3.735,0-5.833v-2.13v-1.867v-2.13c0-0.262,0.23-0.523,0-0.787v-0.817
		c0-0.788-0.295-1.868,0-2.917c0.099,0,0.132-0.033,0.099-0.098l-0.099-0.131v-1.639c-0.295-0.754,0-1.573,0-2.393
		c0-0.031,0-0.064,0.033-0.098c0.033-0.099,0.099-0.131,0.197-0.131c0-0.033,0-0.098,0.033-0.164
		c0.031-0.131,0.13-0.262,0.262-0.359c0-0.034,0-0.1,0.033-0.133c0.031-0.098,0.098-0.163,0.196-0.163
		c0.522-0.262,1.9,0.065,2.162,0.819v0.229c0.524,0.295,0.524,1.016,0.524,1.639c0.163,0.197,0.229,0.359,0.229,0.524
		c0.296,0.753,0.426,1.441,1.049,3.015c0.623,1.539,0.819,2.555,1.114,3.866c0.229,0.819,0.786,1.867,0.786,2.653
		c0.262,0.295,0.262,0.295,0.524,0.295v-0.295v-2.916v-2.654v-2.916V9.436c0-0.262,0.786-0.982,1.081-1.277
		c0.786,0,1.311,0.229,1.572,1.049c0.264,0.229,0.264,0.753,0.264,1.048v1.573v0.818c-0.264,0.525,0,0.82,0,1.344v1.834v2.131v0.819
		v1.311v1.048h-0.264c0.264,0.819,0,1.344,0.264,2.164v0.229v1.605v2.654v0.295c-0.264,0.523,0,1.048,0,1.572V30.7
		c0,0.524-0.525,1.049-1.05,1.049c-0.262,0-0.786,0.295-1.081,0c-0.524-0.229-1.049-0.753-1.049-1.277
		c0-0.295-0.262-0.819-0.262-1.05l-0.262-0.294c0.262-0.524-0.295-1.048-0.295-1.573c-0.492-0.785-0.754-1.67-0.754-2.686v-0.264
		c-0.557-0.523-0.557-1.08-0.819-1.867v-0.262c-0.295-0.524-0.523-1.049-0.523-1.605l-0.819-2.097h-0.229v0.786
		c0,0.786,0.229,1.572,0,2.392v1.05v1.604c-0.295,0.787,0,1.605,0,2.393v2.424v0.525c0.229,0.753-0.295,1.572-0.819,1.802
		c0,0.132-0.065,0.229-0.164,0.262c-0.033,0.033-0.098,0.033-0.131,0.033c-0.229-0.033-0.459-0.099-0.655-0.163
		c-0.36-0.099-0.622-0.23-0.622-0.361c-0.295-0.295-0.525-0.523-0.525-1.048V30.177z"/>
	<path d="M176.616,13.695c0.263,0.787,0.263,1.311,0.491,2.129v1.083c0.295,1.539,0.559,2.915,0.853,4.194
		c0.262,1.605,0.786,3.473,1.048,5.045c0,0.819,0.264,1.375,0.525,2.162v0.263c0,0.229,0,0.786,0.295,1.048
		c0.229,0.819,0,1.344-0.295,1.868c-0.262,0.262-0.525,0.523-0.787,0.523c-1.08,0-1.867-0.523-2.13-1.572
		c0-0.819,0-1.639-0.262-2.425c-0.524-1.048-1.081-1.277-2.162-1.277c-0.787,0-1.278,0.229-1.835,1.016v0.262
		c0,0.295,0,0.295-0.229,0.558c-0.295,0.229,0,0.786,0,1.311c0,0.295-0.295,0.557-0.295,0.786c-0.262,1.081-1.606,1.343-2.392,1.081
		c-0.262-0.262-0.525-0.524-0.525-0.786c0-0.786,0-1.605,0.264-2.392c0-0.558,0.262-1.05,0.262-1.835
		c0.263-0.623,0.263-1.377,0.524-2.162c0.261-1.016,0-2.688,0.524-3.703c0.262-0.786,0.557-1.835,0.557-2.654V17.66
		c0.263-1.048,0.524-2.326,0.786-3.408c0-0.295,0-0.785,0.295-1.08v-0.787c0-0.524,0-1.344,0.229-1.867
		c0.098,0,0.196-0.033,0.229-0.131c0.032-0.033,0.032-0.099,0.032-0.132c-0.262-0.786,0.295-1.571,1.082-1.834
		c0.262-0.295,0.491-0.295,0.491,0c0.622,0,0.852,0,1.081,0.263c0.295,0,0.295,0.229,0.557,0.523c0,0.786,0.229,1.311,0.229,2.098
		c0,0.229,0,0.817,0.295,1.08c0.262,0.262,0.262,0.525,0.262,1.082V13.695z M175.044,19.266c-0.262-0.819-0.59-1.867-0.59-2.653
		h-0.262h-0.229v1.834c-0.262,1.147-0.558,2.425-0.786,3.735c0,0.525,0,0.787,0.524,1.082c0.262,0.556,0.72,0.556,1.081,0.262
		c0.491-0.262,0.786-0.557,0.786-1.082c-0.295-0.524-0.295-1.047-0.295-1.342c-0.229-0.492-0.229-1.017-0.229-1.541V19.266z"/>
	<path d="M182.089,28.243v-1.835v-1.9v-2.949v-2.916v-2.129v-4.03V11.14c0.229-0.262,0-0.786,0-1.312c0-0.295,0-0.818,0.229-1.08
		c0.623-0.295,0.819-0.523,1.114-0.523h2.916c1.344,0,2.426,0.229,3.507,1.047c0.753,0.557,1.311,1.082,1.572,2.131
		c0.262,0.557,0.262,1.376,0.557,2.162v1.049c-0.295,0.295-0.295,0.295-0.295,0.523c0.295,0.295,0.295,0.558,0,0.819v0.558v0.229
		c-0.262,0.82-0.523,1.9-0.786,2.982h-0.295c-0.523,0.229-0.523,0.754-0.753,1.311c-0.295,0-0.295,0.262,0,0.523
		c0.229,1.344,0.524,2.721,1.048,4.031c0,0.818,0.263,1.605,0.524,2.653c0.262,0.819,0.557,1.605,0.786,2.425
		c0.295,0.525-0.229,1.081-0.786,1.311c-0.819,0-1.867-0.229-2.13-1.311c-0.262-0.295-0.262-0.819-0.262-1.049
		c0-0.295,0-0.557-0.262-0.557c-0.295,0-0.295-0.263-0.295-0.524c0-0.524-0.23-1.081-0.23-1.343
		c-0.295-0.787-0.295-1.344-0.557-1.869c-0.262-0.294-0.262-0.522-0.262-0.818c0-0.818-0.262-1.605-0.787-2.129
		c0-0.361-0.262-0.525-0.818-0.525s-0.557,0.197-0.787,0.82c0,0.523-0.295,0.785,0,1.311c0,0.523-0.295,0.819-0.295,1.048
		c0,1.081,0.295,1.901,0.295,2.981V28.8c-0.295,0.263-0.295,0.819,0,1.344v0.524c-0.295,1.081-0.819,1.605-2.13,1.081
		c-0.295,0-0.818-0.556-0.818-1.081V28.243z M189.035,14.908c0-0.524-0.262-1.344-0.262-1.9c-0.264-1.574-1.9-1.868-2.949-1.344
		h-0.262c-0.295,0.524-0.82,0.819-0.525,1.344v0.786c0,0.295-0.295,0.59,0,0.59c0.23,1.048,0,1.834,0,2.653v0.786
		c0.23,0.524,0.525,0.524,0.787,0.819c0.523,0.264,1.344,0.264,2.129-0.295c0.525-0.229,0.82-0.785,1.082-1.311V14.908z"/>
	<path d="M197.979,8.225c1.081,0,2.162,0.262,3.244,0.523h0.229c0.786,0.523,1.868,1.113,2.13,2.392
		c0.786,1.311,0.786,2.621,0.786,3.966c0,0.262-0.262,0.49,0,1.014v2.426v1.049v0.557v1.572v1.049c0,0.262,0,0.819-0.262,1.048
		c0,0.295,0.262,0.819,0.262,1.083c0,1.309-0.262,2.391-0.524,3.701c0,0.524-0.557,1.311-0.786,1.835
		c-0.295,0.295-0.819,0.819-1.311,0.819h-0.295c-0.819,0.819-1.867,0.524-2.948,0.786c-0.524,0-1.049-0.229-1.836,0
		c-0.229,0-0.785-0.229-1.311-0.524l-0.295-0.262c0.295-0.524,0-0.819,0-1.344v-1.016v-2.949c-0.229-1.047,0-2.13,0-2.916
		c0-0.262-0.031-0.458-0.064-0.59c-0.033-0.163-0.033-0.491,0-1.047c0.033-0.559,0.064-0.984,0.064-1.246v-0.557
		c-0.229-0.754,0-1.574,0-2.654v-0.262v-0.787c-0.229-0.523-0.229-0.785,0-1.311v-3.735c0-0.491-0.229-1.017,0.295-1.54V9.01
		c0-0.262,0-0.262,0.264-0.523c0.262,0,0.817-0.262,1.047-0.262H197.979z M197.979,27.555c0,0.525,0.524,1.049,0.819,1.344h0.262
		c0.263-0.295,0.263,0,0.524-0.295c0.557,0,1.081-0.229,1.344-0.523c0.295-0.525,0.523-1.049,0.523-1.605
		c0-0.82-0.229-1.836,0-2.655v-0.229c-0.262-0.819,0.263-1.573,0-2.13V20.15v-3.211v-1.344v-0.229v-1.082
		c0-0.229,0-0.786-0.229-1.049c-0.295-1.343-1.114-1.867-2.425-1.572c-0.525,0-1.049,0.524-1.049,1.311
		c0.263,1.146,0.164,3.047,0.229,3.441c-0.229,0.262,0,0.523,0,0.785v1.082v1.605c-0.229,1.016,0,2.392-0.229,3.408v0.294
		c0.229,0.229,0.229,0.523,0.229,1.048c-0.229,0.492,0,1.016-0.229,1.572C197.979,26.736,197.75,27.031,197.979,27.555z"/>
</g>
</svg>
