<?xml version="1.0" encoding="utf-8"?>
<!-- Generator: Adobe Illustrator 16.0.0, SVG Export Plug-In . SVG Version: 6.00 Build 0)  -->
<!DOCTYPE svg PUBLIC "-//W3C//DTD SVG 1.1//EN" "http://www.w3.org/Graphics/SVG/1.1/DTD/svg11.dtd">
<svg version="1.1" id="Layer_1" xmlns="http://www.w3.org/2000/svg" xmlns:xlink="http://www.w3.org/1999/xlink" x="0px" y="0px"
	 width="46.441px" height="64.413px" viewBox="0 0 46.441 64.413" enable-background="new 0 0 46.441 64.413" xml:space="preserve">
<g>
	<path fill="#15FF1D" d="M46.441,34.077c0-3.883-0.998-7.715-2.887-11.085c-0.031-0.058-0.07-0.112-0.105-0.168
		c-0.031-0.063-0.062-0.128-0.1-0.19c-4.881-8.201-12.17-14.708-21.076-18.816C15.537,0.71,10.225,0.048,10,0.021
		C8.859-0.116,7.738,0.415,7.121,1.385c-4.293,6.739-6.67,14.244-7.062,22.309c-0.316,6.463,0.725,11.463,1.225,13.866
		c0.068,0.326,0.125,0.592,0.16,0.793c0.008,0.041,0.018,0.08,0.027,0.119c0.006,0.039,0.008,0.076,0.016,0.113
		C3.613,49.125,12.971,56.778,23.74,56.778c2.4,0,4.713-0.375,6.887-1.068l4.396,7.26c0.562,0.93,1.551,1.443,2.562,1.443
		c0.529,0,1.062-0.141,1.549-0.434c1.414-0.855,1.867-2.697,1.01-4.111l-4.08-6.736C42.304,49.081,46.441,42.053,46.441,34.077z
		 M7.355,37.403c-0.002-0.018-0.008-0.033-0.012-0.049c-0.004-0.02-0.004-0.037-0.008-0.055c-0.043-0.244-0.109-0.566-0.191-0.959
		c-0.887-4.264-3.51-16.874,3.994-30.03c4.951,1.096,18.691,5.311,27.066,19.385c0.021,0.035,0.045,0.067,0.068,0.103
		c0.02,0.04,0.037,0.081,0.059,0.12c1.389,2.477,2.123,5.299,2.123,8.159c0,9.217-7.498,16.713-16.715,16.713
		C15.811,50.79,8.92,45.159,7.355,37.403z"/>
	<path fill="#15FF1D" d="M21.328,20.893c-1.146-1.191-3.041-1.229-4.232-0.081c-1.191,1.146-1.229,3.042-0.08,4.232
		c3.043,3.164,5.419,7.734,6.05,11.64c0.238,1.471,1.508,2.518,2.951,2.518c0.158,0,0.32-0.012,0.48-0.039
		c1.633-0.264,2.742-1.801,2.479-3.432C27.99,29.625,24.378,24.062,21.328,20.893z"/>
</g>
</svg>
