<?xml version="1.0" encoding="utf-8"?>
<!-- Generator: Adobe Illustrator 16.0.0, SVG Export Plug-In . SVG Version: 6.00 Build 0)  -->
<!DOCTYPE svg PUBLIC "-//W3C//DTD SVG 1.1//EN" "http://www.w3.org/Graphics/SVG/1.1/DTD/svg11.dtd">
<svg version="1.1" id="Layer_1" xmlns="http://www.w3.org/2000/svg" xmlns:xlink="http://www.w3.org/1999/xlink" x="0px" y="0px"
	 width="28.727px" height="41.699px" viewBox="0 0 28.727 41.699" enable-background="new 0 0 28.727 41.699" xml:space="preserve">
<g>
	<ellipse fill="#CACACA" cx="14.363" cy="14.28" rx="4.598" ry="4.569"/>
	<path fill="#CACACA" d="M14.363,0C6.43,0,0,6.393,0,14.28c0,7.887,10.342,27.419,14.362,27.419
		c4.021,0,14.364-19.531,14.364-27.419C28.727,6.392,22.296,0,14.363,0z M14.363,22.848c-4.76,0-8.617-3.835-8.617-8.566
		c0-4.732,3.857-8.568,8.617-8.568c4.761,0,8.617,3.836,8.617,8.568C22.98,19.012,19.123,22.848,14.363,22.848z"/>
</g>
</svg>
