<?xml version="1.0" encoding="utf-8"?>
<!-- Generator: Adobe Illustrator 16.0.0, SVG Export Plug-In . SVG Version: 6.00 Build 0)  -->
<!DOCTYPE svg PUBLIC "-//W3C//DTD SVG 1.1//EN" "http://www.w3.org/Graphics/SVG/1.1/DTD/svg11.dtd">
<svg version="1.1" id="Layer_1" xmlns="http://www.w3.org/2000/svg" xmlns:xlink="http://www.w3.org/1999/xlink" x="0px" y="0px"
	 width="536.292px" height="494.076px" viewBox="0 0 536.292 494.076" enable-background="new 0 0 536.292 494.076"
	 xml:space="preserve">
<g>
	<g>
		<path fill="#E6E6E6" d="M44.124,445.128h0.201v-15.177c0-3.217,0.302-6.433-2.915-8.443V406.23h27.54v15.277
			c-3.217,2.011-2.915,5.227-2.915,8.443v62.416H40.003l-15.98-38.696h-0.201v14.976c0,3.217-0.302,6.433,2.915,8.443v15.277H0
			V477.09c3.217-2.011,2.915-5.227,2.915-8.443v-38.695c0-3.217,0.302-6.433-2.915-8.443V406.23h29.148L44.124,445.128z"/>
		<path fill="#E6E6E6" d="M141.916,467.44c0,21.309-13.066,26.636-32.062,26.636s-32.062-5.327-32.062-26.636v-36.283
			c0-21.309,13.066-26.636,32.062-26.636s32.062,5.327,32.062,26.636V467.44z M104.627,468.747c0,0.604-0.302,6.734,5.227,6.734
			s5.227-6.131,5.227-6.734V429.75c0-0.604,0.302-6.634-5.227-6.634s-5.227,6.03-5.227,6.634V468.747z"/>
		<path fill="#E6E6E6" d="M179.4,468.646c0,3.217-0.302,6.433,2.915,8.443v15.277h-32.666V477.09
			c3.217-2.011,2.915-5.227,2.915-8.443v-38.695c0-3.217,0.302-6.433-2.915-8.443V406.23h37.289c6.634,0,14.977-0.101,20.806,3.417
			c7.036,4.121,9.448,11.458,9.448,19.298c0,9.448-2.814,17.69-12.865,20.203v0.2c8.442,2.011,11.257,5.629,11.257,14.373v4.925
			c0,2.915,0,7.137,3.316,8.443v15.277h-28.846c-1.105-4.724-1.81-8.744-1.508-23.117c0-6.835-0.704-10.252-8.041-10.453H179.4
			V468.646z M179.4,441.609h2.714c5.829,0,7.639-3.015,7.639-9.046c0-5.527-1.81-8.543-7.639-8.543H179.4V441.609z"/>
		<path fill="#E6E6E6" d="M290.862,406.23h29.048v15.277c-3.016,2.412-3.317,6.332-4.021,9.95l-11.357,60.909h-25.831l-7.538-41.108
			h-0.201l-8.343,41.108h-25.328l-11.357-60.909c-0.704-3.518-1.407-7.739-4.423-9.95V406.23h33.57v15.277
			c-1.909,0.804-2.814,2.513-2.814,4.623l3.317,27.138h0.2l9.046-47.038h16.484l9.447,46.938h0.201l2.714-27.037
			c0-2.11-0.904-3.819-2.814-4.623V406.23z"/>
		<path fill="#E6E6E6" d="M389.156,467.44c0,21.309-13.066,26.636-32.062,26.636s-32.062-5.327-32.062-26.636v-36.283
			c0-21.309,13.066-26.636,32.062-26.636s32.062,5.327,32.062,26.636V467.44z M351.867,468.747c0,0.604-0.302,6.734,5.227,6.734
			s5.227-6.131,5.227-6.734V429.75c0-0.604,0.302-6.634-5.227-6.634s-5.227,6.03-5.227,6.634V468.747z"/>
		<path fill="#E6E6E6" d="M461.519,467.44c0,21.309-13.066,26.636-32.062,26.636s-32.062-5.327-32.062-26.636v-36.283
			c0-21.309,13.066-26.636,32.062-26.636s32.062,5.327,32.062,26.636V467.44z M424.229,468.747c0,0.604-0.302,6.734,5.227,6.734
			s5.227-6.131,5.227-6.734V429.75c0-0.604,0.302-6.634-5.227-6.634s-5.227,6.03-5.227,6.634V468.747z"/>
		<path fill="#E6E6E6" d="M506.642,406.23c7.337,0,15.78,0.101,21.911,4.824c7.036,5.528,7.739,13.368,7.739,21.609v32.264
			c0,8.443-0.402,14.977-6.936,21.107c-6.131,5.829-13.77,6.332-21.91,6.332h-37.993V477.09c3.016-1.307,3.316-3.92,3.417-6.835
			v-41.912c-0.101-3.016-0.301-5.528-3.417-6.835V406.23H506.642z M499.707,474.175h2.11c5.829,0,7.639-2.11,7.639-8.342v-32.465
			c0-6.231-1.81-8.343-7.639-8.343h-2.11V474.175z"/>
	</g>
	<path fill="#E6E6E6" d="M267.653,0C167.055,0,85.487,81.552,85.487,182.162c0,47.116,17.891,90.053,47.248,122.392
		c-6.42,5.229-16.304,13.498-17.1,17.222c-0.852,4.015-2.486,7.636-4.577,11.108c-1.642,2.714-3.647,5.222-4.903,8.386
		c0.717,0.479,0.801,1.055,0.508,1.827c-1.206,3.24-1.645,6.614-2.147,10.016c-0.496,3.555,0.902,6.792,1.267,10.2
		c0.332,3.327,1.09,6.739,2.377,9.933c1.694,4.205,3.578,8.206,7.599,10.917c2.398,1.622,4.788,3.553,6.271,6.104
		c0.963,1.63,2.186,2.312,3.876,2.73c6.229,1.538,12.559,2.648,18.824,4.029c1.593,0.346,3.118,0.555,4.772,0.25
		c4.681-0.9,9.055-2.432,13.068-5.076c2.579-1.704,5.308-3.166,8.018-4.666c4.656-2.583,9.337-5.115,14.024-7.64
		c1.084-0.576,1.821-1.58,3.08-1.985c3.595-1.154,6.904-2.945,9.573-5.652c1.781-1.803,3.688-3.427,5.538-5.135
		c0.233-0.215,6.558-4.742,13.999-10.002c16.139,4.684,33.199,7.203,50.852,7.203c100.59,0,182.152-81.552,182.152-182.16
		C449.806,81.552,368.243,0,267.653,0z M399.55,108.396c1.592,2.726,2.796,5.172,4.036,7.847c-1.34,0.892-2.598,1.807-3.927,2.589
		c-1.361,0.788-2.832,1.354-4.008,2.43c-0.174,0.165-0.414,0.347-0.619,0.338c-3.085-0.084-5.947,1.229-8.986,1.351
		c-0.13,0.008-0.285-0.061-0.898-0.217C390.481,118.337,395.696,114.231,399.55,108.396z M386.905,152.321
		c-0.912,0.595-1.777,1.275-2.641,1.943c-1.572,1.247-3.262,2.12-5.342,2.433c-3.836,0.574-7.071,2.697-10.457,4.426
		c-0.791,0.413-1.589,0.815-2.472,1.107c1.056-1.969,2.554-3.58,3.987-5.231c1.224-1.405,2.574-2.674,3.804-4.061
		c1.659-1.854,3.813-2.984,5.929-4.143c2.82-1.544,4.996-3.814,6.928-6.272c1.982-2.521,4.645-4.188,7.06-6.156
		c0.779-0.629,1.827-0.975,3.081-1.029c-1.374,2.951-2.274,5.849-4.209,8.257c-1.111,1.359-1.756,3.042-2.409,4.678
		C389.485,149.951,388.427,151.317,386.905,152.321z M388.471,162.688c-1.198,3.106-21.456,15.076-27.954,16.182
		c1.924-3.714,4.305-6.379,8.234-7.837c6.166-2.281,12.413-4.453,17.991-8.077C387.272,162.612,387.835,162.365,388.471,162.688z
		 M361.563,143.905c-0.012-0.689,0.424-0.769,0.717-0.913c3.174-1.617,5.785-3.891,8.028-6.643c1.433-1.744,3.37-2.936,5.134-4.303
		c0.83-0.647,2.113-0.918,3.217-0.978c2.768-0.173,5.199-1.462,7.838-2.078c0.799-0.182,1.603-0.349,2.812-0.603
		c-2.151,2.491-4.131,4.529-6.541,6.073c-1.049,0.671-2.611,0.182-3.572,1.288c-0.092,0.094-0.273,0.124-0.361,0.216
		c-2.828,2.762-7.072,3.331-9.8,6.244c-0.106,0.132-0.308,0.255-0.489,0.257C366.179,142.646,363.871,143.134,361.563,143.905z
		 M122.012,225.815c-3.341-10.698-5.455-21.608-6.278-32.791c-2.701-36.234,6.058-69.474,27.018-99.137
		c23.154-32.744,54.664-53.203,93.951-61.464c12.323-2.593,24.831-3.409,37.443-2.747c33.192,1.753,62.66,13.182,88.442,34.118
		c10.314,8.384,19.313,18.036,27.135,28.792c0.704,0.967,0.535,1.589-0.021,2.518c-2.497,4.139-6.5,6.77-9.886,10.014
		c-2.843,2.73-5.933,5.209-8.11,8.588c-0.458,0.681-1.266,1.128-1.939,1.666c-4.153,3.333-8.188,6.805-11.885,10.669
		c-0.454,0.48-0.807,1.059-1.041,1.373c-1.027-0.133-1.184-0.637-1.393-1.038c-2.285-4.19-4.97-8.094-8.232-11.596
		c-1.65-1.769-2.234-3.638-1.65-6.191c1.479-6.431,0.974-12.814-2.729-18.403c-3.203-4.794-7.996-7.387-13.723-8.396
		c-2.876-0.497-5.773-0.418-8.633-0.921c-3.578-0.629-6.635-2.414-9.914-3.754c-8.896-3.63-17.935-6.756-27.357-8.855
		c-8.83-1.949-17.703-3.236-26.711-3.271c-12.422-0.039-24.848,0.276-36.93,3.698c-5.09,1.429-10.064,3.167-14.562,6.049
		c-1.389,0.881-2.255,1.918-2.408,3.608c-0.135,1.418-0.509,2.797-0.318,4.241c0.104,0.749-0.413,1.218-0.938,1.654
		c-5.357,4.432-4.861,5.274-4.861,9.815c0.119,2.509,0.344,5.06,0.233,7.529c-0.114,2.442,0.362,4.971-1.091,7.298
		c-6.665,10.696-12.304,21.654-16.5,33.807c-1.605,3.966-2.615,8.146-3.178,12.416c-0.127,0.915-0.344,1.932,0.232,2.77
		c0.712,1.033,1.524,1.841,3.053,1.592c2.504-0.428,4.92-1.213,7.195-2.263c3.043-1.412,6.361-1.89,9.462-3.065
		c3.991-1.512,7.599-3.347,10.034-7.108c1.33-2.078,3.033-3.916,4.646-5.782c1.541-1.78,3.389-1.439,4.054,0.827
		c1.678,5.707,1.753,11.396-0.25,17.097c-0.881,2.532-2.263,4.212-4.704,5.62c-9.038,5.249-17.397,10.901-25.599,17.446
		c-4.885,3.895-9.213,8.528-13.012,13.405c-4.582,5.88-8.332,12.29-10.789,19.217c-2.823,8.068-4.542,16.407-4.128,25.177
		c0.418,8.662,3.254,16.665,5.583,24.825c0.357,1.319,0.779,2.671,1.372,3.902c0.749,1.545,0.576,3.057-0.299,4.329
		c-2.421,3.522-2.019,7.059-0.395,10.688c0.438,0.998,0.819,2.01,1.233,3.1c-0.91,0.744-1.783,1.461-2.689,2.188
		c-0.779-0.261-1.205-0.93-1.729-1.456C141.9,269.978,129.367,249.451,122.012,225.815z M255.917,238.817
		c-0.164-0.457,0.342-0.637,0.614-0.849c3.032-2.435,6.628-3.852,10.087-5.597c-2.025,4.205-3.593,8.547-8.738,10.338
		c-5.166,1.794-8.545,6.022-11.4,10.544c-1.165,1.848-2.182,3.726-4.025,5.072c-2.289,1.705-4.188,3.855-6.105,5.964
		c-1.035,1.142-2.225,2.07-3.469,2.953c-1.24,0.886-2.499,1.33-4.109,1.083c-2.586-0.396-5.072,0.588-7.604,0.921
		c-0.605,0.087-1.199,0.174-1.893,0.111c1.336-0.985,2.6-2.059,3.922-3.022c3.205-2.35,5.855-5.39,9.161-7.632
		c1.285-0.861,2.418-1.834,3.268-3.112c1.91-2.862,5.063-4.085,7.774-5.885c1.696-1.14,3.457-2.18,5.159-3.323
		c0.911-0.604,2.089-1.01,2.077-2.463c0-0.22,0.445-0.449,0.691-0.658c1.254-0.946,2.521-1.87,3.758-2.834
		C255.591,240.035,256.235,239.689,255.917,238.817z M176.731,241.885c0.283,4.154,0.637,8.183,5.252,10.092
		c2.797-1.938,5.531-4.096,9.205-3.916c0.561,0.026,0.641,0.125,1.477,0.941c-2.713,1.533-5.758,2.772-6.261,6.367
		c-3.702-0.061-6.171,1.878-6.969,5.092c-0.569,2.281-1.606,3.672-3.501,4.777c-0.798,0.474-1.212,1.409-1.637,2.284
		c-0.326,0.646-0.604,1.392-1.284,1.802c-1.827-1.59-0.772-6.103,2.005-8.692C173.349,254.201,171.058,247.672,176.731,241.885z
		 M181.619,286.324c0.008,0.153,0.023,0.302,0.003,0.438c-0.082,0.793,0.078,1.79-0.842,2.101c-0.957,0.313-1.414-0.601-1.871-1.239
		c-2.067-2.843-3.146-5.606-3.111-8.586c-0.143-2.326,1.174-4.553,3.594-6.198c1.999-1.366,3.14-0.842,4.003,1.355
		c0.777,2.015-0.021,3.643-0.706,5.325C181.804,281.732,181.37,283.961,181.619,286.324z M186.046,297.745
		c0.264,1.075-0.027,1.672-0.826,2.156c-1.297,0.804-2.002,2.261-3.312,3.095c-0.694,0.45-1.199,1.137-2.066,0.313
		c-0.368-0.349-0.764,0.27-1.412,0.045C180.342,300.491,182.438,298.158,186.046,297.745z M185.479,311.011
		c3.351-2.374,6.302-5.194,9.075-8.212c0.931-1.012,1.979-1.645,3.365-1.929c2.486-0.514,4.959-0.816,7.49-0.458
		c2.896,0.391,5.772-0.043,8.881-0.415c-0.535,1.022-1.014,1.804-1.83,2.152c-2.74,1.16-5.384,2.579-8.197,3.63
		c-3.012,1.117-5.922,2.538-8.837,3.898c-3.753,1.734-7.468,3.522-11.192,5.289c-1.043,0.519-1.795-0.144-2.863-0.584
		C182.61,312.858,184.099,311.994,185.479,311.011z M195.335,259.607c-1.393-0.076-1.934-0.925-1.408-2.25
		c1.352-3.512,7.344-5.841,10.646-2.7c3.305,3.148,4.688,6.979,3.81,11.479c-0.274,1.455-0.985,2.763-2.351,3.543
		c-0.829-0.424-0.829-1.018-0.943-1.574C204.088,263.099,200.405,259.882,195.335,259.607z M194.89,266.114
		c1.188,1.822,1.825,4.487,1.827,7.218c0.014,2.296-0.407,4.522-1.198,6.681c-0.273,0.739-0.684,1.401-1.592,1.397
		c-0.984-0.01-1.025-0.859-1.217-1.501c-0.682-2.177-1.945-3.985-3.537-5.594c-1.145-1.151-2.151-2.395-2.854-3.871
		c-0.727-1.584-0.148-4.532,1.186-5.844c1.23-1.205,3.659-1.544,5.319-0.76C193.823,264.324,194.337,265.271,194.89,266.114z
		 M215.368,291.617c-3.318,0.215-6.633,0.501-9.941,0.756c-0.207,0.015-0.395,0.037-0.545-0.291c1.014-0.922,2.265-1.716,3.036-2.84
		c2.83-4.21,7.151-5.684,11.742-6.793c3.587-0.871,6.904-2.401,10.065-4.277c1.29-0.759,2.17-0.756,2.984,0.812
		c-1.605,2.764-2.973,5.77-6.539,6.913c-2.779,0.885-5.404,2.149-7.48,4.294C217.79,291.125,216.671,291.527,215.368,291.617z
		 M235.522,197.893c-3.549,3.472-4.431,7.68-3.221,12.32c0.488,1.869,0.125,3.282-1.014,4.732c-1.353,1.715-2.479,3.603-3.474,5.546
		c-1.198,2.367-1.157,4.912-0.624,7.404c1.062,4.978,2.289,9.925,4.697,14.657c-2.15,1.759-4.242,3.465-6.324,5.151
		c-0.347,0.277-0.769,0.452-1.039,0.757c-1.253,1.462-1.409,1.571-2.79,0.04c-2.644-2.937-5.081-6.048-6.944-9.558
		c-2.627-4.916-4.709-10.077-6.182-15.448c-1.764-6.383-2.713-12.854-1.113-19.429c0.164-0.683,0.456-1.354,0.791-1.98
		c4.016-7.382,9.504-13.378,16.875-17.568c2.352-1.339,4.686-2.717,7.061-4.02c1.941-1.073,4.121-1.004,6.248-1.159
		c3.61-0.258,7.393-0.323,10.542-2.057c6.412-3.494,12.027-8.038,15.388-14.795c0.756-1.513,1.265-3.155,1.971-4.704
		c0.48-1.062,1.094-2.043,2.645-1.866c0.773,1.352,0.508,2.845,0.375,4.272c-0.491,5.03-1.906,9.771-4.633,14.071
		c-0.307,0.497-0.652,0.969-0.265,1.687c1.226,0.256,2.382-0.135,3.599-0.602c4.957-1.895,7.039-6.121,8.752-10.644
		c2.648-7.038,2.232-13.952-0.777-20.797c-1.277-2.89-2.795-5.576-5.109-7.987c1.364-0.433,2.234,0.137,3.12,0.639
		c3.903,2.204,6.526,5.676,8.874,9.312c3.754,5.817,5.906,12.316,7.199,19.086c0.023,0.138,0.055,0.285,0.109,0.405
		c0.422,1.028,0.035,2.757,1.645,2.776c1.455,0.033,2.322-1.342,2.707-2.595c0.953-3.122,1.379-6.317,0.953-9.583
		c-1.357-10.436-6.559-18.863-13.584-26.418c-3.799-4.096-8.117-7.453-12.848-10.343c-0.47-0.298-1.004-0.557-1.125-1.285
		c0.506-1.041,1.354-1.267,2.447-0.984c1.825,0.458,3.443,1.311,5.066,2.247c6.393,3.658,11.574,8.776,16.787,13.854
		c2.854,2.801,5.513,5.779,8.01,8.911c0.83,1.03,1.13,2.38,2.21,3.278c0.8,0.658,1.293,0.626,1.872-0.134
		c0.393-0.508,0.592-1.079,0.648-1.705c0.299-3.354-0.347-6.456-1.99-9.457c-5.139-9.377-12.305-16.948-20.615-23.535
		c-3.465-2.741-7.023-5.324-10.871-7.552c-4.189-2.426-8.584-4.056-13.273-4.999c-1.956-0.391-3.919-0.777-5.855-1.231
		c-2.438-0.585-3.845-2.204-5.119-4.345c-2.42-4.073-4.16-8.516-7.066-12.887c9.166-0.576,17.928-0.69,26.863,0.758
		c-0.564,0.718-1.232,0.895-1.783,1.21c-2.931,1.62-4.914,4.007-5.97,7.174c-0.569,1.7-0.243,2.224,1.49,2.606
		c5.416,1.174,10.216,3.852,15.05,6.399c2.367,1.244,4.572,1.869,6.79-0.122c2.312-2.071,3.812-4.411,2.95-7.767
		c-1.031-3.98-3.092-7.081-6.813-8.955c-0.683-0.345-1.22-0.796-0.696-1.766c2.527-0.285,4.732,0.411,6.58,2.214
		c0.34,0.336,0.753,0.644,0.962,1.054c1.476,2.776,4.169,3.473,6.884,4.219c3.516,0.974,6.938,2.251,10.279,3.708
		c0,0.755-0.637,0.838-1.041,1.062c-1.75,1-3.014,2.444-4.06,4.124c-0.929,1.5-0.899,2.74,0.078,3.797
		c1.009,1.098,2.319,1.252,3.876,0.312c5.349-3.287,10.914-3.64,16.647-1.217c2.854,1.206,4.589,3.587,4.969,6.532
		c0.481,3.549-1.05,5.184-4.622,5.985c-3.521,0.805-7.002,0.262-10.461-0.425c-1.713-0.347-3.308,0.11-4.887,0.606
		c-0.953,0.312-1.531,1.097-1.549,2.037c-0.035,1.218,0.607,2.241,1.684,2.789c5.82,2.974,11.467,6.267,17.721,8.424
		c7.681,2.639,12.514,8.529,16.215,15.478c0.553,1.04,0.521,2.018-0.176,3.075c-1.164,1.76-2.477,3.357-4.082,4.738
		c-5.504,4.834-10.302,10.418-16.144,14.896c-2.896,2.244-5.601,4.708-8.278,7.207c-1.59,1.496-3.504,2.379-5.891,2.444
		c-12.906,0.328-25.317,3.271-37.483,7.414c-10.065,3.409-19.404,8.057-27.052,15.643
		C237.361,195.966,236.473,196.965,235.522,197.893z M191.874,144.5c1.651-5.975,4.203-11.582,7.022-17.103
		c1.866-3.643,3.396-7.126,5.497-10.636c1.801-3.021,4.35-4.271,7.738-3.894c1.888,0.209,3.799,0.277,5.615,0.936
		c0.361,0.137,0.734,0.212,0.889,0.627c0.047,0.437-0.252,0.706-0.469,0.997c-6.537,8.773-12.964,17.622-18.594,26.996
		c-1.035,1.741-2.547,2.77-4.238,3.656c-0.455,0.243-0.906,0.522-1.393,0.709c-0.74,0.285-1.478,0.503-1.859,0.414
		C191.04,146.966,191.624,145.422,191.874,144.5z M186.03,145.511c-0.453,2.034-1.271,4.456-1.383,6.174
		c-1.353,0.57-1.774,1.231-3.665,1.435c2.735-9.109,5.767-17.023,10.83-25.079c0.376,1.073,0.069,1.511-0.211,2.125
		C189.284,135.17,187.224,140.227,186.03,145.511z M150.028,376.242c-0.137,0.021-0.273,0.085-0.421,0.129
		c-0.072,0.107-0.191,0.212-0.229,0.332c-0.654,2.303-0.654,2.291-3.108,2.007c-1.686-0.207-3.39-0.396-5.099-0.53
		c-4.316-0.351-8.598-4.854-8.752-9.205c-0.03-1.016,0.359-1.912,0.831-3.264c1.285,1.374,2.281,2.584,3.415,3.641
		c2.471,2.297,5.5,3.519,8.772,4.172c1.486,0.305,2.983,0.518,4.491,0.705c0.638,0.088,1.331,0.052,1.425,0.858
		C151.439,375.973,150.718,376.13,150.028,376.242z M155.294,360.359c-2.577,3.111-6.143,5.226-9.958,6.736
		c-0.907,0.36-1.769,0.217-2.616-0.213c-2.507-1.311-4.514-3.154-5.989-5.56c-0.742-1.198-1.062-2.518-1.062-3.944
		c-0.002-3.393,0.528-6.732,0.847-10.087c0.15-1.58,1.447-2.64,2.084-4.019c1.009-2.175,2.392-4.12,4.36-5.564
		c1.426-1.035,1.83-0.938,2.95,0.381c1.509,1.76,1.978,3.781,1.978,6.066c-0.009,1.228,0.534,2.453,0.814,3.693
		c0.572,2.573-0.558,4.626-3.108,5.5c-0.685-0.943-0.679-1.975-0.364-3.07c0.585-2.035-0.038-3.548-1.659-4.123
		c-1.624-0.578-3.068,0.186-3.946,2.083c-1.844,3.999-0.035,9.579,3.82,11.631c1.221,0.648,2.589,0.371,3.84,0.515
		c0.318-0.503-0.397-0.428-0.178-0.877c0.945-0.505,1.974-1.063,3.021-1.595c0.994-0.491,1.538-1.37,2.168-2.209
		c3.337-4.483,2.89-9.558,2.184-14.593c-0.493-3.481-2.031-6.588-4.151-9.432c-1.653-2.227-3.915-2.564-6.34-2.371
		c-3.802,0.312-6.595,2.481-8.998,5.239c-1.632,1.852-3.125,3.858-4.852,5.595c-3.443,3.411-4.443,7.581-4.326,12.249
		c0.099,3.585-0.398,7.194,0,10.766c0.229,1.884,1.096,3.707,1.729,5.553c0.26,0.748,0.733,1.502-0.2,1.99
		c-1.006,0.534-1.38-0.333-1.854-1.021c-2.774-4.059-3.546-8.636-4.019-13.473c-0.552-5.458,0.443-10.485,2.639-15.374
		c0.617-1.368,1.288-2.789,2.931-3.313c0.278-0.092,0.481-0.444,0.696-0.689c2.545-2.897,5.207-5.644,8.679-7.492
		c2.316-1.242,4.146-3.174,6.181-4.822c1.428-1.171,2.947-1.941,4.855-2.155c3.486-0.408,6.424,2.815,7.37,5.291
		c1.13,3.021,2.576,5.93,3.501,9.04c0.157,0.565,0.573,0.949,1.021,1.458c-0.573,1.567,0.15,2.966,0.388,4.389
		C160.836,349.134,159.56,355.235,155.294,360.359z M166.038,338.058c-0.984-0.814-1.365-1.867-1.77-2.884
		c-1.495-3.751-2.83-7.547-4.527-11.24c-4.15-9.04-14.434-9.747-21.062-4.229c-1.778,1.487-3.316,3.278-5.385,4.427
		c-0.321,0.171-0.594,0.487-1.125,0.339c0.221-1.585,1.334-2.614,2.214-3.731c2.2-2.804,4.82-5.104,8.333-6.185
		c0.271-0.085,0.547-0.198,0.775-0.358c2.656-1.945,5.763-1.552,8.758-1.654c1.203-0.054,2.158,0.578,3.159,1.155
		c2.829,1.617,4.676,3.827,5.778,7.002c1.515,4.43,4.076,8.5,4.842,13.218C166.24,335.235,166.354,336.555,166.038,338.058z
		 M174.132,317.537c-0.314,0.371-0.83,0.037-1.149,0.637c0.201,1.721-0.716,3.413-0.855,5.448c-1.005-0.706-1.465-1.485-1.617-2.351
		c-0.254-1.377-0.718-2.562-1.73-3.511c-0.918-0.851-1.023-2.083-1.501-3.127c-0.157-0.347,0-0.736,0.348-0.835
		c1.036-0.283,2.254-0.599,3.15-0.174c1.161,0.553,2.1,1.604,3.079,2.497C174.202,316.461,174.223,316.984,174.132,317.537z
		 M188.091,327.15c-2.21,0.627-3.011,2.906-4.25,4.564c-1.248,1.672-2.168,3.575-3.238,5.367c-0.227,0.394-0.414,0.843-1.134,1.187
		c0.372-3.229-0.828-6.196-0.21-9.265c0.104-0.456,0.445-0.696,0.717-1.019c1.584-1.99,3.734-2.895,6.145-3.366
		c2.92-0.592,5.837-1.206,8.76-1.813C192.901,324.811,190.79,326.373,188.091,327.15z M252.077,285.789
		c-2.029,2.046-3.541,4.482-5.369,6.663c-2.524,3.032-5.557,5.372-9.051,7.247c-4.773,2.561-9.438,5.278-14.834,6.655
		c3.123-2.931,4.93-7.399,9.766-8.408c1.245-0.263,1.896-1.271,2.484-2.213c2.533-4.023,6.646-6.313,10.162-9.244
		c0.492-0.409,1.155-0.716,1.781-0.845c1.23-0.261,2.303-0.741,3.238-1.627c0.578-0.557,1.342-0.854,2.018-0.126
		C252.892,284.556,252.601,285.268,252.077,285.789z M247.61,268.605c-0.182,0.192-0.401,0.407-0.988,0.205
		c1.506-2.584,1.639-5.833,4.493-7.65c4.06-2.613,6.939-6.409,10.106-9.945c2.213-2.457,4.785-4.656,7.727-6.251
		c1.965-1.051,3.506-2.355,4.414-4.41c0.547-1.265,1.316-2.43,1.979-3.636c0.3-0.532,0.59-1.086,1.307-1.299
		c1.132,0.826,2.318,1.601,3.144,2.785c0.574,0.824,0.393,1.378-0.639,1.652c-3.01,0.802-5.089,2.859-6.238,5.577
		c-1.275,2.96-2.857,5.798-3.818,8.896c-0.223,0.741-0.953,0.873-1.556,1.106c-4.723,1.851-9.259,4.088-13.124,7.372
		C252.171,264.911,249.661,266.483,247.61,268.605z M256.687,273.983c0.718-1.123,1.423-2.183,2.506-2.892
		c1.048-0.683,2.127-1.328,3.08-1.912c0.047-0.77-0.703-0.66-0.757-1.168c0.459-0.907,1.19-1.623,2.129-1.978
		c3.323-1.239,6.463-3,9.995-3.689c1.739-0.327,3.462-0.456,4.961,0.834c-0.284,0.808-0.929,1.014-1.559,1.213
		c-3.187,0.985-6.022,2.783-9.139,3.938c-0.735,0.275-1.348,1.028-1.508,1.619c-0.648,2.337-2.718,2.622-4.454,2.957
		C260.213,273.248,258.483,273.653,256.687,273.983z M312.546,309.992c-1.08,7.003-5.279,11.864-11.375,15.153
		c-4.135,2.236-8.645,3.44-13.182,4.674c-4.805,1.325-9.604,1.504-14.48,1.555c-3.24,0.018-5.754-1.027-7.471-3.947
		c-1.026-1.743-1.391-3.504-1.262-5.435c0.072-0.93,0.762-1.412,1.398-1.886c1.945-1.443,3.605-3.22,5.434-4.779
		c2.111-1.823,4.193-3.702,6.753-4.953c2.46-1.21,4.157-3.437,6.349-5.035c4.042-2.922,8.094-5.853,12.119-8.785
		c3.767-2.744,7.752-5.342,10.547-9.248c0.169-0.212,0.378-0.427,0.623-0.577c0.583-0.385,0.999-1.01,1.73-1.223
		c1.811,2.645,2.24,5.684,2.745,8.731C313.354,299.486,313.356,304.766,312.546,309.992z M280.743,254.573
		c1.17-2.886,2.678-5.258,4.797-7.195c1.69-1.531,4.621-1.285,6.156,0.349c0.93,1.006,1.852,2.021,2.957,3.219
		C290.173,253.087,285.786,254.664,280.743,254.573z M349.751,237.107c-0.33,0.169-0.554,0.029-0.774-0.189
		c-6.011-6.003-12.882-10.713-20.736-14.057c-4.218-1.78-8.515-3.249-13.017-4.139c-0.846-0.162-1.7-0.205-2.548-0.103
		c-0.892,0.09-1.718,0.346-2.044,1.296c-0.352,0.996,0.149,1.779,0.861,2.374c0.656,0.557,1.384,1.019,2.145,1.43
		c5.588,3.081,10.922,6.562,15.992,10.417c7.129,5.409,12.273,12.37,15.986,20.472c0.867,1.896,1.781,3.764,2.224,5.821
		c0.108,0.488,0.399,0.975-0.122,1.624c-1.289-1.604-2.568-3.155-3.801-4.735c-5.68-7.317-12.848-12.748-21.158-16.73
		c-1.2-0.582-2.475-1.039-3.817-1.098c-0.664-0.032-1.413,0-1.784,0.649c-0.402,0.7,0.103,1.287,0.53,1.791
		c3.583,4.286,6.521,8.988,9.049,13.963c3.229,6.325,4.95,13.142,6.467,20.03c0.763,3.394,1.37,6.799,1.056,10.3
		c-0.031,0.266-0.043,0.534-0.074,0.962c-0.788-0.48-1.107-1.09-1.38-1.735c-4.45-10.807-9.995-21.026-16.593-30.677
		c-4.389-6.432-8.885-12.835-14.021-18.681c-7.115-8.072-15.59-14.331-25.954-17.753c-3.036-1.009-6.08-1.348-9.269-1.051
		c-4.086,0.371-8.101,0.956-11.918,2.57c-2.039,0.863-3.631,2.358-5.013,3.893c-1.792,1.984-3.706,3.962-4.98,6.396
		c-0.284,0.555-0.625,1.326-1.575,1.185c-0.877-0.134-1.157-0.843-1.344-1.5c-1.432-4.834-1.881-9.56,1.916-13.674
		c1.032-1.119,1.639-2.565,2.832-3.551c0.385-0.323,0.447-0.842,0.514-1.298c0.162-1.228,0.498-2.469,0.443-3.69
		c-0.147-2.713,1.326-4.38,3.34-5.866c6.805-5.023,14.307-8.79,22.342-11.203c14.12-4.241,28.277-4.296,42.314,0.789
		c5.84,2.102,11.52,4.375,16.45,8.286c3.702,2.954,7.152,6.112,9.997,9.907c0.508,0.693,1.482,1.576,0.77,2.34
		c-0.808,0.867-1.661-0.266-2.316-0.717c-7.697-5.32-16.161-8.998-25.035-11.809c-3.492-1.115-7.002-1.256-10.534-0.357
		c-0.945,0.234-2.097,0.462-2.23,2.006c6.969,1.36,12.636,5.19,18.235,8.983c8.834,6.017,17.472,12.335,24.682,20.369
		c1.514,1.677,2.754,3.514,3.832,5.47C349.901,236.221,350.229,236.657,349.751,237.107z M354.509,174.471
		c-1.872,2.855-4.268,5.269-6.525,7.688c-2.285-0.592-3.536-2.626-5.735-3.089c4.08-2.582,8.386-4.538,12.371-7.108
		C355.528,173.018,354.944,173.808,354.509,174.471z M356.644,161.112c-5.174,3.39-9.557,8.669-16.775,8.642
		c6.915-6.806,13.806-13.253,22.504-17.444C360.56,155.356,359.462,159.275,356.644,161.112z M379.438,180.836
		c-0.908,0.98-1.924,1.858-3.147,2.422c-3.388,1.544-5.951,4.186-8.705,6.555c-1.457,1.256-2.092,1.465-3.731,0.392
		c-0.846-0.54-1.677-1.098-2.621-1.429c-0.574-0.201-1.019-0.521-0.995-1.198c0.541-0.418,18.191-8.117,19.242-8.408
		C380.224,179.732,379.909,180.312,379.438,180.836z M387.385,215.252c2.235-1.432,3.603-3.628,5.383-5.426
		c3.737-3.817,7.842-7.195,11.788-10.768c4.17-3.783,8.085-7.781,11.428-12.313c0.443-0.605,0.93-1.206,1.721-1.408
		c2.213,7.444-6.938,48.401-12.561,56.075C400.58,231.825,394.233,223.483,387.385,215.252z"/>
</g>
</svg>
