<?xml version="1.0" encoding="utf-8"?>
<!-- Generator: Adobe Illustrator 16.0.0, SVG Export Plug-In . SVG Version: 6.00 Build 0)  -->
<!DOCTYPE svg PUBLIC "-//W3C//DTD SVG 1.1//EN" "http://www.w3.org/Graphics/SVG/1.1/DTD/svg11.dtd">
<svg version="1.1" id="Layer_1" xmlns="http://www.w3.org/2000/svg" xmlns:xlink="http://www.w3.org/1999/xlink" x="0px" y="0px"
	 width="213.547px" height="58.231px" viewBox="0 0 213.547 58.231" enable-background="new 0 0 213.547 58.231"
	 xml:space="preserve">
<g>
	<g>
		<path fill="#FFFFFF" d="M78.31,33.671h0.055V29.5c0-0.883,0.083-1.768-0.801-2.32v-4.197h7.567v4.197
			c-0.884,0.553-0.801,1.438-0.801,2.32v17.151h-7.153l-4.392-10.634h-0.055v4.115c0,0.885-0.083,1.768,0.801,2.32v4.198h-7.347
			v-4.198c0.884-0.553,0.801-1.436,0.801-2.32V29.5c0-0.883,0.083-1.768-0.801-2.32v-4.197h8.01L78.31,33.671z"/>
		<path fill="#FFFFFF" d="M105.181,39.802c0,5.855-3.591,7.319-8.811,7.319s-8.81-1.464-8.81-7.319v-9.97
			c0-5.855,3.59-7.319,8.81-7.319s8.811,1.464,8.811,7.319V39.802z M94.935,40.161c0,0.165-0.083,1.851,1.436,1.851
			c1.52,0,1.437-1.686,1.437-1.851V29.445c0-0.166,0.083-1.823-1.437-1.823c-1.519,0-1.436,1.657-1.436,1.823V40.161z"/>
		<path fill="#FFFFFF" d="M115.481,40.133c0,0.885-0.082,1.768,0.802,2.32v4.198h-8.977v-4.198c0.884-0.553,0.801-1.436,0.801-2.32
			V29.5c0-0.883,0.083-1.768-0.801-2.32v-4.197h10.246c1.823,0,4.115-0.027,5.718,0.939c1.933,1.132,2.596,3.148,2.596,5.303
			c0,2.596-0.773,4.86-3.535,5.551v0.055c2.32,0.553,3.094,1.547,3.094,3.95v1.353c0,0.802,0,1.961,0.911,2.32v4.198h-7.927
			c-0.304-1.298-0.497-2.403-0.414-6.353c0-1.878-0.193-2.816-2.21-2.872h-0.304V40.133z M115.481,32.704h0.746
			c1.602,0,2.099-0.829,2.099-2.485c0-1.52-0.497-2.348-2.099-2.348h-0.746V32.704z"/>
		<path fill="#FFFFFF" d="M146.108,22.982h7.981v4.197c-0.828,0.664-0.911,1.74-1.104,2.734l-3.121,16.737h-7.098l-2.071-11.296
			h-0.056l-2.292,11.296h-6.96l-3.121-16.737c-0.192-0.967-0.386-2.126-1.215-2.734v-4.197h9.225v4.197
			c-0.524,0.222-0.773,0.691-0.773,1.271l0.911,7.457h0.056l2.485-12.926h4.529l2.597,12.898h0.055l0.746-7.43
			c0-0.58-0.249-1.05-0.773-1.271V22.982z"/>
		<path fill="#FFFFFF" d="M173.118,39.802c0,5.855-3.591,7.319-8.811,7.319s-8.81-1.464-8.81-7.319v-9.97
			c0-5.855,3.59-7.319,8.81-7.319s8.811,1.464,8.811,7.319V39.802z M162.872,40.161c0,0.165-0.083,1.851,1.436,1.851
			c1.52,0,1.437-1.686,1.437-1.851V29.445c0-0.166,0.083-1.823-1.437-1.823c-1.519,0-1.436,1.657-1.436,1.823V40.161z"/>
		<path fill="#FFFFFF" d="M193.001,39.802c0,5.855-3.591,7.319-8.811,7.319s-8.81-1.464-8.81-7.319v-9.97
			c0-5.855,3.59-7.319,8.81-7.319s8.811,1.464,8.811,7.319V39.802z M182.755,40.161c0,0.165-0.083,1.851,1.436,1.851
			c1.52,0,1.437-1.686,1.437-1.851V29.445c0-0.166,0.083-1.823-1.437-1.823c-1.519,0-1.436,1.657-1.436,1.823V40.161z"/>
		<path fill="#FFFFFF" d="M205.4,22.982c2.016,0,4.336,0.027,6.021,1.326c1.934,1.519,2.127,3.673,2.127,5.938v8.865
			c0,2.32-0.11,4.115-1.906,5.801c-1.685,1.602-3.783,1.739-6.021,1.739h-10.439v-4.198c0.828-0.359,0.911-1.076,0.938-1.878V29.059
			c-0.027-0.828-0.083-1.52-0.938-1.879v-4.197H205.4z M203.494,41.652h0.58c1.603,0,2.1-0.58,2.1-2.292v-8.921
			c0-1.713-0.497-2.293-2.1-2.293h-0.58V41.652z"/>
	</g>
	<g>
		<path fill="#FFFFFF" d="M1.126,32.727c1.226,3.94,3.312,7.36,6.2,10.3c0.086,0.087,0.159,0.198,0.288,0.242
			c0.149-0.121,0.297-0.239,0.449-0.365c-0.07-0.179-0.134-0.351-0.207-0.517c-0.27-0.604-0.338-1.193,0.067-1.781
			c0.146-0.211,0.174-0.464,0.048-0.721c-0.099-0.205-0.167-0.432-0.227-0.65c-0.39-1.359-0.863-2.694-0.933-4.138
			c-0.067-1.462,0.218-2.853,0.69-4.196c0.408-1.154,1.033-2.223,1.797-3.203c0.633-0.813,1.354-1.586,2.168-2.233
			c1.366-1.092,2.76-2.032,4.268-2.909c0.407-0.234,0.637-0.514,0.785-0.937c0.332-0.949,0.321-1.897,0.041-2.849
			c-0.111-0.379-0.419-0.436-0.675-0.139c-0.271,0.312-0.555,0.617-0.775,0.963c-0.405,0.629-1.007,0.934-1.674,1.187
			c-0.516,0.194-1.07,0.274-1.576,0.511c-0.379,0.175-0.78,0.306-1.199,0.377c-0.257,0.041-0.39-0.094-0.508-0.265
			c-0.097-0.142-0.062-0.31-0.04-0.462c0.094-0.713,0.263-1.408,0.53-2.07c0.698-2.025,1.639-3.852,2.749-5.634
			c0.242-0.389,0.161-0.81,0.182-1.216c0.019-0.411-0.021-0.839-0.037-1.256c0-0.757-0.084-0.896,0.808-1.635
			c0.089-0.073,0.175-0.152,0.159-0.277c-0.033-0.239,0.029-0.471,0.051-0.706c0.026-0.282,0.172-0.456,0.401-0.603
			c0.75-0.479,1.58-0.77,2.43-1.007c2.013-0.57,4.083-0.624,6.154-0.618c1.502,0.008,2.98,0.223,4.451,0.547
			c1.571,0.349,3.076,0.871,4.56,1.475c0.546,0.224,1.055,0.521,1.65,0.627c0.479,0.084,0.961,0.07,1.441,0.153
			c0.953,0.167,1.752,0.6,2.285,1.4c0.62,0.931,0.702,1.995,0.456,3.067c-0.097,0.424,0,0.736,0.276,1.031
			c0.543,0.584,0.989,1.234,1.371,1.933c0.034,0.066,0.062,0.151,0.231,0.173c0.04-0.052,0.097-0.148,0.173-0.229
			c0.617-0.645,1.29-1.223,1.981-1.778c0.111-0.09,0.247-0.165,0.323-0.278c0.362-0.562,0.879-0.977,1.351-1.431
			c0.565-0.54,1.235-0.979,1.651-1.67c0.09-0.155,0.119-0.258,0.003-0.419c-1.306-1.793-2.805-3.4-4.523-4.8
			c-4.298-3.488-9.21-5.394-14.743-5.685c-2.101-0.111-4.185,0.025-6.24,0.457C13.694,1.871,8.442,5.281,4.582,10.738
			C1.089,15.682-0.372,21.223,0.08,27.262C0.217,29.125,0.57,30.944,1.126,32.727z"/>
		<path fill="#FFFFFF" d="M31.265,23.752c0.397-0.011,0.718-0.157,0.98-0.406c0.447-0.418,0.899-0.828,1.381-1.201
			c0.974-0.746,1.773-1.678,2.69-2.482c0.268-0.231,0.488-0.496,0.679-0.791c0.117-0.176,0.121-0.338,0.03-0.512
			c-0.615-1.157-1.421-2.14-2.703-2.58c-1.041-0.359-1.981-0.909-2.952-1.404c-0.181-0.09-0.285-0.262-0.28-0.464
			c0.003-0.157,0.099-0.287,0.259-0.339c0.264-0.084,0.527-0.16,0.812-0.102c0.578,0.113,1.157,0.205,1.744,0.07
			c0.597-0.134,0.85-0.406,0.771-0.997c-0.062-0.493-0.354-0.889-0.827-1.089c-0.957-0.406-1.885-0.346-2.775,0.201
			c-0.259,0.158-0.479,0.132-0.647-0.051c-0.161-0.176-0.166-0.383-0.011-0.634c0.175-0.278,0.384-0.521,0.675-0.687
			c0.067-0.037,0.175-0.053,0.175-0.177c-0.556-0.242-1.128-0.456-1.715-0.618c-0.452-0.125-0.901-0.24-1.146-0.705
			c-0.034-0.066-0.104-0.118-0.16-0.174c-0.307-0.301-0.674-0.416-1.096-0.369c-0.088,0.162,0.002,0.237,0.115,0.295
			c0.62,0.312,0.964,0.828,1.136,1.492c0.145,0.56-0.106,0.95-0.493,1.295c-0.368,0.331-0.736,0.228-1.132,0.02
			c-0.806-0.425-1.605-0.871-2.507-1.066c-0.288-0.062-0.342-0.15-0.249-0.435c0.178-0.528,0.508-0.927,0.996-1.196
			c0.093-0.051,0.202-0.081,0.296-0.201c-1.487-0.242-2.949-0.222-4.477-0.125c0.485,0.727,0.773,1.468,1.179,2.147
			c0.212,0.356,0.446,0.626,0.852,0.724c0.324,0.076,0.65,0.141,0.978,0.205c0.781,0.156,1.512,0.429,2.21,0.833
			c0.643,0.371,1.237,0.801,1.814,1.259c1.383,1.099,2.579,2.36,3.436,3.924c0.272,0.5,0.381,1.016,0.33,1.575
			c-0.008,0.104-0.042,0.198-0.106,0.284c-0.098,0.127-0.181,0.133-0.312,0.023c-0.181-0.149-0.231-0.375-0.368-0.547
			c-0.418-0.523-0.86-1.018-1.336-1.486c-0.869-0.846-1.732-1.699-2.798-2.309c-0.271-0.156-0.54-0.298-0.845-0.374
			c-0.183-0.048-0.324-0.011-0.405,0.163c0.02,0.122,0.107,0.166,0.188,0.215c0.786,0.482,1.508,1.041,2.14,1.725
			c1.173,1.258,2.038,2.662,2.265,4.402c0.069,0.543,0,1.076-0.159,1.598c-0.063,0.208-0.21,0.437-0.452,0.432
			c-0.266-0.004-0.203-0.292-0.274-0.463c-0.009-0.02-0.014-0.044-0.016-0.068c-0.215-1.127-0.576-2.21-1.202-3.18
			c-0.391-0.607-0.827-1.186-1.479-1.553c-0.147-0.082-0.292-0.178-0.521-0.105c0.385,0.4,0.64,0.849,0.852,1.33
			c0.505,1.142,0.571,2.294,0.131,3.467c-0.286,0.754-0.634,1.459-1.459,1.774c-0.203,0.077-0.396,0.142-0.601,0.101
			c-0.064-0.12-0.005-0.199,0.043-0.281c0.455-0.717,0.691-1.506,0.773-2.346c0.023-0.238,0.065-0.487-0.063-0.712
			c-0.258-0.03-0.361,0.134-0.44,0.31c-0.117,0.26-0.202,0.533-0.328,0.785c-0.559,1.126-1.495,1.883-2.564,2.467
			c-0.525,0.287-1.155,0.3-1.755,0.34c-0.356,0.027-0.719,0.016-1.043,0.195c-0.396,0.217-0.785,0.445-1.178,0.67
			c-1.228,0.697-2.142,1.696-2.812,2.926c-0.057,0.106-0.105,0.219-0.133,0.332c-0.268,1.097-0.107,2.174,0.186,3.238
			c0.246,0.896,0.593,1.756,1.031,2.574c0.31,0.586,0.715,1.105,1.156,1.594c0.23,0.256,0.255,0.238,0.466-0.007
			c0.046-0.052,0.114-0.081,0.174-0.126c0.347-0.283,0.695-0.565,1.053-0.859c-0.4-0.789-0.604-1.613-0.783-2.442
			c-0.088-0.415-0.096-0.839,0.106-1.233c0.164-0.324,0.353-0.641,0.579-0.926c0.188-0.24,0.247-0.477,0.167-0.789
			c-0.201-0.773-0.053-1.475,0.538-2.052c0.157-0.155,0.306-0.321,0.462-0.479c1.277-1.262,2.833-2.037,4.509-2.605
			C27.045,24.297,29.115,23.807,31.265,23.752z"/>
		<path fill="#FFFFFF" d="M38.434,33.482c-1.202-1.338-2.642-2.393-4.113-3.396c-0.934-0.632-1.879-1.271-3.04-1.497
			c0.021-0.257,0.215-0.296,0.373-0.334c0.587-0.15,1.172-0.127,1.755,0.06c1.479,0.468,2.89,1.08,4.171,1.968
			c0.11,0.076,0.254,0.264,0.387,0.119c0.12-0.128-0.043-0.274-0.128-0.389c-0.474-0.634-1.05-1.159-1.667-1.652
			c-0.82-0.652-1.767-1.031-2.741-1.383c-2.34-0.846-4.7-0.838-7.054-0.13c-1.336,0.401-2.587,1.032-3.723,1.868
			c-0.335,0.246-0.579,0.523-0.558,0.979c0.01,0.203-0.046,0.409-0.073,0.613c-0.011,0.076-0.021,0.163-0.084,0.217
			c-0.199,0.164-0.301,0.405-0.474,0.592c-0.632,0.686-0.556,1.473-0.318,2.278c0.029,0.109,0.077,0.229,0.224,0.251
			c0.159,0.022,0.215-0.106,0.263-0.197c0.213-0.407,0.531-0.736,0.83-1.066c0.23-0.256,0.496-0.506,0.836-0.65
			c0.636-0.269,1.306-0.365,1.987-0.426c0.529-0.051,1.038,0.006,1.544,0.174c1.727,0.57,3.139,1.613,4.325,2.959
			c0.856,0.975,1.605,2.042,2.339,3.114c1.099,1.608,2.022,3.312,2.763,5.112c0.047,0.107,0.098,0.211,0.231,0.291
			c0.004-0.072,0.006-0.116,0.013-0.162c0.052-0.584-0.048-1.151-0.176-1.717c-0.254-1.148-0.54-2.283-1.078-3.34
			c-0.421-0.827-0.911-1.611-1.51-2.326c-0.071-0.084-0.153-0.182-0.087-0.299c0.062-0.109,0.185-0.115,0.298-0.109
			c0.225,0.012,0.434,0.088,0.636,0.186c1.385,0.664,2.578,1.568,3.526,2.789c0.203,0.262,0.42,0.52,0.633,0.787
			c0.088-0.107,0.039-0.188,0.021-0.27c-0.074-0.344-0.227-0.654-0.37-0.97c-0.62-1.351-1.477-2.511-2.665-3.413
			c-0.846-0.642-1.732-1.223-2.666-1.734c-0.125-0.071-0.248-0.147-0.356-0.24c-0.12-0.098-0.201-0.229-0.145-0.395
			c0.055-0.16,0.193-0.201,0.341-0.217c0.141-0.018,0.285-0.01,0.426,0.019c0.749,0.146,1.467,0.392,2.17,0.688
			c1.307,0.558,2.453,1.342,3.456,2.343c0.037,0.036,0.073,0.06,0.128,0.032c0.079-0.076,0.026-0.149-0.012-0.215
			C38.892,34.068,38.685,33.762,38.434,33.482z"/>
		<path fill="#FFFFFF" d="M32.413,42.675c-0.122,0.036-0.191,0.14-0.288,0.204c-0.041,0.024-0.076,0.061-0.104,0.096
			c-0.466,0.651-1.128,1.083-1.757,1.543c-0.672,0.488-1.348,0.977-2.02,1.463c-0.366,0.268-0.65,0.637-1.06,0.838
			c-0.426,0.211-0.772,0.521-1.125,0.826c-0.305,0.26-0.582,0.557-0.905,0.798c-0.107,0.079-0.222,0.157-0.232,0.314
			c-0.022,0.321,0.037,0.616,0.21,0.905c0.284,0.486,0.703,0.662,1.244,0.656c0.812-0.006,1.612-0.036,2.415-0.258
			c0.754-0.204,1.506-0.406,2.195-0.778c1.016-0.549,1.717-1.358,1.897-2.525c0.133-0.872,0.133-1.751-0.013-2.626
			C32.786,43.621,32.715,43.115,32.413,42.675z"/>
		<path fill="#FFFFFF" d="M50.408,25.98c-0.131,0.033-0.213,0.133-0.285,0.234c-0.559,0.755-1.212,1.424-1.905,2.052
			c-0.657,0.596-1.342,1.159-1.966,1.796c-0.296,0.299-0.523,0.664-0.896,0.903c1.142,1.372,2.2,2.763,2.962,4.359
			C49.253,34.048,50.777,27.222,50.408,25.98z"/>
		<path fill="#FFFFFF" d="M7.348,51.449c-0.075-0.083-0.145-0.148-0.172-0.243c-0.151-0.517-0.395-1.005-0.582-1.509
			c-0.157-0.41-0.647-0.949-1.23-0.879c-0.317,0.035-0.57,0.164-0.808,0.357c-0.34,0.276-0.646,0.598-1.032,0.804
			c-0.575,0.31-1.019,0.767-1.444,1.251c-0.035,0.041-0.069,0.098-0.116,0.114c-0.274,0.087-0.386,0.323-0.489,0.552
			c-0.365,0.814-0.531,1.652-0.439,2.562c0.079,0.807,0.209,1.568,0.67,2.244c0.08,0.117,0.141,0.261,0.31,0.172
			c0.155-0.082,0.077-0.207,0.032-0.332c-0.104-0.309-0.25-0.611-0.288-0.926c-0.066-0.596,0.017-1.197,0-1.794
			c-0.019-0.777,0.147-1.474,0.721-2.042c0.29-0.289,0.536-0.625,0.809-0.932c0.401-0.46,0.866-0.822,1.5-0.873
			C5.193,49.945,5.569,50,5.846,50.371c0.353,0.473,0.606,0.99,0.69,1.572c0.118,0.84,0.193,1.684-0.365,2.432
			c-0.103,0.14-0.195,0.287-0.359,0.368c-0.175,0.089-0.346,0.181-0.504,0.267c-0.036,0.073,0.083,0.061,0.029,0.146
			c-0.208-0.025-0.437,0.021-0.64-0.087c-0.642-0.343-0.944-1.272-0.638-1.938c0.148-0.316,0.389-0.443,0.659-0.347
			c0.271,0.095,0.373,0.349,0.275,0.687c-0.053,0.184-0.054,0.355,0.062,0.512c0.425-0.146,0.614-0.488,0.518-0.916
			c-0.046-0.206-0.136-0.411-0.136-0.617c0-0.381-0.079-0.715-0.33-1.01c-0.185-0.22-0.254-0.236-0.49-0.064
			c-0.328,0.242-0.56,0.565-0.729,0.928c-0.105,0.231-0.32,0.406-0.345,0.669c-0.055,0.561-0.144,1.118-0.143,1.682
			c0,0.24,0.053,0.459,0.178,0.659c0.244,0.398,0.58,0.707,0.998,0.925c0.14,0.073,0.285,0.095,0.436,0.036
			c0.636-0.252,1.23-0.605,1.66-1.123c0.709-0.854,0.922-1.871,0.738-2.971C7.373,51.943,7.253,51.711,7.348,51.449z"/>
		<path fill="#FFFFFF" d="M12.803,19.624c0.066,0.017,0.188-0.021,0.311-0.067c0.081-0.033,0.157-0.08,0.232-0.121
			c0.282-0.146,0.533-0.318,0.707-0.607c0.938-1.563,2.008-3.039,3.097-4.5c0.04-0.049,0.088-0.094,0.079-0.166
			c-0.024-0.068-0.088-0.081-0.147-0.105c-0.303-0.109-0.621-0.119-0.936-0.155c-0.563-0.062-0.988,0.146-1.291,0.649
			c-0.35,0.585-0.604,1.166-0.915,1.772c-0.469,0.92-0.896,1.854-1.17,2.851C12.728,19.327,12.629,19.584,12.803,19.624z"/>
		<path fill="#FFFFFF" d="M20.183,39.139c0.319-0.351,0.635-0.709,1.017-0.993c0.31-0.225,0.476-0.538,0.671-0.845
			c0.477-0.754,1.04-1.459,1.898-1.76c0.859-0.297,1.121-1.021,1.458-1.721c-0.576,0.289-1.177,0.525-1.681,0.932
			c-0.045,0.035-0.13,0.064-0.103,0.143c0.055,0.145-0.054,0.202-0.14,0.268c-0.206,0.16-0.415,0.315-0.626,0.473
			c-0.04,0.034-0.114,0.072-0.114,0.109c0.002,0.242-0.195,0.311-0.348,0.411c-0.282,0.19-0.577,0.364-0.858,0.552
			c-0.453,0.301-0.979,0.504-1.297,0.982c-0.142,0.213-0.332,0.373-0.544,0.519c-0.552,0.374-0.994,0.881-1.527,1.272
			c-0.219,0.16-0.432,0.34-0.654,0.504c0.116,0.01,0.215-0.004,0.317-0.02c0.421-0.055,0.836-0.219,1.266-0.152
			c0.27,0.041,0.479-0.033,0.686-0.182C19.812,39.484,20.009,39.331,20.183,39.139z"/>
		<path fill="#FFFFFF" d="M43.945,21.206c0.347-0.052,0.629-0.196,0.89-0.405c0.145-0.109,0.288-0.225,0.441-0.324
			c0.253-0.166,0.431-0.395,0.542-0.674c0.11-0.273,0.217-0.555,0.401-0.78c0.323-0.401,0.474-0.884,0.702-1.375
			c-0.21,0.009-0.383,0.066-0.515,0.171c-0.401,0.328-0.846,0.605-1.176,1.025c-0.321,0.41-0.684,0.788-1.153,1.045
			c-0.353,0.195-0.713,0.383-0.988,0.691c-0.206,0.23-0.43,0.443-0.636,0.677c-0.236,0.274-0.487,0.544-0.663,0.872
			c0.146-0.047,0.279-0.115,0.412-0.184C42.766,21.656,43.305,21.303,43.945,21.206z"/>
		<path fill="#FFFFFF" d="M25.64,37.512c0.16-0.518,0.425-0.989,0.637-1.483c0.189-0.451,0.538-0.796,1.039-0.929
			c0.171-0.045,0.202-0.138,0.105-0.275c-0.137-0.195-0.334-0.326-0.523-0.463c-0.118,0.034-0.167,0.127-0.219,0.216
			c-0.109,0.201-0.236,0.395-0.328,0.606c-0.151,0.342-0.409,0.559-0.736,0.734c-0.489,0.266-0.916,0.631-1.287,1.04
			c-0.527,0.591-1.01,1.224-1.684,1.659c-0.477,0.303-0.498,0.844-0.751,1.275c0.098,0.034,0.136-0.002,0.166-0.034
			c0.343-0.353,0.762-0.616,1.135-0.933c0.645-0.547,1.399-0.92,2.186-1.23C25.482,37.658,25.603,37.635,25.64,37.512z"/>
		<path fill="#FFFFFF" d="M9.626,39.979c0.113-0.068,0.16-0.193,0.215-0.303c0.069-0.144,0.14-0.302,0.271-0.377
			c0.316-0.186,0.488-0.417,0.583-0.798c0.136-0.536,0.545-0.858,1.161-0.849c0.086-0.6,0.594-0.807,1.045-1.062
			c-0.141-0.136-0.154-0.151-0.248-0.156c-0.612-0.029-1.066,0.331-1.534,0.653c-0.768-0.318-0.826-0.989-0.873-1.683
			C9.3,36.37,9.683,37.459,9.96,38.529C9.497,38.961,9.323,39.715,9.626,39.979z"/>
		<path fill="#FFFFFF" d="M22.5,42.428c-0.154,0.147-0.335,0.227-0.539,0.27c-0.104,0.023-0.215,0.074-0.297,0.144
			c-0.588,0.487-1.271,0.868-1.693,1.539c-0.1,0.156-0.207,0.325-0.415,0.368c-0.806,0.169-1.107,0.914-1.627,1.402
			c0.897-0.23,1.676-0.684,2.472-1.111c0.582-0.311,1.087-0.701,1.51-1.207c0.305-0.362,0.556-0.768,0.895-1.107
			c0.087-0.089,0.135-0.207,0.032-0.318C22.723,42.285,22.594,42.334,22.5,42.428z"/>
		<path fill="#FFFFFF" d="M11.496,47.586c0.623-0.296,1.24-0.593,1.866-0.881c0.485-0.229,0.97-0.464,1.472-0.652
			c0.47-0.175,0.909-0.409,1.368-0.604c0.134-0.056,0.216-0.189,0.303-0.359c-0.517,0.062-0.995,0.135-1.479,0.069
			c-0.421-0.06-0.834-0.008-1.246,0.077c-0.233,0.047-0.408,0.152-0.564,0.32c-0.462,0.504-0.952,0.975-1.51,1.369
			c-0.23,0.164-0.479,0.307-0.686,0.562C11.199,47.561,11.322,47.672,11.496,47.586z"/>
		<path fill="#FFFFFF" d="M17.239,43.456c0.345-0.356,0.784-0.569,1.247-0.714c0.595-0.192,0.821-0.693,1.09-1.152
			c-0.136-0.264-0.283-0.265-0.496-0.137c-0.529,0.312-1.08,0.567-1.68,0.713c-0.765,0.186-1.485,0.43-1.958,1.132
			c-0.126,0.188-0.337,0.319-0.505,0.474c0.026,0.055,0.058,0.049,0.091,0.047c0.552-0.043,1.104-0.09,1.656-0.125
			C16.902,43.68,17.089,43.611,17.239,43.456z"/>
		<path fill="#FFFFFF" d="M2.818,49.168c0.089,0.023,0.136-0.027,0.188-0.055c0.346-0.191,0.604-0.49,0.896-0.738
			c0.307-0.254,0.659-0.42,1.023-0.508c0.954-0.232,1.987,0.122,2.487,1.212c0.178,0.386,0.331,0.777,0.482,1.171
			c0.091,0.234,0.181,0.469,0.272,0.703c0.067,0.171,0.133,0.346,0.296,0.481c0.052-0.25,0.033-0.472-0.003-0.692
			c-0.007-0.037-0.021-0.073-0.028-0.111c-0.147-0.738-0.535-1.388-0.777-2.09c-0.185-0.529-0.491-0.897-0.963-1.166
			c-0.166-0.098-0.327-0.201-0.524-0.193c-0.5,0.016-1.021-0.05-1.462,0.275c-0.038,0.026-0.085,0.045-0.13,0.059
			c-0.004,0.002-0.007,0.006-0.011,0.006c-0.58,0.184-1.013,0.562-1.378,1.027C3.04,48.733,2.855,48.905,2.818,49.168z"/>
		<path fill="#FFFFFF" d="M12.042,39.191c-0.222,0.219-0.319,0.709-0.195,0.975c0.114,0.244,0.282,0.451,0.474,0.645
			c0.264,0.268,0.475,0.569,0.59,0.932c0.031,0.107,0.039,0.25,0.202,0.25c0.152,0.002,0.22-0.109,0.267-0.233
			c0.131-0.358,0.201-0.729,0.198-1.112c-0.001-0.456-0.106-0.899-0.305-1.205c-0.093-0.139-0.177-0.296-0.344-0.377
			C12.652,38.934,12.247,38.989,12.042,39.191z"/>
		<path fill="#FFFFFF" d="M14.973,39.773c0.019,0.094,0.019,0.193,0.156,0.266c0.23-0.131,0.347-0.35,0.394-0.592
			c0.145-0.752-0.087-1.389-0.638-1.912c-0.549-0.525-1.548-0.138-1.773,0.449c-0.087,0.22,0.002,0.361,0.234,0.373
			C14.191,38.406,14.805,38.941,14.973,39.773z"/>
		<path fill="#FFFFFF" d="M43.928,17.752c0.017-0.017,0.046-0.021,0.063-0.037c0.158-0.184,0.418-0.102,0.595-0.215
			c0.402-0.257,0.729-0.598,1.09-1.011c-0.202,0.04-0.336,0.067-0.47,0.1c-0.439,0.103-0.843,0.318-1.305,0.347
			c-0.186,0.01-0.397,0.055-0.537,0.164c-0.293,0.227-0.617,0.426-0.854,0.715c-0.376,0.46-0.812,0.838-1.339,1.107
			c-0.05,0.025-0.122,0.039-0.12,0.152c0.384-0.127,0.769-0.209,1.163-0.239c0.029,0,0.064-0.022,0.081-0.042
			C42.752,18.307,43.458,18.212,43.928,17.752z"/>
		<path fill="#FFFFFF" d="M5.779,57.463c-0.251-0.031-0.502-0.067-0.749-0.118c-0.544-0.108-1.049-0.313-1.461-0.695
			C3.38,56.475,3.211,56.273,3,56.045c-0.079,0.223-0.145,0.372-0.139,0.542c0.023,0.726,0.738,1.475,1.459,1.534
			c0.284,0.022,0.567,0.054,0.849,0.09c0.409,0.045,0.409,0.048,0.521-0.336c0.004-0.021,0.023-0.037,0.036-0.057
			c0.025-0.006,0.047-0.017,0.069-0.02c0.115-0.02,0.237-0.046,0.223-0.193C6,57.471,5.884,57.477,5.779,57.463z"/>
		<path fill="#FFFFFF" d="M45.131,15.582c0.508-0.021,0.985-0.238,1.498-0.225c0.034,0,0.075-0.029,0.103-0.058
			c0.196-0.179,0.443-0.272,0.669-0.405c0.223-0.129,0.433-0.283,0.654-0.432c-0.208-0.444-0.407-0.853-0.673-1.307
			c-0.641,0.974-1.512,1.656-2.4,2.389C45.085,15.572,45.11,15.583,45.131,15.582z"/>
		<path fill="#FFFFFF" d="M37.436,23.382c1.202,0.006,1.935-0.873,2.795-1.438c0.47-0.305,0.652-0.96,0.954-1.468
			C39.738,21.174,38.586,22.248,37.436,23.382z"/>
		<path fill="#FFFFFF" d="M45.249,22.25c-0.931,0.604-1.971,0.966-2.999,1.346c-0.655,0.243-1.05,0.687-1.371,1.307
			c1.082-0.185,4.459-2.179,4.657-2.697C45.43,22.152,45.337,22.193,45.249,22.25z"/>
		<path fill="#FFFFFF" d="M10.92,43.234c0.153-0.052,0.126-0.218,0.14-0.35c0.005-0.023,0.002-0.048,0-0.07
			c-0.041-0.396,0.032-0.768,0.179-1.137c0.114-0.281,0.245-0.553,0.117-0.889c-0.142-0.365-0.334-0.453-0.668-0.226
			c-0.402,0.274-0.62,0.646-0.599,1.032c-0.006,0.5,0.176,0.959,0.52,1.434C10.686,43.134,10.759,43.287,10.92,43.234z"/>
		<path fill="#FFFFFF" d="M25.191,40.082c0.027-0.098,0.128-0.224,0.249-0.27c0.521-0.193,0.993-0.492,1.524-0.656
			c0.105-0.032,0.213-0.067,0.26-0.203c-0.248-0.215-0.536-0.193-0.828-0.139c-0.588,0.115-1.109,0.409-1.665,0.615
			c-0.156,0.059-0.277,0.179-0.354,0.33c0.01,0.085,0.134,0.066,0.127,0.193c-0.159,0.099-0.339,0.206-0.514,0.318
			c-0.182,0.12-0.299,0.296-0.419,0.482c0.3-0.055,0.588-0.123,0.877-0.178C24.737,40.52,25.083,40.473,25.191,40.082z"/>
		<path fill="#FFFFFF" d="M40.833,26.354c-0.006,0.113,0.067,0.166,0.164,0.2c0.157,0.055,0.295,0.148,0.437,0.238
			c0.274,0.178,0.38,0.144,0.623-0.065c0.457-0.395,0.886-0.836,1.451-1.094c0.203-0.094,0.373-0.24,0.522-0.404
			c0.08-0.086,0.133-0.183,0.007-0.277C43.863,25.001,40.921,26.284,40.833,26.354z"/>
		<path fill="#FFFFFF" d="M10.702,51.47c0.121-0.058,0.151-0.134,0.188-0.198c0.178-0.3,0.333-0.615,0.541-0.896
			c0.205-0.276,0.34-0.656,0.707-0.759c0.45-0.131,0.803-0.389,1.133-0.725c-0.486,0.101-0.973,0.203-1.46,0.299
			c-0.403,0.082-0.76,0.232-1.023,0.562c-0.047,0.055-0.104,0.094-0.12,0.17C10.565,50.438,10.765,50.931,10.702,51.47z"/>
		<path fill="#FFFFFF" d="M29.406,36.378c-0.255-0.272-0.743-0.313-1.024-0.058c-0.353,0.322-0.605,0.718-0.799,1.199
			c0.838,0.016,1.57-0.248,2.316-0.605C29.716,36.716,29.562,36.547,29.406,36.378z"/>
		<path fill="#FFFFFF" d="M37.833,24.936c0.365,0.076,0.573,0.416,0.955,0.515c0.375-0.403,0.775-0.806,1.088-1.282
			c0.071-0.108,0.169-0.242,0.019-0.418C39.228,24.18,38.513,24.506,37.833,24.936z"/>
		<path fill="#FFFFFF" d="M12.757,16.43c-0.842,1.344-1.347,2.664-1.804,4.181c0.315-0.034,0.387-0.145,0.611-0.239
			c0.021-0.285,0.155-0.689,0.23-1.029c0.198-0.879,0.542-1.723,0.93-2.559C12.771,16.683,12.824,16.609,12.757,16.43z"/>
		<path fill="#FFFFFF" d="M9.209,48.635c0.024,0.146,0.1,0.275,0.268,0.395c0.024-0.341,0.178-0.622,0.144-0.909
			c0.054-0.101,0.139-0.044,0.191-0.106c0.015-0.092,0.012-0.18-0.045-0.234c-0.162-0.15-0.321-0.324-0.514-0.418
			c-0.15-0.071-0.352-0.019-0.525,0.029c-0.059,0.018-0.084,0.082-0.059,0.139c0.08,0.174,0.1,0.381,0.252,0.522
			C9.09,48.21,9.167,48.407,9.209,48.635z"/>
		<path fill="#FFFFFF" d="M10.765,45.643c0.145,0.137,0.229,0.021,0.343-0.054c0.218-0.138,0.336-0.38,0.552-0.514
			c0.136-0.081,0.183-0.181,0.138-0.358c-0.599,0.066-0.95,0.456-1.269,0.933C10.638,45.688,10.703,45.584,10.765,45.643z"/>
	</g>
</g>
</svg>
