<?xml version="1.0" encoding="utf-8"?>
<!-- Generator: Adobe Illustrator 16.0.0, SVG Export Plug-In . SVG Version: 6.00 Build 0)  -->
<!DOCTYPE svg PUBLIC "-//W3C//DTD SVG 1.1//EN" "http://www.w3.org/Graphics/SVG/1.1/DTD/svg11.dtd">
<svg version="1.1" id="Layer_1" xmlns="http://www.w3.org/2000/svg" xmlns:xlink="http://www.w3.org/1999/xlink" x="0px" y="0px"
	 width="460.933px" height="155.849px" viewBox="0.001 -0.004 460.933 155.849"
	 enable-background="new 0.001 -0.004 460.933 155.849" xml:space="preserve">
<path fill="#FFFFFF" d="M90.604,27.182c0.07,0.491-0.351,1.054-0.351,1.476c-0.07,0.562-0.141,1.054-0.281,1.614
	c-0.14,0.562-0.141,1.055-0.211,1.404c-0.141,0.562-0.421,1.194-0.562,2.036c-0.141,0.843-0.211,1.756-0.422,2.739
	c-0.14,0.981,0,1.966-0.14,2.809c-0.211,0.843-0.492,1.475-0.562,1.966c-0.28,0.983-0.491,1.967-0.702,2.88
	c-0.21,0.912-0.28,2.106-0.491,3.37c-0.211,1.265-0.772,2.738-1.054,4.424c-0.21,0.984-0.21,2.107-0.421,3.302
	c-0.211,0.981-0.491,2.106-0.702,3.229c-0.422,2.246-0.491,4.072-0.843,5.478c-0.281,1.475-0.562,2.67-0.702,3.651
	c-0.141,0.912-0.211,1.756-0.352,2.388c-0.14,0.633-0.21,1.192-0.28,1.756c0,0-0.211-0.07-0.211,0c-0.141,0.352,0.07,0.912,0,1.614
	c-0.141,0.562-0.351,1.193-0.491,1.896c-0.141,0.631-0.492,1.264-0.632,2.035c-0.211,1.266-0.07,1.266-0.281,2.528
	c-0.281,1.476-0.211,1.476-0.421,2.88c0,0.28,0,0.561-0.141,0.842s-0.281,0.492-0.211,0.703c0,0.069,0.211,0.141,0.211,0.211
	c-0.141,0.561-0.632,1.123-0.983,1.895c-0.281,0.844-0.702,1.687-1.475,2.248c-0.211,0.142-0.632,0.07-0.983,0.142
	c-0.421,0.141-0.351,0.42-0.772,0.489c-0.421,0-0.772,0.142-1.053,0.142c-0.562,0.28-1.686-0.351-1.826-0.42c-0.07,0,0-0.07,0-0.07
	c-2.036-0.422-3.16-1.687-3.651-3.863c-0.211-0.981-0.281-0.981-0.562-1.965c-0.281-1.125-0.562-1.896-0.632-2.318
	c-0.141-0.491-0.07-0.771-0.07-0.912c-0.07-0.913-0.632-1.896-0.983-2.948c-0.07-0.562,0.07-1.125-0.07-1.545
	c-0.141-0.492-0.351-0.984-0.421-1.476c-0.211-1.686,0.07-1.756-0.211-3.512c-0.141-1.264-0.491-1.264-0.702-2.527
	c-0.281-1.264-0.422-2.248-0.772-2.6c-0.421-0.35-0.843-0.209-1.193-0.068c-0.352,0.14-0.702,0.42-0.983,0.912
	c-0.281,0.492-0.632,0.982-0.702,1.476c-0.141,0.981,0,1.825-0.07,2.457c-0.07,0.633-0.281,1.192-0.422,1.756c0,0,0.07,0,0,0.069
	c-0.069,0.353-0.351,0.843-0.491,1.476c-0.07,0.633-0.211,1.264-0.351,1.896c-0.141,0.631-0.281,1.334-0.422,2.105
	c-0.211,1.266,0.07,1.336-0.141,2.6c-0.21,1.404-0.562,1.334-0.772,2.81c0,0.28,0,0.561-0.14,0.771c-0.07,0.281,0,0.562,0.069,0.773
	c0,0.069-0.069,0.069-0.069,0.141c-0.141,0.562-0.281,1.264-0.562,2.105c-0.351,0.772-1.123,1.264-1.966,1.825
	c-0.211,0.142-0.422,0.353-0.702,0.492c-0.491,0.142-0.422,0.142-0.913,0.281c-0.351-0.07-0.632,0.209-0.913,0.209
	c-0.772-0.209-1.193-0.141-1.685-0.141c-0.141,0-0.141,0.069-0.352,0.069c-0.141,0.422-3.37-3.02-3.651-4.213
	c-0.211-0.981-0.141-0.981-0.422-1.965c-0.21-0.703-0.351-1.475-0.562-2.318c-0.141-0.912-0.632-1.756-0.772-2.598
	c-0.21-0.914-0.21-1.756-0.351-2.527c-0.141-0.772-0.07-1.405-0.141-1.825c-0.07-0.281-0.141-0.423-0.211-0.562
	c0-0.07-0.07-0.211-0.07-0.281c-0.07-0.701,0.141-0.771,0.141-1.475c-0.07-0.42-0.07-0.842,0.141-1.193
	c0.141-0.422,0.351-0.701,0.632-0.981c0.281-0.281,0.491-0.633,0.772-0.773c0.281-0.14,0.632-0.07,0.913-0.141
	c0.141-0.07,0.421-0.07,0.843-0.07c0.351-0.07,0.702,0.07,1.053,0.211c0.352,0.142,0.772,0.142,1.054,0.422
	c0.351,0.281,0.421,0.703,0.491,1.265c0.141,0.562,0.352,1.053,0.422,1.475c0,0.422,0,0.844,0.07,1.123
	c0,0.281,0.069,0.562,0.069,0.844c0.211,0.982,0.492,1.756,0.913,1.967c0.492,0.209,0.632-0.141,0.772-0.702
	c0.141-0.843,0.422-0.843,0.562-1.615c0.141-0.492,0.07-1.053,0.211-1.476c0.07-0.491,0.141-0.981,0.211-1.545
	c0.281-1.475,0.141-1.475,0.421-3.02c0.141-0.701,0.352-1.404,0.422-2.176c0.141-0.773,0.562-1.545,0.702-2.318
	c0.351-1.756,0.562-3.582,0.913-5.477c0.28-1.896,0.562-3.794,0.982-5.617c0-0.142-0.07-0.422,0-0.773
	c0.141-0.422,0.141-0.981,0.281-1.686c0.141-0.631,0.632-1.265,0.843-2.105c0.141-0.772,0.211-1.615,0.28-2.458
	c0.141-1.054,0.141-2.105,0.211-3.09c0.07-1.054-0.07-2.036-0.07-2.949c0-1.826,0.141-3.439,0-4.705
	c-0.21-1.614-0.351-3.02-0.632-4.213c-0.491-1.686-1.193-3.511-1.896-5.478c-0.562-1.476-1.124-3.09-1.896-4.774
	c-0.141-0.281,0-0.352-0.211-0.703c-1.193-1.824-1.334-1.755-2.668-3.581c-0.491-0.562-0.772-0.913-0.843-1.123l0.07-0.141
	c0-0.07-0.141,0-0.281-0.141c-0.421-0.421-0.842-0.844-1.264-1.334c-0.491-0.423-0.983-0.913-1.545-1.265
	c-0.632-0.422-1.334-0.913-2.177-1.404c-0.843-0.491-1.825-0.982-2.949-1.334c-1.264-0.491-2.528-0.633-3.581-0.982
	c-1.265-0.352-2.528-0.562-3.651-0.702c-2.037-0.281-3.371-0.562-4.003-0.633c0,0,0-0.07-0.07-0.07
	c-0.351-0.068-0.772,0-1.123,0.142c-0.422,0.069-0.843-0.142-1.194-0.142s-0.702,0.281-0.983,0.281c-0.28,0-0.632,0.07-1.053,0.07
	c-0.772,0.141-1.545,0.421-2.317,0.632C25.368,7.24,24.596,7.38,23.964,7.59c-1.826,0.983-3.301,1.896-4.424,2.599
	c0,0,0.07,0.07,0.07,0.142c-0.281,0.14-0.422,0-0.702,0.14c-0.07,0.141-0.281,0.141-0.492,0.281
	c-0.21,0.141-0.632,0.702-1.475,1.334c-1.053,0.982-1.053,0.982-2.177,1.967c-1.053,0.982-1.123,0.912-2.177,1.966
	c-0.07,0,0.07,0.07,0.07,0.142c-0.141,0.069-0.141,0.279-0.211,0.421c-0.14,0.141-0.421,0.28-0.702,0.632
	c-0.21,0.211-1.123,1.335-0.912,1.545c-0.843,1.124-1.756,2.037-1.756,3.09c-0.281,0.772-0.913,1.826-1.334,3.301
	C7.251,26.621,7.11,28.166,6.9,29.71c-0.141,1.123-0.492,2.177-0.562,3.37c0,1.124,0.069,2.247,0.14,3.371
	c0.07,1.123,0,2.247,0.141,3.369c0.141,1.194,0.562,2.317,0.843,3.441c0.281,1.193,0.772,2.248,1.193,3.23
	c0.352,0.911,0.562,1.896,1.124,2.737h0.07c0.211,0.281,0.562,0.422,0.772,0.773c0.211,0.35,0.562,0.981,1.264,1.824
	c0.07,0.141,0.07,0.141,0.211,0.28c0.562,0.703,1.475,1.265,2.388,2.107c0.912,0.842,2.106,2.035,3.722,2.949
	c1.264,0.771,2.809,1.264,4.424,1.965c1.053,0.422,2.177,0.983,3.37,1.266c1.054,0.279,2.247,0.49,3.441,0.631
	c1.334,0.211,2.738,0.353,4.072,0.353c1.404,0,2.739-0.07,4.144-0.281c1.615-0.211,3.16-0.771,4.704-1.193
	c0.211-0.069,0.772-0.069,1.194-0.491c0.491-0.42,0.351-1.334,0.211-2.388c-0.141-0.633-0.211-1.334-0.352-2.106
	c-0.07-0.771,0-1.545-0.07-2.246c-0.141-0.703-0.351-1.334-0.421-1.896c-0.07-0.633-0.281-1.123-0.352-1.475
	c0-0.281,0.211-0.771,0.07-1.264c-0.07-0.492-0.281-0.982-0.421-1.545c-0.07-0.562-0.211-1.054-0.281-1.545s0-0.912,0-1.054
	c-0.07-0.211-0.352-0.632-0.491-1.264c-0.141-0.633-0.281-1.054-0.281-1.265c-0.351-1.967,0-2.036-0.351-4.072
	c-0.352-2.037-0.633-1.967-0.983-4.003c-0.07-0.702-0.141-1.404-0.281-1.966c-0.07-0.562-0.211-1.055-0.351-1.546
	c-0.07-0.562-0.141-0.982-0.141-1.335c-0.211-0.911,0.141-1.824,0.632-2.457c0.562-0.632,1.264-1.124,2.036-1.265
	c0.843-0.14,1.615,0.281,2.388,0.702c0.772,0.492,1.475,1.124,1.756,2.178c0.421,0.21,0,0.982,0,1.545
	c0.07,0.421,0.141,0.843,0.21,1.265c0.352,1.686,0.843,3.159,1.054,4.563c0.141,1.404,0.281,2.247,0.352,2.457
	c0.351,2.178,0.28,2.178,0.562,4.284c0.07,0.421,0.351,0.982,0.491,1.825c0.211,0.843,0.281,1.756,0.422,2.598
	c0.14,0.914,0.28,1.687,0.421,2.459c0.141,0.771-0.07,1.264-0.07,1.543c0,0.211,0.141,0.562,0.352,1.055
	c0.141,0.49,0.562,0.912,0.772,1.404c0.28,0.492,0.491,0.912,0.702,1.265c0.28,0.28,0.562,0.491,0.912,0.352
	c0.281-0.211,0.422-0.141,0.703-0.141c0.21-0.07,0.421-0.353,0.702-0.353c0.491,0,0.982,0.211,1.475,0.422
	c0.421,0.281,0.632,0.701,0.912,1.054c0.211,0.28,0.633,0.562,0.772,1.053c0.141,0.492,0.281,0.983,0.211,1.336
	c-0.141,0.771-0.702,1.475-1.404,2.035c0,0.069,0,0.069,0,0.069c-0.772,0.703-1.615,1.193-2.317,1.687
	c-0.702,0.562-1.334,1.053-1.966,1.545c-0.141,0.07-0.492,0.281-1.054,0.633c-0.562,0.351-1.334,0.562-2.177,0.982
	c-0.562,0.28-1.193,0.981-2.106,1.334c-0.983,0.352-1.756,0.211-2.106,0.28c-0.07,0-0.07,0.142-0.141,0.142
	c-0.422,0.141-0.913,0.281-1.404,0.35c-0.492,0.142-1.054,0.142-1.545,0.211c-1.194,0.211-2.388,0.353-3.581,0.492
	c-1.194,0.07-2.317,0.211-3.582,0.211c-1.123,0-2.247,0.07-3.3,0c-1.124-0.141-2.177-0.141-3.301-0.352
	c-1.053-0.211-2.036-0.701-3.16-1.054c-1.475-0.422-2.949-0.983-4.564-1.686c-1.404-0.633-2.738-1.404-4.213-2.248
	c-1.053-0.631-1.966-1.264-2.879-1.895c-0.983-0.773-1.826-1.546-2.668-2.318c-0.913-0.771-1.967-1.404-2.669-2.246
	c-0.632-0.844-1.123-1.545-1.615-2.178c-0.491-0.631-0.772-1.334-1.193-1.965c-0.492-0.634-0.772-1.896-1.334-3.371
	c-0.422-1.123-1.124-2.248-1.405-3.512c-0.351-1.193-0.562-2.458-0.702-3.722c-0.21-1.475-0.421-3.09-0.421-4.705
	c-0.07-1.545,0.07-3.16,0.211-4.774c0.141-1.615,0.421-3.229,0.702-4.704c0.28-1.545,0.702-3.09,1.193-4.636
	c0.702-1.475,1.264-2.948,1.896-4.354c0.702-1.405,1.193-2.949,2.036-4.073c0.702-1.054,1.686-1.896,2.598-2.809
	c0.843-0.913,1.686-1.826,2.669-2.669c0.983-0.844,1.966-1.614,3.02-2.388c1.615-1.124,3.23-2.106,4.845-2.949
	c1.686-0.843,3.371-1.544,5.127-2.036c0,0,0,0,0.069,0c2.107-0.562,4.003-0.843,5.759-0.843c0,0,0-0.07,0.07-0.07
	c0.28,0,0.491,0.07,0.702,0.07c1.755-0.142,3.44-0.07,4.985,0.069c1.545,0.141,2.949,0.142,4.144,0.422
	c1.264,0.28,2.247,0.912,3.229,1.193c0.913,0.281,1.756,0.281,2.458,0.491c0.491,0.141,1.123,0.211,1.686,0.492
	c0.491,0.279,0.912,0.843,1.545,1.123c1.123,0.422,2.247,0.843,3.37,1.614c0.983,0.562,2.036,1.265,3.02,2.178
	c0.843,0.701,1.615,1.614,2.388,2.527c0.702,0.983,1.615,2.036,2.458,3.37c0.421,0.772,0.842,1.615,1.264,2.388
	c0.491,0.772,0.702,1.615,1.054,2.458c0.351,0.844,0.842,1.687,1.264,2.527c0.351,0.913,0.491,1.826,0.772,2.739
	c0.211,0.562,0.491,0.491,0.632,1.053c0.281,0.983,0.421,1.896,0.632,2.739c0.281,0.843,0.632,1.686,0.843,2.598
	c0.141,0.422,0.07,0.843,0.141,1.265c0.07,0.422,0.351,0.772,0.491,1.193c0.211,0.632,0.141,1.404,0.281,2.106
	c0.14,0.701,0.211,1.403,0.351,2.105c0.352,2.177,0.492,2.107,0.772,4.214c0.141,0.844,0.211,1.755,0.352,2.599
	c0.211,0.843,0.28,1.686,0.421,2.527c0.141,0.703,0.562,1.615,0.772,2.949c0.141,1.264,0.07,2.529,0.211,3.793
	c0.141,1.264,0.491,2.387,0.632,3.301c0.07,0.982,0.211,1.476,0.281,1.476c0.07,0.631,0.21,1.403,0.351,2.387
	c0.211,0.982,0.281,1.967,0.422,2.949c0.141,0.981,0.21,1.967,0.351,2.879c0.211,0.912,0.211,1.545,0.211,2.037
	c0.07,0.42,0.141,0.842,0.211,1.334c0.07,0.422,0.21,0.842,0.28,1.264c0.211,1.615,0,1.615,0.281,3.16
	c0.141,1.053,0.702,1.475,1.123,1.615c0.422,0.211,0.702,0.211,0.843-0.353c0.141-0.842,0-0.842,0.141-1.614
	c0.141-0.562,0.281-0.982,0.422-1.476c0.069-0.492-0.07-1.053,0-1.545c0.351-1.475,0.421-1.475,0.772-2.949
	c0.14-0.7,0.421-1.403,0.562-2.246c0.07-0.772,0.28-1.545,0.421-2.317c0.352-1.756,0.352-3.65,0.702-5.547
	c0.352-1.896,0.983-3.652,1.404-5.547c0-0.281-0.07-0.773,0.07-1.615c0.141-0.844,0.422-1.687,0.562-2.67
	c0.21-0.982,0.491-1.824,0.702-2.667c0.14-0.913,0.07-1.476,0.14-1.826c0.07-0.421,0-0.982,0.141-1.755
	c0.141-0.773,0.211-1.545,0.352-2.389c0.141-0.843,0.562-1.614,0.702-2.388c0.14-0.772,0.211-1.334,0.351-1.686
	c0.07-0.421-0.07-0.913,0.07-1.476c0.07-0.562,0.492-0.982,0.562-1.334c0.141-0.632,0.281-1.403,0.422-2.105
	c0.141-0.772,0.211-1.476,0.421-2.106c0.211-0.703,0.492-1.265,0.843-1.686c0.492-0.353,1.054-0.492,1.615-0.632
	c0.491-0.07,1.054-0.07,1.615,0.069c0.491,0.141,1.054,0.21,1.475,0.562C90.253,26.199,90.533,26.691,90.604,27.182z"/>
<path fill="#FFFFFF" d="M109.011,66.507v-1.687c0-2.809-2.949-3.934-5.267-3.37c-1.685,0.562-2.738,2.176-2.738,4.424
	c0.491,1.123,0.491,2.315,0,2.949v0.491c0.491,2.316,0.491,4.072,0,6.39c0.491,1.125,0,2.248,0,3.371
	c0.491,1.192,0.421,2.317-0.632,3.44c-0.491,1.193-1.124,1.687-2.809,1.687c-1.194,0-2.317-1.123-2.317-2.318
	c-0.632-1.615-0.632-2.809-0.632-3.932c0-0.562,0.632-1.123,1.123-1.123c-1.123-0.634-1.123-1.756-1.123-2.248
	c0-1.896,0-3.371,0.632-5.267v-8.987c-0.632-2.318,0-4.074,0-6.392v-1.192v-3.371v-2.81c-0.632-1.755,0-4.072,0-5.758v-2.738
	c-0.632-1.124-0.632-1.756,0-2.88c1.123-2.315,2.317-2.315,4.635-1.685c0.491,0.491,1.123,1.123,1.123,1.685
	c0,1.124,0.491,1.756,0,2.88v0.562c0.491,1.686,0,3.862,0,6.18c0.491,1.755-0.07,3.441,0.421,5.197c0,0.07,0,0.209-0.069,0.279
	c-0.07,0.211-0.211,0.28-0.352,0.28c0,1.123-0.07,1.687,0.421,2.179c0.633,2.315,1.826,2.315,4.144,2.315h0.491
	c0.632,0,1.756,0,2.317-1.123c0-0.492,0.632-1.686,0.632-2.248V40.805c0-1.615-0.632-3.371,0-4.985c0-0.633,0.492-0.633,0.492-1.193
	c0-0.632,0.632-0.632,1.123-0.632c0.632,0,1.194-0.491,1.826-0.491c1.123,0,2.247,0.491,2.247,1.685
	c0.491,1.124,0.491,1.756,0.491,2.247v6.882v12.57c0,1.615,0,3.441-0.491,5.127c0,1.123,0.491,1.613,0.491,2.81v6.811
	c0,2.318,0,4.564-0.491,6.812c0,1.123,0.491,1.824,0.491,2.949c0,1.123-0.491,2.316-1.615,2.316c-1.193,0.492-2.317,0.492-3.44,0
	c-1.124-0.631-1.124-1.826-1.124-2.949v-1.686v-1.123V71.14c0-1.192,0-2.315,0.492-3.51
	C109.011,67.63,109.011,66.997,109.011,66.507z"/>
<path fill="#FFFFFF" d="M129.026,76.267c-0.07-1.475-0.28-2.526-0.632-3.16v-0.631c0.632-1.055,0-2.178,0.632-3.371
	c0-1.123,0-2.317-0.632-2.879v-5.127c0-0.561,0-1.053-0.562-1.686c-1.124-2.879-1.686-5.688-2.317-8.566
	c0-0.633-0.491-1.193-0.491-1.826c-1.124-2.879-1.686-5.055-2.317-7.934v-0.633c-0.562-0.491-0.562-1.054-1.194-1.686v-3.371
	c-0.491-1.123,0.633-1.686,1.194-2.316c1.686,0,2.317,0,3.44,1.193c0.492,0,1.054,0.562,1.686,1.686
	c0.562,2.81,1.756,5.618,1.756,9.199c0.491,1.615,1.123,3.372,1.123,5.055h0.562c0,0.633,0,1.195,0.633,1.195
	c0.562,0,0.562-0.562,0.562-1.195c0.491-1.193,1.123-2.246,1.123-3.439c0-1.615,0.492-3.44,1.124-5.126
	c0.562-1.193,1.053-2.879,1.053-4.493c0.633-2.458,1.826-3.441,4.073-3.441h0.632c1.054-0.632,1.686,0,1.686,0.562
	c0.491,1.545,0.491,1.756,0,3.301c-0.632,2.458-1.124,4.072-1.686,5.759c-0.632,1.896-0.632,3.44-1.193,5.197
	c-0.632,1.123-1.124,2.879-1.124,4.002c-1.193,2.246-1.755,4.563-2.388,6.881c-0.491,2.317-1.053,5.127-0.491,7.373
	c0,1.896-0.562,3.512-0.562,4.705v8.987v1.756c-0.632,0.634-1.124,1.757-2.247,1.757c-1.756,0.562-2.879,0-3.441-2.318v-2.246
	v-3.162H129.026z"/>
<path fill="#FFFFFF" d="M188.718,49.583c-0.562,1.615,0,4.002-1.053,5.055c-0.562,0.633-0.562,1.195-1.194,1.195
	c-1.053,0.981-1.053,1.756,0,2.246c0.632,1.123,0.983,1.192,1.194,2.106c0.28,0.912,0.491,1.265,0.491,1.896
	c0.562,1.123,1.193,2.809,0.562,4.562c0,1.125,0.632,2.74,0,3.863c0,1.193,0.632,2.316-0.562,3.441v0.631
	c0.562,1.123,0,2.809-0.491,3.934c-1.686,2.879-3.512,4.002-6.25,5.125c-1.193,0.562-1.756,0-2.879,0
	c-2.317,0.562-3.933,0.562-6.25,0.562c-1.123,0-2.247-0.562-2.809-1.687v-1.123c0-1.125-0.562-2.317,0-3.44V77.39
	c-0.562-2.315,0-5.055-0.562-7.373c0.562-1.686,0-4.002,0-5.617v-1.192c0.562-1.123,0.562-2.318,0.562-3.371v-1.193v-1.756V48.95
	c0-2.246,0-4.564-0.562-6.18v-2.879c0.562-0.491,0.562-1.615,0.562-2.809v-2.247c0.562-0.632,1.123-1.124,1.686-1.124
	c1.685,0,3.44-0.632,4.564-0.632c0.491,0,0.632,0.141,2.527,0.141c1.896,0,2.528-0.141,3.16,0.491
	c1.123,0.492,2.247,1.124,2.738,1.615c0.633,0.632,0.633,0.632,1.194,0.632c1.123,1.124,2.317,2.316,2.809,3.933
	c0.562,2.317,1.193,4.003,1.193,6.32C189.35,47.335,189.35,48.39,188.718,49.583z M178.536,54.147c1.123,0,2.879,0,3.44-1.192
	c0.562-1.056,1.124-2.812,1.124-4.004c0-1.615,0-2.668-0.562-4.564c0-2.177-0.562-3.37-2.879-3.933
	c-2.247-1.054-3.932,0.562-3.932,2.88c-0.562,1.053-0.562,2.248-0.562,3.371v5.616c0.562,0.634,0.562,0.634,0.562,1.193
	c0.491,0.633,1.123,0.633,2.316,0.633H178.536z M183.101,67.771c0-0.633-0.562-1.125,0-1.756c0-1.123-0.562-2.248-0.562-2.809
	c-0.562-1.123-1.755-2.318-2.879-2.318c-1.123-0.49-2.247-0.49-3.44,0.562c-0.491,0-0.491,0.633-0.491,1.123
	c0,1.192-0.562,2.879,0,4.071v0.492c-0.562,1.756-0.562,3.301-0.562,5.197v1.123c0,1.615,0.562,2.809,2.247,3.371
	c1.756,0,2.81-0.562,4.003-0.562c0.211,0,0.421-0.069,0.491-0.281c0.07-0.069,0.07-0.211,0.07-0.28
	c0.562-1.123,1.124-2.879,1.124-4.564L183.101,67.771L183.101,67.771z"/>
<path fill="#FFFFFF" d="M215.755,41.507v1.756v3.582c-0.562,0.49-0.562,1.687,0,2.809v4.214v4.002v5.338v1.826
	c0,3.438,0,7.582-0.562,10.393v1.264c-2.458,2.879-3.44,5.759-7.022,6.32c-2.317,1.334-4.704,1.264-7.021-0.492
	c-0.632-0.562-1.194-1.192-1.826-1.192c-2.317-1.757-2.738-4.074-3.511-6.392c-0.281-0.912-0.422-2.879-0.422-5.828
	c0-5.969-0.14-8.918-0.14-9.41c0-0.911,0-1.825,0.07-2.668l0.21-3.932c0.07-1.756,0-3.09-0.28-3.934v-0.632
	c0.562-2.318,0-4.004,0-6.532c0-0.21,0.07-0.352,0.28-0.421c0.07-0.07,0.211-0.07,0.281-0.07c-0.562-1.193,0-3.511,0-5.267
	c0-2.317,1.123-2.88,3.02-2.88h1.123c1.194,0.562,1.686,0.983,1.686,2.317v3.511v3.23v3.161c0.632,2.457,0,4.002,0,5.897
	c0,2.457,0.632,4.703,0,7.021v1.192c0.632,1.757,0,4.072,0,6.392v5.266c0,1.334,0.421,2.107,1.193,4.074
	c0.633,0,1.686,0.631,3.02,1.264h0.562c0.491-0.633,1.123-1.264,1.755-1.264c0.07,0,0.211,0,0.281-0.07
	c0.211-0.069,0.281-0.211,0.281-0.422c0.632-1.896,0.632-4.143,0.632-5.897V67.84V43.825v-1.826v-5.758
	c0-2.317,2.317-3.651,4.072-2.88c0.562,0.562,0.983,0.562,1.756,1.054l0.281,0.422c0.21,0.281,0.28,0.562,0.28,0.843v4.002
	L215.755,41.507L215.755,41.507z"/>
<path fill="#FFFFFF" d="M222.146,72.966v-4.564v-3.368v-2.882v-1.123c0.562-0.561,0.562-0.561,0-1.122v-4.003
	c0-1.194,0.562-2.317,0-3.37v-6.32c-0.562-2.247,0-4.564,0-6.741v-2.317c-0.562-1.686,0-2.316,1.124-2.879
	c0.28-0.28,0.632-0.422,0.843-0.491c0.14-0.07,0.28-0.07,0.351-0.07c0.562-0.562,1.124-0.562,1.686,0c0.07,0,0.211,0,0.352,0.07
	c0.28,0.069,0.562,0.28,0.771,0.491c0.633,0.562,1.124,1.193,1.124,2.317c-0.491,1.123,0,2.879,0,3.932
	c0,1.124-0.211,2.669-0.491,4.003c0.491,0.562,0.491,1.686,0.491,2.248c0,1.193,0.562,2.316-0.491,3.439v0.562
	c0.491,0.634,0.491,1.757,0.491,2.248c-0.491,1.685,0,2.879,0,4.002s0,1.687-0.491,2.88c0,1.686,0,2.809,0.491,4.563
	c0,1.053,0,2.176-0.491,3.371c0,0.561,0,1.686,0.491,2.809v4.002c-0.491,0.634-0.491,1.193,0,2.318v4.494
	c-0.491,1.123-0.491,1.754-1.686,2.316c-1.123,0-2.247,1.192-3.44,0c-0.562-0.562-0.562-1.193-1.124-1.757
	c-0.562-1.686,0-3.438,0-5.616L222.146,72.966L222.146,72.966z"/>
<path fill="#FFFFFF" d="M247.006,84.272h-2.247c-2.317-0.633-4.003,0-6.32,0c-0.491,0-1.615-0.633-2.247-0.633
	c-1.123-0.561-1.685-1.123-1.123-2.246v-5.619c0-2.315,0-4.424-0.562-6.317c0-1.125,0.562-2.248,0.562-3.302
	c-0.562-1.896,0-4.071-0.562-5.758v-0.562c0-0.633,1.193-1.053,0.562-1.687c0-0.561-0.562-1.053-0.562-1.686
	c1.123-2.879,0-6.18,0-9.06c0-1.756,0.562-3.439,0.562-5.125v-0.562c-0.562-2.247,0-3.933,0-5.688c0-1.685,1.755-2.809,2.879-2.809
	c2.247,0.562,2.809,1.124,2.809,3.371c0,1.755,0.562,3.44,0,5.126c0.562,2.879,0,5.126,0,7.935c0.562,1.123,0.562,2.316,0,2.88
	v0.491v4.564c0,1.192,0.562,2.246,0,3.438c-0.562,0,0,0.562,0,1.056c0,2.879,0,5.758,0.562,8.565c0,1.123-0.562,2.246,0,3.371
	c0,1.754,1.124,2.879,3.441,2.879h1.615h2.879c0.562,0,1.686,0,2.247,0.49h0.562c0.562,1.125,1.756,2.318,1.194,4.004
	c-1.194,2.246-1.756,2.879-3.441,2.879h-2.81V84.272z"/>
<path fill="#FFFFFF" d="M265.336,33.151c2.317,0,4.635,0.562,6.952,1.124h0.491c1.686,1.123,4.003,2.388,4.564,5.126
	c1.686,2.81,1.686,5.617,1.686,8.497c0,0.562-0.562,1.054,0,2.179v5.194v2.248v1.193v3.371v2.246c0,0.562,0,1.756-0.562,2.248
	c0,0.631,0.562,1.754,0.562,2.315c0,2.81-0.562,5.127-1.124,7.937c0,1.123-1.193,2.809-1.685,3.932
	c-0.633,0.633-1.756,1.756-2.81,1.756h-0.632c-1.755,1.756-4.002,1.123-6.319,1.687c-1.124,0-2.247-0.492-3.933,0
	c-0.491,0-1.686-0.492-2.809-1.123l-0.632-0.562c0.632-1.123,0-1.756,0-2.879V77.46v-6.32c-0.492-2.246,0-4.562,0-6.248
	c0-0.562-0.07-0.983-0.141-1.266c-0.07-0.351-0.07-1.053,0-2.246c0.07-1.193,0.141-2.107,0.141-2.668v-1.193
	c-0.492-1.615,0-3.371,0-5.688v-0.562v-1.686c-0.492-1.123-0.492-1.687,0-2.81v-8.005c0-1.054-0.492-2.177,0.632-3.301v-0.632
	c0-0.562,0-0.562,0.562-1.124c0.562,0,1.756-0.562,2.247-0.562L265.336,33.151L265.336,33.151z M265.336,74.581
	c0,1.123,1.124,2.248,1.756,2.879h0.562c0.562-0.631,0.562,0,1.124-0.631c1.193,0,2.316-0.492,2.879-1.125
	c0.632-1.123,1.123-2.246,1.123-3.439c0-1.756-0.491-3.934,0-5.688v-0.492c-0.562-1.756,0.562-3.371,0-4.564v-2.809v-6.883V48.95
	v-0.49v-2.318c0-0.492,0-1.685-0.491-2.247c-0.632-2.879-2.388-4.003-5.196-3.371c-1.124,0-2.247,1.124-2.247,2.811
	c0.562,2.457,0.351,6.531,0.491,7.373c-0.491,0.562,0,1.123,0,1.686v2.316v3.44c-0.491,2.179,0,5.127-0.491,7.304v0.633
	c0.491,0.492,0.491,1.123,0.491,2.246c-0.491,1.055,0,2.178-0.491,3.371C265.336,72.825,264.845,73.458,265.336,74.581z"/>
<path fill="#FFFFFF" d="M320.674,44.877c0.562,1.686,0.562,2.809,1.053,4.564v2.316c0.634,3.301,1.194,6.25,1.826,8.988
	c0.562,3.44,1.687,7.442,2.247,10.813c0,1.756,0.562,2.949,1.123,4.635v0.562c0,0.49,0,1.686,0.633,2.246
	c0.491,1.756,0,2.879-0.633,4.004c-0.562,0.561-1.123,1.123-1.685,1.123c-2.317,0-4.003-1.123-4.564-3.371
	c0-1.756,0-3.512-0.562-5.195c-1.124-2.248-2.317-2.739-4.636-2.739c-1.686,0-2.738,0.491-3.933,2.178v0.562
	c0,0.631,0,0.631-0.491,1.193c-0.633,0.49,0,1.686,0,2.809c0,0.632-0.633,1.193-0.633,1.687c-0.562,2.315-3.439,2.879-5.126,2.315
	c-0.562-0.561-1.123-1.123-1.123-1.686c0-1.687,0-3.439,0.562-5.125c0-1.193,0.562-2.248,0.562-3.934
	c0.562-1.334,0.562-2.949,1.124-4.636c0.562-2.176,0-5.758,1.123-7.934c0.562-1.687,1.194-3.935,1.194-5.688v-1.194
	c0.562-2.246,1.123-4.984,1.685-7.304c0-0.631,0-1.685,0.633-2.316v-1.687c0-1.123,0-2.879,0.491-4.002
	c0.211,0,0.421-0.069,0.491-0.28c0.07-0.07,0.07-0.212,0.07-0.281c-0.562-1.686,0.632-3.37,2.316-3.933
	c0.562-0.633,1.054-0.633,1.054,0c1.334,0,1.825,0,2.317,0.562c0.632,0,0.632,0.491,1.193,1.123c0,1.686,0.49,2.81,0.49,4.494
	c0,0.492,0,1.756,0.634,2.316c0.562,0.562,0.562,1.124,0.562,2.317L320.674,44.877L320.674,44.877z M317.303,56.815
	c-0.562-1.756-1.264-4.002-1.264-5.688h-0.562h-0.491v3.932c-0.562,2.459-1.193,5.197-1.686,8.006c0,1.123,0,1.687,1.123,2.316
	c0.562,1.195,1.545,1.195,2.317,0.562c1.054-0.562,1.686-1.192,1.686-2.317c-0.632-1.123-0.632-2.246-0.632-2.879
	c-0.492-1.054-0.492-2.177-0.492-3.299L317.303,56.815L317.303,56.815z"/>
<path fill="#FFFFFF" d="M359.316,58.993c0-0.562,0.562-1.055,0.562-1.686c0-2.248,0.633-4.564,1.123-6.812
	c0-2.246,0.562-4.354,1.124-6.25v-2.316c0-2.178,0.702-4.424,1.756-6.741c0-0.562,0-1.123,0.562-1.123
	c1.123-1.124,2.809-1.124,3.37,0.562c0.562,1.055,1.193,2.317,1.193,3.371c0.491,1.756,0.491,3.44,0.491,5.196
	c0,0.562,0.562,1.686,0.562,2.878c0.562,1.687,1.193,3.371,1.193,5.058c0.562,1.614,0.562,3.37,0.562,4.563v1.053
	c0.562,0.562,0.562,1.615,0.562,2.949v0.562c0.211,0.28,0.423,0.489,0.492,0.7c0.069,0.142,0.069,0.281,0.069,0.353
	c0-0.562,0.562-0.562,0.562-1.053c0-1.334,0.562-2.949,0.562-4.004c0-2.246,0-4.072,0.632-6.248v-0.562
	c0-1.686,0.632-3.301,0.632-5.197c0-1.685,0-3.37,0.492-5.056c0-1.193,0-2.879,0.562-4.003c0.562-1.123,1.686-1.686,2.809-2.247
	c1.194,0,2.879,1.124,2.879,2.247c0.562,0.492,0.562,1.124,0.562,1.756c-0.562,1.615-0.07,3.37-1.194,4.494v1.124
	c0.632,1.193-0.562,2.95,0,4.002c-0.491,1.193-0.491,2.246-0.491,3.441c0,0.489,0,1.684-0.562,2.176
	c0,1.896-0.634,4.071-0.634,5.758c0,1.055,0,2.318-0.562,4.004v1.684c0,0.634,0,1.125-0.562,1.687c0.562,1.686,0,3.371-0.562,5.127
	c0,1.123,0,2.809-0.562,4.494v1.826c0,1.614-0.562,2.737-0.562,4.494c0.562,0.561,0,1.122-0.562,1.686
	c-0.562,0-1.686,0.561-2.879,1.123c-1.686,0-3.44-1.687-3.44-3.371c0-0.562,0.562-0.562,0-1.193c-0.562-1.123,0-2.668-0.562-4.002
	c-0.491-2.248-0.491-3.934-0.491-6.25c0-0.562-0.632-1.686-1.193-2.737v-1.757v-1.686c-0.562-0.562-0.562-1.123-0.562-1.756
	c0-1.053-0.491-2.316-0.491-3.371c0-0.631,0-1.193-0.632-1.686c0-0.562-0.562-0.562-0.562,0c-0.491,0.491-0.491,1.055-0.491,1.686
	c0,1.756-0.632,2.809-0.632,4.004c0,1.684-0.562,2.809-0.562,3.932c0,0.634,0,1.123-0.562,1.687v0.631
	c0,1.615-0.491,3.371-0.491,5.057c-0.771,2.248-1.264,4.564-1.264,6.882c0,0.562,0,1.125-0.562,1.125c0,0.561,0,1.686-0.491,1.686
	c-1.192,0-1.614,1.123-2.948,1.123c-0.562-0.562-0.562-0.562-1.055-0.562c-0.632-0.561-0.632-1.122-1.192-1.122
	c-0.562-0.562-0.562-1.123-0.562-1.687c0.562-1.193,0-2.316-0.492-3.441v-0.489c0.492-1.896,0.07-3.513-0.701-4.636
	c0-1.686-0.562-3.44-0.562-5.127v-1.686v-2.246c-0.491-1.756-1.053-3.371-1.053-5.127c0-3.439-1.194-7.443-1.194-10.744
	c0-3.019-0.491-5.266-0.491-7.442c-0.562-1.123-0.562-2.738-0.562-4.072c0-1.054,0-1.615,1.615-2.177
	c2.247-1.124,4.563,0.562,4.563,2.809c0.632,2.317,0.632,4.563,0.632,6.882c0.492,1.686,0.492,3.371,0.492,5.056
	c0,1.193,0,2.246,0.562,3.439v2.318c0,1.686,0.701,3.932,0.701,5.688c0,0.562,0,1.053,0.562,1.053v0.562l0.492-0.562L359.316,58.993
	L359.316,58.993z"/>
<path fill="#FFFFFF" d="M408.686,58.432l-0.07,3.932c-0.07,0.773-0.07,1.193-0.562,1.756c-0.07,0.492-0.07,1.615-0.772,2.668
	c0,0.634,0,1.125-0.491,1.125c0,0.07,0,0.209-0.069,0.279c-0.07,0.211-0.281,0.281-0.562,0.281
	c-0.562,1.896-1.826,2.809-3.512,3.301c-0.632,0.562-1.123,0.562-1.123,1.053c-0.562,0-1.194,0.562-1.687-0.069l-2.316-0.07
	c-2.317-0.07-3.934-0.701-4.985-1.754c-3.862-3.021-4.846-7.515-4.214-23.596c-0.632-0.562,0-1.193,0-1.687
	c0-0.771,0.492-1.754,0-2.878c0-1.123,0.492-2.247,1.054-3.3c1.123-1.896,2.317-3.512,4.003-4.635
	c0.491-1.194,1.614-1.615,3.37-1.124c0.491,0,1.054-0.491,2.247-0.491c1.124,0,2.247,0,3.301,1.123
	c2.317,1.124,4.002,2.81,5.126,4.494v0.633c0.633,2.177,1.687,3.932,1.123,6.178c0,1.125,0.562,2.248,0,3.934
	c0.632,0.632-0.632,2.177,0,3.371c-0.21,0.42,0.281,1.193,0.211,4.984c0.07,0,0.142,0,0.211,0.07
	C409.037,58.079,408.896,58.221,408.686,58.432z M406.579,80.059c0.562,0.562,0.562,1.125,0,1.686c0,0.07,0,0.211-0.07,0.353
	c-0.069,0.281-0.28,0.562-0.49,0.772c-0.562,0.631-1.194,1.123-2.317,1.123c-1.124-0.492-1.615,0-4.214,0
	c-0.632-0.492-1.193-0.492-2.316,0h-4.493c-1.124-0.492-1.757-0.492-2.317-1.686c0-1.123-1.194-2.248,0-3.441
	c0.562-0.561,1.193-0.561,1.755-1.123c1.687-0.562,3.441,0,5.618,0l2.177-0.141c0.702,0.07,1.476,0.141,2.177,0.141h1.055
	c1.685-0.562,2.315,0,2.879,1.123c0.28,0.281,0.421,0.633,0.491,0.844C406.579,79.85,406.579,79.99,406.579,80.059z M402.998,61.522
	c-0.492-0.844-0.141-2.037-0.281-3.021c-0.211-0.352-0.421-0.772-0.421-1.122c0.633-2.179,0-4.847,0-7.306V48.95
	c0.633-1.053,0-2.176,0.633-3.301v-0.702c-0.633-0.491-0.633-1.053-0.633-1.545c-0.491-1.755-1.054-2.879-2.177-2.879h-0.492
	c-1.896,0-2.879,0-3.511,1.124c-1.615,1.123-2.247,2.809-2.247,4.494c0.632,1.192,0,2.317,0,6.32l0.281,5.266
	c0,0.352,0,0.633,0,0.984c0,0-0.07,0-0.142,0v0.911c0.562,0.562,0.562,1.123,0.562,1.615c-0.07,1.896,2.106,4.705,4.354,4.846
	c0.633,0,1.124,0,1.124-0.633c1.193-1.053,1.756-2.104,2.949-3.301V61.522L402.998,61.522z"/>
<path fill="#FFFFFF" d="M435.091,58.432l-0.069,3.932c-0.07,0.773-0.07,1.193-0.562,1.756c-0.069,0.492-0.069,1.615-0.771,2.668
	c0,0.634,0,1.125-0.491,1.125c0,0.07,0,0.209-0.07,0.279c-0.069,0.211-0.28,0.281-0.562,0.281c-0.562,1.896-1.825,2.809-3.511,3.301
	c-0.633,0.562-1.123,0.562-1.123,1.053c-0.562,0-1.194,0.562-1.687-0.069l-2.316-0.07c-2.317-0.07-3.934-0.701-4.985-1.754
	c-3.862-3.021-4.846-7.515-4.214-23.596c-0.632-0.562,0-1.193,0-1.687c0-0.771,0.492-1.754,0-2.878c0-1.123,0.492-2.247,1.054-3.3
	c1.123-1.896,2.317-3.512,4.003-4.635c0.491-1.194,1.614-1.615,3.37-1.124c0.491,0,1.054-0.491,2.247-0.491
	c1.124,0,2.247,0,3.301,1.123c2.317,1.124,4.002,2.81,5.126,4.494v0.633c0.632,2.177,1.687,3.932,1.123,6.178
	c0,1.125,0.562,2.248,0,3.934c0.632,0.632-0.632,2.177,0,3.371c-0.21,0.42,0.281,1.193,0.211,4.984c0.07,0,0.142,0,0.211,0.07
	C435.444,58.079,435.302,58.221,435.091,58.432z M432.984,80.059c0.562,0.562,0.562,1.125,0,1.686c0,0.07,0,0.211-0.07,0.353
	c-0.069,0.281-0.281,0.562-0.491,0.772c-0.562,0.631-1.193,1.123-2.316,1.123c-1.124-0.492-1.615,0-4.214,0
	c-0.632-0.492-1.193-0.492-2.317,0h-4.494c-1.123-0.492-1.755-0.492-2.315-1.686c0-1.123-1.194-2.248,0-3.441
	c0.562-0.561,1.192-0.561,1.755-1.123c1.686-0.562,3.44,0,5.618,0l2.177-0.141c0.702,0.07,1.475,0.141,2.177,0.141h1.054
	c1.686-0.562,2.316,0,2.88,1.123c0.279,0.281,0.421,0.633,0.49,0.844C432.984,79.85,432.984,79.99,432.984,80.059z M429.403,61.522
	c-0.492-0.844-0.141-2.037-0.281-3.021c-0.211-0.352-0.421-0.772-0.421-1.122c0.632-2.179,0-4.847,0-7.306V48.95
	c0.632-1.053,0-2.176,0.632-3.301v-0.702c-0.632-0.491-0.632-1.053-0.632-1.545c-0.492-1.755-1.054-2.879-2.177-2.879h-0.492
	c-1.896,0-2.879,0-3.511,1.124c-1.615,1.123-2.247,2.809-2.247,4.494c0.632,1.192,0,2.317,0,6.32l0.281,5.266
	c0,0.352,0,0.633,0,0.984c0,0-0.07,0-0.142,0v0.911c0.562,0.562,0.562,1.123,0.562,1.615c-0.07,1.896,2.105,4.705,4.354,4.846
	c0.632,0,1.124,0,1.124-0.633c1.193-1.053,1.755-2.104,2.949-3.301V61.522L429.403,61.522z"/>
<path fill="#FFFFFF" d="M447.241,33.081c2.317,0,4.635,0.562,6.952,1.124h0.491c1.686,1.123,4.003,2.388,4.563,5.126
	c1.687,2.81,1.687,5.617,1.687,8.497c0,0.562-0.562,1.054,0,2.179v5.194v2.248v1.193v3.371v2.246c0,0.562,0,1.756-0.562,2.248
	c0,0.631,0.562,1.754,0.562,2.315c0,2.81-0.562,5.127-1.124,7.937c0,1.123-1.193,2.809-1.686,3.932
	c-0.633,0.633-1.756,1.756-2.81,1.756h-0.632c-1.755,1.756-4.002,1.123-6.319,1.687c-1.124,0-2.247-0.492-3.933,0
	c-0.491,0-1.687-0.492-2.81-1.123l-0.632-0.562c0.632-1.123,0-1.756,0-2.879v-2.179v-6.32c-0.492-2.246,0-4.562,0-6.248
	c0-0.562-0.07-0.983-0.141-1.266c-0.07-0.351-0.07-1.053,0-2.246c0.069-1.193,0.141-2.107,0.141-2.668v-1.193
	c-0.492-1.615,0-3.371,0-5.688v-0.562v-1.686c-0.492-1.123-0.492-1.687,0-2.81v-8.005c0-1.054-0.492-2.177,0.632-3.301v-0.632
	c0-0.562,0-0.562,0.562-1.124c0.562,0,1.756-0.562,2.247-0.562L447.241,33.081L447.241,33.081z M447.241,74.512
	c0,1.123,1.124,2.248,1.756,2.879h0.562c0.562-0.631,0.562,0,1.124-0.631c1.192,0,2.315-0.492,2.879-1.125
	c0.632-1.123,1.123-2.246,1.123-3.439c0-1.756-0.491-3.934,0-5.688v-0.492c-0.562-1.756,0.562-3.371,0-4.564v-2.809V51.76v-2.879
	v-0.49v-2.318c0-0.492,0-1.685-0.491-2.247c-0.632-2.879-2.388-4.003-5.196-3.371c-1.124,0-2.247,1.124-2.247,2.811
	c0.562,2.457,0.352,6.531,0.491,7.373c-0.491,0.562,0,1.123,0,1.686v2.316v3.44c-0.491,2.179,0,5.127-0.491,7.304v0.633
	c0.491,0.492,0.491,1.123,0.491,2.246c-0.491,1.055,0,2.178-0.491,3.371C447.241,72.756,446.75,73.389,447.241,74.512z"/>
<path fill="#FFFFFF" d="M186.54,138.15v-1.687c0-2.809-2.949-3.934-5.267-3.37c-1.686,0.562-2.738,2.176-2.738,4.424
	c0.491,1.123,0.491,2.315,0,2.949v0.491c0.491,2.316,0.491,4.072,0,6.39c0.491,1.125,0,2.248,0,3.371
	c0.491,1.192,0.422,2.317-0.632,3.44c-0.491,1.193-1.124,1.687-2.81,1.687c-1.193,0-2.316-1.123-2.316-2.318
	c-0.632-1.615-0.632-2.809-0.632-3.932c0-0.562,0.632-1.123,1.123-1.123c-1.123-0.634-1.123-1.756-1.123-2.248
	c0-1.896,0-3.371,0.632-5.267v-8.987c-0.632-2.318,0-4.074,0-6.392v-1.192v-3.371v-2.81c-0.632-1.755,0-4.072,0-5.758v-2.738
	c-0.632-1.124-0.632-1.756,0-2.88c1.123-2.315,2.316-2.315,4.635-1.685c0.491,0.491,1.123,1.123,1.123,1.685
	c0,1.124,0.491,1.756,0,2.88v0.562c0.491,1.686,0,3.862,0,6.18c0.491,1.755-0.07,3.441,0.422,5.197c0,0.07,0,0.209-0.07,0.279
	c-0.069,0.211-0.211,0.28-0.352,0.28c0,1.123-0.07,1.687,0.422,2.179c0.632,2.315,1.825,2.315,4.144,2.315h0.49
	c0.633,0,1.756,0,2.317-1.123c0-0.492,0.632-1.686,0.632-2.248v-10.884c0-1.615-0.632-3.371,0-4.985
	c0-0.633,0.492-0.633,0.492-1.193c0-0.632,0.632-0.632,1.123-0.632c0.632,0,1.193-0.491,1.826-0.491
	c1.123,0,2.247,0.491,2.247,1.685c0.49,1.124,0.49,1.756,0.49,2.247v6.882v12.57c0,1.615,0,3.441-0.49,5.127
	c0,1.123,0.49,1.613,0.49,2.81v6.811c0,2.318,0,4.564-0.49,6.812c0,1.123,0.49,1.824,0.49,2.949c0,1.123-0.49,2.316-1.614,2.316
	c-1.193,0.492-2.317,0.492-3.44,0c-1.124-0.631-1.124-1.826-1.124-2.949v-1.686v-1.123v-6.813c0-1.192,0-2.315,0.492-3.51
	C186.54,139.273,186.54,138.64,186.54,138.15z"/>
<path fill="#FFFFFF" d="M219.475,130.144l-0.069,3.932c-0.07,0.773-0.07,1.193-0.562,1.756c-0.069,0.492-0.069,1.615-0.771,2.668
	c0,0.634,0,1.125-0.491,1.125c0,0.07,0,0.209-0.07,0.279c-0.069,0.211-0.28,0.281-0.562,0.281c-0.562,1.896-1.826,2.809-3.513,3.301
	c-0.632,0.562-1.122,0.562-1.122,1.053c-0.562,0-1.194,0.562-1.687-0.069l-2.316-0.07c-2.317-0.07-3.934-0.701-4.985-1.754
	c-3.862-3.021-4.846-7.515-4.214-23.596c-0.632-0.562,0-1.193,0-1.687c0-0.771,0.492-1.754,0-2.878c0-1.123,0.492-2.247,1.054-3.3
	c1.123-1.896,2.317-3.512,4.003-4.635c0.491-1.194,1.614-1.615,3.37-1.124c0.491,0,1.054-0.491,2.247-0.491
	c1.124,0,2.247,0,3.301,1.123c2.317,1.124,4.002,2.81,5.126,4.494v0.633c0.632,2.177,1.687,3.932,1.123,6.178
	c0,1.125,0.562,2.248,0,3.934c0.632,0.632-0.632,2.177,0,3.371c-0.21,0.42,0.281,1.193,0.211,4.984c0.07,0,0.142,0,0.211,0.07
	C219.828,129.791,219.687,129.933,219.475,130.144z M217.37,151.771c0.562,0.562,0.562,1.125,0,1.686c0,0.07,0,0.211-0.07,0.353
	c-0.069,0.281-0.281,0.562-0.491,0.772c-0.562,0.631-1.193,1.123-2.316,1.123c-1.124-0.492-1.615,0-4.214,0
	c-0.633-0.492-1.193-0.492-2.316,0h-4.494c-1.124-0.492-1.756-0.492-2.316-1.686c0-1.123-1.194-2.248,0-3.441
	c0.562-0.561,1.192-0.561,1.755-1.123c1.686-0.562,3.44,0,5.618,0l2.177-0.141c0.702,0.07,1.475,0.141,2.177,0.141h1.054
	c1.686-0.562,2.316,0,2.88,1.123c0.279,0.281,0.421,0.633,0.49,0.844C217.37,151.562,217.37,151.702,217.37,151.771z
	 M213.789,133.234c-0.492-0.844-0.141-2.037-0.281-3.021c-0.211-0.352-0.421-0.772-0.421-1.122c0.632-2.179,0-4.847,0-7.306v-1.123
	c0.632-1.053,0-2.176,0.632-3.301v-0.702c-0.632-0.491-0.632-1.053-0.632-1.545c-0.492-1.755-1.054-2.879-2.177-2.879h-0.492
	c-1.896,0-2.879,0-3.511,1.124c-1.615,1.123-2.247,2.809-2.247,4.494c0.632,1.192,0,2.317,0,6.32l0.281,5.266
	c0,0.352,0,0.633,0,0.984c0,0-0.07,0-0.142,0v0.911c0.562,0.562,0.562,1.123,0.562,1.615c-0.07,1.896,2.105,4.705,4.354,4.846
	c0.632,0,1.124,0,1.124-0.633c1.193-1.053,1.755-2.104,2.949-3.301V133.234z"/>
<path fill="#FFFFFF" d="M245.811,113.15v1.756v3.582c-0.562,0.49-0.562,1.687,0,2.809v4.214v4.002v5.338v1.826
	c0,3.438,0,7.582-0.562,10.393v1.264c-2.458,2.879-3.439,5.759-7.021,6.32c-2.317,1.334-4.704,1.264-7.021-0.492
	c-0.632-0.562-1.194-1.192-1.826-1.192c-2.316-1.757-2.737-4.074-3.511-6.392c-0.281-0.912-0.422-2.879-0.422-5.828
	c0-5.969-0.14-8.918-0.14-9.41c0-0.911,0-1.825,0.068-2.668l0.211-3.932c0.07-1.756,0-3.09-0.28-3.934v-0.632
	c0.562-2.318,0-4.004,0-6.532c0-0.21,0.069-0.352,0.28-0.421c0.07-0.07,0.211-0.07,0.281-0.07c-0.562-1.193,0-3.511,0-5.267
	c0-2.317,1.123-2.88,3.02-2.88h1.123c1.194,0.562,1.687,0.983,1.687,2.317v3.511v3.23v3.161c0.632,2.457,0,4.002,0,5.897
	c0,2.457,0.632,4.703,0,7.021v1.192c0.632,1.757,0,4.072,0,6.392v5.266c0,1.334,0.422,2.107,1.192,4.074
	c0.634,0,1.687,0.631,3.021,1.264h0.562c0.491-0.633,1.123-1.264,1.756-1.264c0.069,0,0.211,0,0.28-0.07
	c0.211-0.069,0.281-0.211,0.281-0.422c0.632-1.896,0.632-4.143,0.632-5.897v-1.193v-24.015v-1.826v-5.758
	c0-2.317,2.317-3.651,4.072-2.88c0.562,0.562,0.983,0.562,1.756,1.054l0.281,0.422c0.21,0.281,0.28,0.562,0.28,0.843v4.002
	L245.811,113.15L245.811,113.15z"/>
<path fill="#FFFFFF" d="M259.436,120.873c0.562,1.123,1.193,1.756,1.756,2.81c0.49,0.633,1.123,1.756,1.686,2.389
	c1.755,1.053,2.247,2.246,3.44,4.002c1.192,0.633,1.756,1.687,2.879,2.316c1.193,2.248,1.756,4.004,2.316,6.25
	c1.193,3.02,0.633,5.828,0.633,8.076c0,3.02-1.193,5.266-2.949,7.021c-1.123,1.053-2.879,1.053-4.072,1.686h-1.686
	c-0.562,0.562-1.124,0.562-1.756,0h-1.054h-1.193c-0.562-0.633-0.562-0.633-1.193-0.633h-1.054
	c-1.755-1.053-2.949-2.387-3.581-4.002c-0.491-1.123-1.687-2.315-1.055-4.071c-0.632-0.562-0.632-1.054-0.632-1.687
	c0-0.562-0.562-1.756,0-2.316c0.632,0,0.632,0,0.632-0.491c0-1.193,1.055-1.193,1.687-1.756c1.124,0,2.317,0,2.949,0.562
	c0.211,0.211,0.352,0.49,0.422,0.842c0.069,0.142,0.069,0.281,0.069,0.353c0,1.686,1.193,3.44,1.193,5.125v0.562
	c1.123,0.562,2.317,1.756,3.44,1.193h1.124l1.686-1.756c0.632-0.631,1.193-1.193,1.193-2.879c-0.562-2.88-1.193-5.828-2.879-8.074
	c-1.124-1.615-2.879-2.248-3.441-4.004c-1.123,0-1.755-1.193-1.755-1.685c-1.054-0.633-1.054-1.194-1.687-2.389
	c-1.756-1.193-2.316-2.879-3.439-4.635c-0.562-1.054-0.562-2.81-0.562-4.002c0-1.123,0-2.318-0.632-4.073v-0.562
	c0.632-1.123,0.632-2.879,1.194-3.932c0-1.756,1.123-2.949,2.247-4.144c1.896-1.686,4.072-2.247,6.318-2.247h1.757
	c0,0.562,0,0.562,0.632,0.562c1.686-0.562,3.439,0,4.635,1.193c1.686,1.686,2.809,3.439,2.809,5.688
	c0.633,0.632,0.633,1.756,0.633,2.389v1.686c0,0.562-0.633,1.123-1.193,1.755c-1.194,0.562-2.247,0-3.441,0
	c-0.279,0-0.49-0.069-0.562-0.281c-0.07-0.069-0.07-0.211-0.07-0.352c-0.562-1.123-1.123-1.754-0.562-2.808v-0.629
	c-0.562-0.562-1.193-1.757-2.247-2.317c0-0.141-0.142-0.281-0.353-0.421c-0.068-0.07-0.21-0.07-0.279-0.07
	c-1.124,0-1.757,0-1.757-1.194c-0.069,0-0.141,0-0.211,0.07c-0.068,0.07,0,0.281,0.211,0.492c0,0.632,0,0.632-0.49,1.123
	c-2.317,1.193-2.949,2.949-2.317,4.635v0.562c0,0.211-0.141,0.422-0.352,0.49c-0.07,0.07-0.21,0.07-0.28,0.07
	C258.243,118.558,258.875,119.681,259.436,120.873z"/>
<path fill="#FFFFFF" d="M287.035,104.793h6.25c2.458,0,3.511,1.194,3.511,2.81c0,2.458-1.123,3.512-2.738,3.512
	c-2.457,0.562-4.072,0.562-5.827,0c-1.194,0-1.757,0.562-2.317,1.193c-1.194,0.562-1.686,1.054-1.686,2.247v8.638
	c0,1.754,1.686,3.439,3.369,3.439c1.194,0,2.389,0,3.441-0.632c1.193,0,2.247,1.193,3.02,1.193c0.212,0,0.352,0.07,0.422,0.281
	c0.069,0.069,0.069,0.211,0.069,0.28c0.562,1.193,1.124,2.88,0,3.933c-0.491,1.192-1.264,1.756-1.755,1.756h-5.197
	c-1.123,0-2.879,0.561-2.879,1.756c-0.49,1.754-0.49,2.81-0.49,4.494v3.51c0,1.123,0,2.318,0.49,3.513
	c0.562,1.614,2.879,2.387,4.636,1.614c1.686,0,3.44-0.069,5.195,0.701c1.194,0,1.756,0.492,1.756,1.545
	c0.491,0.773,0.491,1.687,0.491,2.459c0,1.053-1.123,2.246-2.247,2.246c-4.563,0.562-9.269,0.562-13.271,0.562
	c-2.247,0-3.371-1.193-3.371-3.513v-6.809v-1.756c0.562-1.054,0-2.179,0-4.072v-5.057c0.562-1.193,0-2.388,0.562-3.513
	c-0.562-1.614-0.562-2.598-0.562-4.493v-1.687v-0.561c0.562-2.88,0-5.269,0-7.515v-7.442c0.562-0.562,0.562-1.826,0.562-2.389
	c0-1.686,1.193-2.247,2.247-2.247L287.035,104.793L287.035,104.793z"/>
<path fill="#FFFFFF" d="M305.154,113.781c0.422-1.053,0.422-0.843,1.124-2.036c0.28-0.562,0.771-1.193,1.192-1.896
	c0.491-0.562,0.844-1.265,1.265-1.896c0.562-0.562,1.054-1.124,1.615-1.615c0.632-0.421,1.265-0.843,1.967-1.122
	c0.631-0.281,1.402-0.423,2.105-0.423c0.771,0,1.475,0.353,2.178,0.492c0.771,0.21,1.475,0.28,2.105,0.632s1.193,0.772,1.826,1.334
	c0.561,0.491,0.98,1.054,1.475,1.687c0.42,0.702,0.982,1.192,1.334,1.825c0.281,0.632,0.281,1.475,0.42,2.247
	c0.143,0.632,0.354,1.334,0.424,2.177c0,0.702-0.07,1.404-0.07,2.387c0,1.264,0,2.248,0,3.09c-0.211,2.318,0,1.545-0.422,3.021
	c-0.352,0.983-0.982,2.528-1.477,3.44c-0.701,1.265-0.561,1.334-1.191,2.599c-0.703,1.264-0.562,1.334-1.193,2.528
	c-0.562,0.912-1.475,2.035-1.756,2.668c-0.141,0.351-0.211,1.265-0.352,2.177c-0.07,0.844,0,0.491,0,0.983
	c0,0.912-0.211,0.912-0.211,1.824c0,0.984-0.633,2.949-1.615,2.949c-1.545,0-1.545,0.141-3.09,0.141
	c-0.913,0-1.756-2.246-1.756-3.229c0-1.404,0.142,0,0.142-1.334c0-1.054,0-2.738,0.211-3.791c0.211-1.054,0.211-1.123,0.491-2.107
	c0.422-0.981,1.194-2.457,1.686-3.369c0.562-0.983,0.631-0.983,1.193-1.967c0.561-1.053,0.561-1.053,1.123-2.107
	c0.492-0.842,1.264-2.104,1.475-2.879c0.07-0.352,0.07-1.334,0.07-2.315c0.07-0.914,0.844-1.756,0.844-2.248
	c0-1.124-0.771-2.878-1.125-3.792c-0.631-1.615-0.912-1.896-2.738-1.896c-1.545,0-1.756,0.421-2.527,1.967
	c-0.491,0.912-0.702,2.598-0.702,3.721c0,0.141-0.142,0.141-0.142,0.281c0,0.981-0.702,1.756-1.685,1.756c-1.545,0-1.545,0-3.09,0
	c-0.983,0-1.756-0.773-1.756-1.756c0-0.211-0.142-0.211-0.142-0.353C304.381,116.45,304.803,114.766,305.154,113.781z
	 M312.81,148.191c1.545,0,0.631,0.211,2.176,0.211c0.982,0,2.6,0.771,2.6,1.826c0,1.684,0,0.701,0,2.387
	c0,0.982-0.703,3.021-1.686,3.021c-1.545,0-0.703-0.07-2.248-0.07c-0.912,0-2.599-0.982-2.599-1.967
	c-0.069-1.687-0.069-0.49-0.069-2.177C310.982,150.366,311.895,148.191,312.81,148.191z"/>
</svg>
