<?xml version="1.0" encoding="utf-8"?>
<!-- Generator: Adobe Illustrator 16.0.0, SVG Export Plug-In . SVG Version: 6.00 Build 0)  -->
<!DOCTYPE svg PUBLIC "-//W3C//DTD SVG 1.1//EN" "http://www.w3.org/Graphics/SVG/1.1/DTD/svg11.dtd">
<svg version="1.1" id="Layer_1" xmlns="http://www.w3.org/2000/svg" xmlns:xlink="http://www.w3.org/1999/xlink" x="0px" y="0px"
	 width="48.049px" height="36.039px" viewBox="0 0 48.049 36.039" enable-background="new 0 0 48.049 36.039" xml:space="preserve">
<path fill="#CACACA" d="M0,30.784V5.257c0.037-0.101,0.069-0.201,0.094-0.306C0.586,2.125,3.049,0.01,5.923,0.006
	c12.065-0.009,24.133-0.009,36.203,0c2.734,0,5.104,1.923,5.749,4.581c0.051,0.225,0.119,0.448,0.174,0.67v25.527
	c-0.035,0.068-0.062,0.139-0.081,0.209c-0.446,2.492-2.181,4.412-4.642,4.875c-1.151,0.217-2.364,0.164-3.545,0.164
	c-11.239,0.01-22.477,0.01-33.717,0c-2.764,0-5.084-1.748-5.834-4.357C0.145,31.388,0.074,31.085,0,30.784z M16.349,17.583
	c-0.749,0.743-1.463,1.442-2.158,2.149l-7.647,7.627c-0.461,0.457-0.674,0.977-0.48,1.609c0.346,1.148,1.688,1.422,2.593,0.527
	c3.175-3.164,6.349-6.338,9.519-9.52c0.115-0.139,0.224-0.285,0.316-0.438c0.265,0.238,0.437,0.391,0.607,0.545l3.823,3.473
	c0.728,0.656,1.484,0.648,2.215-0.008c1.32-1.199,2.642-2.396,3.965-3.598c0.117-0.113,0.252-0.223,0.401-0.359
	c1.193,1.197,2.362,2.373,3.531,3.541l6.368,6.369c0.429,0.432,0.924,0.633,1.526,0.477c1.169-0.318,1.502-1.676,0.62-2.568
	c-2.13-2.141-4.264-4.277-6.402-6.404c-1.138-1.135-2.284-2.27-3.44-3.427c0.151-0.143,0.274-0.262,0.399-0.376l4.65-4.225
	l4.754-4.322c0.46-0.417,0.642-0.927,0.49-1.521c-0.118-0.538-0.534-0.958-1.071-1.081c-0.598-0.162-1.085,0.059-1.534,0.466
	c-4.991,4.549-9.989,9.093-14.995,13.633c-0.12,0.109-0.248,0.219-0.383,0.336l-7.152-6.503c-2.752-2.492-5.506-4.994-8.265-7.495
	c-0.432-0.395-0.919-0.586-1.5-0.422C6.567,6.195,6.155,6.614,6.038,7.148c-0.145,0.6,0.049,1.103,0.505,1.519
	c1.97,1.784,3.938,3.573,5.902,5.361L16.349,17.583z"/>
</svg>
