<svg xmlns="http://www.w3.org/2000/svg" version="1.1" x="0" y="0" width="62.9" height="104.9" viewBox="0 0 62.9 104.9" enable-background="new 0 0 62.931 104.885" xml:space="preserve"><path d="M31.5 0C14.1 0 0 14.1 0 31.6c0 5.2 1.3 9.9 3.5 14.2 6.6 16.9 25.4 37.7 25.4 58.7 0.8 0 4.5 0 5.2 0 0-21 18.7-41.8 25.4-58.7 2.2-4.3 3.5-9.1 3.5-14.3C62.9 14 48.8 0 31.5 0zM53.1 19.3c0.3 0.4 0.5 0.8 0.7 1.3 -0.2 0.1-0.4 0.3-0.6 0.4 -0.2 0.1-0.5 0.2-0.7 0.4 0 0-0.1 0.1-0.1 0.1 -0.5 0-1 0.2-1.5 0.2 0 0 0 0-0.1 0C51.6 20.9 52.5 20.3 53.1 19.3zM48.3 27.2c0.2-0.2 0.4-0.4 0.6-0.7 0.3-0.3 0.6-0.5 1-0.7 0.5-0.3 0.8-0.6 1.1-1 0.3-0.4 0.8-0.7 1.2-1 0.1-0.1 0.3-0.2 0.5-0.2 -0.2 0.5-0.4 1-0.7 1.3 -0.2 0.2-0.3 0.5-0.4 0.8 -0.1 0.3-0.3 0.5-0.5 0.7 -0.1 0.1-0.3 0.2-0.4 0.3 -0.3 0.2-0.5 0.3-0.9 0.4 -0.6 0.1-1.2 0.4-1.7 0.7 -0.1 0.1-0.3 0.1-0.4 0.2C47.8 27.8 48.1 27.5 48.3 27.2zM46.9 25.1c0-0.1 0.1-0.1 0.1-0.1 0.5-0.3 0.9-0.6 1.3-1.1 0.2-0.3 0.5-0.5 0.8-0.7 0.1-0.1 0.3-0.2 0.5-0.2 0.5 0 0.8-0.2 1.3-0.3 0.1 0 0.3-0.1 0.5-0.1 -0.4 0.4-0.7 0.7-1.1 1 -0.2 0.1-0.4 0-0.6 0.2 0 0 0 0-0.1 0 -0.5 0.5-1.1 0.5-1.6 1 0 0-0.1 0-0.1 0C47.7 24.9 47.3 25 46.9 25.1zM14.2 48.8c-0.1 0-0.2-0.2-0.3-0.2 -2.8-2.9-4.9-6.2-6.1-10.1 -0.5-1.7-0.9-3.5-1-5.3 -0.4-5.9 1-11.3 4.4-16.2 3.8-5.3 8.9-8.7 15.3-10 2-0.4 4.1-0.6 6.1-0.4 5.4 0.3 10.2 2.1 14.4 5.6 1.7 1.4 3.1 2.9 4.4 4.7 0.1 0.2 0.1 0.3 0 0.4 -0.4 0.7-1.1 1.1-1.6 1.6 -0.5 0.4-1 0.9-1.3 1.4 -0.1 0.1-0.2 0.2-0.3 0.3 -0.7 0.5-1.3 1.1-1.9 1.7 -0.1 0.1-0.1 0.2-0.2 0.2 -0.2 0-0.2-0.1-0.2-0.2 -0.4-0.7-0.8-1.3-1.3-1.9 -0.3-0.3-0.4-0.6-0.3-1 0.2-1 0.2-2.1-0.4-3 -0.5-0.8-1.3-1.2-2.2-1.4 -0.5-0.1-0.9-0.1-1.4-0.1 -0.6-0.1-1.1-0.4-1.6-0.6 -1.5-0.6-2.9-1.1-4.5-1.4 -1.4-0.3-2.9-0.5-4.4-0.5 -2 0-4.1 0-6 0.6 -0.8 0.2-1.6 0.5-2.4 1 -0.2 0.1-0.4 0.3-0.4 0.6 0 0.2-0.1 0.5 0 0.7 0 0.1-0.1 0.2-0.2 0.3 -0.9 0.7-0.8 0.9-0.8 1.6 0 0.4 0.1 0.8 0 1.2 0 0.4 0.1 0.8-0.2 1.2 -1.1 1.7-2 3.5-2.7 5.5 -0.3 0.6-0.4 1.3-0.5 2 0 0.1-0.1 0.3 0 0.5 0.1 0.2 0.2 0.3 0.5 0.3 0.4-0.1 0.8-0.2 1.2-0.4 0.5-0.2 1-0.3 1.5-0.5 0.7-0.2 1.2-0.5 1.6-1.2 0.2-0.3 0.5-0.6 0.8-0.9 0.3-0.3 0.6-0.2 0.7 0.1 0.3 0.9 0.3 1.9 0 2.8 -0.1 0.4-0.4 0.7-0.8 0.9 -1.5 0.9-2.8 1.8-4.2 2.8 -0.8 0.6-1.5 1.4-2.1 2.2 -0.7 1-1.4 2-1.8 3.1 -0.5 1.3-0.7 2.7-0.7 4.1 0.1 1.4 0.5 2.7 0.9 4 0.1 0.2 0.1 0.4 0.2 0.6 0.1 0.3 0.1 0.5 0 0.7 -0.4 0.6-0.3 1.2-0.1 1.7 0.1 0.2 0.1 0.3 0.2 0.5C14.5 48.5 14.4 48.6 14.2 48.8zM29.7 40.6c0-0.1 0.1-0.1 0.1-0.1 0.5-0.4 1.1-0.6 1.6-0.9 -0.3 0.7-0.6 1.4-1.4 1.7 -0.8 0.3-1.4 1-1.9 1.7 -0.2 0.3-0.4 0.6-0.7 0.8 -0.4 0.3-0.7 0.6-1 1 -0.2 0.2-0.4 0.3-0.6 0.5 -0.2 0.1-0.4 0.2-0.7 0.2 -0.4-0.1-0.8 0.1-1.2 0.1 -0.1 0-0.2 0-0.3 0 0.2-0.2 0.4-0.3 0.6-0.5 0.5-0.4 1-0.9 1.5-1.2 0.2-0.1 0.4-0.3 0.5-0.5 0.3-0.5 0.8-0.7 1.3-1 0.3-0.2 0.6-0.4 0.8-0.5 0.1-0.1 0.3-0.2 0.3-0.4 0 0 0.1-0.1 0.1-0.1 0.2-0.2 0.4-0.3 0.6-0.5C29.7 40.8 29.8 40.7 29.7 40.6zM26.4 33.9c-0.6 0.6-0.7 1.3-0.5 2 0.1 0.3 0 0.5-0.2 0.8 -0.2 0.3-0.4 0.6-0.6 0.9 -0.2 0.4-0.2 0.8-0.1 1.2 0.2 0.8 0.4 1.6 0.8 2.4 -0.3 0.3-0.7 0.6-1 0.8 -0.1 0-0.1 0.1-0.2 0.1 -0.2 0.2-0.2 0.3-0.5 0 -0.4-0.5-0.8-1-1.1-1.6 -0.4-0.8-0.8-1.6-1-2.5 -0.3-1-0.4-2.1-0.2-3.2 0-0.1 0.1-0.2 0.1-0.3 0.7-1.2 1.5-2.2 2.8-2.9 0.4-0.2 0.8-0.4 1.2-0.7 0.3-0.2 0.7-0.2 1-0.2 0.6 0 1.2-0.1 1.7-0.3 1-0.6 2-1.3 2.5-2.4 0.1-0.2 0.2-0.5 0.3-0.8 0.1-0.2 0.2-0.3 0.4-0.3 0.1 0.2 0.1 0.5 0.1 0.7 -0.1 0.8-0.3 1.6-0.8 2.3 0 0.1-0.1 0.2 0 0.3 0.2 0 0.4 0 0.6-0.1 0.8-0.3 1.1-1 1.4-1.7 0.4-1.1 0.4-2.3-0.1-3.4 -0.2-0.5-0.5-0.9-0.8-1.3 0.2-0.1 0.4 0 0.5 0.1 0.6 0.4 1.1 0.9 1.4 1.5 0.6 0.9 1 2 1.2 3.1 0 0 0 0 0 0.1 0.1 0.2 0 0.5 0.3 0.5 0.2 0 0.4-0.2 0.4-0.4 0.2-0.5 0.2-1 0.2-1.6 -0.2-1.7-1.1-3.1-2.2-4.3 -0.6-0.7-1.3-1.2-2.1-1.7 -0.1 0-0.2-0.1-0.2-0.2 0.1-0.2 0.2-0.2 0.4-0.2 0.3 0.1 0.6 0.2 0.8 0.4 1 0.6 1.9 1.4 2.7 2.3 0.5 0.5 0.9 0.9 1.3 1.5 0.1 0.2 0.2 0.4 0.4 0.5 0.1 0.1 0.2 0.1 0.3 0 0.1-0.1 0.1-0.2 0.1-0.3 0-0.5-0.1-1.1-0.3-1.5 -0.8-1.5-2-2.8-3.4-3.8 -0.6-0.4-1.1-0.9-1.8-1.2 -0.7-0.4-1.4-0.7-2.2-0.8 -0.3-0.1-0.6-0.1-1-0.2 -0.4-0.1-0.6-0.4-0.8-0.7 -0.4-0.7-0.7-1.4-1.2-2.1 1.5-0.1 2.9-0.1 4.4 0.1 -0.1 0.1-0.2 0.1-0.3 0.2 -0.5 0.3-0.8 0.7-1 1.2 -0.1 0.3 0 0.4 0.2 0.4 0.9 0.2 1.7 0.6 2.5 1 0.4 0.2 0.7 0.3 1.1 0 0.4-0.3 0.6-0.7 0.5-1.3 -0.2-0.6-0.5-1.2-1.1-1.5 -0.1-0.1-0.2-0.1-0.1-0.3 0.4 0 0.8 0.1 1.1 0.4 0.1 0.1 0.1 0.1 0.2 0.2 0.2 0.5 0.7 0.6 1.1 0.7 0.6 0.2 1.1 0.4 1.7 0.6 0 0.1-0.1 0.1-0.2 0.2 -0.3 0.2-0.5 0.4-0.7 0.7 -0.2 0.2-0.1 0.4 0 0.6 0.2 0.2 0.4 0.2 0.6 0.1 0.9-0.5 1.8-0.6 2.7-0.2 0.5 0.2 0.7 0.6 0.8 1.1 0.1 0.6-0.2 0.8-0.8 1 -0.6 0.1-1.1 0-1.7-0.1 -0.3-0.1-0.5 0-0.8 0.1 -0.2 0.1-0.2 0.2-0.3 0.3 0 0.2 0.1 0.4 0.3 0.5 1 0.5 1.9 1 2.9 1.4 1.3 0.4 2 1.4 2.6 2.5 0.1 0.2 0.1 0.3 0 0.5 -0.2 0.3-0.4 0.5-0.7 0.8 -0.9 0.8-1.7 1.7-2.6 2.4 -0.5 0.4-0.9 0.8-1.4 1.2 -0.3 0.2-0.6 0.4-1 0.4 -2.1 0.1-4.1 0.5-6.1 1.2 -1.6 0.6-3.2 1.3-4.4 2.6C26.7 33.6 26.5 33.7 26.4 33.9zM19.8 44c-0.2 0-0.3-0.1-0.2-0.4 0.2-0.6 1.2-1 1.7-0.4 0.5 0.5 0.8 1.1 0.6 1.9 0 0.2-0.2 0.5-0.4 0.6 -0.1-0.1-0.1-0.2-0.2-0.3C21.3 44.5 20.7 44 19.8 44zM20 46.2c0 0.4-0.1 0.7-0.2 1.1 0 0.1-0.1 0.2-0.3 0.2 -0.2 0-0.2-0.1-0.2-0.2 -0.1-0.4-0.3-0.6-0.6-0.9 -0.2-0.2-0.4-0.4-0.5-0.6 -0.1-0.3 0-0.7 0.2-1 0.2-0.2 0.6-0.3 0.9-0.1 0.2 0.1 0.2 0.2 0.3 0.4C19.9 45.3 20 45.8 20 46.2zM19.3 25.2c0.3-1 0.7-1.9 1.1-2.8 0.3-0.6 0.6-1.2 0.9-1.7 0.3-0.5 0.7-0.7 1.3-0.6 0.3 0 0.6 0 0.9 0.2 0.1 0 0.1 0 0.1 0.1 0 0.1 0 0.1-0.1 0.2 -1.1 1.4-2.1 2.9-3 4.4 -0.2 0.3-0.4 0.5-0.7 0.6 -0.1 0-0.1 0.1-0.2 0.1 -0.1 0-0.2 0.1-0.3 0.1C19.1 25.6 19.2 25.3 19.3 25.2zM18.3 25.4c-0.1 0.3-0.2 0.7-0.2 1 -0.2 0.1-0.3 0.2-0.6 0.2 0.4-1.5 0.9-2.8 1.8-4.1 0.1 0.2 0 0.2 0 0.3C18.8 23.7 18.5 24.5 18.3 25.4zM16.4 53.4c-0.1 0.1-0.1 0-0.2 0.1 0 0.3-0.1 0.6-0.1 0.9 -0.2-0.1-0.2-0.2-0.3-0.4 0-0.2-0.1-0.4-0.3-0.6 -0.1-0.1-0.2-0.3-0.2-0.5 0-0.1 0-0.1 0.1-0.1 0.2 0 0.4-0.1 0.5 0 0.2 0.1 0.3 0.3 0.5 0.4C16.4 53.2 16.4 53.3 16.4 53.4zM16.2 45.5c-0.3-0.3-0.1-1 0.3-1.4 -0.3-1-0.6-2.1 0.3-3.1 0 0.7 0.1 1.3 0.9 1.6 0.5-0.3 0.9-0.7 1.5-0.6 0.1 0 0.1 0 0.2 0.2 -0.4 0.3-0.9 0.5-1 1 -0.6 0-1 0.3-1.1 0.8 -0.1 0.4-0.3 0.6-0.6 0.8 -0.1 0.1-0.2 0.2-0.3 0.4C16.3 45.4 16.3 45.5 16.2 45.5zM17.2 46.1c0.3-0.2 0.5-0.1 0.7 0.2 0.1 0.3 0 0.6-0.1 0.9 -0.1 0.4-0.2 0.7-0.2 1.1 0 0 0 0 0 0.1 0 0.1 0 0.3-0.1 0.3 -0.2 0.1-0.2-0.1-0.3-0.2 -0.3-0.5-0.5-0.9-0.5-1.4C16.6 46.8 16.8 46.4 17.2 46.1zM17.3 51.1c-0.1-0.1-0.1 0-0.2 0 0.3-0.5 0.7-0.8 1.2-0.9 0 0.2 0 0.3-0.1 0.4 -0.2 0.1-0.3 0.4-0.5 0.5C17.5 51.1 17.4 51.2 17.3 51.1zM22.6 50.9c-0.4 0.2-0.9 0.4-1.3 0.6 -0.5 0.2-1 0.4-1.4 0.6 -0.6 0.3-1.2 0.6-1.8 0.9 -0.2 0.1-0.3 0-0.5-0.1 0.2-0.2 0.4-0.4 0.7-0.6 0.5-0.4 1-0.8 1.5-1.3 0.2-0.2 0.3-0.3 0.6-0.3 0.4-0.1 0.8-0.1 1.2-0.1 0.5 0.1 0.9 0 1.4-0.1C22.8 50.7 22.7 50.8 22.6 50.9zM23.1 49.2c-0.5 0-1.1 0.1-1.6 0.1 0 0-0.1 0-0.1 0 0.2-0.2 0.4-0.3 0.5-0.5 0.5-0.7 1.2-0.9 1.9-1.1 0.6-0.1 1.1-0.4 1.6-0.7 0.2-0.1 0.4-0.1 0.5 0.1 -0.3 0.5-0.5 0.9-1.1 1.1 -0.5 0.1-0.9 0.4-1.2 0.7C23.5 49.1 23.3 49.2 23.1 49.2zM29.1 48.2c-0.3 0.3-0.6 0.7-0.9 1.1 -0.4 0.5-0.9 0.9-1.5 1.2 -0.8 0.4-1.5 0.9-2.4 1.1 0.5-0.5 0.8-1.2 1.6-1.4 0.2 0 0.3-0.2 0.4-0.4 0.4-0.7 1.1-1 1.7-1.5 0.1-0.1 0.2-0.1 0.3-0.1 0.2 0 0.4-0.1 0.5-0.3 0.1-0.1 0.2-0.1 0.3 0C29.2 48 29.2 48.1 29.1 48.2zM28.3 45.4c0 0-0.1 0.1-0.2 0 0.2-0.4 0.3-1 0.7-1.2 0.7-0.4 1.1-1 1.6-1.6 0.4-0.4 0.8-0.8 1.3-1 0.3-0.2 0.6-0.4 0.7-0.7 0.1-0.2 0.2-0.4 0.3-0.6 0.1-0.1 0.1-0.2 0.2-0.2 0.2 0.1 0.4 0.3 0.5 0.5 0.1 0.1 0.1 0.2-0.1 0.3 -0.5 0.1-0.8 0.5-1 0.9 -0.2 0.5-0.5 0.9-0.6 1.5 0 0.1-0.2 0.1-0.3 0.2 -0.8 0.3-1.5 0.7-2.1 1.2C29.1 44.8 28.7 45.1 28.3 45.4zM29.8 46.3c0.1-0.2 0.2-0.4 0.4-0.5 0.2-0.1 0.3-0.2 0.5-0.3 0-0.1-0.1-0.1-0.1-0.2 0.1-0.1 0.2-0.3 0.3-0.3 0.5-0.2 1.1-0.5 1.6-0.6 0.3-0.1 0.6-0.1 0.8 0.1 0 0.1-0.2 0.2-0.3 0.2 -0.5 0.2-1 0.5-1.5 0.6 -0.1 0-0.2 0.2-0.2 0.3 -0.1 0.4-0.4 0.4-0.7 0.5C30.4 46.2 30.1 46.3 29.8 46.3zM38.9 52.2c-0.2 1.1-0.9 1.9-1.9 2.5 -0.7 0.4-1.4 0.6-2.1 0.8 -0.8 0.2-1.6 0.2-2.4 0.3 -0.5 0-0.9-0.2-1.2-0.6 -0.2-0.3-0.2-0.6-0.2-0.9 0-0.2 0.1-0.2 0.2-0.3 0.3-0.2 0.6-0.5 0.9-0.8 0.3-0.3 0.7-0.6 1.1-0.8 0.4-0.2 0.7-0.6 1-0.8 0.7-0.5 1.3-1 2-1.4 0.6-0.4 1.3-0.9 1.7-1.5 0 0 0.1-0.1 0.1-0.1 0.1-0.1 0.2-0.2 0.3-0.2 0.3 0.4 0.4 0.9 0.4 1.4C39.1 50.5 39.1 51.3 38.9 52.2zM33.8 43.1c0.2-0.5 0.4-0.9 0.8-1.2 0.3-0.2 0.8-0.2 1 0.1 0.2 0.2 0.3 0.3 0.5 0.5C35.3 42.9 34.6 43.2 33.8 43.1zM45 40.3c-0.1 0-0.1 0-0.1 0 -1-1-2.1-1.7-3.4-2.3 -0.7-0.3-1.4-0.5-2.1-0.7 -0.1 0-0.3 0-0.4 0 -0.1 0-0.3 0.1-0.3 0.2 -0.1 0.2 0 0.3 0.1 0.4 0.1 0.1 0.2 0.2 0.3 0.2 0.9 0.5 1.8 1.1 2.6 1.7 1.2 0.9 2 2 2.6 3.3 0.1 0.3 0.3 0.6 0.4 0.9 0 0.1 0.1 0.2 0 0.3 -0.2-0.3-0.4-0.5-0.6-0.8 -0.9-1.2-2.1-2.1-3.4-2.7 -0.2-0.1-0.4-0.2-0.6-0.2 -0.1 0-0.2 0-0.3 0.1 -0.1 0.1 0 0.2 0.1 0.3 0.6 0.7 1.1 1.5 1.5 2.3 0.5 1 0.8 2.1 1.1 3.3 0.1 0.6 0.2 1.1 0.2 1.7 0 0 0 0.1 0 0.2 -0.1-0.1-0.2-0.2-0.2-0.3 -0.7-1.8-1.6-3.4-2.7-5 -0.7-1-1.4-2.1-2.3-3 -1.2-1.3-2.5-2.3-4.2-2.9 -0.5-0.2-1-0.2-1.5-0.2 -0.7 0.1-1.3 0.2-1.9 0.4 -0.3 0.1-0.6 0.4-0.8 0.6 -0.3 0.3-0.6 0.6-0.8 1 0 0.1-0.1 0.2-0.3 0.2 -0.1 0-0.2-0.1-0.2-0.2 -0.2-0.8-0.3-1.6 0.3-2.2 0.2-0.2 0.3-0.4 0.5-0.6 0.1-0.1 0.1-0.1 0.1-0.2 0-0.2 0.1-0.4 0.1-0.6 0-0.4 0.2-0.7 0.5-1 1.1-0.8 2.3-1.4 3.6-1.8 2.3-0.7 4.6-0.7 6.9 0.1 1 0.3 1.9 0.7 2.7 1.4 0.6 0.5 1.2 1 1.6 1.6 0.1 0.1 0.2 0.3 0.1 0.4 -0.1 0.1-0.3 0-0.4-0.1 -1.3-0.9-2.6-1.5-4.1-1.9 -0.6-0.2-1.1-0.2-1.7-0.1 -0.2 0-0.3 0.1-0.4 0.3 1.1 0.2 2.1 0.8 3 1.5 1.4 1 2.8 2 4 3.3 0.2 0.3 0.4 0.6 0.6 0.9C45 40.1 45.1 40.2 45 40.3zM45.8 30.1c-0.3 0.5-0.7 0.9-1.1 1.3 -0.4-0.1-0.6-0.4-0.9-0.5 0.7-0.4 1.4-0.7 2-1.2C45.9 29.8 45.9 30 45.8 30.1zM46.1 27.9c-0.8 0.6-1.6 1.4-2.7 1.4 1.1-1.1 2.3-2.2 3.7-2.8C46.8 27 46.6 27.6 46.1 27.9zM49.8 31.1c-0.1 0.2-0.3 0.3-0.5 0.4 -0.6 0.3-1 0.7-1.4 1.1 -0.2 0.2-0.3 0.2-0.6 0.1 -0.1-0.1-0.3-0.2-0.4-0.2 -0.1 0-0.2-0.1-0.2-0.2 0.1-0.1 3-1.3 3.1-1.4C50 30.9 49.9 31 49.8 31.1zM46.8 30.8c0.3-0.6 0.7-1 1.3-1.3 1-0.4 2-0.7 2.9-1.3 0.1-0.1 0.2-0.1 0.3 0C51.1 28.7 47.8 30.6 46.8 30.8zM54 41c-0.7-1.6-1.8-2.9-2.9-4.3 0.4-0.2 0.6-0.6 0.9-0.9 0.6-0.6 1.3-1.2 1.9-1.8 0.7-0.6 1.3-1.3 1.9-2 0.1-0.1 0.2-0.2 0.3-0.2C56.4 33.1 55 39.7 54 41z"/></svg>