<?xml version="1.0" encoding="utf-8"?>
<!-- Generator: Adobe Illustrator 16.0.0, SVG Export Plug-In . SVG Version: 6.00 Build 0)  -->
<!DOCTYPE svg PUBLIC "-//W3C//DTD SVG 1.1//EN" "http://www.w3.org/Graphics/SVG/1.1/DTD/svg11.dtd">
<svg version="1.1" id="Layer_1" xmlns="http://www.w3.org/2000/svg" xmlns:xlink="http://www.w3.org/1999/xlink" x="0px" y="0px"
	 width="38.057px" height="50.662px" viewBox="0 0 38.057 50.662" enable-background="new 0 0 38.057 50.662" xml:space="preserve">
<g>
	<path fill="#CACACA" d="M11.121,0.021l-2.133,0.99l5.973,13.291l2.213-1.28c0.743-0.382,0.705-1.295,0.469-1.835L12.998,0.841
		C12.674,0.291,11.88-0.096,11.121,0.021z"/>
	<path fill="#CACACA" d="M15.472,28.063l0.011-0.005c-2.161-3.824-3.611-7.201-4.098-8.377c-0.686-1.824-0.455-2.2,0.374-3.059
		c0.572-0.591,0.875-0.856,1.365-1.191l-6.02-13.4C6.019,2.683,4.5,3.901,3.167,5.287C1.748,6.789,0.476,8.501,0,9.789
		c0.603,5.248,3.045,14.972,7.601,22.835l0.004,0.003c4.555,7.862,11.775,14.82,16.027,17.951c1.355,0.227,3.471-0.023,5.483-0.506
		c1.863-0.469,3.674-1.182,4.781-1.8l-8.632-11.888c-0.534,0.26-0.917,0.39-1.712,0.594c-1.156,0.293-1.6,0.305-2.84-1.195
		c-0.777-1.01-2.987-3.947-5.23-7.721l-0.008,0.004L15.472,28.063L15.472,28.063z"/>
	<path fill="#CACACA" d="M31.194,34.575c-0.35-0.471-1.123-0.956-1.824-0.503l-2.212,1.281l8.563,11.793l1.917-1.357
		c0.478-0.604,0.538-1.482,0.221-2.035L31.194,34.575z"/>
</g>
</svg>
