<?xml version="1.0" encoding="utf-8"?>
<!-- Generator: Adobe Illustrator 16.0.0, SVG Export Plug-In . SVG Version: 6.00 Build 0)  -->
<!DOCTYPE svg PUBLIC "-//W3C//DTD SVG 1.1//EN" "http://www.w3.org/Graphics/SVG/1.1/DTD/svg11.dtd">
<svg version="1.1" id="Layer_1" xmlns="http://www.w3.org/2000/svg" xmlns:xlink="http://www.w3.org/1999/xlink" x="0px" y="0px"
	 width="62.931px" height="104.885px" viewBox="0 0 62.931 104.885" enable-background="new 0 0 62.931 104.885"
	 xml:space="preserve">
<g>
	<path d="M31.465,0C14.086,0,0,14.123,0,31.559c0,5.193,1.258,9.869,3.472,14.179c6.628,16.929,25.372,37.704,25.372,58.704
		c0.787,0,4.458,0,5.244,0c0-21,18.743-41.775,25.366-58.703c2.219-4.312,3.478-9.098,3.478-14.291C62.931,14.013,48.839,0,31.465,0
		z M53.126,19.303c0.26,0.444,0.455,0.844,0.658,1.279c-0.216,0.146-0.422,0.296-0.64,0.422c-0.221,0.129-0.463,0.221-0.655,0.396
		c-0.026,0.027-0.066,0.056-0.1,0.056c-0.502-0.013-0.969,0.199-1.466,0.219c-0.021,0.001-0.045-0.009-0.146-0.035
		C51.647,20.924,52.5,20.256,53.126,19.303z M48.304,27.229c0.202-0.229,0.421-0.437,0.622-0.662
		c0.27-0.303,0.622-0.486,0.967-0.677c0.46-0.251,0.814-0.621,1.129-1.022c0.323-0.411,0.758-0.683,1.15-1.003
		c0.129-0.103,0.298-0.159,0.504-0.168c-0.225,0.48-0.371,0.953-0.688,1.345c-0.181,0.222-0.285,0.497-0.393,0.763
		c-0.109,0.273-0.283,0.497-0.53,0.66c-0.15,0.098-0.291,0.21-0.432,0.318c-0.256,0.204-0.532,0.346-0.871,0.396
		c-0.626,0.095-1.153,0.441-1.704,0.723c-0.131,0.066-0.262,0.133-0.403,0.179C47.828,27.762,48.073,27.499,48.304,27.229z
		 M46.933,25.094c-0.002-0.111,0.068-0.125,0.117-0.149c0.517-0.263,0.942-0.633,1.311-1.083c0.231-0.283,0.549-0.478,0.835-0.7
		c0.137-0.106,0.344-0.151,0.525-0.16c0.452-0.027,0.847-0.238,1.276-0.339c0.131-0.031,0.262-0.058,0.46-0.098
		c-0.353,0.405-0.673,0.738-1.066,0.99c-0.173,0.11-0.428,0.03-0.582,0.21c-0.018,0.016-0.046,0.02-0.062,0.036
		c-0.461,0.45-1.15,0.543-1.597,1.019c-0.017,0.02-0.051,0.042-0.08,0.042C47.685,24.889,47.309,24.969,46.933,25.094z
		 M14.216,48.767c-0.126-0.042-0.198-0.152-0.283-0.237c-2.825-2.876-4.867-6.222-6.066-10.078c-0.545-1.744-0.89-3.524-1.024-5.348
		c-0.442-5.908,0.987-11.33,4.405-16.167c3.777-5.34,8.916-8.676,15.321-10.023c2.011-0.423,4.05-0.556,6.106-0.447
		c5.414,0.284,10.22,2.148,14.425,5.562c1.682,1.369,3.148,2.943,4.426,4.697c0.114,0.157,0.086,0.258-0.003,0.409
		c-0.406,0.676-1.062,1.105-1.615,1.634c-0.462,0.445-0.967,0.85-1.321,1.4c-0.075,0.11-0.208,0.184-0.316,0.272
		c-0.677,0.544-1.335,1.109-1.939,1.739c-0.074,0.079-0.13,0.174-0.169,0.224c-0.165-0.021-0.192-0.104-0.227-0.168
		c-0.373-0.683-0.81-1.319-1.341-1.892c-0.271-0.288-0.365-0.594-0.271-1.009c0.24-1.049,0.16-2.091-0.446-3.001
		c-0.521-0.784-1.304-1.207-2.236-1.37c-0.47-0.081-0.942-0.068-1.41-0.15c-0.583-0.103-1.081-0.394-1.614-0.613
		c-1.452-0.591-2.925-1.102-4.462-1.443c-1.439-0.318-2.886-0.528-4.355-0.535c-2.027-0.006-4.052,0.046-6.021,0.604
		c-0.832,0.233-1.644,0.517-2.377,0.985c-0.224,0.144-0.367,0.314-0.393,0.589c-0.021,0.23-0.082,0.457-0.05,0.691
		c0.016,0.123-0.069,0.2-0.156,0.271c-0.873,0.722-0.791,0.859-0.791,1.601c0.017,0.407,0.055,0.826,0.037,1.228
		c-0.02,0.397,0.059,0.81-0.178,1.19c-1.086,1.744-2.007,3.53-2.69,5.513c-0.262,0.647-0.427,1.327-0.519,2.025
		c-0.021,0.148-0.056,0.314,0.039,0.452c0.116,0.167,0.246,0.299,0.497,0.258c0.41-0.069,0.803-0.197,1.174-0.368
		c0.495-0.231,1.038-0.31,1.542-0.5c0.653-0.247,1.241-0.545,1.638-1.161c0.216-0.338,0.494-0.638,0.759-0.942
		c0.25-0.291,0.551-0.235,0.66,0.136c0.274,0.931,0.285,1.858-0.04,2.787c-0.146,0.414-0.37,0.688-0.769,0.917
		c-1.476,0.857-2.839,1.778-4.176,2.846c-0.797,0.634-1.502,1.39-2.122,2.186c-0.747,0.959-1.358,2.005-1.758,3.134
		c-0.463,1.315-0.742,2.676-0.676,4.106c0.068,1.413,0.531,2.719,0.913,4.049c0.059,0.213,0.125,0.435,0.222,0.636
		c0.124,0.252,0.096,0.5-0.047,0.706c-0.396,0.575-0.33,1.152-0.066,1.743c0.072,0.162,0.134,0.331,0.203,0.506
		C14.506,48.532,14.362,48.648,14.216,48.767z M29.704,40.573c-0.026-0.076,0.057-0.104,0.101-0.138
		c0.493-0.398,1.081-0.629,1.645-0.912c-0.33,0.684-0.585,1.393-1.427,1.684c-0.84,0.293-1.391,0.983-1.857,1.721
		c-0.191,0.301-0.354,0.607-0.656,0.827c-0.374,0.278-0.682,0.628-0.995,0.972c-0.17,0.188-0.363,0.338-0.566,0.482
		c-0.203,0.145-0.407,0.217-0.671,0.177c-0.42-0.065-0.826,0.096-1.238,0.149c-0.101,0.016-0.197,0.029-0.311,0.019
		c0.218-0.16,0.426-0.336,0.641-0.493c0.521-0.383,0.954-0.878,1.494-1.245c0.208-0.143,0.394-0.299,0.532-0.507
		c0.312-0.469,0.826-0.667,1.269-0.961c0.275-0.184,0.564-0.354,0.84-0.54c0.149-0.099,0.342-0.166,0.34-0.402
		c0-0.036,0.073-0.074,0.112-0.106c0.206-0.155,0.411-0.307,0.612-0.463C29.651,40.771,29.757,40.715,29.704,40.573z M26.378,33.899
		c-0.578,0.565-0.723,1.251-0.526,2.008c0.079,0.306,0.021,0.536-0.163,0.772c-0.222,0.279-0.406,0.588-0.567,0.905
		c-0.198,0.386-0.19,0.801-0.104,1.207c0.176,0.811,0.375,1.618,0.766,2.39c-0.35,0.288-0.691,0.564-1.03,0.841
		c-0.059,0.044-0.125,0.073-0.17,0.123c-0.207,0.24-0.23,0.257-0.456,0.006c-0.432-0.478-0.829-0.986-1.131-1.559
		c-0.429-0.801-0.768-1.643-1.009-2.518c-0.286-1.042-0.443-2.096-0.181-3.169c0.026-0.111,0.074-0.221,0.13-0.325
		c0.655-1.203,1.549-2.18,2.751-2.863c0.384-0.219,0.765-0.444,1.152-0.655c0.317-0.176,0.671-0.164,1.021-0.19
		c0.586-0.04,1.203-0.052,1.717-0.333c1.046-0.571,1.963-1.312,2.509-2.414c0.123-0.247,0.207-0.514,0.321-0.768
		c0.077-0.172,0.179-0.333,0.431-0.303c0.126,0.22,0.085,0.463,0.062,0.696c-0.08,0.822-0.312,1.594-0.756,2.295
		c-0.047,0.081-0.105,0.158-0.042,0.275c0.201,0.04,0.389-0.022,0.587-0.098c0.808-0.309,1.148-0.999,1.427-1.736
		c0.432-1.147,0.366-2.275-0.128-3.392c-0.207-0.471-0.456-0.909-0.833-1.302c0.224-0.071,0.365,0.023,0.509,0.104
		c0.637,0.359,1.064,0.925,1.447,1.519c0.612,0.949,0.966,2.008,1.176,3.111c0.003,0.023,0.007,0.047,0.016,0.066
		c0.069,0.168,0.009,0.45,0.269,0.453c0.237,0.005,0.381-0.218,0.442-0.422c0.156-0.51,0.224-1.031,0.156-1.563
		c-0.223-1.703-1.068-3.077-2.217-4.308c-0.618-0.668-1.324-1.215-2.093-1.687c-0.079-0.048-0.165-0.091-0.184-0.21
		c0.079-0.17,0.217-0.207,0.396-0.16c0.298,0.075,0.562,0.213,0.827,0.366c1.042,0.596,1.887,1.431,2.738,2.259
		c0.465,0.458,0.897,0.943,1.307,1.454c0.134,0.168,0.184,0.389,0.36,0.535c0.129,0.107,0.21,0.102,0.306-0.023
		c0.062-0.083,0.097-0.176,0.104-0.278c0.049-0.547-0.057-1.052-0.323-1.542c-0.838-1.53-2.009-2.764-3.361-3.839
		c-0.565-0.448-1.147-0.868-1.776-1.231c-0.683-0.396-1.397-0.662-2.162-0.815c-0.32-0.062-0.639-0.126-0.957-0.201
		c-0.396-0.096-0.626-0.36-0.833-0.708c-0.396-0.665-0.679-1.391-1.153-2.102c1.494-0.094,2.925-0.114,4.38,0.123
		c-0.091,0.117-0.199,0.146-0.29,0.197c-0.478,0.264-0.8,0.654-0.975,1.17c-0.091,0.278-0.038,0.364,0.244,0.425
		c0.882,0.192,1.665,0.628,2.453,1.043c0.387,0.204,0.747,0.305,1.107-0.018c0.378-0.338,0.624-0.72,0.482-1.268
		c-0.168-0.649-0.504-1.153-1.111-1.46c-0.111-0.056-0.198-0.13-0.112-0.288c0.412-0.046,0.771,0.067,1.071,0.361
		c0.056,0.054,0.123,0.105,0.157,0.17c0.239,0.455,0.68,0.567,1.121,0.69c0.575,0.159,1.135,0.367,1.679,0.604
		c0,0.122-0.105,0.137-0.171,0.173c-0.285,0.162-0.489,0.399-0.66,0.672c-0.152,0.245-0.147,0.447,0.01,0.62
		c0.165,0.179,0.381,0.205,0.634,0.05c0.871-0.535,1.779-0.594,2.716-0.197c0.463,0.196,0.749,0.583,0.809,1.065
		c0.078,0.578-0.169,0.845-0.754,0.975c-0.574,0.132-1.141,0.043-1.706-0.068c-0.279-0.058-0.537,0.017-0.795,0.1
		c-0.157,0.051-0.25,0.178-0.253,0.332c-0.005,0.198,0.098,0.366,0.273,0.453c0.95,0.485,1.87,1.022,2.889,1.375
		c1.255,0.431,2.043,1.393,2.646,2.524c0.089,0.17,0.085,0.33-0.03,0.501c-0.186,0.288-0.401,0.547-0.664,0.773
		c-0.897,0.788-1.68,1.699-2.632,2.429c-0.472,0.366-0.914,0.766-1.352,1.175c-0.257,0.244-0.57,0.387-0.959,0.398
		c-2.104,0.053-4.129,0.534-6.115,1.209c-1.639,0.556-3.162,1.315-4.412,2.55C26.678,33.584,26.533,33.747,26.378,33.899z
		 M19.824,43.962c-0.228-0.012-0.314-0.15-0.229-0.366c0.221-0.574,1.198-0.954,1.735-0.439c0.539,0.513,0.766,1.135,0.624,1.871
		c-0.046,0.237-0.16,0.45-0.385,0.578c-0.135-0.07-0.135-0.168-0.153-0.259C21.251,44.533,20.65,44.009,19.824,43.962z
		 M20.049,46.201c0.003,0.375-0.066,0.737-0.194,1.089c-0.046,0.122-0.112,0.229-0.261,0.228c-0.16,0-0.167-0.139-0.197-0.245
		c-0.113-0.354-0.319-0.65-0.578-0.911c-0.187-0.189-0.351-0.392-0.463-0.631c-0.122-0.26-0.026-0.74,0.191-0.954
		c0.201-0.197,0.597-0.252,0.868-0.125c0.163,0.08,0.245,0.233,0.336,0.37C19.945,45.321,20.048,45.755,20.049,46.201z
		 M19.26,25.191c0.268-0.975,0.687-1.889,1.145-2.789c0.305-0.594,0.553-1.162,0.896-1.735c0.296-0.493,0.711-0.696,1.263-0.635
		c0.308,0.035,0.619,0.045,0.915,0.152c0.059,0.023,0.121,0.036,0.145,0.104c0.008,0.07-0.038,0.114-0.078,0.162
		c-1.065,1.43-2.111,2.873-3.03,4.402c-0.17,0.284-0.416,0.452-0.692,0.595c-0.073,0.04-0.148,0.085-0.228,0.118
		c-0.119,0.045-0.239,0.082-0.304,0.066C19.123,25.593,19.219,25.341,19.26,25.191z M18.306,25.356
		c-0.074,0.332-0.205,0.728-0.225,1.006c-0.22,0.093-0.29,0.201-0.598,0.234c0.447-1.484,0.941-2.775,1.765-4.09
		c0.065,0.175,0.014,0.247-0.032,0.345C18.836,23.669,18.5,24.495,18.306,25.356z M16.366,53.41
		c-0.052,0.062-0.135,0.006-0.188,0.104c0.034,0.281-0.117,0.557-0.141,0.89c-0.164-0.116-0.237-0.242-0.261-0.387
		c-0.042-0.222-0.117-0.415-0.282-0.569c-0.149-0.138-0.168-0.341-0.247-0.511c-0.025-0.056,0-0.119,0.058-0.135
		c0.17-0.047,0.367-0.099,0.514-0.03c0.188,0.092,0.344,0.262,0.502,0.409C16.377,53.234,16.38,53.32,16.366,53.41z M16.184,45.547
		c-0.297-0.258-0.127-0.996,0.327-1.418c-0.272-1.047-0.646-2.112,0.28-3.057c0.046,0.679,0.103,1.335,0.854,1.646
		c0.458-0.315,0.902-0.668,1.501-0.639c0.092,0.004,0.105,0.02,0.242,0.153c-0.441,0.25-0.938,0.453-1.022,1.039
		c-0.603-0.009-1.003,0.306-1.135,0.831c-0.093,0.373-0.261,0.599-0.571,0.78c-0.129,0.074-0.197,0.229-0.265,0.37
		C16.341,45.359,16.295,45.481,16.184,45.547z M17.223,46.12c0.327-0.222,0.515-0.136,0.654,0.221
		c0.125,0.329-0.003,0.593-0.115,0.869c-0.143,0.361-0.215,0.724-0.175,1.112c0.002,0.022,0.005,0.046,0,0.069
		c-0.013,0.129,0.013,0.292-0.137,0.342c-0.158,0.052-0.229-0.098-0.305-0.201c-0.336-0.463-0.514-0.913-0.509-1.402
		C16.616,46.752,16.829,46.389,17.223,46.12z M17.298,51.089c-0.061-0.057-0.125,0.044-0.231,0.007
		c0.311-0.466,0.655-0.847,1.241-0.913c0.043,0.174-0.002,0.271-0.135,0.351c-0.211,0.13-0.327,0.367-0.541,0.502
		C17.522,51.111,17.44,51.224,17.298,51.089z M22.618,50.901c-0.449,0.19-0.879,0.419-1.338,0.59
		c-0.492,0.185-0.965,0.415-1.44,0.639c-0.612,0.282-1.216,0.572-1.826,0.861c-0.169,0.084-0.29-0.024-0.466-0.094
		c0.203-0.25,0.446-0.391,0.671-0.551c0.545-0.386,1.025-0.847,1.477-1.34c0.153-0.165,0.324-0.268,0.553-0.314
		c0.403-0.083,0.808-0.133,1.219-0.075c0.474,0.064,0.942-0.006,1.448-0.067C22.829,50.715,22.749,50.846,22.618,50.901z
		 M23.09,49.183c-0.541,0.035-1.081,0.08-1.621,0.123c-0.033,0.001-0.063,0.006-0.089-0.046c0.165-0.151,0.371-0.28,0.494-0.463
		c0.462-0.688,1.167-0.927,1.916-1.108c0.587-0.142,1.125-0.391,1.644-0.697c0.208-0.125,0.353-0.124,0.485,0.133
		c-0.263,0.45-0.484,0.939-1.066,1.127c-0.453,0.143-0.883,0.35-1.22,0.699C23.486,49.102,23.303,49.169,23.09,49.183z
		 M29.078,48.234c-0.332,0.333-0.578,0.729-0.875,1.084c-0.414,0.494-0.908,0.876-1.477,1.181c-0.779,0.418-1.541,0.862-2.418,1.086
		c0.508-0.477,0.803-1.207,1.592-1.372c0.204-0.042,0.309-0.208,0.406-0.36c0.414-0.657,1.082-1.029,1.657-1.506
		c0.08-0.068,0.188-0.118,0.291-0.14c0.2-0.042,0.376-0.12,0.527-0.265c0.093-0.091,0.219-0.139,0.33-0.021
		C29.209,48.032,29.163,48.148,29.078,48.234z M28.349,45.43c-0.03,0.032-0.067,0.067-0.163,0.034
		c0.248-0.422,0.269-0.952,0.735-1.248c0.659-0.426,1.131-1.046,1.647-1.624c0.363-0.4,0.78-0.758,1.259-1.018
		c0.32-0.171,0.572-0.384,0.72-0.718c0.09-0.208,0.214-0.397,0.321-0.594c0.051-0.087,0.099-0.178,0.214-0.211
		c0.186,0.134,0.379,0.262,0.513,0.453c0.094,0.135,0.063,0.226-0.104,0.27c-0.49,0.13-0.832,0.467-1.017,0.909
		c-0.207,0.483-0.466,0.946-0.623,1.451c-0.036,0.121-0.155,0.144-0.255,0.18c-0.769,0.304-1.508,0.668-2.138,1.203
		C29.094,44.827,28.684,45.085,28.349,45.43z M29.828,46.307c0.118-0.183,0.232-0.354,0.41-0.472c0.17-0.11,0.347-0.215,0.502-0.312
		c0.007-0.125-0.115-0.106-0.125-0.19c0.076-0.148,0.194-0.265,0.347-0.322c0.543-0.202,1.054-0.49,1.629-0.602
		c0.285-0.053,0.567-0.074,0.81,0.136c-0.046,0.132-0.151,0.167-0.255,0.199c-0.52,0.16-0.981,0.453-1.491,0.642
		c-0.119,0.045-0.217,0.168-0.244,0.264c-0.106,0.382-0.444,0.428-0.728,0.483C30.404,46.186,30.121,46.253,29.828,46.307z
		 M38.94,52.18c-0.177,1.142-0.863,1.934-1.856,2.471c-0.675,0.364-1.41,0.562-2.147,0.761c-0.786,0.218-1.568,0.247-2.364,0.253
		c-0.529,0.006-0.939-0.166-1.217-0.643c-0.169-0.282-0.228-0.571-0.205-0.886c0.01-0.153,0.122-0.229,0.227-0.308
		c0.316-0.235,0.588-0.526,0.886-0.78c0.345-0.298,0.684-0.603,1.101-0.809c0.4-0.197,0.679-0.559,1.036-0.82
		c0.658-0.476,1.319-0.954,1.977-1.432c0.615-0.45,1.263-0.872,1.719-1.509c0.028-0.035,0.062-0.07,0.103-0.094
		c0.095-0.062,0.162-0.165,0.281-0.2c0.297,0.43,0.365,0.926,0.448,1.424C39.07,50.467,39.07,51.326,38.94,52.18z M33.753,43.142
		c0.189-0.471,0.437-0.858,0.781-1.173c0.275-0.25,0.753-0.21,1.003,0.056c0.152,0.165,0.304,0.331,0.482,0.525
		C35.291,42.899,34.573,43.157,33.753,43.142z M45.005,40.294c-0.053,0.026-0.089,0.004-0.125-0.032
		c-0.981-0.979-2.103-1.747-3.382-2.292c-0.688-0.29-1.39-0.53-2.123-0.673c-0.138-0.027-0.279-0.035-0.416-0.018
		c-0.145,0.015-0.28,0.055-0.334,0.211c-0.056,0.163,0.024,0.291,0.142,0.387c0.106,0.091,0.227,0.165,0.349,0.234
		c0.914,0.501,1.781,1.07,2.608,1.698c1.163,0.882,2.001,2.017,2.607,3.339c0.141,0.309,0.29,0.613,0.362,0.948
		c0.019,0.08,0.066,0.16-0.02,0.265c-0.209-0.262-0.421-0.514-0.619-0.771c-0.928-1.194-2.096-2.08-3.45-2.729
		c-0.198-0.096-0.402-0.17-0.622-0.181c-0.111-0.005-0.23,0-0.292,0.107c-0.064,0.113,0.016,0.209,0.085,0.292
		c0.586,0.699,1.065,1.467,1.478,2.276c0.526,1.034,0.807,2.144,1.055,3.267c0.126,0.554,0.223,1.109,0.172,1.68
		c-0.007,0.045-0.009,0.088-0.013,0.159c-0.13-0.079-0.18-0.179-0.226-0.284c-0.725-1.762-1.629-3.429-2.704-5.002
		c-0.717-1.049-1.45-2.094-2.288-3.047c-1.161-1.316-2.543-2.336-4.231-2.895c-0.495-0.165-0.993-0.22-1.511-0.17
		c-0.667,0.06-1.322,0.154-1.944,0.417c-0.333,0.141-0.592,0.386-0.818,0.635c-0.292,0.323-0.604,0.646-0.812,1.044
		c-0.047,0.089-0.102,0.215-0.257,0.192c-0.144-0.021-0.19-0.138-0.219-0.245c-0.232-0.788-0.307-1.558,0.312-2.229
		c0.169-0.182,0.269-0.418,0.463-0.579c0.061-0.052,0.072-0.137,0.083-0.211c0.026-0.2,0.081-0.402,0.071-0.6
		c-0.021-0.445,0.218-0.716,0.546-0.958c1.111-0.818,2.335-1.435,3.642-1.828c2.303-0.692,4.613-0.7,6.902,0.127
		c0.953,0.344,1.879,0.715,2.683,1.354c0.604,0.482,1.167,0.996,1.631,1.615c0.083,0.113,0.242,0.256,0.125,0.381
		c-0.13,0.141-0.271-0.042-0.378-0.117c-1.254-0.868-2.635-1.467-4.081-1.925c-0.571-0.182-1.144-0.205-1.718-0.058
		c-0.155,0.037-0.344,0.076-0.365,0.327c1.137,0.221,2.062,0.847,2.976,1.464c1.439,0.981,2.848,2.013,4.024,3.322
		c0.245,0.273,0.448,0.574,0.623,0.893C45.032,40.148,45.083,40.22,45.005,40.294z M45.783,30.078
		c-0.306,0.466-0.698,0.86-1.064,1.254c-0.374-0.096-0.577-0.429-0.935-0.503c0.665-0.42,1.364-0.74,2.017-1.16
		C45.948,29.841,45.852,29.972,45.783,30.078z M46.129,27.901c-0.842,0.554-1.559,1.414-2.734,1.408
		c1.125-1.109,2.252-2.161,3.668-2.844C46.768,26.962,46.588,27.603,46.129,27.901z M49.846,31.116
		c-0.146,0.16-0.312,0.304-0.512,0.396c-0.553,0.252-0.972,0.683-1.419,1.07c-0.238,0.204-0.342,0.238-0.61,0.064
		c-0.138-0.088-0.272-0.18-0.427-0.233c-0.095-0.033-0.166-0.085-0.16-0.196c0.087-0.068,2.965-1.323,3.135-1.373
		C49.976,30.937,49.925,31.031,49.846,31.116z M46.763,30.797c0.313-0.607,0.7-1.041,1.341-1.278
		c1.007-0.372,2.024-0.727,2.935-1.317c0.087-0.056,0.178-0.096,0.281-0.044C51.125,28.665,47.822,30.616,46.763,30.797z
		 M54.042,40.995c-0.746-1.562-1.781-2.923-2.898-4.265c0.365-0.234,0.588-0.592,0.877-0.884c0.61-0.623,1.28-1.174,1.924-1.757
		c0.679-0.615,1.317-1.269,1.864-2.008c0.07-0.099,0.15-0.197,0.278-0.229C56.448,33.066,54.958,39.745,54.042,40.995z"/>
</g>
</svg>
