<?xml version="1.0" encoding="utf-8"?>
<!-- Generator: Adobe Illustrator 16.0.0, SVG Export Plug-In . SVG Version: 6.00 Build 0)  -->
<!DOCTYPE svg PUBLIC "-//W3C//DTD SVG 1.1//EN" "http://www.w3.org/Graphics/SVG/1.1/DTD/svg11.dtd">
<svg version="1.1" id="Layer_1" xmlns="http://www.w3.org/2000/svg" xmlns:xlink="http://www.w3.org/1999/xlink" x="0px" y="0px"
	 width="229.27px" height="50.853px" viewBox="0 0 229.27 50.853" enable-background="new 0 0 229.27 50.853" xml:space="preserve">
<g>
	<path d="M28.51,27.12c0,0.066-0.199,0.166-0.231,0.332c0,0.033,0,0.033,0,0.066c0,0,0.066,0,0.066,0.033
		c-0.034,0.066-0.1,0.231-0.1,0.464c0,0.065,0.033,0.065,0.033,0.165c0,0.201,0.132,0.201,0.132,0.398
		c0,0.033-0.065,0.033-0.065,0.033c0,0.033-0.034,0.033-0.034,0.066c-0.032,0.033,0.034,0.066,0.034,0.1
		c0,0.132-0.199,0.231-0.232,0.43c-0.032,0.167-0.032,0.531-0.1,0.994c-0.065,0.267-0.132,0.232-0.165,0.499
		c0,0.099,0.1,0.165,0.065,0.231c0,0-0.032,0-0.032,0.033c-0.266,0.695-0.432,1.193-0.598,1.525
		c-0.165,0.331-0.364,0.629-0.497,0.861c-0.265,0.529-0.762,0.994-1.292,1.558c-0.597,0.563-1.094,1.227-1.725,1.757
		c-0.032,0.066-0.165,0.133-0.298,0.232c-0.133,0.133-0.53,0.365-1.027,0.762c-0.1,0.066-0.166,0.199-0.265,0.266
		c-0.1,0.1-0.199,0.232-0.398,0.332c-0.198,0.131-0.397,0.264-0.695,0.43c-0.299,0.133-0.696,0.266-1.127,0.465
		c-0.696,0.265-1.393,0.596-2.188,0.762c-0.764,0.166-1.592,0.166-2.388,0.199c-0.795,0.066-1.557,0.198-2.32,0.133
		c-0.729-0.033-1.425-0.266-2.054-0.398c-0.598-0.033-1.294-0.133-1.956-0.431c-0.664-0.298-1.36-0.497-1.956-0.796
		c0,0,0.033-0.199,0-0.199C6.699,38.29,6.202,38.29,5.871,38.06c-0.364-0.232-0.629-0.596-0.961-0.795
		c-0.066-0.068-0.1,0-0.165-0.068c-0.465-0.297-0.797-0.729-1.194-1.127c-0.364-0.396-0.696-0.795-0.994-1.258
		c-0.299-0.432-0.563-0.896-0.829-1.426c-0.231-0.432-0.464-0.895-0.696-1.426c-0.23-0.562-0.43-1.16-0.562-1.789
		c-0.166-0.631-0.232-1.227-0.265-1.89c-0.067-0.63-0.232-1.26-0.2-1.89c0.033-0.597,0.2-1.227,0.299-1.855
		c-0.166-0.167,0.033,0.032,0.1-0.033c-0.033-0.365,0.497-2.32,0.762-2.951c0.199-0.53,0.432-0.994,0.729-1.357
		c0.563-0.83,1.16-1.394,1.724-1.891c0.563-0.562,1.128-1.061,1.725-1.426c0.33-0.529,2.916-1.392,3.38-1.491
		c0.497-0.099,1.027-0.198,1.559-0.198c0.132,0,0.132,0.164,0.265,0.164c0.695,0,1.326,0,1.956,0.134
		c0.63,0.133,1.227,0.397,1.789,0.663c0.497,0.232,1.094,0.398,1.624,0.696c0.531,0.331,1.028,0.762,1.393,1.292
		c0.033,0.035-0.066,0.1-0.032,0.133c0,0.033,0.032,0,0.032,0c0.266,0.266,0.564,0.629,0.829,1.127
		c0.265,0.53,0.53,1.227,0.662,2.089c0.1,0.298,0,0.662-0.065,1.127c-0.034,0.431-0.034,0.896-0.166,1.358
		c0,0.033-0.033,0.033-0.033,0.066c-0.033,0-0.066,0-0.066,0.033c-0.066,0.166,0.1,0.232,0.033,0.432
		c-0.1,0.363-0.266,0.729-0.398,1.06c-0.132,0.365-0.33,0.597-0.529,0.896c-0.033,0.066,0,0.066-0.066,0.133
		c-0.464,0.663-1.094,1.093-1.725,1.49c-0.662,0.399-1.358,0.697-2.121,0.797c-0.1,0-0.165,0.066-0.231,0.066
		s-0.133-0.066-0.166-0.066c-0.066,0.032-0.1,0-0.132,0c-0.067,0-0.067-0.033-0.133-0.033c-0.033-0.033-0.1,0.1-0.167,0.1
		c-0.662-0.034-1.292-0.199-1.889-0.398c-0.63-0.199-1.227-0.432-1.724-0.828c-0.199-0.199-0.364-0.398-0.529-0.598
		c-0.167-0.164-0.3-0.396-0.399-0.596c-0.132-0.133-0.165-0.266-0.23-0.365c-0.232-0.1-0.366-0.529-0.366-0.662
		c0-0.1-0.099-0.232-0.099-0.398c0-0.1,0-0.1,0-0.199c0-0.164,0.232-0.298,0.365-0.53c0.132-0.198,0.231-0.364,0.298-0.464
		c0.032,0,0.032,0.033,0.032,0c0.034,0,0-0.066,0-0.066c0.299-0.199,0.63-0.364,0.896-0.364c0.032,0,0.065,0.165,0.132,0.165
		c0.066,0.033,0.133,0,0.198,0c0.232,0.033,0.465,0.033,0.664,0.166c0.165,0.1,0.464,0.266,0.696,0.563
		c0.033,0.1-0.066,0.167-0.034,0.267c0.034,0.065,0.034,0.165,0.133,0.23c0.066,0.1,0.265,0.199,0.531,0.365
		c0,0,0,0.066,0.032,0.066c0.53,0.265,0.497,0.265,1.027,0.53c0.034,0,0.066-0.099,0.1-0.099c0.033,0.031,0.1,0.031,0.199,0.031
		c0.198-0.031,0.729,0,0.828,0c0.034,0,0.1,0,0.134-0.031c0.198,0.065,1.159-0.796,1.192-0.83c0.034-0.065,0.034-0.099,0.1-0.164
		c0-0.034,0.033,0,0.066-0.034s0.033-0.198,0.133-0.431c0.065-0.266,0.165-0.696,0.298-1.293c0-0.033,0.1-0.033,0.1-0.066
		s0.033-0.1,0.033-0.197c0-0.101-0.133-0.2-0.099-0.268c0-0.064,0.032-0.064,0.065-0.131c0.033-0.1,0.065-0.199,0.033-0.266
		c0,0-0.033,0-0.033-0.033s-0.065-0.033-0.065-0.066c-0.1-0.133-0.067-0.73-0.267-0.83c0-0.065,0.067-0.197-0.032-0.363
		c-0.033-0.232-0.53-0.696-0.564-0.696c-0.033,0,0.034-0.065,0.034-0.099c-0.167-0.1-0.199-0.034-0.332-0.166
		c-0.199-0.133-0.364-0.398-0.63-0.564c-0.231-0.1-0.497-0.133-0.696-0.264c-0.231-0.1-0.53-0.167-0.895-0.299
		c-0.034,0,0.065-0.166,0.033-0.166c-0.198-0.066-0.465-0.1-0.729-0.166s-0.562-0.033-0.795-0.066c-0.199,0-0.332-0.033-0.432-0.033
		c-0.033,0,0-0.033-0.033-0.033c0,0,0,0.133-0.032,0.133c-0.1,0-0.232-0.133-0.332-0.133c-0.133,0-0.232,0.166-0.432,0.232
		c-0.165,0.033-0.43,0.033-0.695,0.1c-0.265,0.1-0.597,0.232-1.028,0.363c-0.23,0.1-0.23,0.1-0.463,0.232
		c-0.034,0-0.034,0-0.034,0.034c-0.032,0,0.034,0.065,0,0.099c-0.463,0.299-0.994,0.465-1.392,0.697s-0.597,0.629-0.795,0.961
		c0,0.033-0.034,0.033-0.034,0.033c-0.032,0.033-0.132,0-0.132,0c-0.033,0.033,0,0.099-0.066,0.133
		c-0.066,0.065-0.1,0.198-0.166,0.363c-0.1,0.166-0.365,0.332-0.63,0.664c0,0,0.034,0.032,0.034,0.066
		c-0.1,0.232-0.267,0.596-0.432,1.094c-0.199,0.496-0.432,1.027-0.597,1.657c-0.165,0.728-0.165,1.392-0.165,2.022
		c0.032,0.629,0.1,1.125,0.198,1.524c0.132,0.762,0.199,1.491,0.464,2.153c0.265,0.696,0.729,1.26,1.161,1.857
		c0.364,0.53,0.762,0.994,1.259,1.425c0.465,0.464,0.994,0.829,1.524,1.192c0.464,0.332,0.929,0.631,1.359,0.861
		c0.53,0.232,0.995,0.531,1.491,0.664c0.994,0.299,1.823,0.364,2.553,0.398c0.132,0.033,0.132,0.133,0.299,0.133
		c0.265,0,0.265-0.1,0.562-0.1c0.531,0,1.127,0.131,1.724,0.066c0.597-0.066,1.16-0.398,1.724-0.564
		c0.531-0.166,1.061-0.199,1.558-0.431c0.465-0.198,0.962-0.431,1.393-0.729c0.464-0.299,0.928-0.729,1.393-1.094
		c0.463-0.332,0.928-0.695,1.392-1.094c0.165-0.133,0.364-0.297,0.53-0.53c0.166-0.232,0.232-0.465,0.332-0.663
		c0-0.033,0.032-0.033,0.066-0.033c0.033-0.166,0.099-0.266,0.198-0.365c0.199-0.33,0.497-0.795,0.662-1.392
		c0.134-0.63,0.199-1.392,0.299-2.221c0.067-0.696,0-1.358,0-1.923c0-0.562,0-0.928-0.032-1.159
		c-0.167-0.53-0.232-1.062-0.465-1.524c-0.231-0.465-0.397-0.994-0.597-1.493c0-0.032-0.165,0.067-0.199,0.034
		c0,0,0.034-0.034,0-0.066c-0.165-0.332-0.23-0.695-0.397-0.928c-0.133-0.266-0.397-0.398-0.562-0.598
		c-0.034-0.033-0.067,0-0.067-0.033c-0.032-0.032,0.033-0.032,0.033-0.032c-0.033-0.033-0.065-0.099-0.133-0.167
		c-0.065-0.065-0.065-0.198-0.1-0.264c-0.099-0.066-0.198-0.133-0.23-0.232c-0.067-0.033-0.1-0.066-0.133-0.133
		c-0.066-0.066-0.1-0.299-0.266-0.529c-0.099-0.068-0.298-0.1-0.365-0.199c-0.099-0.1-0.032-0.299-0.099-0.432l-0.066,0.066
		c-0.1-0.199-0.332-0.464-0.63-0.829c-0.332-0.364-0.662-0.763-1.027-1.159c-0.066-0.066-0.1-0.166-0.166-0.266
		c-0.065-0.066-0.165-0.133-0.232-0.198c0.067-0.067-1.392-0.763-1.259-0.697c-0.033-0.032,0-0.1-0.033-0.132
		c-0.397-0.266-0.663-0.564-0.962-0.795c-0.299-0.232-0.629-0.332-0.861-0.498c-0.1-0.1-0.53-0.563-0.696-0.729
		c-0.099-0.133-0.165-0.299-0.298-0.432c-0.066-0.033-0.066-0.066-0.1-0.1c-0.199-0.165-0.497-0.165-0.663-0.299
		c-0.166-0.164-0.231-0.396-0.398-0.596c-0.132-0.199-0.33-0.398-0.497-0.597c-0.165-0.198-0.364-0.397-0.529-0.597
		c-0.166-0.133-0.133-0.133-0.299-0.298c0-0.034,0,0-0.033-0.034c-0.166-0.232-0.365-0.496-0.497-0.828
		c-0.133-0.332-0.266-0.631-0.365-0.961c-0.132-0.332-0.231-0.664-0.298-0.928c-0.066-0.299-0.032-0.531-0.032-0.73
		c0-0.332-0.034-0.332,0-0.662c0.032-0.928,0.132-1.758,0.463-2.52c0.299-0.695,0.929-1.227,1.559-1.757
		c0.563-0.431,1.061-0.861,1.724-1.062c0.629-0.23,1.293-0.397,2.022-0.397c0.33,0,0.629,0.199,0.927,0.267
		c0.133,0,0.232-0.067,0.299-0.067c0.166,0.033,0.331,0,0.496,0.033c0.167,0.034,0.366,0.065,0.599,0.165
		c0.265,0.067,0.629,0.2,1.126,0.432c0.53,0.232,0.995,0.664,1.492,1.16c0.1,0.133,0.132,0.299,0.231,0.431
		c0.099,0.133,0.232,0.232,0.331,0.331c0.232,0.299,0.332,0.697,0.464,1.062c0,0.031,0.067,0,0.1,0c0,0.031-0.032,0.065-0.032,0.099
		c0.032,0.132,0.1,0.231,0.1,0.331c0.065,0.298,0.033,0.63,0.033,0.928c0,0.332,0.032,0.697-0.067,1.027
		c-0.133,0.531-0.497,0.995-0.829,1.459c-0.33,0.465-0.728,0.861-1.126,1.193c-0.331,0.299-0.63,0.498-0.995,0.498
		c-0.397,0.033-0.695-0.166-1.026-0.465c-0.133-0.1-0.199-0.266-0.266-0.464c-0.1-0.199-0.265-0.364-0.265-0.563
		c0-0.166,0.165-0.332,0.23-0.529c0.101-0.199,0.133-0.398,0.267-0.531c0.298-0.232,0.497-0.498,0.63-0.73
		c0.065-0.099,0.1-0.197,0.165-0.264c0.066-0.1,0.133-0.166,0.165-0.266c0.034-0.066,0.1-0.1,0.133-0.133
		c0.034-0.1,0.1-0.596-0.165-0.662c-0.033-0.033,0.1-0.101,0.1-0.133c0.132-0.033-0.298-0.365-0.266-0.332
		c-0.132-0.165-0.231-0.332-0.431-0.463c-0.232-0.134-0.365-0.332-0.563-0.398c-0.397-0.166-0.763-0.299-1.061-0.332
		c-0.332,0-0.597,0.1-0.862,0.1c-0.032,0-0.032-0.133-0.1-0.133c-0.729-0.066-1.326,0.266-1.756,0.729
		c-0.298,0.332-0.564,0.696-0.664,1.227c-0.099,0.497-0.165,1.094-0.133,1.724c0.232,0.631,0.664,1.227,1.096,1.789
		c0.264,0.332,1.125,1.094,1.324,1.459c0.067,0.1,0.2,0.199,0.332,0.331c0.133,0.101,0.431,0.267,0.763,0.564
		c0,0-0.1,0.133-0.067,0.133c0.1,0.132,0.232,0.231,0.365,0.298c0.133,0.1,0.331,0.133,0.464,0.231
		c0.332,0.298,1.128,0.763,1.459,0.994c0.231,0.167,0.464,0.465,0.762,0.663c0.066,0.066,0.199,0.066,0.265,0.1
		c0.034,0.035-0.032,0.133-0.032,0.133c0.066,0.066,0.066,0.033,0.1,0.066c0.1,0.066,0.1,0.199,0.232,0.332
		c0.1,0.132,0.265,0.299,0.497,0.497c0.199,0.198,0.629,0.397,1.026,0.796c0.1,0.099,0.199,0.298,0.399,0.496
		c0.165,0.199,0.33,0.299,0.463,0.432c0.166,0.166,0.464,0.629,0.929,1.259c0.298,0.365,0.729,0.829,1.094,1.426
		c0.265,0.464,0.53,1.027,0.861,1.591c0,0.033-0.032,0.033-0.032,0.066c0.198,0.398,0.298,0.364,0.463,0.762
		c0.034,0.034,0,0.1,0.034,0.166c0,0.066,0.065,0.1,0.099,0.133c0.033,0.066,0,0.165,0.033,0.266c0.033,0.1,0.1,0.266,0.133,0.529
		c0.033,0.1,0,0.199,0.033,0.332s0.165,0.432,0.299,0.928c0.133,0.398,0.298,0.83,0.363,1.293c0.067,0.464,0.167,1.027,0.199,1.724
		c0,0.065,0,0.034,0,0.065C28.51,26.956,28.51,27.055,28.51,27.12z"/>
	<path d="M38.154,15.022c0.267,0.795,0.267,1.326,0.498,2.154v1.094c0.298,1.558,0.563,2.949,0.862,4.243
		c0.265,1.624,0.795,3.514,1.06,5.104c0,0.828,0.266,1.392,0.531,2.188v0.266c0,0.23,0,0.795,0.298,1.061
		c0.232,0.828,0,1.359-0.298,1.89c-0.266,0.265-0.531,0.529-0.796,0.529c-1.094,0-1.889-0.529-2.155-1.591
		c0-0.828,0-1.658-0.265-2.453c-0.53-1.061-1.093-1.293-2.187-1.293c-0.796,0-1.294,0.232-1.857,1.028v0.265
		c0,0.299,0,0.299-0.232,0.564c-0.298,0.23,0,0.795,0,1.326c0,0.298-0.298,0.562-0.298,0.795c-0.265,1.094-1.624,1.358-2.42,1.094
		c-0.265-0.265-0.53-0.531-0.53-0.795c0-0.796,0-1.625,0.266-2.42c0-0.564,0.265-1.062,0.265-1.857
		c0.267-0.629,0.267-1.392,0.531-2.187c0.265-1.028,0-2.718,0.53-3.745c0.265-0.796,0.563-1.857,0.563-2.686v-0.563
		c0.265-1.061,0.53-2.354,0.795-3.448c0-0.297,0-0.795,0.298-1.093v-0.796c0-0.53,0-1.359,0.232-1.889
		c0.1,0,0.199-0.033,0.232-0.133c0.033-0.033,0.033-0.1,0.033-0.133c-0.266-0.795,0.298-1.591,1.095-1.855
		c0.265-0.299,0.497-0.299,0.497,0c0.629,0,0.861,0,1.094,0.265c0.298,0,0.298,0.232,0.562,0.53c0,0.795,0.232,1.326,0.232,2.121
		c0,0.231,0,0.828,0.298,1.094c0.265,0.266,0.265,0.531,0.265,1.094V15.022z M36.564,20.657c-0.266-0.829-0.597-1.889-0.597-2.685
		h-0.265h-0.232v1.855c-0.265,1.161-0.563,2.454-0.796,3.779c0,0.53,0,0.796,0.531,1.094c0.265,0.563,0.728,0.563,1.093,0.265
		c0.498-0.265,0.796-0.562,0.796-1.094c-0.298-0.53-0.298-1.061-0.298-1.358c-0.232-0.497-0.232-1.027-0.232-1.558V20.657z"/>
	<path d="M53.004,17.243c-0.265,0.762,0,1.889-0.497,2.387c-0.265,0.298-0.265,0.564-0.562,0.564c-0.497,0.463-0.497,0.827,0,1.06
		c0.298,0.53,0.464,0.563,0.562,0.994c0.134,0.431,0.232,0.597,0.232,0.895c0.265,0.53,0.563,1.326,0.265,2.155
		c0,0.53,0.299,1.293,0,1.822c0,0.563,0.299,1.094-0.265,1.625v0.299c0.265,0.529,0,1.325-0.232,1.855
		c-0.795,1.359-1.656,1.89-2.95,2.42c-0.562,0.266-0.827,0-1.358,0c-1.093,0.266-1.856,0.266-2.95,0.266
		c-0.53,0-1.06-0.266-1.326-0.796v-0.53c0-0.531-0.265-1.094,0-1.625v-0.265c-0.265-1.093,0-2.388-0.265-3.481
		c0.265-0.795,0-1.889,0-2.65v-0.564c0.265-0.53,0.265-1.094,0.265-1.59v-0.564V20.69v-3.745c0-1.062,0-2.155-0.265-2.917v-1.359
		c0.265-0.232,0.265-0.762,0.265-1.326v-1.061c0.267-0.298,0.531-0.53,0.796-0.53c0.797,0,1.624-0.298,2.155-0.298
		c0.232,0,0.298,0.066,1.192,0.066c0.896,0,1.193-0.066,1.491,0.231c0.531,0.232,1.062,0.53,1.294,0.763
		c0.298,0.298,0.298,0.298,0.563,0.298c0.53,0.53,1.093,1.095,1.325,1.856c0.265,1.094,0.563,1.889,0.563,2.984
		C53.303,16.183,53.303,16.679,53.004,17.243z M48.198,19.397c0.531,0,1.358,0,1.625-0.563c0.265-0.497,0.53-1.325,0.53-1.889
		c0-0.763,0-1.261-0.266-2.155c0-1.027-0.265-1.59-1.358-1.856c-1.062-0.497-1.856,0.267-1.856,1.359
		c-0.266,0.497-0.266,1.06-0.266,1.591v2.652c0.266,0.298,0.266,0.298,0.266,0.562c0.232,0.299,0.53,0.299,1.094,0.299H48.198z
		 M50.354,25.828c0-0.298-0.266-0.53,0-0.829c0-0.53-0.266-1.061-0.266-1.326c-0.265-0.53-0.829-1.094-1.358-1.094
		c-0.531-0.232-1.062-0.232-1.624,0.266c-0.232,0-0.232,0.298-0.232,0.53c0,0.563-0.266,1.36,0,1.923v0.232
		c-0.266,0.828-0.266,1.557-0.266,2.451v0.531c0,0.764,0.266,1.326,1.061,1.591c0.829,0,1.326-0.265,1.889-0.265
		c0.101,0,0.2-0.033,0.232-0.133c0.034-0.033,0.034-0.1,0.034-0.133c0.265-0.529,0.53-1.359,0.53-2.154V25.828z"/>
	<path d="M56.088,29.739v-1.856V25.96v-2.982v-2.95v-2.153v-4.078v-1.359c0.23-0.264,0-0.795,0-1.326c0-0.298,0-0.828,0.23-1.094
		c0.631-0.298,0.829-0.529,1.128-0.529h2.95c1.358,0,2.453,0.231,3.547,1.061c0.762,0.562,1.325,1.094,1.59,2.154
		c0.266,0.563,0.266,1.393,0.563,2.188v1.062c-0.298,0.298-0.298,0.298-0.298,0.529c0.298,0.298,0.298,0.563,0,0.829v0.564v0.23
		c-0.266,0.829-0.53,1.923-0.796,3.016h-0.298c-0.529,0.232-0.529,0.764-0.762,1.326c-0.299,0-0.299,0.268,0,0.531
		c0.232,1.359,0.53,2.752,1.06,4.077c0,0.828,0.266,1.624,0.53,2.685c0.266,0.829,0.563,1.624,0.796,2.453
		c0.298,0.531-0.232,1.094-0.796,1.326c-0.828,0-1.889-0.232-2.154-1.326c-0.265-0.299-0.265-0.829-0.265-1.061
		c0-0.299,0-0.563-0.265-0.563c-0.299,0-0.299-0.267-0.299-0.53c0-0.531-0.232-1.094-0.232-1.359
		c-0.298-0.796-0.298-1.359-0.563-1.89c-0.265-0.298-0.265-0.53-0.265-0.829c0-0.828-0.266-1.623-0.796-2.154
		c0-0.365-0.265-0.529-0.829-0.529c-0.562,0-0.562,0.198-0.795,0.828c0,0.531-0.299,0.795,0,1.326c0,0.529-0.299,0.828-0.299,1.061
		c0,1.094,0.299,1.922,0.299,3.016v0.795c-0.299,0.267-0.299,0.83,0,1.359v0.531c-0.299,1.094-0.829,1.624-2.155,1.094
		c-0.298,0-0.827-0.562-0.827-1.094V29.739z M63.114,16.249c0-0.53-0.265-1.359-0.265-1.922c-0.266-1.592-1.923-1.891-2.984-1.359
		h-0.265c-0.298,0.529-0.829,0.828-0.53,1.359v0.795c0,0.299-0.299,0.597,0,0.597c0.232,1.06,0,1.855,0,2.685v0.795
		c0.232,0.531,0.53,0.531,0.795,0.829c0.531,0.266,1.359,0.266,2.155-0.298c0.53-0.232,0.829-0.796,1.094-1.326V16.249z"/>
	<path d="M69.279,28.281v-2.155v-1.59v-1.359v-0.531c0.265-0.264,0.265-0.264,0-0.529v-1.891c0-0.562,0.265-1.094,0-1.59v-2.982
		c-0.266-1.062,0-2.156,0-3.184v-1.094c-0.266-0.795,0-1.094,0.529-1.359c0.133-0.131,0.299-0.199,0.397-0.23
		c0.067-0.034,0.134-0.034,0.167-0.034c0.265-0.265,0.53-0.265,0.795,0c0.034,0,0.1,0,0.166,0.034
		c0.133,0.031,0.266,0.131,0.365,0.23c0.298,0.266,0.529,0.564,0.529,1.094c-0.231,0.531,0,1.359,0,1.857
		c0,0.529-0.1,1.26-0.231,1.889c0.231,0.266,0.231,0.797,0.231,1.061c0,0.563,0.266,1.094-0.231,1.625v0.265
		c0.231,0.298,0.231,0.829,0.231,1.062c-0.231,0.795,0,1.357,0,1.889c0,0.53,0,0.795-0.231,1.359c0,0.795,0,1.324,0.231,2.154
		c0,0.496,0,1.027-0.231,1.59c0,0.266,0,0.797,0.231,1.326v1.891c-0.231,0.298-0.231,0.562,0,1.094v2.121
		c-0.231,0.53-0.231,0.828-0.795,1.094c-0.53,0-1.061,0.562-1.625,0c-0.265-0.266-0.265-0.563-0.529-0.829
		c-0.266-0.796,0-1.624,0-2.651V28.281z"/>
	<path d="M75.146,31.695c0.232-1.89,0-3.779,0-5.9V23.64v-1.889v-2.154c0-0.266,0.232-0.53,0-0.796v-0.828
		c0-0.796-0.299-1.89,0-2.95c0.099,0,0.133-0.033,0.099-0.1l-0.099-0.133v-1.658c-0.299-0.762,0-1.59,0-2.418
		c0-0.033,0-0.066,0.033-0.101c0.033-0.099,0.1-0.132,0.199-0.132c0-0.033,0-0.1,0.033-0.166c0.032-0.132,0.132-0.266,0.265-0.364
		c0-0.034,0-0.1,0.033-0.134c0.033-0.099,0.1-0.164,0.199-0.164c0.529-0.266,1.923,0.065,2.188,0.828v0.232
		c0.53,0.297,0.53,1.027,0.53,1.656c0.165,0.199,0.232,0.365,0.232,0.531c0.298,0.762,0.43,1.457,1.06,3.05
		c0.631,1.558,0.829,2.585,1.128,3.911c0.232,0.828,0.795,1.889,0.795,2.684c0.265,0.299,0.265,0.299,0.531,0.299v-0.299v-2.949
		v-2.686v-2.949v-3.248c0-0.266,0.795-0.995,1.093-1.293c0.796,0,1.326,0.232,1.591,1.061c0.267,0.232,0.267,0.762,0.267,1.061v1.59
		v0.83c-0.267,0.53,0,0.828,0,1.359v1.855v2.154v0.829v1.326v1.06h-0.267c0.267,0.829,0,1.359,0.267,2.189v0.23v1.625v2.686v0.297
		c-0.267,0.53,0,1.061,0,1.592v1.06c0,0.53-0.531,1.062-1.062,1.062c-0.265,0-0.796,0.299-1.094,0
		c-0.53-0.232-1.062-0.762-1.062-1.293c0-0.298-0.265-0.828-0.265-1.061l-0.265-0.299c0.265-0.53-0.298-1.061-0.298-1.59
		c-0.499-0.796-0.764-1.691-0.764-2.719V26.06c-0.562-0.529-0.562-1.094-0.828-1.889v-0.266c-0.299-0.53-0.53-1.061-0.53-1.623
		l-0.828-2.122h-0.232v0.796c0,0.795,0.232,1.59,0,2.419v1.062v1.623c-0.299,0.797,0,1.624,0,2.421v2.452v0.531
		c0.232,0.761-0.299,1.59-0.829,1.822c0,0.133-0.065,0.232-0.165,0.265c-0.034,0.034-0.1,0.034-0.133,0.034
		c-0.232-0.034-0.464-0.1-0.663-0.166c-0.365-0.1-0.63-0.232-0.63-0.365c-0.298-0.299-0.53-0.529-0.53-1.061V31.695z"/>
	<path d="M95.264,15.022c0.267,0.795,0.267,1.326,0.497,2.154v1.094c0.299,1.558,0.564,2.949,0.862,4.243
		c0.266,1.624,0.796,3.514,1.061,5.104c0,0.828,0.266,1.392,0.53,2.188v0.266c0,0.23,0,0.795,0.299,1.061
		c0.232,0.828,0,1.359-0.299,1.89c-0.265,0.265-0.53,0.529-0.795,0.529c-1.094,0-1.889-0.529-2.155-1.591
		c0-0.828,0-1.658-0.265-2.453c-0.53-1.061-1.094-1.293-2.187-1.293c-0.796,0-1.294,0.232-1.857,1.028v0.265
		c0,0.299,0,0.299-0.232,0.564c-0.298,0.23,0,0.795,0,1.326c0,0.298-0.298,0.562-0.298,0.795c-0.265,1.094-1.624,1.358-2.42,1.094
		c-0.265-0.265-0.53-0.531-0.53-0.795c0-0.796,0-1.625,0.266-2.42c0-0.564,0.265-1.062,0.265-1.857
		c0.267-0.629,0.267-1.392,0.531-2.187c0.265-1.028,0-2.718,0.53-3.745c0.265-0.796,0.562-1.857,0.562-2.686v-0.563
		c0.266-1.061,0.531-2.354,0.796-3.448c0-0.297,0-0.795,0.298-1.093v-0.796c0-0.53,0-1.359,0.232-1.889
		c0.1,0,0.199-0.033,0.232-0.133c0.032-0.033,0.032-0.1,0.032-0.133c-0.265-0.795,0.299-1.591,1.095-1.855
		c0.266-0.299,0.498-0.299,0.498,0c0.629,0,0.861,0,1.093,0.265c0.299,0,0.299,0.232,0.563,0.53c0,0.795,0.232,1.326,0.232,2.121
		c0,0.231,0,0.828,0.298,1.094c0.265,0.266,0.265,0.531,0.265,1.094V15.022z M93.674,20.657c-0.266-0.829-0.597-1.889-0.597-2.685
		h-0.265H92.58v1.855c-0.266,1.161-0.563,2.454-0.796,3.779c0,0.53,0,0.796,0.53,1.094c0.266,0.563,0.729,0.563,1.094,0.265
		c0.497-0.265,0.796-0.562,0.796-1.094c-0.299-0.53-0.299-1.061-0.299-1.358c-0.231-0.497-0.231-1.027-0.231-1.558V20.657z"/>
	<path d="M153.271,42.533c0,0.564-0.232,1.095-0.365,1.724c-0.165,0.531-0.332,1.062-0.563,1.525
		c-0.198,0.53-0.431,1.027-0.763,1.49c-0.298,0.432-0.662,0.764-0.994,1.096c-0.364,0.397-0.729,0.729-1.127,0.994
		c-0.199,0.133-0.331,0.397-0.53,0.53c-0.232,0.1-0.498,0.165-0.729,0.265c-0.299,0.1-0.564,0.199-0.896,0.299
		c-0.331,0.065-0.663,0.232-1.027,0.332c-0.729,0.131-1.559,0.031-2.487-0.034c-0.397,0-0.795,0-1.225-0.099
		c-0.398-0.1-0.764-0.299-1.161-0.432c-0.298-0.1-0.662-0.132-0.961-0.299c-0.298-0.131-0.563-0.33-0.862-0.463
		c-0.198-0.1-0.232-0.067-0.397-0.133c-0.033-0.034-0.033-0.066-0.033-0.066c-0.132-0.1-0.066-0.199-0.231-0.266
		c-0.332-0.199-0.763-0.299-1.062-0.498c-0.332-0.23-0.63-0.496-0.895-0.795c-0.364-0.298-0.63-0.662-0.929-0.994
		c-0.298-0.332-0.63-0.662-0.928-1.027c-0.132-0.166-0.299-0.299-0.464-0.497c-0.133-0.199-0.332-0.432-0.53-0.696
		c-0.199-0.299-0.398-0.662-0.663-1.094c-0.266-0.432-0.663-0.862-1.027-1.491c-0.298-0.53-0.133-0.597-0.432-1.161
		c-0.032-0.065-0.165,0-0.198-0.065c-0.265-0.431-0.364-0.962-0.597-1.392c-0.232-0.465-0.53-0.863-0.729-1.294
		c-0.265-0.497-0.563-0.96-0.795-1.458c-0.199-0.496-0.231-1.027-0.432-1.459c-0.066-0.198-0.331-0.264-0.397-0.431
		c-0.1-0.132-0.066-0.364-0.132-0.53c-0.299-0.629-0.664-1.227-0.929-1.89c-0.065-0.198,0-0.231-0.065-0.43
		c-0.067-0.1-0.133-0.199-0.199-0.331c-0.067-0.166-0.199-0.531-0.398-1.062c-0.066-0.1-0.1-0.165-0.1-0.23
		c-0.032-0.067-0.1-0.167-0.165-0.365c0-0.033-0.034-0.199-0.166-0.398c-0.099-0.199-0.397-0.33-0.563-0.596
		c-0.132-0.232-0.299-0.498-0.563-0.697c-0.265-0.198-0.564-0.264-0.895-0.297c-0.232-0.034-0.365-0.232-0.53-0.299
		c-0.166-0.066-0.398,0-0.563-0.133c-0.266-0.299-0.298-0.662-0.298-1.127c-0.034-0.166-0.134-0.398-0.034-0.598
		c0.066-0.197,0.232-0.33,0.364-0.463c0.133-0.133,0.332-0.133,0.531-0.232c0.198-0.1,0.363-0.299,0.562-0.265
		c0.53,0.034,0.995,0.065,1.426,0c0.63-0.065,1.293-0.265,2.021-0.563c0.299-0.133,0.664-0.199,0.962-0.365
		c0.265-0.133,0.563-0.363,0.861-0.562c0.663-0.531,1.227-1.16,1.691-1.758c0.265-0.363,0.397-0.795,0.597-1.159
		c0.23-0.397,0.562-0.696,0.729-1.095c0.198-0.497,0.331-0.994,0.464-1.525c0.134-0.463,0.166-0.994,0.232-1.523
		c0.066-0.53,0.166-1.061,0.166-1.559c0-0.53-0.1-1.06-0.134-1.59c-0.099-0.465-0.032-0.994-0.165-1.492s-0.332-0.961-0.53-1.425
		c-0.232-0.465-0.432-0.962-0.696-1.394c-0.232-0.43-0.63-0.795-0.962-1.225c-0.33-0.398-0.662-0.797-1.026-1.127
		c-0.365-0.365-0.663-0.796-1.095-1.128c-0.364-0.298-0.762-0.497-1.126-0.696c-0.133-0.066-0.298-0.166-0.397-0.331
		c-0.167-0.1-0.365-0.165-0.531-0.232c-0.166-0.1-0.298-0.298-0.465-0.397c-0.363-0.166-0.728-0.231-1.06-0.299
		c-0.364-0.1-0.729-0.23-1.094-0.298c-0.929-0.1-1.89-0.1-2.751,0.033c-0.531,0.065-0.994,0.298-1.492,0.431
		c-0.497,0.133-0.961,0.232-1.425,0.465c-0.465,0.198-0.929,0.363-1.326,0.596c-0.431,0.232-0.829,0.531-1.193,0.829
		c-0.663,0.497-1.192,1.128-1.757,1.79c-0.199,0.332-0.497,0.596-0.696,0.895c-0.165,0.299-0.331,0.664-0.463,1.027
		c-0.299,0.696-0.497,1.393-0.597,2.056c0,0.1,0.065,0.198,0.065,0.265c-0.165,0.465-0.198,0.994-0.165,1.393
		c0,0.331,0,0.729,0.032,1.16c0.133,0.795,0.465,1.525,0.729,2.254c0.1,0.266,0.165,0.529,0.299,0.762
		c0.133,0.266,0.363,0.464,0.53,0.696c0.165,0.167,0.298,0.397,0.464,0.597s0.331,0.365,0.497,0.531
		c0.331,0.264,0.729,0.363,1.061,0.164c0.332-0.198,0.397-0.496,0.397-0.827c0.034-0.399,0.199-0.729,0.199-1.062
		s-0.065-0.562-0.065-0.695c0-0.1-0.034-0.299,0-0.563c0-0.266-0.1-0.399-0.1-0.464c0.165-0.232,0.198-0.697,0.198-0.861
		c0-0.134,0.033-0.332,0.066-0.664c0.066-0.299,0.033-0.531,0.066-0.696c0-0.165,0-0.298,0.033-0.397
		c0.1-0.299,0.265-0.265,0.332-0.597c0.032-0.198,0.065-0.431,0.099-0.63c0.066-0.199,0.1-0.398,0.231-0.597
		c0.332-0.662,0.829-1.325,1.559-1.823c0.364-0.265,0.431-0.199,0.795-0.463c0.066-0.067,0.199-0.067,0.398-0.167
		c0.198-0.065,0.365-0.198,0.563-0.265c0.199-0.066,0.397-0.133,0.563-0.199c0.332-0.133,0.597-0.165,0.695-0.165
		c0.066,0,0.133,0,0.232,0c0.166,0,0.265,0,0.299,0.032c0.695,0.1,1.326,0.398,1.922,0.764c0.563,0.397,0.994,0.828,1.26,1.392
		c0.198,0.298,0.497,0.597,0.663,1.027c0.231,0.464,0.431,0.929,0.563,1.392c0.133,0.464,0.166,0.961,0.198,1.459
		c0.034,0.498-0.032,0.961-0.065,1.459c-0.066,0.496-0.066,0.994-0.199,1.49c-0.133,0.465-0.397,0.895-0.597,1.326
		c-0.198,0.465-0.331,0.929-0.563,1.326c-0.166,0.265-0.331,0.465-0.464,0.695c-0.165,0.199-0.298,0.432-0.464,0.631
		c-0.2,0.199-0.431,0.363-0.63,0.53c-0.199,0.199-0.397,0.431-0.63,0.597c-0.364,0.299-0.796,0.562-1.227,0.762
		c-0.464,0.232-0.961,0.299-1.426,0.398c-0.132,0.066-0.265,0.099-0.43,0.166c-0.2,0.1-0.266,0.299-0.432,0.463
		c-0.166,0.1-0.332,0.232-0.431,0.398c-0.1,0.166-0.232,0.332-0.232,0.497c0,0.099,0.066,0.198,0.033,0.331
		c0,0.133,0.065,0.266,0.065,0.398c0,0.265-0.065,0.265-0.065,0.53c0,0.53,0.033,1.259,0.033,2.253c0,0.498,0.032,1.028,0.032,1.559
		c0,0.497-0.131,1.027-0.131,1.559c0,0.529,0.099,1.061,0.099,1.557c0,0.531-0.099,1.028-0.099,1.525
		c-0.034,0.928,0.065,1.658,0.032,2.121c0,0.166-0.1,0.299-0.1,0.432s0.033,0.265,0,0.332c-0.165,0.562-0.43,0.827-0.729,0.927
		c-0.3,0.133-0.63,0.298-1.062,0.298c-0.232,0-0.497-0.1-0.596-0.298c-0.133-0.198-0.133-0.464-0.232-0.597
		c-0.1-0.1-0.166-0.23-0.199-0.463c-0.032-0.299-0.132-0.531-0.1-0.631c0.033-0.1,0.1-0.332,0.1-0.63
		c0-0.032,0.033-0.231,0.033-0.597c0-0.33-0.1-0.729-0.1-1.293c0-0.529,0.166-1.158,0.166-1.822c0.033-0.662-0.1-1.326-0.1-1.988
		c0-0.664,0.1-1.326,0.1-1.923c0-0.63,0-1.161,0-1.624c0-0.597,0.066-1.426,0.066-2.056c0-0.165-0.198-0.165-0.198-0.298
		c0-0.166-0.034-0.332-0.133-0.498c-0.1-0.198-0.133-0.463-0.267-0.629c-0.165-0.199-0.363-0.33-0.497-0.465
		c-0.165-0.133-0.33-0.164-0.43-0.232c-0.63-0.264-1.194-0.762-1.757-1.227c-0.597-0.463-1.127-0.926-1.591-1.523
		c-0.332-0.398-0.63-0.828-0.896-1.293c-0.133-0.231-0.198-0.497-0.298-0.729c-0.1-0.265-0.298-0.464-0.397-0.696
		c-0.3-0.762-0.531-1.525-0.598-2.287c-0.132-0.762-0.032-1.524-0.032-2.187c0-0.729-0.067-1.459,0.065-2.255
		c0.1-0.53,0.232-1.061,0.397-1.59c0.167-0.498,0.366-1.028,0.63-1.492c0.232-0.498,0.531-0.961,0.861-1.393
		c0.299-0.464,0.697-0.829,1.096-1.193c0.33-0.432,0.662-0.861,1.06-1.193c0.397-0.363,0.929-0.563,1.326-0.861
		c0.464-0.299,0.861-0.629,1.326-0.861c0.497-0.266,1.027-0.332,1.524-0.498c0.464-0.198,0.861-0.53,1.326-0.663
		c0.464-0.1,0.961-0.065,1.426-0.132c0.529-0.1,1.06-0.133,1.59-0.166c0.498-0.033,1.028-0.133,1.558-0.1
		c0.53,0.066,1.062,0.133,1.559,0.232s0.994,0.232,1.491,0.397c0.497,0.167,1.027,0.266,1.491,0.53
		c0.465,0.232,0.896,0.531,1.326,0.829c0.166,0.132,0.166,0.132,0.365,0.265c0.563,0.398,1.06,0.962,1.558,1.426
		c0.53,0.463,1.061,0.928,1.524,1.459c0.432,0.562,0.929,1.061,1.326,1.656c0.265,0.465,0.497,0.928,0.729,1.426
		c0.231,0.463,0.332,0.994,0.497,1.524c0.198,0.497,0.298,1.028,0.431,1.559c0.1,0.529,0.331,1.06,0.398,1.591
		c0.065,0.497,0.099,1.027,0.099,1.557c0,0.531-0.133,1.062-0.198,1.592c-0.067,0.598-0.033,1.227-0.167,1.79
		c-0.132,0.597-0.265,1.193-0.463,1.757c-0.166,0.529-0.432,1.027-0.696,1.523c-0.232,0.531-0.53,0.996-0.829,1.459
		c-0.364,0.531-0.795,0.995-1.227,1.426c-0.397,0.464-0.829,0.895-1.326,1.293c-0.53,0.432-1.093,0.828-1.689,1.193
		c-0.364,0.232-0.696,0.53-0.796,0.994c-0.1,0.465,0.133,0.961,0.397,1.492c0.034,0.066-0.099,0.23-0.065,0.33
		c0.032,0.1,0.165,0.232,0.265,0.432s0.199,0.463,0.364,0.795c0.133,0.332,0.266,0.796,0.53,1.326
		c0.166,0.432,0.332,0.895,0.531,1.359c0.198,0.431,0.431,0.861,0.63,1.325c0.199,0.399,0.463,0.829,0.662,1.261
		c0.066,0.264,0.994,2.154,1.193,2.453c0.199,0.363,0.365,0.729,0.53,1.127c0.034,0.065,0.133,0.165,0.199,0.264
		c0.065,0.134,0.1,0.266,0.165,0.398c0.133,0.299,0.432,0.497,0.597,0.762c0.166,0.266,0.398,0.498,0.598,0.764
		c0.065,0.133,0.065,0.264,0.165,0.363c0.066,0.1,0.034,0.266,0.1,0.365c0.364,0.597,0.795,1.027,1.193,1.492
		c0.165,0.198,0.165,0.198,0.332,0.363c0.065,0.067,0.165,0.133,0.265,0.232c0.099,0.133,0.298,0.398,0.597,0.796
		c0.133,0.133,0.133,0.099,0.266,0.231c0.198,0.1,0.596,0.563,0.695,0.631c0.166,0.132,0.299,0.032,0.464,0.166
		c0.1,0.064,0.266,0.264,0.63,0.463c0.332,0.199,0.895,0.397,1.658,0.664c0.364,0.065,0.629,0.164,0.827,0.232
		c0.299,0.1,0.299,0.1,0.597,0.164c0.067,0.066,0.764,0.034,0.829-0.064c0.432,0.197,1.392-0.233,1.724-0.332
		c0.266-0.068,0.497-0.232,0.763-0.332c0.166,0.1,0.497-0.166,0.597-0.232c0.529-0.498,0.497-0.529,0.961-1.094
		c0.133-0.132,0.1-0.132,0.199-0.266c0.133-0.033,0.465-0.496,0.497-0.529c0.198-0.332,0.597-1.293,0.597-1.326
		c0-0.066,0.033-0.199,0.033-0.199c0-0.364,0-1.027-0.033-1.193c-0.1-0.332-0.1-0.363-0.231-0.662
		c-0.1-0.166-0.267-0.067-0.365-0.232c0,0,0.099-0.066,0.099-0.1c-0.23-0.299-0.43-0.63-0.363-1.061
		c0.033-0.398,0.198-0.828,0.53-1.127c0.032,0,0-0.033,0-0.033c0-0.033,0.065,0.033,0.065,0c0.066-0.033,0.133-0.033,0.166-0.033
		c0.033-0.033,0.1-0.033,0.133-0.033c0.364-0.166,0.695-0.199,1.061-0.133c0.364,0.1,0.629,0.266,0.796,0.563
		c0.199,0.198,0.298,0.497,0.464,0.729c0.165,0.265,0.431,0.463,0.53,0.762C153.138,41.341,153.236,41.937,153.271,42.533z
		 M119.925,15.486c-0.365,0.563-0.232,0.696-0.232,1.459c0,0.397,0.034,0.861,0.034,1.358c0,0.199-0.034,0.432,0.032,0.63
		c0.066,0.232,0.198,0.397,0.331,0.563c0.134,0.166,0.364,0.198,0.531,0.299c0.199,0.1,0.332,0.199,0.562,0.166
		c0.167-0.1,0.365-0.166,0.531-0.267c0.165-0.099,0.298-0.265,0.463-0.397c0.332-0.265,0.796-0.497,1.096-0.895
		c0.165-0.23,0.298-0.529,0.43-0.762c0.133-0.232,0.365-0.465,0.497-0.73c0.1-0.298,0.1-0.629,0.166-0.895
		c0.066-0.298,0.166-0.564,0.199-0.895c0.065-0.465,0-0.928-0.033-1.459c-0.066-0.364-0.134-0.695-0.265-0.994
		c-0.167-0.265-0.365-0.795-0.597-1.027c-0.034-0.066-0.034-0.133-0.034-0.199c-0.397-0.464-0.862-0.662-1.227-0.662
		c-0.133,0-0.232,0.065-0.331,0.131c-0.497,0.332-0.896,0.697-1.193,1.028c-0.497,0.266-0.762,1.592-0.762,1.558
		c-0.034,0.166-0.167,0.266-0.167,0.432c0,0.066,0.067,0.166,0.067,0.299c0,0.1,0.032,0.265,0,0.43
		C120.024,14.923,119.991,15.222,119.925,15.486z"/>
	<path d="M140.409,30.833c0.563,0,0.231-0.033,0.762-0.033c0.365,0,0.796,0.166,0.796,0.664c0,0.761,0.033,0.231,0.033,1.027
		c0,0.432-0.133,1.06-0.497,1.094c-1.326,0.164-1.923-0.465-1.89-0.662c0.033-0.233-0.066-0.101,0.033-0.366
		c-0.033-0.63-0.132-0.133-0.132-0.796C139.515,31.298,140.077,30.833,140.409,30.833z"/>
	<path d="M197.486,42.533c0,0.564-0.232,1.095-0.365,1.724c-0.166,0.531-0.332,1.062-0.563,1.525
		c-0.198,0.53-0.431,1.027-0.763,1.49c-0.299,0.432-0.662,0.764-0.994,1.096c-0.364,0.397-0.729,0.729-1.127,0.994
		c-0.199,0.133-0.331,0.397-0.53,0.53c-0.232,0.1-0.497,0.165-0.729,0.265c-0.298,0.1-0.563,0.199-0.895,0.299
		c-0.332,0.065-0.663,0.232-1.027,0.332c-0.729,0.131-1.559,0.031-2.487-0.034c-0.397,0-0.795,0-1.226-0.099
		c-0.397-0.1-0.763-0.299-1.16-0.432c-0.299-0.1-0.662-0.132-0.961-0.299c-0.298-0.131-0.564-0.33-0.862-0.463
		c-0.198-0.1-0.232-0.067-0.397-0.133c-0.033-0.034-0.033-0.066-0.033-0.066c-0.132-0.1-0.066-0.199-0.231-0.266
		c-0.332-0.199-0.763-0.299-1.062-0.498c-0.332-0.23-0.63-0.496-0.895-0.795c-0.364-0.298-0.63-0.662-0.929-0.994
		c-0.298-0.332-0.63-0.662-0.928-1.027c-0.132-0.166-0.299-0.299-0.464-0.497c-0.133-0.199-0.332-0.432-0.531-0.696
		c-0.198-0.299-0.397-0.662-0.662-1.094c-0.266-0.432-0.663-0.862-1.027-1.491c-0.299-0.53-0.133-0.597-0.432-1.161
		c-0.032-0.065-0.165,0-0.198-0.065c-0.265-0.431-0.364-0.962-0.597-1.392c-0.232-0.465-0.531-0.863-0.729-1.294
		c-0.265-0.497-0.563-0.96-0.796-1.458c-0.198-0.496-0.23-1.027-0.431-1.459c-0.066-0.198-0.331-0.264-0.397-0.431
		c-0.1-0.132-0.066-0.364-0.132-0.53c-0.299-0.629-0.664-1.227-0.929-1.89c-0.065-0.198,0-0.231-0.065-0.43
		c-0.067-0.1-0.134-0.199-0.199-0.331c-0.067-0.166-0.199-0.531-0.399-1.062c-0.065-0.1-0.099-0.165-0.099-0.23
		c-0.032-0.067-0.1-0.167-0.165-0.365c0-0.033-0.034-0.199-0.166-0.398c-0.1-0.199-0.397-0.33-0.564-0.596
		c-0.131-0.232-0.298-0.498-0.562-0.697c-0.265-0.198-0.564-0.264-0.895-0.297c-0.232-0.034-0.365-0.232-0.531-0.299
		c-0.165-0.066-0.397,0-0.562-0.133c-0.266-0.299-0.299-0.662-0.299-1.127c-0.033-0.166-0.133-0.398-0.033-0.598
		c0.066-0.197,0.232-0.33,0.364-0.463c0.133-0.133,0.332-0.133,0.53-0.232c0.199-0.1,0.364-0.299,0.563-0.265
		c0.53,0.034,0.995,0.065,1.425,0c0.631-0.065,1.294-0.265,2.022-0.563c0.298-0.133,0.663-0.199,0.962-0.365
		c0.265-0.133,0.562-0.363,0.861-0.562c0.663-0.531,1.227-1.16,1.691-1.758c0.265-0.363,0.397-0.795,0.596-1.159
		c0.231-0.397,0.563-0.696,0.729-1.095c0.199-0.497,0.332-0.994,0.465-1.525c0.132-0.463,0.166-0.994,0.232-1.523
		c0.066-0.53,0.166-1.061,0.166-1.559c0-0.53-0.1-1.06-0.134-1.59c-0.099-0.465-0.032-0.994-0.165-1.492s-0.332-0.961-0.53-1.425
		c-0.232-0.465-0.432-0.962-0.696-1.394c-0.232-0.43-0.63-0.795-0.962-1.225c-0.331-0.398-0.662-0.797-1.026-1.127
		c-0.365-0.365-0.664-0.796-1.095-1.128c-0.364-0.298-0.762-0.497-1.126-0.696c-0.133-0.066-0.299-0.166-0.397-0.331
		c-0.167-0.1-0.366-0.165-0.531-0.232c-0.166-0.1-0.298-0.298-0.465-0.397c-0.364-0.166-0.728-0.231-1.06-0.299
		c-0.364-0.1-0.729-0.23-1.094-0.298c-0.929-0.1-1.891-0.1-2.752,0.033c-0.53,0.065-0.994,0.298-1.491,0.431
		s-0.962,0.232-1.425,0.465c-0.465,0.198-0.929,0.363-1.326,0.596c-0.432,0.232-0.829,0.531-1.193,0.829
		c-0.663,0.497-1.193,1.128-1.757,1.79c-0.199,0.332-0.497,0.596-0.696,0.895c-0.165,0.299-0.332,0.664-0.463,1.027
		c-0.299,0.696-0.498,1.393-0.597,2.056c0,0.1,0.065,0.198,0.065,0.265c-0.165,0.465-0.199,0.994-0.165,1.393
		c0,0.331,0,0.729,0.032,1.16c0.133,0.795,0.465,1.525,0.729,2.254c0.1,0.266,0.165,0.529,0.298,0.762
		c0.133,0.266,0.364,0.464,0.531,0.696c0.165,0.167,0.298,0.397,0.463,0.597c0.167,0.199,0.332,0.365,0.498,0.531
		c0.331,0.264,0.729,0.363,1.061,0.164c0.332-0.198,0.397-0.496,0.397-0.827c0.034-0.399,0.199-0.729,0.199-1.062
		s-0.065-0.562-0.065-0.695c0-0.1-0.034-0.299,0-0.563c0-0.266-0.1-0.399-0.1-0.464c0.165-0.232,0.198-0.697,0.198-0.861
		c0-0.134,0.032-0.332,0.066-0.664c0.065-0.299,0.033-0.531,0.065-0.696c0-0.165,0-0.298,0.034-0.397
		c0.099-0.299,0.265-0.265,0.331-0.597c0.033-0.198,0.066-0.431,0.1-0.63c0.066-0.199,0.1-0.398,0.231-0.597
		c0.332-0.662,0.829-1.325,1.559-1.823c0.364-0.265,0.431-0.199,0.795-0.463c0.066-0.067,0.199-0.067,0.397-0.167
		c0.199-0.065,0.365-0.198,0.564-0.265s0.397-0.133,0.563-0.199c0.331-0.133,0.597-0.165,0.695-0.165c0.066,0,0.133,0,0.232,0
		c0.165,0,0.265,0,0.299,0.032c0.695,0.1,1.325,0.398,1.922,0.764c0.563,0.397,0.994,0.828,1.259,1.392
		c0.199,0.298,0.498,0.597,0.664,1.027c0.231,0.464,0.432,0.929,0.562,1.392c0.134,0.464,0.167,0.961,0.199,1.459
		c0.033,0.498-0.032,0.961-0.065,1.459c-0.066,0.496-0.066,0.994-0.199,1.49c-0.133,0.465-0.397,0.895-0.597,1.326
		c-0.199,0.465-0.332,0.929-0.564,1.326c-0.165,0.265-0.33,0.465-0.463,0.695c-0.166,0.199-0.299,0.432-0.464,0.631
		c-0.2,0.199-0.431,0.363-0.63,0.53c-0.199,0.199-0.397,0.431-0.63,0.597c-0.364,0.299-0.796,0.562-1.227,0.762
		c-0.464,0.232-0.961,0.299-1.426,0.398c-0.132,0.066-0.265,0.099-0.431,0.166c-0.199,0.1-0.266,0.299-0.431,0.463
		c-0.166,0.1-0.332,0.232-0.431,0.398c-0.1,0.166-0.232,0.332-0.232,0.497c0,0.099,0.066,0.198,0.033,0.331
		c0,0.133,0.066,0.266,0.066,0.398c0,0.265-0.066,0.265-0.066,0.53c0,0.53,0.033,1.259,0.033,2.253c0,0.498,0.033,1.028,0.033,1.559
		c0,0.497-0.133,1.027-0.133,1.559c0,0.529,0.1,1.061,0.1,1.557c0,0.531-0.1,1.028-0.1,1.525c-0.033,0.928,0.066,1.658,0.033,2.121
		c0,0.166-0.1,0.299-0.1,0.432s0.033,0.265,0,0.332c-0.166,0.562-0.43,0.827-0.729,0.927c-0.3,0.133-0.63,0.298-1.062,0.298
		c-0.232,0-0.497-0.1-0.597-0.298c-0.133-0.198-0.133-0.464-0.232-0.597c-0.099-0.1-0.165-0.23-0.198-0.463
		c-0.032-0.299-0.132-0.531-0.1-0.631c0.033-0.1,0.1-0.332,0.1-0.63c0-0.032,0.033-0.231,0.033-0.597c0-0.33-0.1-0.729-0.1-1.293
		c0-0.529,0.166-1.158,0.166-1.822c0.033-0.662-0.1-1.326-0.1-1.988c0-0.664,0.1-1.326,0.1-1.923c0-0.63,0-1.161,0-1.624
		c0-0.597,0.066-1.426,0.066-2.056c0-0.165-0.198-0.165-0.198-0.298c0-0.166-0.034-0.332-0.133-0.498
		c-0.1-0.198-0.133-0.463-0.267-0.629c-0.165-0.199-0.364-0.33-0.497-0.465c-0.165-0.133-0.33-0.164-0.43-0.232
		c-0.63-0.264-1.194-0.762-1.758-1.227c-0.596-0.463-1.127-0.926-1.59-1.523c-0.332-0.398-0.631-0.828-0.896-1.293
		c-0.133-0.231-0.198-0.497-0.298-0.729c-0.1-0.265-0.299-0.464-0.397-0.696c-0.299-0.762-0.531-1.525-0.598-2.287
		c-0.132-0.762-0.032-1.524-0.032-2.187c0-0.729-0.067-1.459,0.065-2.255c0.1-0.53,0.232-1.061,0.397-1.59
		c0.167-0.498,0.365-1.028,0.631-1.492c0.231-0.498,0.53-0.961,0.86-1.393c0.299-0.464,0.697-0.829,1.095-1.193
		c0.331-0.432,0.663-0.861,1.061-1.193c0.397-0.363,0.929-0.563,1.326-0.861c0.463-0.299,0.861-0.629,1.326-0.861
		c0.497-0.266,1.027-0.332,1.524-0.498c0.464-0.198,0.861-0.53,1.326-0.663c0.464-0.1,0.961-0.065,1.425-0.132
		c0.53-0.1,1.061-0.133,1.591-0.166c0.497-0.033,1.028-0.133,1.558-0.1c0.53,0.066,1.062,0.133,1.559,0.232s0.994,0.232,1.491,0.397
		c0.497,0.167,1.027,0.266,1.491,0.53c0.465,0.232,0.896,0.531,1.326,0.829c0.166,0.132,0.166,0.132,0.365,0.265
		c0.562,0.398,1.06,0.962,1.557,1.426c0.531,0.463,1.062,0.928,1.525,1.459c0.432,0.562,0.928,1.061,1.326,1.656
		c0.265,0.465,0.497,0.928,0.729,1.426c0.232,0.463,0.331,0.994,0.497,1.524c0.198,0.497,0.298,1.028,0.431,1.559
		c0.1,0.529,0.331,1.06,0.397,1.591c0.066,0.497,0.1,1.027,0.1,1.557c0,0.531-0.133,1.062-0.198,1.592
		c-0.067,0.598-0.034,1.227-0.167,1.79c-0.132,0.597-0.265,1.193-0.463,1.757c-0.166,0.529-0.432,1.027-0.696,1.523
		c-0.232,0.531-0.53,0.996-0.829,1.459c-0.364,0.531-0.795,0.995-1.227,1.426c-0.397,0.464-0.829,0.895-1.326,1.293
		c-0.529,0.432-1.094,0.828-1.689,1.193c-0.364,0.232-0.696,0.53-0.796,0.994c-0.1,0.465,0.133,0.961,0.397,1.492
		c0.034,0.066-0.1,0.23-0.065,0.33c0.032,0.1,0.165,0.232,0.265,0.432s0.199,0.463,0.364,0.795c0.133,0.332,0.266,0.796,0.53,1.326
		c0.166,0.432,0.332,0.895,0.531,1.359c0.198,0.431,0.431,0.861,0.63,1.325c0.198,0.399,0.463,0.829,0.662,1.261
		c0.065,0.264,0.994,2.154,1.193,2.453c0.198,0.363,0.365,0.729,0.53,1.127c0.033,0.065,0.133,0.165,0.199,0.264
		c0.065,0.134,0.1,0.266,0.165,0.398c0.133,0.299,0.431,0.497,0.597,0.762c0.166,0.266,0.398,0.498,0.598,0.764
		c0.065,0.133,0.065,0.264,0.165,0.363c0.066,0.1,0.034,0.266,0.1,0.365c0.364,0.597,0.795,1.027,1.193,1.492
		c0.165,0.198,0.165,0.198,0.331,0.363c0.066,0.067,0.166,0.133,0.266,0.232c0.099,0.133,0.298,0.398,0.596,0.796
		c0.133,0.133,0.133,0.099,0.267,0.231c0.198,0.1,0.597,0.563,0.695,0.631c0.165,0.132,0.299,0.032,0.464,0.166
		c0.1,0.064,0.266,0.264,0.63,0.463c0.332,0.199,0.895,0.397,1.658,0.664c0.364,0.065,0.629,0.164,0.827,0.232
		c0.299,0.1,0.299,0.1,0.597,0.164c0.067,0.066,0.763,0.034,0.829-0.064c0.432,0.197,1.392-0.233,1.724-0.332
		c0.266-0.068,0.497-0.232,0.763-0.332c0.166,0.1,0.497-0.166,0.597-0.232c0.529-0.498,0.497-0.529,0.961-1.094
		c0.133-0.132,0.1-0.132,0.198-0.266c0.134-0.033,0.465-0.496,0.498-0.529c0.198-0.332,0.596-1.293,0.596-1.326
		c0-0.066,0.034-0.199,0.034-0.199c0-0.364,0-1.027-0.034-1.193c-0.1-0.332-0.1-0.363-0.23-0.662
		c-0.1-0.166-0.267-0.067-0.365-0.232c0,0,0.099-0.066,0.099-0.1c-0.23-0.299-0.43-0.63-0.364-1.061
		c0.034-0.398,0.199-0.828,0.531-1.127c0.032,0,0-0.033,0-0.033c0-0.033,0.065,0.033,0.065,0c0.066-0.033,0.133-0.033,0.165-0.033
		c0.034-0.033,0.1-0.033,0.134-0.033c0.364-0.166,0.695-0.199,1.061-0.133c0.364,0.1,0.629,0.266,0.796,0.563
		c0.199,0.198,0.298,0.497,0.464,0.729c0.165,0.265,0.431,0.463,0.53,0.762C197.354,41.341,197.452,41.937,197.486,42.533z
		 M164.141,15.486c-0.365,0.563-0.232,0.696-0.232,1.459c0,0.397,0.033,0.861,0.033,1.358c0,0.199-0.033,0.432,0.033,0.63
		c0.066,0.232,0.198,0.397,0.331,0.563c0.134,0.166,0.364,0.198,0.531,0.299c0.198,0.1,0.331,0.199,0.562,0.166
		c0.167-0.1,0.365-0.166,0.531-0.267c0.165-0.099,0.298-0.265,0.463-0.397c0.332-0.265,0.797-0.497,1.095-0.895
		c0.166-0.23,0.299-0.529,0.431-0.762c0.133-0.232,0.365-0.465,0.497-0.73c0.1-0.298,0.1-0.629,0.166-0.895
		c0.066-0.298,0.166-0.564,0.199-0.895c0.065-0.465,0-0.928-0.033-1.459c-0.066-0.364-0.134-0.695-0.266-0.994
		c-0.166-0.265-0.365-0.795-0.596-1.027c-0.034-0.066-0.034-0.133-0.034-0.199c-0.397-0.464-0.862-0.662-1.227-0.662
		c-0.133,0-0.232,0.065-0.331,0.131c-0.498,0.332-0.896,0.697-1.193,1.028c-0.497,0.266-0.762,1.592-0.762,1.558
		c-0.034,0.166-0.167,0.266-0.167,0.432c0,0.066,0.067,0.166,0.067,0.299c0,0.1,0.032,0.265,0,0.43
		C164.24,14.923,164.207,15.222,164.141,15.486z"/>
	<path d="M188.304,9.487h2.95c1.16,0,1.657,0.562,1.657,1.325c0,1.161-0.53,1.657-1.293,1.657c-1.16,0.266-1.923,0.266-2.751,0
		c-0.563,0-0.828,0.266-1.093,0.563c-0.564,0.266-0.797,0.498-0.797,1.062v4.078c0,0.826,0.797,1.623,1.592,1.623
		c0.563,0,1.126,0,1.624-0.299c0.563,0,1.061,0.563,1.425,0.563c0.099,0,0.166,0.034,0.198,0.134
		c0.034,0.031,0.034,0.099,0.034,0.131c0.266,0.564,0.53,1.359,0,1.857c-0.232,0.562-0.597,0.828-0.829,0.828h-2.452
		c-0.53,0-1.359,0.266-1.359,0.828c-0.232,0.828-0.232,1.326-0.232,2.121v1.658c0,0.53,0,1.094,0.232,1.658
		c0.265,0.762,1.359,1.125,2.188,0.762c0.796,0,1.624-0.034,2.453,0.331c0.563,0,0.829,0.232,0.829,0.729
		c0.231,0.365,0.231,0.795,0.231,1.16c0,0.496-0.53,1.061-1.061,1.061c-2.155,0.266-4.376,0.266-6.265,0.266
		c-1.061,0-1.591-0.563-1.591-1.658v-3.215v-0.829c0.265-0.497,0-1.026,0-1.923v-2.386c0.265-0.563,0-1.128,0.265-1.658
		c-0.265-0.762-0.265-1.226-0.265-2.12v-0.797v-0.264c0.265-1.36,0-2.486,0-3.547v-3.514c0.265-0.265,0.265-0.862,0.265-1.127
		c0-0.796,0.564-1.061,1.061-1.061H188.304z"/>
	<path d="M199.275,29.839c-0.033-0.696-0.133-1.193-0.298-1.492V28.05c0.298-0.498,0-1.028,0.298-1.592c0-0.53,0-1.094-0.298-1.359
		v-2.42c0-0.264,0-0.496-0.267-0.795c-0.529-1.359-0.795-2.686-1.093-4.044c0-0.298-0.231-0.563-0.231-0.862
		c-0.531-1.358-0.797-2.387-1.095-3.746v-0.298c-0.265-0.231-0.265-0.497-0.563-0.796v-1.59c-0.232-0.531,0.299-0.796,0.563-1.094
		c0.795,0,1.095,0,1.624,0.562c0.232,0,0.497,0.266,0.795,0.796c0.267,1.325,0.829,2.651,0.829,4.342
		c0.232,0.763,0.531,1.592,0.531,2.388h0.265c0,0.298,0,0.562,0.298,0.562c0.267,0,0.267-0.265,0.267-0.562
		c0.23-0.564,0.529-1.062,0.529-1.625c0-0.763,0.232-1.624,0.53-2.42c0.266-0.563,0.497-1.359,0.497-2.121
		c0.299-1.16,0.862-1.624,1.923-1.624h0.298c0.497-0.298,0.796,0,0.796,0.265c0.231,0.73,0.231,0.829,0,1.559
		c-0.299,1.16-0.53,1.922-0.796,2.718c-0.298,0.896-0.298,1.624-0.562,2.453c-0.299,0.53-0.531,1.358-0.531,1.89
		c-0.562,1.06-0.828,2.154-1.127,3.248c-0.231,1.094-0.497,2.42-0.231,3.48c0,0.895-0.266,1.657-0.266,2.221v4.242v0.828
		c-0.298,0.299-0.53,0.83-1.06,0.83c-0.829,0.264-1.36,0-1.625-1.094V31.33V29.839z"/>
	<path d="M212.566,9.487h2.951c1.16,0,1.657,0.562,1.657,1.325c0,1.161-0.53,1.657-1.294,1.657c-1.159,0.266-1.922,0.266-2.75,0
		c-0.564,0-0.829,0.266-1.094,0.563c-0.564,0.266-0.796,0.498-0.796,1.062v4.078c0,0.826,0.796,1.623,1.592,1.623
		c0.562,0,1.126,0,1.624-0.299c0.562,0,1.061,0.563,1.424,0.563c0.1,0,0.167,0.034,0.199,0.134c0.033,0.031,0.033,0.099,0.033,0.131
		c0.267,0.564,0.531,1.359,0,1.857c-0.232,0.562-0.596,0.828-0.828,0.828h-2.452c-0.531,0-1.36,0.266-1.36,0.828
		c-0.231,0.828-0.231,1.326-0.231,2.121v1.658c0,0.53,0,1.094,0.231,1.658c0.266,0.762,1.36,1.125,2.188,0.762
		c0.797,0,1.625-0.034,2.453,0.331c0.564,0,0.829,0.232,0.829,0.729c0.232,0.365,0.232,0.795,0.232,1.16
		c0,0.496-0.53,1.061-1.062,1.061c-2.154,0.266-4.375,0.266-6.265,0.266c-1.06,0-1.591-0.563-1.591-1.658v-3.215v-0.829
		c0.266-0.497,0-1.026,0-1.923v-2.386c0.266-0.563,0-1.128,0.266-1.658c-0.266-0.762-0.266-1.226-0.266-2.12v-0.797v-0.264
		c0.266-1.36,0-2.486,0-3.547v-3.514c0.266-0.265,0.266-0.862,0.266-1.127c0-0.796,0.563-1.061,1.061-1.061H212.566z"/>
	<path d="M223.207,17.077c0.266,0.53,0.564,0.828,0.829,1.326c0.232,0.298,0.53,0.828,0.795,1.127
		c0.829,0.497,1.062,1.061,1.625,1.889c0.562,0.299,0.828,0.797,1.359,1.095c0.562,1.061,0.827,1.89,1.094,2.95
		c0.562,1.424,0.298,2.75,0.298,3.812c0,1.425-0.564,2.484-1.392,3.313c-0.531,0.497-1.359,0.497-1.923,0.796h-0.797
		c-0.265,0.265-0.529,0.265-0.827,0h-0.497h-0.564c-0.265-0.299-0.265-0.299-0.562-0.299h-0.497
		c-0.829-0.497-1.394-1.127-1.691-1.889c-0.231-0.531-0.796-1.095-0.497-1.922c-0.299-0.267-0.299-0.498-0.299-0.796
		c0-0.267-0.265-0.829,0-1.095c0.299,0,0.299,0,0.299-0.231c0-0.563,0.497-0.563,0.795-0.829c0.531,0,1.095,0,1.394,0.266
		c0.099,0.099,0.165,0.231,0.198,0.396c0.032,0.067,0.032,0.133,0.032,0.167c0,0.796,0.564,1.624,0.564,2.419v0.266
		c0.53,0.265,1.094,0.828,1.624,0.562h0.529l0.797-0.828c0.299-0.297,0.563-0.563,0.563-1.359c-0.265-1.357-0.563-2.75-1.36-3.811
		c-0.529-0.764-1.357-1.062-1.623-1.89c-0.53,0-0.828-0.563-0.828-0.796c-0.497-0.299-0.497-0.563-0.796-1.127
		c-0.829-0.563-1.095-1.359-1.624-2.188c-0.266-0.498-0.266-1.326-0.266-1.889c0-0.531,0-1.094-0.299-1.924v-0.264
		c0.299-0.531,0.299-1.359,0.564-1.857c0-0.828,0.529-1.392,1.061-1.955c0.895-0.796,1.922-1.061,2.983-1.061h0.827
		c0,0.265,0,0.265,0.3,0.265c0.796-0.265,1.623,0,2.188,0.563c0.795,0.796,1.326,1.625,1.326,2.686
		c0.298,0.298,0.298,0.828,0.298,1.127v0.795c0,0.265-0.298,0.531-0.564,0.829c-0.562,0.265-1.06,0-1.624,0
		c-0.132,0-0.231-0.034-0.265-0.134c-0.033-0.031-0.033-0.099-0.033-0.164c-0.265-0.531-0.529-0.83-0.265-1.326v-0.299
		c-0.265-0.265-0.563-0.828-1.061-1.094c0-0.066-0.067-0.133-0.166-0.199c-0.034-0.033-0.1-0.033-0.134-0.033
		c-0.529,0-0.827,0-0.827-0.562c-0.034,0-0.067,0-0.1,0.032c-0.033,0.034,0,0.133,0.1,0.233c0,0.297,0,0.297-0.232,0.529
		c-1.094,0.563-1.392,1.393-1.094,2.188v0.265c0,0.1-0.067,0.198-0.167,0.232c-0.032,0.034-0.099,0.034-0.131,0.034
		C222.645,15.983,222.942,16.515,223.207,17.077z"/>
</g>
</svg>
