<?xml version="1.0" encoding="utf-8"?>
<!-- Generator: Adobe Illustrator 16.0.0, SVG Export Plug-In . SVG Version: 6.00 Build 0)  -->
<!DOCTYPE svg PUBLIC "-//W3C//DTD SVG 1.1//EN" "http://www.w3.org/Graphics/SVG/1.1/DTD/svg11.dtd">
<svg version="1.1" id="Layer_1" xmlns="http://www.w3.org/2000/svg" xmlns:xlink="http://www.w3.org/1999/xlink" x="0px" y="0px"
	 width="31.309px" height="31.338px" viewBox="0 0 31.309 31.338" enable-background="new 0 0 31.309 31.338" xml:space="preserve">
<path fill="#CACACA" d="M7.901,23.377c-0.933,0.934,0,2.527,1.293,2.137l1.503-0.482c0.451-0.149,0.934-0.029,1.295,0.332
	l5.595,5.595c0.661,0.661,1.745,0.421,2.105-0.421L31.213,1.749c0.422-1.021-0.631-2.074-1.654-1.653L0.801,11.586
	c-0.842,0.36-1.082,1.443-0.421,2.105l5.445,5.443c0.421,0.422,1.083,0.482,1.595,0.152l2.978-1.896
	c1.294-0.811,2.678,0.873,1.595,1.956l-2.949,2.948l-1.112,1.113L7.901,23.377z"/>
</svg>
