<?xml version="1.0" encoding="utf-8"?>
<!-- Generator: Adobe Illustrator 16.0.0, SVG Export Plug-In . SVG Version: 6.00 Build 0)  -->
<!DOCTYPE svg PUBLIC "-//W3C//DTD SVG 1.1//EN" "http://www.w3.org/Graphics/SVG/1.1/DTD/svg11.dtd">
<svg version="1.1" id="Layer_1" xmlns="http://www.w3.org/2000/svg" xmlns:xlink="http://www.w3.org/1999/xlink" x="0px" y="0px"
	 width="45.081px" height="75.208px" viewBox="0 0 45.081 75.208" enable-background="new 0 0 45.081 75.208" xml:space="preserve">
<g>
	<path fill="#FFFFFF" d="M42.086,34.605h-8.34c-1.652,0-2.993,1.347-2.993,3c0,1.652,1.341,3,2.993,3h8.34
		c1.653,0,2.994-1.348,2.994-3C45.081,35.952,43.74,34.605,42.086,34.605z"/>
	<path fill="#FFFFFF" d="M42.086,22.605h-8.34c-1.652,0-2.993,1.348-2.993,3c0,1.654,1.341,3,2.993,3h8.34
		c1.653,0,2.994-1.346,2.994-3C45.081,23.953,43.74,22.605,42.086,22.605z"/>
	<path fill="#FFFFFF" d="M33.747,16.605h8.34c1.653,0,2.994-1.348,2.994-3c0-1.654-1.341-3-2.994-3h-8.34
		c-1.652,0-2.993,1.346-2.993,3C30.753,15.258,32.094,16.605,33.747,16.605z"/>
	<path fill="#FFFFFF" d="M24.232,47.401V8.964c0-0.01,0-0.018,0-0.025c0-4.932-4.062-8.938-9-8.938c-4.945,0-9,4.019-9,8.964v38.515
		C2.232,50.347,0,54.947,0,59.871c0,8.457,6.918,15.337,15.375,15.337c8.457,0,15.301-6.88,15.301-15.337
		C30.675,54.89,28.232,50.261,24.232,47.401z M15.411,69.222c-5.155,0-9.35-4.194-9.35-9.351c0-3.372,1.764-6.497,4.711-8.154
		l1.459-0.858V8.98c0-1.649,1.349-2.993,3-2.993s3,1.344,3,2.993v41.837l1.612,0.854c2.995,1.646,4.886,4.788,4.886,8.2
		C24.73,65.027,20.566,69.222,15.411,69.222z"/>
</g>
</svg>
